<svg width="128" height="96" viewBox="0 0 128 96" fill="none" xmlns="http://www.w3.org/2000/svg">
<g style="mix-blend-mode:multiply">
<path d="M58.2597 96C84.7409 96 106.208 91.4072 106.208 85.7416C106.208 80.0761 84.7409 75.4833 58.2597 75.4833C31.7785 75.4833 10.3112 80.0761 10.3112 85.7416C10.3112 91.4072 31.7785 96 58.2597 96Z" fill="#E1EEFA"/>
</g>
<path d="M9.3812 4.01087C21.5605 9.62421 16.2672 32.2472 21.5004 25.6419C28.9142 16.2848 34.5458 24.2088 32.4885 35.2784C30.4305 46.348 28.8534 55.4124 40.133 52.3055C51.4134 49.1985 42.5801 68.1795 40.0301 72.3258C37.5152 76.4145 30.432 81.9378 21.9721 78.4063C17.5122 76.5447 -0.364243 66.7874 10.5061 62.4352C21.3773 58.0821 14.7509 51.7814 6.55291 44.1652C-1.64508 36.5482 -3.28998 27.6787 8.25238 30.3903C16.5229 32.3325 -0.631635 17.3107 5.68758 5.36902C6.23173 4.33995 7.14071 3.09149 7.14071 3.09149C7.14071 3.09149 8.12609 3.4332 9.37964 4.01008L9.3812 4.01087Z" fill="#D786B8"/>
<path d="M32.1985 78.4229C32.1985 78.4229 20.8908 53.1309 10.4336 12.189" stroke="#2F2B6F" stroke-linecap="round" stroke-linejoin="round"/>
<path d="M73.9665 16.3882C74.1107 16.0694 71.9412 15.5051 71.0922 12.762C69.9174 8.9645 65.0638 10.7101 67.9435 14.7593C69.9267 17.5475 73.5993 17.2018 73.9665 16.3882Z" fill="#F26868"/>
<path d="M74.4397 15.5004C74.6541 15.2242 76.1423 16.9193 78.941 16.4276C82.8123 15.749 83.5007 20.9164 78.626 20.177C75.27 19.6672 73.8932 16.2035 74.4405 15.5004H74.4397Z" fill="#F26868"/>
<path d="M80.5204 6.64512C80.7207 6.35865 78.6923 5.39666 78.3602 2.54225C77.9002 -1.40911 72.8112 -0.604158 74.8996 3.9154C76.338 7.02708 80.0105 7.37589 80.5204 6.64512Z" fill="#F26868"/>
<path d="M81.0201 6.18583C81.1596 5.86385 83.0205 7.12573 85.6063 5.93882C89.1861 4.29578 91.135 9.12311 86.2323 9.64633C82.8575 10.0078 80.6646 7.0042 81.0193 6.18504L81.0201 6.18583Z" fill="#F26868"/>
<path d="M77.3304 11.5143C77.7131 10.7236 73.9478 10.3866 74.0008 6.66962C74.0944 0.349983 66.8139 4.06853 70.3485 9.44117C72.4066 12.571 76.8268 12.5529 77.3304 11.5143Z" fill="#F26868"/>
<path d="M78.0382 9.69445C78.6338 9.05285 80.2686 12.5047 83.687 11.1481C89.4995 8.84136 88.6162 17.0463 82.4069 15.584C78.7905 14.7325 77.2547 10.5365 78.0382 9.69445Z" fill="#F26868"/>
<path d="M65.1386 32.3546C65.2517 32.0224 63.0416 31.6609 61.9502 29.0078C60.4393 25.3342 55.7635 27.5194 58.994 31.2869C61.2189 33.8809 64.8455 33.199 65.1394 32.3546H65.1386Z" fill="#F26868"/>
<path d="M65.5292 31.4273C65.7178 31.1321 67.3518 32.6828 70.0944 31.9371C73.8893 30.9048 75.0376 35.9879 70.1177 35.6998C66.7297 35.5009 65.0474 32.1778 65.5292 31.4273Z" fill="#F26868"/>
<path d="M70.7897 22.0489C70.9636 21.745 68.8572 20.974 68.2702 18.1622C67.4563 14.2685 62.4616 15.539 64.9468 19.8479C66.658 22.8136 70.347 22.8238 70.789 22.0496L70.7897 22.0489Z" fill="#F26868"/>
<path d="M71.2466 21.5462C71.3557 21.2124 73.3233 22.2975 75.7923 20.8785C79.2099 18.9127 81.5829 23.5404 76.7488 24.5134C73.42 25.1834 70.9659 22.3945 71.2473 21.5462H71.2466Z" fill="#F26868"/>
<path d="M68.0495 27.1918C68.3606 26.3695 64.5796 26.3806 64.2998 22.6731C63.825 16.3716 56.911 20.7444 60.9102 25.769C63.2403 28.696 67.641 28.2722 68.0495 27.1918Z" fill="#F26868"/>
<path d="M68.5913 25.3136C69.1277 24.62 71.0649 27.9076 74.3469 26.2409C79.9287 23.4094 79.7852 31.6617 73.4707 30.777C69.7919 30.2617 67.8858 26.2236 68.5913 25.3129V25.3136Z" fill="#F26868"/>
<path d="M60.0441 49.8267C60.0815 49.4779 57.8457 49.631 56.1907 47.2959C53.8964 44.0643 49.8293 47.2635 53.8192 50.1929C56.5656 52.21 59.9474 50.7161 60.0433 49.8267H60.0441Z" fill="#F26868"/>
<path d="M60.2125 49.2079C60.3567 48.8875 62.1981 50.181 64.8018 49.0367C68.4089 47.4544 70.2783 52.3133 65.3678 52.7552C61.9883 53.0591 59.8445 50.02 60.2125 49.2079Z" fill="#F26868"/>
<path d="M62.8654 38.8597C62.9932 38.5329 60.7987 38.0823 59.8118 35.3865C58.4475 31.6561 53.6875 33.6512 56.7683 37.5457C58.8895 40.2273 62.5403 39.6914 62.8654 38.8597Z" fill="#F26868"/>
<path d="M63.3736 37.6199C63.4859 37.2876 65.445 38.3885 67.924 36.9878C71.3549 35.048 73.6944 39.6946 68.8525 40.6298C65.519 41.2745 63.086 38.4667 63.3728 37.6199H63.3736Z" fill="#F26868"/>
<path d="M61.2135 44.0579C61.4021 43.1977 57.6625 43.7683 56.8517 40.1428C55.4727 33.9787 49.2634 39.3268 53.9455 43.7067C56.6732 46.2581 60.964 45.1872 61.2135 44.0579Z" fill="#F26868"/>
<path d="M61.8098 42.5403C62.2401 41.7756 64.6319 44.7413 67.6387 42.6082C72.7519 38.9828 73.8004 47.168 67.4243 47.224C63.712 47.258 61.2446 43.5457 61.809 42.5403H61.8098Z" fill="#F26868"/>
<path d="M58.2776 68.8535C58.301 68.5031 56.0729 68.7517 54.322 66.4915C51.896 63.3601 47.9654 66.7306 52.0753 69.4872C54.9028 71.3851 58.2176 69.746 58.2776 68.8535Z" fill="#F26868"/>
<path d="M58.421 68.2285C58.552 67.9034 60.4448 69.1155 62.9987 67.8623C66.5364 66.1261 68.6061 70.8998 63.7198 71.5525C60.3551 72.0007 58.0874 69.0563 58.421 68.2285Z" fill="#F26868"/>
<path d="M58.7983 56.9844C58.9122 56.6521 56.7005 56.2962 55.6021 53.6446C54.0811 49.9758 49.4092 52.1728 52.6514 55.9332C54.8818 58.5201 58.5076 57.8296 58.7976 56.9844H58.7983Z" fill="#F26868"/>
<path d="M59.1234 55.2885C59.2217 54.9515 61.2244 55.9664 63.6434 54.4614C66.9917 52.3764 69.5222 56.9189 64.7239 58.0608C61.4201 58.8476 58.8716 56.1463 59.1234 55.2885Z" fill="#F26868"/>
<path d="M58.6027 62.0595C58.6261 61.1796 55.0626 62.4596 53.5846 59.0568C51.0696 53.2714 45.9806 59.7197 51.4017 63.1162C54.5598 65.0947 58.5715 63.2165 58.6027 62.0595Z" fill="#F26868"/>
<path d="M58.6712 60.6856C59.0704 59.9035 61.5822 62.7635 64.497 60.5041C69.4543 56.6624 70.8443 64.7948 64.4767 65.1254C60.7683 65.318 58.1474 61.7154 58.6712 60.6856Z" fill="#F26868"/>
<path d="M59.6512 76.3813C59.6512 76.3813 50.3415 43.6633 82.8334 4.13318" stroke="#2F2B6F" stroke-linecap="round" stroke-linejoin="round"/>
<path d="M82.2214 81.9205C85.0193 82.9946 88.5804 63.7799 111.406 54.8269C143.006 42.4314 125.407 1.15017 92.6342 28.5397C70.0733 47.3937 75.0953 79.1884 82.2214 81.9197V81.9205Z" fill="#6F6CB2"/>
<path d="M81.2602 81.7437C83.7439 63.8746 91.4773 38.6466 114.996 29.9681" stroke="#2F2B6F" stroke-linecap="round" stroke-linejoin="round"/>
<path d="M56.8502 87.5323L85.7498 89.2471C88.6677 89.6757 91.4867 88.3072 91.9084 85.3542C92.3309 82.4011 90.3087 79.6596 87.3923 79.2318C87.3923 79.2318 64.7146 73.6248 58.9099 75.9521C56.08 77.0877 56.8494 87.5323 56.8494 87.5323H56.8502Z" fill="#272160"/>
<path d="M60.3863 87.2166L31.486 88.9322C28.5681 89.3607 25.7499 87.9923 25.3266 85.0385C24.9041 82.0854 26.9271 79.3446 29.8442 78.9161C29.8442 78.9161 52.5204 73.3099 58.3251 75.6363C61.1566 76.772 60.3871 87.2166 60.3871 87.2166H60.3863Z" fill="#272160"/>
<path d="M64.7816 90.3322C64.7816 90.3322 64.2608 92.7021 59.316 91.0906C58.513 90.8286 58.499 87.9426 60.6685 87.956C63.309 87.9718 64.7824 90.3322 64.7824 90.3322H64.7816Z" fill="#C88E83"/>
<path d="M66.0928 91.6485C68.5345 92.1765 72.6732 94.4106 74.6884 92.8994C76.7028 91.3873 71.521 86.7123 62.3353 85.2176C61.5471 85.089 60.1689 85.5909 59.5327 87.6664C59.5327 87.6664 63.3651 89.5478 63.3183 91.5365C63.3183 91.5365 64.787 91.3676 66.0928 91.6493V91.6485Z" fill="#6F6CB2"/>
<path d="M59.5709 91.6241L29.7249 89.0412C26.8242 88.5156 24.8347 86.0313 25.3531 83.094C25.8723 80.1567 28.3856 78.4869 31.2872 79.0117L60.6904 85.2895L59.5709 91.6233V91.6241Z" fill="#2F2B6F"/>
<path d="M53.3998 91.0006C53.3998 91.0006 54.8413 93.6364 58.8654 91.759C59.6325 91.4007 59.6832 88.611 57.5136 88.6244C54.8724 88.6402 53.3998 91.0006 53.3998 91.0006Z" fill="#C88E83"/>
<path d="M52.2905 93.0115C49.7912 93.6838 45.622 96.2107 43.4611 94.7516C41.3009 93.2916 46.425 88.1873 55.8508 86.1639C56.6608 85.9903 58.1108 86.4369 58.8748 88.5511C58.8748 88.5511 56.0044 89.2132 55.2653 92.3478C55.2653 92.3478 53.6275 92.6524 52.2913 93.0115H52.2905Z" fill="#6F6CB2"/>
<path d="M57.7584 92.3217L87.6059 89.7388C90.5067 89.214 92.4962 86.7297 91.977 83.7916C91.4578 80.8543 88.9452 79.1845 86.0421 79.71L56.6397 85.9886L57.7584 92.3217Z" fill="#2F2B6F"/>
<path d="M51.4766 19.1637C49.9908 21.6464 45.7101 45.1935 52.0364 43.2869C58.3618 41.3803 64.6233 43.2585 66.46 44.3246C68.2959 45.39 70.6151 25.3302 67.0166 19.4738C64.911 16.0488 53.5339 15.7276 51.4766 19.1637Z" fill="#352E73"/>
<path d="M70.969 76.1477C72.925 74.8756 72.9219 71.4688 72.6677 66.8553C72.2296 58.9573 69.6274 57.031 69.6274 57.031C71.0104 48.8955 67.8593 43.0399 66.9901 41.8466C65.3507 39.5944 61.6188 39.5383 61.6188 39.5383H55.9147C55.9147 39.5383 52.4238 39.5383 50.6736 42.0132C49.6797 43.4194 47.4103 47.9256 48.4745 56.2663C48.4745 56.2663 44.6725 59.0647 44.3084 67.1102C44.0808 72.1522 44.6234 75.2576 45.6922 76.0207C50.9325 79.7653 67.4485 78.4395 70.969 76.1477Z" fill="#43B5D0"/>
<path d="M67.2637 25.215C66.835 31.9395 65.0061 34.3401 62.8506 36.2254C61.7701 37.1708 60.3099 37.1022 58.9317 37.1022C57.3842 37.1022 56.4744 36.6902 55.3409 35.8569C52.9788 34.1223 51.0876 30.5695 50.5832 25.1605C50.0367 19.2923 53.7537 15.3062 59.0509 15.3062C64.3481 15.3062 67.7011 18.3516 67.2645 25.2158L67.2637 25.215Z" fill="#FEE4E0"/>
<path d="M62.5169 21.3347C62.5169 21.3347 57.0739 27.5943 50.5567 25.8716C50.5567 25.8716 48.6148 15.4877 58.8942 15.0253C58.8942 15.0253 69.7116 14.7246 67.3012 25.8061C67.3012 25.8061 64.2055 25.1471 62.5169 21.3347Z" fill="#352E73"/>
<path d="M51.8555 27.195C51.8555 28.2407 53.1012 29.3021 51.6099 29.426C50.7734 29.4954 50.0141 28.6605 50.0141 27.6149C50.0141 26.5692 50.2597 25.301 51.6099 25.301C52.4495 25.301 51.8555 26.1486 51.8555 27.195Z" fill="#FEE4E0"/>
<path d="M66.3875 27.195C66.3875 28.2407 65.1433 29.3021 66.6339 29.426C67.4696 29.4954 68.2297 28.6605 68.2297 27.6149C68.2297 26.5692 67.9833 25.301 66.6339 25.301C65.7943 25.301 66.3875 26.1486 66.3875 27.195Z" fill="#FEE4E0"/>
<path d="M61.3452 36.0312H56.9188C57.1215 36.7802 57.3601 38.2741 56.4729 39.3663C55.4618 40.6108 62.63 40.7307 61.714 39.4002C60.8541 38.1494 61.1168 36.7439 61.3452 36.0312Z" fill="#FEE4E0"/>
<path d="M72.345 63.3498C72.8829 65.4853 74.7632 66.9255 76.8891 66.4544C79.7595 65.8191 80.4861 63.7776 79.8203 61.6792C78.7445 58.2913 75.7525 51.3845 74.421 47.9303C71.9217 41.4536 67.1686 39.5486 63.7253 39.8666C63.4664 39.8903 64.2639 42.2097 65.9314 44.6363C67.825 47.3913 68.0441 48.5119 69.3499 52.442C70.725 56.5764 71.6543 60.6098 72.345 63.3506V63.3498Z" fill="#FEE4E0"/>
<path d="M93.275 68.065C90.5067 66.7235 82.9004 61.4739 79.2474 60.3794C75.8515 59.3613 73.5175 59.6368 72.7855 62.241C72.1267 64.5817 73.3296 66.3368 77.2259 67.1733L92.1579 71.6289L93.275 68.065Z" fill="#FEE4E0"/>
<path d="M94.1575 67.6303C94.1575 67.6303 97.0965 66.8159 97.4231 67.8773C97.7458 68.9261 95.6948 69.1565 95.6948 69.1565C95.6948 69.1565 100.78 69.937 99.7197 72.46C98.732 74.8093 97.1214 74.5323 92.5297 72.2485C91.1912 71.5824 90.1131 68.1622 94.1567 67.6295L94.1575 67.6303Z" fill="#FEE4E0"/>
<path d="M45.2486 63.3498C44.7099 65.4853 42.8319 66.9255 40.7045 66.4544C37.8341 65.8191 37.1083 63.7776 37.7748 61.6792C38.8499 58.2913 41.8411 51.3845 43.1734 47.9303C45.6727 41.4536 50.4265 39.5486 53.8691 39.8666C54.1272 39.8903 53.3304 42.2097 51.6629 44.6363C49.7693 47.3913 49.5511 48.5119 48.2429 52.442C46.8686 56.5764 45.9401 60.6098 45.2486 63.3506V63.3498Z" fill="#FEE4E0"/>
<path d="M24.3186 68.065C27.0861 66.7235 34.6924 61.4739 38.3455 60.3794C41.7413 59.3613 44.0769 59.6368 44.8089 62.241C45.4669 64.5817 44.2648 66.3368 40.3677 67.1733L25.4358 71.6289L24.3186 68.065Z" fill="#FEE4E0"/>
<path d="M23.4369 67.6303C23.4369 67.6303 20.4971 66.8159 20.1713 67.8773C19.8485 68.9261 21.8988 69.1565 21.8988 69.1565C21.8988 69.1565 16.8137 69.937 17.8739 72.46C18.8616 74.8093 20.473 74.5323 25.0647 72.2485C26.4024 71.5824 27.4806 68.1622 23.4377 67.6295L23.4369 67.6303Z" fill="#FEE4E0"/>
</svg>
