<svg width="208" height="120" viewBox="0 0 208 120" fill="none" xmlns="http://www.w3.org/2000/svg">
<path d="M103.734 120C155.004 120 196.567 112.825 196.567 103.974C196.567 95.1231 155.004 87.948 103.734 87.948C52.4636 87.948 10.9009 95.1231 10.9009 103.974C10.9009 112.825 52.4636 120 103.734 120Z" fill="#C7C7C7"/>
<path d="M87.5868 18.1693C86.0234 19.1124 85.2536 18.898 84.876 18.2876C84.4984 17.6773 84.6581 16.9025 86.2202 15.9593C89.067 14.2414 91.1255 14.5163 91.1255 14.5163C91.1255 14.5163 90.4746 16.4263 87.5855 18.1693H87.5868Z" fill="#2B3A42"/>
<path d="M87.6779 60.6724L87.3306 60.6474C87.3345 60.5948 87.658 55.2594 85.6867 47.4785C83.8685 40.2989 79.6682 29.507 69.9883 18.8717L70.2458 18.6415C79.9798 29.336 84.2012 40.1897 86.0287 47.4115C88.0093 55.2423 87.6818 60.6185 87.6779 60.6724Z" fill="#2B3A42"/>
<path d="M79.841 32.105L79.5439 31.9235C86.1222 21.296 81.7517 8.55862 81.7068 8.43103L82.0342 8.31921C82.0791 8.44813 86.5052 21.3355 79.8397 32.105H79.841Z" fill="#2B3A42"/>
<path d="M74.4919 26.5854C70.9651 26.6327 68.2622 24.9174 68.2305 24.8964L68.418 24.6083C68.4523 24.6306 71.9157 26.8248 76.0711 26.0921L76.1345 26.4315C75.572 26.5301 75.0214 26.5775 74.4906 26.5854H74.4919Z" fill="#2B3A42"/>
<path d="M69.7149 16.9538C71.5872 18.5731 71.7628 19.4899 71.2927 20.0253C70.8227 20.562 69.8839 20.5147 68.0115 18.8954C64.6009 15.9448 63.8047 13.5481 63.8047 13.5481C63.8047 13.5481 66.2554 13.9598 69.7149 16.9525V16.9538Z" fill="#2B3A42"/>
<path d="M69.1393 23.7704C71.4131 24.7583 71.858 25.5818 71.5728 26.2342C71.2876 26.8867 70.3818 27.1235 68.1081 26.1356C63.9672 24.336 62.4805 22.284 62.4805 22.284C62.4805 22.284 64.9364 21.9446 69.138 23.7704H69.1393Z" fill="#2B3A42"/>
<path d="M77.928 21.0501C78.3836 22.8167 77.9544 23.4823 77.2586 23.6533C76.5627 23.8243 75.8616 23.4389 75.4047 21.6723C74.5742 18.4547 75.4338 16.5868 75.4338 16.5868C75.4338 16.5868 77.0843 17.7838 77.928 21.0488V21.0501Z" fill="#2B3A42"/>
<path d="M82.7378 6.91429C83.365 9.29392 82.9873 10.1437 82.2915 10.32C81.5956 10.4962 80.8456 9.9306 80.2171 7.55097C79.0749 3.21659 79.7827 0.804077 79.7827 0.804077C79.7827 0.804077 81.5785 2.51809 82.7378 6.91561V6.91429Z" fill="#2B3A42"/>
<g opacity="0.6">
<path d="M152.59 50.9697C159.269 33.4414 169.837 11.5683 180.056 14.8727C192.369 18.8545 175.132 38.0928 163.352 55.2448C159.125 61.3972 148.334 62.1404 152.591 50.9697H152.59Z" fill="#C7C7C7"/>
</g>
<g opacity="0.6">
<path d="M162.646 69.9277C173.289 59.2766 188.204 46.7129 194.596 52.46C202.299 59.3858 183.37 67.8493 169.117 76.5615C164.005 79.687 155.864 76.7154 162.646 69.9277Z" fill="#C7C7C7"/>
</g>
<path d="M197.29 86.9772C190.852 88.4399 192.034 98.1597 184.659 96.4365C178.423 94.975 177.892 94.4094 175.759 96.2181C175.028 96.8377 174.401 97.5678 173.871 98.3675C173.238 99.3252 172.011 100.738 170.125 101.089C158.607 103.235 142.64 86.4076 154.573 76.9048C155.436 76.2182 156.698 75.9446 158.096 75.7104C165.683 74.445 168.091 77.8941 173.977 68.9057C179.866 59.9146 188.136 72.6191 193.227 72.1127C198.319 71.6063 202.794 70.033 206.825 75.3697C210.857 80.7104 203.727 85.5197 197.289 86.9785L197.29 86.9772Z" fill="#C7C7C7"/>
<path d="M158.389 89.2331L158.143 88.8766C158.3 88.7687 174.299 78.0334 207.757 76.8864L207.772 77.3191C174.439 78.4623 158.545 89.1265 158.388 89.2331H158.389Z" fill="white"/>
<path d="M179.069 76.1287C174.611 72.2192 173.799 69.0858 173.766 68.9543L174.187 68.8503C174.195 68.8819 175.01 71.9942 179.355 75.8024L179.068 76.1273L179.069 76.1287Z" fill="white"/>
<path d="M179.885 80.788C178.621 78.6241 178.703 75.4854 180.124 71.7101C181.188 68.8832 182.642 66.6588 182.656 66.6365L183.02 66.8733C182.963 66.9601 177.354 75.5946 180.26 80.5696L179.885 80.7867V80.788Z" fill="white"/>
<path d="M188.685 79.9382C188.154 79.5054 187.868 79.2239 187.854 79.212L188.162 78.9069C188.222 78.9674 194.276 84.8895 203.108 84.5277L203.125 84.9592C196.008 85.2512 190.66 81.5496 188.685 79.9395V79.9382Z" fill="white"/>
<path d="M193.135 89.8948C191.094 87.6756 190.494 85.442 190.35 83.9595C190.193 82.3455 190.521 81.2681 190.534 81.2234L190.948 81.351C190.935 81.3918 189.718 85.5393 193.454 89.6027L193.134 89.8948H193.135Z" fill="white"/>
<path d="M96.2021 22.5576C96.0714 21.225 96.6154 20.7725 97.335 20.7028C98.0546 20.6331 98.6765 20.9725 98.8073 22.3037C99.0449 24.7307 97.8579 26.029 97.8579 26.029C97.8579 26.029 96.4437 25.0187 96.2021 22.5562V22.5576Z" fill="#2B3A42"/>
<path d="M193.764 65.6619C195.028 65.212 195.602 65.6277 195.844 66.3051C196.087 66.9826 195.908 67.6666 194.643 68.1165C192.339 68.936 190.785 68.1059 190.785 68.1059C190.785 68.1059 191.425 66.4945 193.764 65.6619Z" fill="#2B3A42"/>
<path d="M190.294 19.3032C191.227 18.3403 191.926 18.4587 192.447 18.9585C192.967 19.4584 193.111 20.1503 192.179 21.1132C190.479 22.868 188.716 22.8114 188.716 22.8114C188.716 22.8114 188.571 21.0843 190.294 19.3032Z" fill="#2B3A42"/>
<g opacity="0.6">
<path d="M173.498 43.2073C175.295 42.9126 175.924 43.3941 176.04 44.0952C176.156 44.7964 175.715 45.4528 173.918 45.7474C170.645 46.2841 168.853 45.2739 168.853 45.2739C168.853 45.2739 170.177 43.7519 173.498 43.2073Z" fill="#C7C7C7"/>
</g>
<g opacity="0.6">
<path d="M169.463 39.3162C170.44 37.9139 171.177 37.806 171.729 38.1875C172.281 38.569 172.436 39.2951 171.461 40.6974C169.682 43.2506 167.823 43.7952 167.823 43.7952C167.823 43.7952 167.658 41.9076 169.463 39.3162Z" fill="#C7C7C7"/>
</g>
<path d="M108.32 2.39181C108.32 2.39181 106.909 -0.308784 103.343 0.029284C99.7765 0.367352 100.2 3.07453 98.5023 2.82065C96.8043 2.56677 94.4262 2.82065 93.9165 4.5123C93.4068 6.20396 91.1146 5.27394 91.0288 6.71172C90.9443 8.14949 93.6617 9.16501 96.8029 7.89561C99.9455 6.62621 101.473 8.88088 105.89 8.47309C110.305 8.0653 110.853 7.55754 113.467 7.81142C116.081 8.0653 116.019 6.28288 114.829 5.09767C113.641 3.91378 108.828 4.02559 108.318 2.3905L108.32 2.39181Z" fill="#C7C7C7"/>
<path d="M153.681 5.31612C153.681 5.31612 152.627 3.29824 149.961 3.55081C147.295 3.80337 147.614 5.82652 146.343 5.63709C145.073 5.44767 143.297 5.63709 142.917 6.90123C142.537 8.16537 140.823 7.47081 140.759 8.54553C140.696 9.62024 142.727 10.3793 145.074 9.43082C147.422 8.48239 148.566 10.1675 151.865 9.86228C155.165 9.5571 155.574 9.17826 157.527 9.36768C159.48 9.5571 159.434 8.22456 158.545 7.33927C157.657 6.45398 154.06 6.53817 153.679 5.31612H153.681Z" fill="#C7C7C7"/>
<path d="M130.937 12.622C130.937 12.622 129.333 9.54779 125.272 9.93321C121.213 10.3186 121.697 13.3994 119.762 13.1113C117.829 12.8219 115.122 13.1113 114.543 15.0371C113.963 16.9629 111.352 15.904 111.256 17.5404C111.16 19.1768 114.252 20.3331 117.829 18.8887C121.405 17.4444 123.145 20.0108 128.172 19.5464C133.199 19.0821 133.821 18.5033 136.796 18.7927C139.77 19.0821 139.7 17.0524 138.347 15.704C136.994 14.3557 131.517 14.4846 130.937 12.622Z" fill="#C7C7C7"/>
<path d="M79.1384 59.724C79.1384 59.724 53.0946 7.52207 39.019 15.0345C24.9434 22.547 64.3168 46.1947 71.4114 61.6287L79.1384 59.724Z" fill="#C7C7C7"/>
<path d="M65.7551 51.7523C65.7551 51.7523 29.2985 6.15261 14.4385 16.9458C-0.420071 27.739 47.202 41.851 57.2978 55.4763L65.7551 51.7523Z" fill="#75B3EB"/>
<path d="M61.0423 53.8768C54.2435 44.3412 43.5944 36.3709 35.8594 31.3631C27.4722 25.9343 20.6113 22.7246 20.5439 22.6917L20.7446 22.2708C20.8133 22.3023 27.7045 25.5265 36.1182 30.9737C43.8888 36.0039 54.5868 44.0137 61.4279 53.6085L61.0423 53.8768Z" fill="#75B3EB"/>
<path d="M64.6586 81.484C58.73 81.3722 64.9557 87.3087 57.8625 87.4995C49.0025 86.7299 45.3687 82.6468 44.1051 80.6526C43.4488 79.6174 42.6777 78.6571 41.7825 77.8165C39.0664 75.2659 38.3151 75.9762 29.8737 77.4574C22.7118 78.7097 21.872 72.4798 18.8324 67.9705C18.7782 67.8876 18.7215 67.806 18.6647 67.7245C17.4922 66.0552 15.9856 64.6516 13.696 64.0031C11.2677 63.3164 8.78536 62.2641 6.61196 60.95C6.43106 60.8421 6.25281 60.7316 6.07587 60.6172C1.76869 57.8639 -1.1349 54.0755 0.428467 50.1555C0.465438 50.0621 0.50373 49.97 0.545984 49.8779C0.839115 49.2294 1.25769 48.5769 1.81226 47.9271C7.59567 41.1513 13.4596 43.5612 20.2254 44.6056C23.9675 45.1818 29.3046 40.4804 34.5479 38.2442C34.6232 38.2126 34.6985 38.181 34.7737 38.1495C38.937 36.4315 43.025 36.3407 46.1887 41.7603C46.1887 41.7603 46.1887 41.7603 46.1887 41.7617C46.2534 41.8721 46.3168 41.98 46.3802 42.0879C53.451 54.0229 56.9501 49.7266 66.906 51.9379C68.7572 52.3509 70.4249 52.8061 71.5261 53.7795C81.7923 62.8442 74.9011 75.3856 64.6547 81.4866L64.6586 81.484Z" fill="#C7C7C7"/>
<path d="M65.5175 69.8331L65.8727 69.3792C65.6706 69.224 45.0854 53.8334 0.45809 49.8687L0.405273 50.4409C44.8649 54.3911 65.3155 69.6792 65.5175 69.8331Z" fill="white"/>
<path d="M38.8538 50.9605C45.102 46.1065 46.4198 42.0142 46.4726 41.8432L45.9167 41.6748C45.9048 41.7156 44.5831 45.779 38.4946 50.5093L38.8538 50.9605Z" fill="white"/>
<path d="M37.4159 57.0734C39.2658 54.2991 39.3886 50.1331 37.7711 45.0279C36.5589 41.2039 34.7804 38.1521 34.7619 38.1218L34.2588 38.4099C34.3288 38.5283 41.1844 50.3778 36.93 56.759L37.4159 57.0747V57.0734Z" fill="white"/>
<path d="M25.7195 55.3067C26.4603 54.7726 26.8643 54.4201 26.8828 54.4043L26.4946 53.9768C26.4101 54.0518 17.8815 61.4564 6.10477 60.3317L6.04932 60.9026C15.5391 61.8089 22.9598 57.2957 25.7195 55.3067Z" fill="white"/>
<path d="M19.0338 68.173C21.9268 65.3817 22.8947 62.4667 23.197 60.5132C23.5258 58.3862 23.1693 56.9352 23.1548 56.8734L22.591 57.0128C22.6055 57.0681 23.9246 62.6521 18.6284 67.7626L19.0351 68.173H19.0338Z" fill="white"/>
<path d="M18.0953 39.2571C16.1424 38.8203 15.704 38.0784 15.8796 37.3207C16.0552 36.5643 16.7775 36.0803 18.7304 36.517C22.2863 37.3115 23.6885 39.065 23.6885 39.065C23.6885 39.065 21.704 40.0621 18.0966 39.2571H18.0953Z" fill="#2B3A42"/>
<path d="M42.9959 39.9319L33.1535 94.7883C32.9013 98.198 35.6095 101.102 39.0425 101.102H65.6475L42.9959 39.9319Z" fill="#75B3EB"/>
<path d="M43.6074 45.3607L35.1647 94.7883C34.9125 98.1979 37.6207 101.102 41.0538 101.102H67.6588L43.6074 45.3594V45.3607Z" fill="#2B3A42"/>
<path d="M43.6074 45.3606L40.5929 97.2415C40.3407 100.651 43.0502 103.556 46.482 103.556H73.087L43.6074 45.3606Z" fill="#C7C7C7"/>
<path d="M161.158 104.801H61.4062C58.9476 104.801 56.8152 103.106 56.2698 100.718L44.604 49.716L43.6071 45.3593L42.9469 42.4706C42.1955 39.1846 44.7017 36.0565 48.0846 36.0565H147.837C150.295 36.0565 152.428 37.7508 152.973 40.1383L154.167 45.3593L155.163 49.716L166.296 98.386C167.047 101.672 164.541 104.801 161.159 104.801H161.158Z" fill="#F7F7F7"/>
<path d="M50.3337 75.2461C50.2717 75.2461 50.2162 75.204 50.2017 75.1409L47.9728 65.3961C47.9557 65.3237 48.0019 65.2514 48.0745 65.2343C48.1471 65.2172 48.2197 65.2632 48.2369 65.3356L50.4658 75.0803C50.4829 75.1527 50.4367 75.225 50.3641 75.2421C50.3535 75.2448 50.3443 75.2461 50.3337 75.2461Z" fill="#2B3A42"/>
<path d="M75.6168 104.937H61.3286C58.7894 104.937 56.6226 103.215 56.0601 100.748L50.966 78.4768C50.9488 78.4044 50.995 78.3321 51.0677 78.315C51.1403 78.2979 51.2129 78.3439 51.2301 78.4163L56.3242 100.688C56.859 103.031 58.9175 104.666 61.3286 104.666H75.6168C75.692 104.666 75.7528 104.726 75.7528 104.801C75.7528 104.876 75.692 104.937 75.6168 104.937Z" fill="#2B3A42"/>
<path d="M154.167 45.3606H43.6071L42.9469 42.4719C42.1955 39.186 44.7017 36.0579 48.0846 36.0579H147.837C150.295 36.0579 152.428 37.7522 152.973 40.1397L154.167 45.3606Z" fill="#75B3EB"/>
<path d="M93.1083 59.6778H86.3557C85.4895 59.6778 84.593 58.978 84.3526 58.1151L82.4882 51.3879C82.2492 50.525 82.7576 49.8252 83.6238 49.8252H90.3764C91.2426 49.8252 92.1391 50.525 92.3794 51.3879L94.2439 58.1151C94.4828 58.978 93.9745 59.6778 93.1083 59.6778Z" fill="#C7C7C7"/>
<path d="M105.988 59.6778H99.2351C98.3689 59.6778 97.4724 58.978 97.232 58.1151L95.3676 51.3879C95.1286 50.525 95.637 49.8252 96.5032 49.8252H103.256C104.122 49.8252 105.019 50.525 105.259 51.3879L107.123 58.1151C107.362 58.978 106.854 59.6778 105.988 59.6778Z" fill="#C7C7C7"/>
<path d="M118.867 59.6778H112.114C111.248 59.6778 110.352 58.978 110.111 58.1151L108.247 51.3879C108.008 50.525 108.516 49.8252 109.383 49.8252H116.135C117.001 49.8252 117.898 50.525 118.138 51.3879L120.003 58.1151C120.242 58.978 119.733 59.6778 118.867 59.6778Z" fill="#C7C7C7"/>
<path d="M70.8857 72.435H64.1331C63.2669 72.435 62.3703 71.7352 62.13 70.8723L60.2656 64.1451C60.0266 63.2822 60.5349 62.5824 61.4011 62.5824H68.1537C69.0199 62.5824 69.9165 63.2822 70.1568 64.1451L72.0212 70.8723C72.2602 71.7352 71.7518 72.435 70.8857 72.435Z" fill="#C7C7C7"/>
<path d="M83.765 72.435H77.0124C76.1463 72.435 75.2497 71.7352 75.0094 70.8723L73.145 64.1451C72.906 63.2822 73.4143 62.5824 74.2805 62.5824H81.0331C81.8993 62.5824 82.7959 63.2822 83.0362 64.1451L84.9006 70.8723C85.1396 71.7352 84.6312 72.435 83.765 72.435Z" fill="#C7C7C7"/>
<path d="M96.6444 72.435H89.8918C89.0257 72.435 88.1291 71.7352 87.8888 70.8723L86.0244 64.1451C85.7854 63.2822 86.2937 62.5824 87.1599 62.5824H93.9125C94.7787 62.5824 95.6753 63.2822 95.9156 64.1451L97.78 70.8723C98.019 71.7352 97.5106 72.435 96.6444 72.435Z" fill="#C7C7C7"/>
<path d="M109.522 72.435H102.77C101.904 72.435 101.007 71.7352 100.767 70.8723L98.9023 64.1451C98.6633 63.2822 99.1716 62.5824 100.038 62.5824H106.79C107.657 62.5824 108.553 63.2822 108.793 64.1451L110.658 70.8723C110.897 71.7352 110.389 72.435 109.522 72.435Z" fill="#C7C7C7"/>
<path d="M122.402 72.435H115.649C114.783 72.435 113.886 71.7352 113.646 70.8723L111.782 64.1451C111.543 63.2822 112.051 62.5824 112.917 62.5824H119.67C120.536 62.5824 121.433 63.2822 121.673 64.1451L123.537 70.8723C123.776 71.7352 123.268 72.435 122.402 72.435Z" fill="#C7C7C7"/>
<path d="M74.4218 85.1908H67.6692C66.803 85.1908 65.9064 84.491 65.6661 83.628L63.8017 76.9009C63.5627 76.0379 64.0711 75.3381 64.9373 75.3381H71.6898C72.556 75.3381 73.4526 76.0379 73.6929 76.9009L75.5573 83.628C75.7963 84.491 75.288 85.1908 74.4218 85.1908Z" fill="#C7C7C7"/>
<path d="M87.2997 85.1908H80.5471C79.6809 85.1908 78.7844 84.491 78.5441 83.628L76.6796 76.9009C76.4406 76.0379 76.949 75.3381 77.8152 75.3381H84.5678C85.434 75.3381 86.3305 76.0379 86.5708 76.9009L88.4353 83.628C88.6743 84.491 88.1659 85.1908 87.2997 85.1908Z" fill="#C7C7C7"/>
<path d="M100.179 85.1908H93.4265C92.5603 85.1908 91.6638 84.491 91.4234 83.628L89.559 76.9009C89.32 76.0379 89.8284 75.3381 90.6946 75.3381H97.4472C98.3134 75.3381 99.2099 76.0379 99.4502 76.9009L101.315 83.628C101.554 84.491 101.045 85.1908 100.179 85.1908Z" fill="#C7C7C7"/>
<path d="M113.058 85.1908H106.306C105.44 85.1908 104.543 84.491 104.303 83.628L102.438 76.9009C102.199 76.0379 102.708 75.3381 103.574 75.3381H110.327C111.193 75.3381 112.089 76.0379 112.33 76.9009L114.194 83.628C114.433 84.491 113.925 85.1908 113.058 85.1908Z" fill="#C7C7C7"/>
<path d="M125.936 85.1908H119.183C118.317 85.1908 117.421 84.491 117.18 83.628L115.316 76.9009C115.077 76.0379 115.585 75.3381 116.451 75.3381H123.204C124.07 75.3381 124.967 76.0379 125.207 76.9009L127.071 83.628C127.31 84.491 126.802 85.1908 125.936 85.1908Z" fill="#C7C7C7"/>
<path d="M131.745 59.6778H124.992C124.126 59.6778 123.229 58.978 122.989 58.1151L121.124 51.3879C120.885 50.525 121.394 49.8252 122.26 49.8252H129.013C129.879 49.8252 130.775 50.525 131.016 51.3879L132.88 58.1151C133.119 58.978 132.611 59.6778 131.745 59.6778Z" fill="#75B3EB"/>
<path d="M144.624 59.6778H137.871C137.005 59.6778 136.109 58.978 135.868 58.1151L134.004 51.3879C133.765 50.525 134.273 49.8252 135.139 49.8252H141.892C142.758 49.8252 143.655 50.525 143.895 51.3879L145.759 58.1151C145.998 58.978 145.49 59.6778 144.624 59.6778Z" fill="#75B3EB"/>
<path d="M135.281 72.435H128.529C127.662 72.435 126.766 71.7352 126.525 70.8723L124.661 64.1451C124.422 63.2822 124.93 62.5824 125.797 62.5824H132.549C133.415 62.5824 134.312 63.2822 134.552 64.1451L136.417 70.8723C136.656 71.7352 136.147 72.435 135.281 72.435Z" fill="#75B3EB"/>
<path d="M148.159 72.435H141.406C140.54 72.435 139.643 71.7352 139.403 70.8723L137.539 64.1451C137.3 63.2822 137.808 62.5824 138.674 62.5824H145.427C146.293 62.5824 147.189 63.2822 147.43 64.1451L149.294 70.8723C149.533 71.7352 149.025 72.435 148.159 72.435Z" fill="#75B3EB"/>
<path d="M138.815 85.1908H132.063C131.197 85.1908 130.3 84.491 130.06 83.628L128.195 76.9009C127.956 76.0379 128.465 75.3381 129.331 75.3381H136.083C136.95 75.3381 137.846 76.0379 138.086 76.9009L139.951 83.628C140.19 84.491 139.682 85.1908 138.815 85.1908Z" fill="#75B3EB"/>
<path d="M151.695 85.1908H144.942C144.076 85.1908 143.179 84.491 142.939 83.628L141.075 76.9009C140.836 76.0379 141.344 75.3381 142.21 75.3381H148.963C149.829 75.3381 150.726 76.0379 150.966 76.9009L152.83 83.628C153.069 84.491 152.561 85.1908 151.695 85.1908Z" fill="#75B3EB"/>
<path d="M78.1254 98.5556H71.3728C70.5066 98.5556 69.61 97.8558 69.3697 96.9929L67.5053 90.2657C67.2663 89.4028 67.7747 88.703 68.6409 88.703H75.3935C76.2596 88.703 77.1562 89.4028 77.3965 90.2657L79.2609 96.9929C79.4999 97.8558 78.9916 98.5556 78.1254 98.5556Z" fill="#C7C7C7"/>
<path d="M91.0048 98.5556H84.2522C83.386 98.5556 82.4894 97.8558 82.2491 96.9929L80.3847 90.2657C80.1457 89.4028 80.6541 88.703 81.5203 88.703H88.2729C89.139 88.703 90.0356 89.4028 90.2759 90.2657L92.1403 96.9929C92.3793 97.8558 91.871 98.5556 91.0048 98.5556Z" fill="#C7C7C7"/>
<path d="M103.883 98.5556H97.1301C96.2639 98.5556 95.3674 97.8558 95.1271 96.9929L93.2626 90.2657C93.0236 89.4028 93.532 88.703 94.3982 88.703H101.151C102.017 88.703 102.914 89.4028 103.154 90.2657L105.018 96.9929C105.257 97.8558 104.749 98.5556 103.883 98.5556Z" fill="#C7C7C7"/>
<path d="M58.6457 40.1331C58.0885 40.1331 57.6343 39.6805 57.6343 39.1254C57.6343 38.5703 58.0885 38.1178 58.6457 38.1178C59.2029 38.1178 59.6572 38.5703 59.6572 39.1254C59.6572 39.6805 59.2029 40.1331 58.6457 40.1331ZM58.6457 38.5216C58.3116 38.5216 58.0396 38.7926 58.0396 39.1254C58.0396 39.4582 58.3116 39.7292 58.6457 39.7292C58.9798 39.7292 59.2518 39.4582 59.2518 39.1254C59.2518 38.7926 58.9798 38.5216 58.6457 38.5216Z" fill="#C7C7C7"/>
<path d="M58.619 39.3741C58.5292 39.3741 58.4434 39.3228 58.4038 39.236C58.3496 39.1176 58.4038 38.9781 58.5213 38.9242C58.5451 38.9137 60.902 37.8324 61.3258 36.0276C61.5332 35.1476 61.2453 34.2202 60.4689 33.2731C59.6159 32.2312 57.597 31.7945 55.8237 32.9034C54.2814 33.8676 53.8695 35.5277 54.7198 37.3417C54.7753 37.4601 54.7238 37.5995 54.6063 37.6548C54.4888 37.71 54.3475 37.6587 54.292 37.5417C53.7823 36.4551 53.6741 35.433 53.9672 34.503C54.2233 33.6927 54.7792 33.0021 55.5728 32.5049C57.1243 31.5341 59.5776 31.438 60.836 32.9745C61.7101 34.0413 62.0296 35.1055 61.7867 36.1355C61.5873 36.9826 60.9891 37.8074 60.0609 38.523C59.3703 39.0544 58.7431 39.3399 58.7167 39.3517C58.685 39.3662 58.652 39.3728 58.6203 39.3728L58.619 39.3741Z" fill="#2B3A42"/>
<path d="M55.5706 36.0619H53.2744V38.2192H55.5706V36.0619Z" fill="#75B3EB"/>
<path d="M73.9455 40.1331C73.3883 40.1331 72.9341 39.6805 72.9341 39.1254C72.9341 38.5703 73.3883 38.1178 73.9455 38.1178C74.5027 38.1178 74.9569 38.5703 74.9569 39.1254C74.9569 39.6805 74.5027 40.1331 73.9455 40.1331ZM73.9455 38.5216C73.6115 38.5216 73.3394 38.7926 73.3394 39.1254C73.3394 39.4582 73.6115 39.7292 73.9455 39.7292C74.2796 39.7292 74.5516 39.4582 74.5516 39.1254C74.5516 38.7926 74.2796 38.5216 73.9455 38.5216Z" fill="#C7C7C7"/>
<path d="M73.9173 39.3741C73.8276 39.3741 73.7417 39.3228 73.7021 39.236C73.648 39.1176 73.7021 38.9781 73.8196 38.9242C73.8434 38.9137 76.2003 37.8324 76.6242 36.0276C76.8315 35.1476 76.5436 34.2202 75.7672 33.2731C74.9143 32.2312 72.8953 31.7945 71.122 32.9034C69.5798 33.8676 69.1678 35.5277 70.0182 37.3417C70.0736 37.4601 70.0221 37.5995 69.9046 37.6548C69.7858 37.71 69.6458 37.6587 69.5904 37.5417C69.0807 36.4551 68.9724 35.433 69.2655 34.503C69.5217 33.6927 70.0776 33.0021 70.8711 32.5049C72.4226 31.5341 74.876 31.438 76.1343 32.9745C77.0084 34.0413 77.328 35.1055 77.085 36.1355C76.8843 36.9826 76.2875 37.8074 75.3592 38.523C74.6687 39.0544 74.0415 39.3399 74.0151 39.3517C73.9834 39.3662 73.9503 39.3728 73.9173 39.3728V39.3741Z" fill="#2B3A42"/>
<path d="M70.8694 36.0619H68.5732V38.2192H70.8694V36.0619Z" fill="#75B3EB"/>
<path d="M89.2439 40.1331C88.6866 40.1331 88.2324 39.6805 88.2324 39.1254C88.2324 38.5703 88.6866 38.1178 89.2439 38.1178C89.8011 38.1178 90.2553 38.5703 90.2553 39.1254C90.2553 39.6805 89.8011 40.1331 89.2439 40.1331ZM89.2439 38.5216C88.9098 38.5216 88.6378 38.7926 88.6378 39.1254C88.6378 39.4582 88.9098 39.7292 89.2439 39.7292C89.5779 39.7292 89.8499 39.4582 89.8499 39.1254C89.8499 38.7926 89.5779 38.5216 89.2439 38.5216Z" fill="#C7C7C7"/>
<path d="M89.2171 39.3741C89.1274 39.3741 89.0415 39.3228 89.0019 39.236C88.9478 39.1176 89.0019 38.9781 89.1194 38.9242C89.1432 38.9137 91.5001 37.8324 91.924 36.0276C92.1313 35.1476 91.8434 34.2202 91.067 33.2731C90.2141 32.2312 88.1951 31.7945 86.4218 32.9034C84.8796 33.8676 84.4676 35.5277 85.318 37.3417C85.3734 37.4601 85.3219 37.5995 85.2044 37.6548C85.0869 37.71 84.9456 37.6587 84.8902 37.5417C84.3805 36.4551 84.2722 35.433 84.5653 34.503C84.8215 33.6927 85.3774 33.0021 86.171 32.5049C87.7224 31.5341 90.1758 31.438 91.4341 32.9745C92.3082 34.0413 92.6278 35.1055 92.3848 36.1355C92.1841 36.9826 91.5873 37.8074 90.659 38.523C89.9685 39.0544 89.3413 39.3399 89.3149 39.3517C89.2832 39.3662 89.2502 39.3728 89.2171 39.3728V39.3741Z" fill="#2B3A42"/>
<path d="M86.1678 36.0619H83.8716V38.2192H86.1678V36.0619Z" fill="#75B3EB"/>
<path d="M104.542 40.1331C103.985 40.1331 103.531 39.6805 103.531 39.1254C103.531 38.5703 103.985 38.1178 104.542 38.1178C105.099 38.1178 105.554 38.5703 105.554 39.1254C105.554 39.6805 105.099 40.1331 104.542 40.1331ZM104.542 38.5216C104.208 38.5216 103.936 38.7926 103.936 39.1254C103.936 39.4582 104.208 39.7292 104.542 39.7292C104.876 39.7292 105.148 39.4582 105.148 39.1254C105.148 38.7926 104.876 38.5216 104.542 38.5216Z" fill="#C7C7C7"/>
<path d="M104.515 39.3741C104.426 39.3741 104.34 39.3228 104.3 39.236C104.246 39.1176 104.3 38.9781 104.418 38.9242C104.442 38.9137 106.798 37.8324 107.222 36.0276C107.43 35.1476 107.142 34.2202 106.365 33.2731C105.512 32.2312 103.493 31.7945 101.72 32.9034C100.178 33.8676 99.766 35.5277 100.616 37.3417C100.672 37.4601 100.62 37.5995 100.503 37.6548C100.385 37.71 100.244 37.6587 100.188 37.5417C99.6788 36.4551 99.5705 35.433 99.8637 34.503C100.12 33.6927 100.676 33.0021 101.469 32.5049C103.021 31.5341 105.474 31.438 106.732 32.9745C107.607 34.0413 107.926 35.1055 107.682 36.1355C107.481 36.9826 106.884 37.8074 105.956 38.523C105.265 39.0544 104.638 39.3399 104.612 39.3517C104.58 39.3662 104.547 39.3728 104.515 39.3728V39.3741Z" fill="#2B3A42"/>
<path d="M101.467 36.0619H99.1704V38.2192H101.467V36.0619Z" fill="#75B3EB"/>
<path d="M119.841 40.1331C119.284 40.1331 118.83 39.6805 118.83 39.1254C118.83 38.5703 119.284 38.1178 119.841 38.1178C120.398 38.1178 120.852 38.5703 120.852 39.1254C120.852 39.6805 120.398 40.1331 119.841 40.1331ZM119.841 38.5216C119.507 38.5216 119.235 38.7926 119.235 39.1254C119.235 39.4582 119.507 39.7292 119.841 39.7292C120.175 39.7292 120.447 39.4582 120.447 39.1254C120.447 38.7926 120.175 38.5216 119.841 38.5216Z" fill="#C7C7C7"/>
<path d="M119.814 39.3741C119.724 39.3741 119.638 39.3228 119.599 39.236C119.544 39.1176 119.599 38.9781 119.716 38.9242C119.74 38.9137 122.097 37.8324 122.521 36.0276C122.728 35.1476 122.44 34.2202 121.664 33.2731C120.811 32.2312 118.792 31.7945 117.019 32.9034C115.476 33.8676 115.064 35.5277 115.915 37.3417C115.97 37.4601 115.919 37.5995 115.801 37.6548C115.684 37.71 115.542 37.6587 115.487 37.5417C114.977 36.4551 114.869 35.433 115.162 34.503C115.418 33.6927 115.974 33.0021 116.768 32.5049C118.319 31.5341 120.772 31.438 122.031 32.9745C122.905 34.0413 123.224 35.1055 122.98 36.1355C122.781 36.9826 122.183 37.8074 121.254 38.523C120.564 39.0544 119.937 39.3399 119.91 39.3517C119.879 39.3662 119.846 39.3728 119.814 39.3728V39.3741Z" fill="#2B3A42"/>
<path d="M116.766 36.0619H114.47V38.2192H116.766V36.0619Z" fill="#75B3EB"/>
<path d="M135.139 40.1331C134.582 40.1331 134.128 39.6805 134.128 39.1254C134.128 38.5703 134.582 38.1178 135.139 38.1178C135.697 38.1178 136.151 38.5703 136.151 39.1254C136.151 39.6805 135.697 40.1331 135.139 40.1331ZM135.139 38.5216C134.805 38.5216 134.533 38.7926 134.533 39.1254C134.533 39.4582 134.805 39.7292 135.139 39.7292C135.473 39.7292 135.745 39.4582 135.745 39.1254C135.745 38.7926 135.473 38.5216 135.139 38.5216Z" fill="#C7C7C7"/>
<path d="M135.113 39.3741C135.023 39.3741 134.938 39.3228 134.898 39.236C134.844 39.1176 134.898 38.9781 135.015 38.9242C135.039 38.9137 137.396 37.8324 137.82 36.0276C138.027 35.1476 137.739 34.2202 136.963 33.2731C136.11 32.2312 134.091 31.7945 132.318 32.9034C130.776 33.8676 130.364 35.5277 131.214 37.3417C131.269 37.4601 131.218 37.5995 131.1 37.6548C130.983 37.71 130.842 37.6587 130.786 37.5417C130.276 36.4551 130.168 35.433 130.461 34.503C130.717 33.6927 131.273 33.0021 132.067 32.5049C133.618 31.5341 136.072 31.438 137.33 32.9745C138.204 34.0413 138.524 35.1055 138.279 36.1355C138.08 36.9826 137.482 37.8074 136.554 38.523C135.863 39.0544 135.236 39.3399 135.21 39.3517C135.178 39.3662 135.145 39.3728 135.113 39.3728V39.3741Z" fill="#2B3A42"/>
<path d="M132.065 36.0619H129.769V38.2192H132.065V36.0619Z" fill="#75B3EB"/>
<path d="M48.2381 107.242C48.2381 107.242 44.9635 103.941 46.0898 102.061C47.2161 100.182 49.1175 106.1 49.1175 106.1C49.1175 106.1 48.1311 99.1016 50.1738 98.9806C52.2165 98.8596 50.1738 106.1 50.1738 106.1C50.1738 106.1 50.9304 104.411 51.6699 104.307C52.4093 104.203 52.198 105.738 50.8776 107.242H48.2368H48.2381Z" fill="#C7C7C7"/>
<path d="M48.4742 107.324C48.465 107.315 47.5275 106.365 46.7616 105.166C45.7145 103.529 45.4663 102.23 46.0209 101.304C46.2282 100.958 46.4764 100.799 46.7603 100.831C47.3255 100.896 47.9883 101.779 48.7317 103.453C48.9588 103.965 49.1595 104.475 49.3166 104.899C49.1357 103.07 48.9271 99.4252 49.9425 98.1874C50.1643 97.9164 50.4363 97.7704 50.7493 97.752C51.0543 97.7349 51.3039 97.8428 51.4927 98.0756C52.4051 99.2042 51.5772 103.165 51.1216 105.017C51.461 104.473 51.9443 103.865 52.4368 103.795C52.6705 103.762 52.8567 103.849 52.961 104.04C53.2554 104.58 52.8435 105.956 51.6458 107.321L51.4663 107.164C52.6441 105.824 52.9689 104.554 52.751 104.153C52.6956 104.05 52.6058 104.011 52.4711 104.031C51.8373 104.12 51.0979 105.479 50.8655 105.995L50.641 105.914C50.645 105.899 51.0926 104.306 51.3923 102.561C51.7845 100.28 51.7554 98.7807 51.3052 98.2256C51.1665 98.0546 50.9896 97.9769 50.7625 97.9901C50.5156 98.0046 50.3069 98.119 50.126 98.3387C48.8426 99.9001 49.6665 105.87 49.6745 105.93L49.4421 105.983C49.0156 104.653 47.6952 101.18 46.7313 101.07C46.5464 101.048 46.3814 101.166 46.2242 101.427C45.0081 103.456 48.6063 107.122 48.6432 107.159L48.4729 107.326L48.4742 107.324Z" fill="#2B3A42"/>
<path d="M21.8182 102.261C21.8182 102.261 17.6113 98.0216 19.0598 95.6065C20.507 93.1913 22.9498 100.793 22.9498 100.793C22.9498 100.793 21.6835 91.8049 24.3072 91.6483C26.9308 91.4918 24.3072 100.793 24.3072 100.793C24.3072 100.793 25.279 98.6241 26.2297 98.4899C27.1791 98.3557 26.9084 100.329 25.2116 102.26H21.8195L21.8182 102.261Z" fill="#C7C7C7"/>
<path d="M22.1191 102.369C22.1072 102.357 20.903 101.138 19.918 99.5975C18.5738 97.4955 18.2542 95.8262 18.9673 94.637C19.234 94.1924 19.5535 93.9885 19.9166 94.0306C21.1512 94.1713 22.5046 97.356 23.2018 99.2437C23.1279 98.4886 23.0513 97.4955 23.0222 96.4497C22.9404 93.4834 23.2718 91.526 24.0046 90.6341C24.2898 90.2869 24.6384 90.0987 25.0412 90.0751C25.4333 90.0514 25.7542 90.1921 25.9958 90.4907C27.1683 91.939 26.1041 97.0272 25.5191 99.4068C25.9562 98.707 26.5755 97.9256 27.2093 97.8362C27.509 97.7928 27.748 97.9059 27.8814 98.1506C28.259 98.8451 27.7308 100.612 26.1912 102.364L25.9602 102.163C27.4734 100.441 27.8906 98.8109 27.6107 98.2966C27.5394 98.165 27.4245 98.115 27.2502 98.1387C26.4355 98.2532 25.4861 99.9987 25.189 100.662L24.9012 100.558C24.9065 100.538 25.4809 98.4926 25.8664 96.2511C26.3708 93.3203 26.3325 91.3945 25.7555 90.6815C25.5772 90.4605 25.3488 90.3618 25.0583 90.3789C24.7414 90.3974 24.4734 90.5447 24.241 90.8275C22.5931 92.8335 23.6508 100.501 23.6613 100.578L23.3629 100.646C22.8136 98.9385 21.1195 94.4765 19.8797 94.3345C19.6433 94.3068 19.4294 94.4581 19.2287 94.7936C17.6667 97.3994 22.2881 102.109 22.3356 102.155L22.1178 102.369H22.1191Z" fill="#2B3A42"/>
<path d="M117.925 107.044C117.925 107.044 114.788 103.882 115.868 102.081C116.948 100.28 118.769 105.95 118.769 105.95C118.769 105.95 117.825 99.2463 119.78 99.1293C121.737 99.0122 119.78 105.95 119.78 105.95C119.78 105.95 120.505 104.332 121.214 104.232C121.923 104.132 121.72 105.604 120.455 107.044H117.925Z" fill="#C7C7C7"/>
<path d="M118.151 107.124C118.142 107.115 117.244 106.206 116.51 105.057C115.508 103.489 115.269 102.244 115.801 101.356C115.999 101.025 116.237 100.872 116.509 100.904C117.431 101.009 118.439 103.385 118.96 104.791C118.905 104.228 118.847 103.487 118.826 102.707C118.765 100.495 119.012 99.0358 119.559 98.3702C119.772 98.1111 120.032 97.9703 120.331 97.9532C120.623 97.9361 120.864 98.04 121.043 98.2624C121.917 99.3436 121.124 103.137 120.688 104.913C121.014 104.391 121.476 103.808 121.948 103.742C122.172 103.711 122.349 103.794 122.449 103.977C122.731 104.495 122.337 105.812 121.188 107.119L121.017 106.969C122.144 105.685 122.457 104.469 122.249 104.086C122.195 103.987 122.109 103.95 121.981 103.969C121.373 104.054 120.664 105.357 120.442 105.851L120.228 105.774C120.232 105.758 120.662 104.233 120.948 102.561C121.324 100.376 121.295 98.9398 120.865 98.4071C120.732 98.2426 120.563 98.1703 120.345 98.1821C120.108 98.1966 119.909 98.3058 119.736 98.5162C118.507 100.012 119.296 105.731 119.304 105.788L119.082 105.838C118.673 104.565 117.408 101.237 116.485 101.131C116.308 101.11 116.15 101.223 115.999 101.475C114.833 103.419 118.281 106.93 118.317 106.965L118.154 107.126L118.151 107.124Z" fill="#2B3A42"/>
<path d="M134.121 115.838C134.121 115.838 130.864 112.555 131.985 110.684C133.106 108.814 134.998 114.701 134.998 114.701C134.998 114.701 134.017 107.739 136.049 107.618C138.081 107.497 136.049 114.701 136.049 114.701C136.049 114.701 136.802 113.022 137.538 112.918C138.274 112.814 138.064 114.342 136.75 115.838H134.123H134.121Z" fill="#C7C7C7"/>
<path d="M134.356 115.921C134.346 115.912 133.414 114.967 132.651 113.774C131.609 112.145 131.362 110.852 131.914 109.932C132.12 109.588 132.367 109.429 132.65 109.462C133.211 109.526 133.871 110.404 134.61 112.071C134.836 112.58 135.036 113.087 135.193 113.508C135.013 111.689 134.804 108.062 135.816 106.831C136.036 106.561 136.307 106.415 136.619 106.397C136.922 106.38 137.171 106.488 137.358 106.719C138.265 107.841 137.441 111.782 136.99 113.625C137.328 113.083 137.808 112.478 138.298 112.409C138.531 112.376 138.716 112.463 138.819 112.652C139.112 113.19 138.701 114.558 137.51 115.916L137.332 115.76C138.503 114.426 138.828 113.164 138.611 112.765C138.556 112.662 138.467 112.624 138.333 112.643C137.701 112.732 136.966 114.083 136.736 114.597L136.513 114.517C136.517 114.501 136.962 112.918 137.26 111.181C137.651 108.912 137.621 107.42 137.175 106.868C137.036 106.697 136.859 106.621 136.635 106.634C136.389 106.648 136.182 106.761 136.002 106.981C134.725 108.535 135.545 114.474 135.553 114.533L135.322 114.586C134.897 113.264 133.584 109.807 132.624 109.697C132.441 109.676 132.276 109.793 132.12 110.054C130.911 112.072 134.49 115.72 134.526 115.756L134.357 115.922L134.356 115.921Z" fill="#2B3A42"/>
<path d="M84.7928 116.513C84.7928 116.513 81.299 112.991 82.5005 110.985C83.7021 108.979 85.7316 115.293 85.7316 115.293C85.7316 115.293 84.6792 107.827 86.8592 107.698C89.0379 107.568 86.8592 115.293 86.8592 115.293C86.8592 115.293 87.6673 113.493 88.4556 113.381C89.2439 113.269 89.0194 114.908 87.6105 116.513H84.7928Z" fill="#C7C7C7"/>
<path d="M85.0436 116.602C85.0331 116.592 84.0335 115.579 83.2162 114.3C82.0991 112.553 81.8337 111.167 82.4266 110.179C82.6484 109.811 82.9125 109.641 83.2149 109.675C83.817 109.744 84.5247 110.685 85.3183 112.472C85.5599 113.018 85.7751 113.562 85.9428 114.014C85.75 112.063 85.5269 108.173 86.611 106.854C86.8486 106.565 87.1378 106.409 87.4719 106.389C87.798 106.369 88.0634 106.487 88.2654 106.734C89.2386 107.937 88.3552 112.163 87.8693 114.14C88.2324 113.558 88.7474 112.91 89.2729 112.835C89.5225 112.799 89.7205 112.893 89.8314 113.097C90.1457 113.674 89.706 115.141 88.4278 116.597L88.2364 116.43C89.4934 115 89.8407 113.645 89.6083 113.218C89.5489 113.108 89.4538 113.066 89.3099 113.086C88.6325 113.182 87.8442 114.632 87.5973 115.182L87.3583 115.096C87.3636 115.079 87.8403 113.381 88.1598 111.519C88.5784 109.086 88.5467 107.486 88.0674 106.893C87.9195 106.71 87.7307 106.629 87.4877 106.642C87.2236 106.658 87.0018 106.78 86.809 107.014C85.4397 108.679 86.3191 115.049 86.3284 115.113L86.0815 115.17C85.6259 113.752 84.217 110.045 83.1884 109.928C82.9917 109.905 82.8148 110.03 82.6471 110.309C81.3491 112.474 85.1889 116.385 85.2272 116.425L85.0463 116.604L85.0436 116.602Z" fill="#2B3A42"/>
<path d="M170.416 98.1282C170.416 98.1282 168.64 96.3379 169.252 95.3184C169.863 94.2989 170.894 97.5086 170.894 97.5086C170.894 97.5086 170.359 93.7136 171.467 93.6478C172.575 93.582 171.467 97.5086 171.467 97.5086C171.467 97.5086 171.878 96.5931 172.279 96.5365C172.681 96.4799 172.566 97.3126 171.85 98.1282H170.418H170.416Z" fill="#C7C7C7"/>
<path d="M170.544 98.173C170.544 98.173 170.03 97.6534 169.614 97.0022C169.046 96.1143 168.912 95.4092 169.213 94.908C169.325 94.7199 169.46 94.6344 169.614 94.6515C169.92 94.687 170.28 95.1646 170.684 96.0735C170.806 96.3511 170.916 96.6286 171.001 96.8575C170.903 95.8657 170.789 93.8886 171.34 93.2177C171.46 93.0704 171.608 92.9915 171.777 92.9809C171.942 92.9704 172.078 93.0296 172.18 93.1559C172.675 93.7676 172.226 95.9157 171.979 96.9207C172.164 96.6247 172.425 96.2958 172.692 96.2577C172.819 96.2393 172.919 96.2866 172.976 96.3905C173.136 96.6839 172.913 97.4297 172.263 98.169L172.165 98.0835C172.804 97.3561 172.98 96.6681 172.862 96.4511C172.832 96.3958 172.784 96.3748 172.711 96.384C172.367 96.4326 171.966 97.1693 171.84 97.4495L171.719 97.4061C171.728 97.3719 172.678 93.9741 172.079 93.2361C172.004 93.1427 171.908 93.1019 171.785 93.1085C171.652 93.1164 171.538 93.1782 171.44 93.2979C170.744 94.1451 171.191 97.3824 171.196 97.4153L171.071 97.4442C170.839 96.7234 170.123 94.8396 169.6 94.7791C169.499 94.7673 169.409 94.8317 169.325 94.9738C168.666 96.0748 170.616 98.0625 170.636 98.0822L170.544 98.173Z" fill="#2B3A42"/>
<path d="M101.533 74.4293C101.24 74.4293 100.968 74.3937 100.723 74.3188C100.16 74.1425 99.7715 73.7636 99.5708 73.1927C99.1628 72.0312 99.6949 70.1593 101.029 68.0573C102.303 66.0486 104.042 64.2622 105.678 63.2796C107.516 62.1759 109.096 62.1786 110.127 63.2849C110.897 64.1109 111.204 65.0094 111.039 65.9578C110.843 67.0825 110.001 68.2427 108.532 69.4056C107.454 70.2606 106.446 70.7868 106.404 70.8092C106.31 70.8578 106.195 70.821 106.146 70.7289C106.098 70.6355 106.135 70.5211 106.227 70.4724C106.267 70.4514 110.233 68.3677 110.662 65.8934C110.805 65.0686 110.532 64.278 109.848 63.544C108.7 62.3127 107.054 62.8981 105.874 63.6058C102.441 65.6671 99.1641 70.8841 99.9299 73.0678C100.091 73.5269 100.388 73.8176 100.837 73.957C103.547 74.8002 110.381 69.8897 110.45 69.8397C110.535 69.7779 110.654 69.7976 110.716 69.8818C110.778 69.9673 110.76 70.0857 110.674 70.1475C110.411 70.3369 104.712 74.4306 101.534 74.4306L101.533 74.4293Z" fill="#2B3A42"/>
</svg>
