<svg width="360" height="184" viewBox="0 0 360 184" fill="none" xmlns="http://www.w3.org/2000/svg">
<path d="M-0.0378289 183.908C-0.0378289 183.908 -46.6669 138.581 -14.9439 85.7836C9.52941 45.0524 68.7332 52.3098 99.1108 69.5392C112.049 76.8775 139.848 63.4197 175.103 22.557C216.029 -24.8804 374.482 4.06323 347.118 94.6998C333.875 138.562 387.421 140.156 360.138 184L-0.0378289 183.908V183.908Z" fill="#EBF3FA"/>
<path d="M168.681 101H164.052C159.612 101 156 97.2933 156 92.7377V77.2623C156 72.7061 159.612 69 164.052 69H168.681C173.121 69 176.732 72.7067 176.732 77.2623V92.7377C176.732 97.2939 173.12 101 168.681 101ZM164.052 73.8798C162.234 73.8798 160.756 75.3972 160.756 77.2616V92.7371C160.756 94.6021 162.235 96.1189 164.052 96.1189H168.681C170.498 96.1189 171.976 94.6015 171.976 92.7371V77.2616C171.976 75.3965 170.497 73.8798 168.681 73.8798H164.052Z" fill="#F99746"/>
<path d="M217.221 87.8506H174.775V82.1494H217.221C218.755 82.1494 219.999 83.4257 219.999 85C219.999 86.5743 218.755 87.8506 217.221 87.8506Z" fill="#F99746"/>
<path d="M211.895 86.7023H216.354V97.8741C216.354 99.1369 215.355 100.162 214.124 100.162C212.893 100.162 211.895 99.1369 211.895 97.8741V86.7023H211.895Z" fill="#F99746"/>
<path d="M312.267 135.999H247.54C241.061 135.999 235.809 130.741 235.809 124.255V68.1573C235.809 62.2013 236.975 56.4202 239.277 50.9731C241.498 45.7161 244.677 40.996 248.724 36.944C252.771 32.892 257.486 29.711 262.738 27.4874C267.427 25.5022 266.305 24.2995 271.388 24.0216C272.204 23.9769 279.081 24.0155 279.904 24.0155C285.854 24.0155 291.63 25.1834 297.07 27.4874C302.322 29.711 307.037 32.8928 311.085 36.944C315.133 40.996 318.311 45.7153 320.532 50.9731C322.833 56.4194 324 62.2013 324 68.1573V124.255C324 130.741 318.748 135.999 312.268 135.999H312.267ZM249.588 70.4969H310.219V68.1573C310.219 51.4237 296.62 37.8105 279.904 37.8105C263.189 37.8105 249.589 51.4245 249.589 68.1573V70.4969H249.588Z" fill="#4F75BA"/>
<path d="M304.459 135.999H239.732C233.252 135.999 228 130.742 228 124.255V68.1575C228 62.2014 229.167 56.4203 231.468 50.9732C233.69 45.7162 236.868 40.9962 240.915 36.9442C244.963 32.8922 249.677 29.7112 254.929 27.4875C260.37 25.1843 266.146 24.0164 272.096 24.0164C278.045 24.0164 283.821 25.1843 289.262 27.4883C294.513 29.7119 299.228 32.8937 303.276 36.945C307.324 40.997 310.502 45.7162 312.723 50.974C315.025 56.4203 316.191 62.2022 316.191 68.1583V124.256C316.191 130.742 310.939 136 304.46 136L304.459 135.999ZM241.78 70.4971H302.411V68.1575C302.411 51.4239 288.811 37.8106 272.096 37.8106C255.38 37.8106 241.781 51.4246 241.781 68.1575V70.4971H241.78Z" fill="#739AF0"/>
<path d="M277.552 92.4815C277.552 91.1182 277.052 89.8731 276.227 88.9165C275.47 87.7925 273.905 87.02 272.095 87.02C270.285 87.02 268.72 87.7925 267.963 88.9165C267.139 89.8731 266.639 91.1189 266.639 92.4815C266.639 94.9301 268.248 97.0016 270.466 97.6953V105.967C270.466 106.635 271.195 107.175 272.094 107.175C272.994 107.175 273.723 106.635 273.723 105.967V97.6953C275.941 97.0016 277.55 94.9293 277.55 92.4815H277.552Z" fill="#4F75BA"/>
<g clip-path="url(#clip0_1744_6531)">
<path d="M118.996 78.7391C118.946 78.7019 118.929 79.4834 117.965 80.1904C117.502 80.517 116.767 80.7982 115.978 80.5708C115.206 80.3599 114.45 79.6033 114.296 78.6027C114.212 78.1065 114.333 77.5773 114.621 77.1018C114.905 76.6263 115.331 76.2087 115.815 75.8324C116.771 75.0882 118.095 74.4721 118.854 73.178C119.614 71.9334 119.848 70.2961 119.372 68.7828C119.142 68.0262 118.758 67.3067 118.249 66.67C117.744 66.025 117.084 65.5081 116.437 65.0202C115.786 64.5282 115.139 64.061 114.625 63.4945C114.116 62.9322 113.774 62.2459 113.753 61.5306C113.732 60.8111 113.987 60.1124 114.35 59.5046C114.713 58.8885 115.185 58.3593 115.69 57.8796C116.692 56.9204 117.781 56.0645 118.458 54.9523C119.134 53.8525 119.38 52.6327 119.33 51.5536C119.284 50.4579 118.888 49.5358 118.554 48.7668C118.216 47.9936 117.928 47.3321 117.777 46.7615C117.46 45.6203 117.723 44.9587 117.665 44.9587C117.656 44.9587 117.644 44.996 117.623 45.0745C117.606 45.1531 117.56 45.2688 117.548 45.426C117.493 45.7361 117.489 46.2157 117.627 46.8028C117.756 47.3899 118.028 48.0763 118.345 48.8536C118.658 49.6309 119.021 50.5282 119.042 51.566C119.076 52.5955 118.825 53.7532 118.174 54.7828C117.527 55.8247 116.466 56.6475 115.431 57.6192C114.913 58.107 114.408 58.6611 114.02 59.3144C113.632 59.9635 113.34 60.7243 113.36 61.5471C113.377 62.3699 113.774 63.1596 114.325 63.7633C114.876 64.3752 115.544 64.8507 116.191 65.3427C116.838 65.8306 117.46 66.3185 117.936 66.9222C118.416 67.5217 118.779 68.1957 118.996 68.9027C119.447 70.3126 119.234 71.8383 118.537 73.0002C117.857 74.1951 116.608 74.7988 115.611 75.5844C115.11 75.9813 114.659 76.4278 114.354 76.9571C114.045 77.4781 113.916 78.0983 114.016 78.6523C114.212 79.7687 115.055 80.5708 115.92 80.7899C116.805 81.0132 117.581 80.6783 118.061 80.3186C118.554 79.9465 118.792 79.5123 118.904 79.2188C119.009 78.9169 119 78.7474 119 78.7474L118.996 78.7391Z" fill="#263238"/>
<path d="M76.1564 40.241C74.8246 40.1666 73.614 39.3934 72.2864 39.257C70.3911 39.0627 68.6168 40.1873 67.1974 41.4484C65.8031 42.6805 64.5465 44.1194 63.8117 45.8229C62.5886 48.6551 62.9225 51.9174 63.7533 54.8861C64.5006 57.553 65.6027 60.5134 64.2751 62.9487C63.8577 63.7178 63.2273 64.3504 62.7305 65.0698C61.5866 66.7444 61.2276 68.9192 61.7745 70.8667C62.3005 72.748 63.5947 74.3357 64.2042 76.188C64.8053 78.0238 64.6884 80.0829 63.8827 81.836C63.4277 82.8283 62.7681 83.7173 62.3464 84.722C61.6868 86.2932 61.6576 88.1166 62.2629 89.7084C62.7764 91.0481 63.7157 92.2347 63.9704 93.6447C64.3712 95.8815 62.9518 98.1225 63.244 100.376C68.7546 101.74 74.7328 103.076 79.9637 100.889C80.2977 100.748 80.6525 100.57 80.7861 100.235C80.8905 99.979 80.8362 99.6937 80.7819 99.425C80.0931 96.1999 78.7739 93.1072 76.9245 90.3659C75.6888 88.5301 74.1358 86.5868 74.428 84.3995C74.8163 81.5052 78.369 79.3221 77.6885 76.4816C77.271 74.7326 75.3966 73.7361 74.5074 72.1691C73.6808 70.7137 73.7851 68.911 74.1984 67.2943C74.6117 65.6776 75.3089 64.1313 75.6053 62.4857C76.0186 60.2116 75.6721 57.7514 76.6949 55.6758" fill="#263238"/>
<path d="M78.5227 38.4714C78.9527 38.8973 79.0362 39.563 79.0446 40.2493C79.0446 40.9481 78.9569 41.6799 78.7941 42.4655C78.6396 43.2511 78.4351 43.9623 78.1679 44.6073C77.8965 45.2399 77.5584 45.8229 76.999 46.0544C76.4563 46.2777 75.7299 46.0255 75.1538 45.211C74.8657 44.8099 74.6403 44.2765 74.515 43.6563C74.3981 43.0402 74.3898 42.3373 74.5275 41.6262C74.6737 40.915 74.9534 40.27 75.2999 39.7449C75.6547 39.2198 76.068 38.8146 76.4897 38.55C77.3371 38.0166 78.1053 38.0579 78.5186 38.4714H78.5227Z" fill="#FF725E"/>
<path d="M71.9854 60.2199C71.2172 58.0575 71.9186 55.6511 72.9581 53.6044C73.9976 51.5577 75.3836 49.664 76.0975 47.4851C76.8698 45.1283 76.8239 42.54 77.7757 40.2494C78.7609 37.8719 80.8274 35.9617 83.2863 35.1513C84.7767 34.6634 86.4299 34.5394 87.7198 33.6504C89.0474 32.7325 89.7362 31.1696 90.7423 29.9126C92.3788 27.8701 93.9443 26.117 96.374 25.1081C99.1419 23.9628 103.196 23.5411 105.972 24.6616C107.713 25.3645 109.061 26.824 109.917 28.482C110.773 30.14 111.178 31.9883 111.432 33.8323C114.275 34.374 115.916 37.2558 117.177 39.8318C117.886 41.283 118.609 42.7881 118.663 44.3965C118.725 46.1909 117.164 52.3557 116.287 53.9269C111.749 62.0474 105.003 63.7551 96.804 68.2495C93.6354 69.986 91.6816 73.9719 88.0622 73.8313C83.8499 73.67 79.7503 73.5088 77.3081 70.1059C74.8659 66.7031 72.1106 63.4946 71.7474 59.3351" fill="#263238"/>
<path d="M115.354 47.3734C115.124 41.5559 111.409 34.3408 105.552 34.8122L87.1954 38.951C85.417 39.0957 84.0435 40.5636 84.0352 42.3332L84.9411 85.9541C84.8993 85.9624 84.8576 85.9707 84.8158 85.979C84.8158 85.979 88.6482 98.3747 100.805 94.9305C103.214 94.2483 104.374 91.6848 104.917 89.0345L105.038 89.0552C105.051 88.7368 105.063 88.4432 105.076 88.1414C105.556 85.0776 105.305 82.1585 105.305 82.1585C105.431 78.6399 105.464 77.1969 105.468 77.23C105.468 77.23 112.991 76.1756 114.774 66.5294C115.663 61.7332 115.604 53.8318 115.35 47.3692L115.354 47.3734Z" fill="#F7A491"/>
<path d="M105.471 77.23C105.471 77.23 98.8836 77.4946 92.4629 73.4633C92.4629 73.4633 95.5898 80.4013 105.392 79.7273L105.471 77.23Z" fill="#EA856D"/>
<path d="M100.763 47.2783C100.621 47.638 99.2767 47.4354 97.6903 47.5884C96.0998 47.7083 94.8139 48.1383 94.6094 47.8075C94.5175 47.6504 94.7513 47.3114 95.2732 46.9723C95.795 46.6333 96.6174 46.319 97.5693 46.2363C98.5211 46.1537 99.3894 46.3273 99.9572 46.5713C100.533 46.8152 100.817 47.1088 100.759 47.2783H100.763Z" fill="#263238"/>
<path d="M113.116 47.5594C112.837 47.8571 111.785 47.5181 110.507 47.4726C109.234 47.3899 108.144 47.6215 107.902 47.299C107.798 47.1418 107.973 46.8441 108.453 46.5671C108.925 46.2901 109.71 46.0751 110.586 46.1206C111.463 46.166 112.219 46.4596 112.653 46.778C113.095 47.1005 113.237 47.4147 113.116 47.5636V47.5594Z" fill="#263238"/>
<path d="M83.1284 39.9392C84.1637 38.6616 85.8461 38.1199 87.4367 37.6899C94.3082 35.8211 101.405 34.7667 108.527 34.5558C109.258 36.0733 108.252 37.938 106.824 38.8435C105.396 39.7531 103.66 39.993 102.019 40.423C100.378 40.853 98.6667 41.5931 97.8568 43.0692C96.9968 44.6403 97.385 46.6415 96.6043 48.2541C95.2643 51.0284 91.1146 51.5494 89.7912 54.3321C88.7893 56.4366 89.4447 55.9529 89.5282 58.2766C89.6242 60.9103 87.9877 61.3073 85.8879 62.9239C84.2305 64.1974 81.0327 65.657 78.9453 65.4874C79.3043 57.1809 81.4752 53.1867 81.8342 44.8802C81.9094 43.1519 82.0304 41.2913 83.1242 39.9392H83.1284Z" fill="#263238"/>
<path d="M94.8516 26.733C94.8516 26.733 94.9058 26.6834 95.0269 26.6048C95.148 26.5346 95.315 26.4064 95.5571 26.2865C96.0247 26.026 96.7469 25.7159 97.6862 25.4967C98.6213 25.2735 99.7861 25.1784 101.055 25.3438C102.32 25.5092 103.685 25.9722 104.913 26.795C106.127 27.6385 107.042 28.7425 107.647 29.8588C108.252 30.9752 108.574 32.0874 108.691 33.0343C108.812 33.9811 108.774 34.7626 108.691 35.2877C108.666 35.5523 108.603 35.7508 108.578 35.8914C108.545 36.0278 108.528 36.0981 108.52 36.0981C108.453 36.0981 108.82 34.9321 108.536 33.0591C108.399 32.1288 108.073 31.0455 107.468 29.9539C106.871 28.8665 105.969 27.7956 104.787 26.9728C103.593 26.1707 102.266 25.7118 101.026 25.5381C99.7861 25.3644 98.6422 25.443 97.7154 25.6415C95.8493 26.0384 94.8766 26.7868 94.8516 26.7289V26.733Z" fill="#455A64"/>
<path d="M85.4538 34.5765C85.4538 34.5765 85.554 34.5683 85.7377 34.5683C85.9214 34.5807 86.1927 34.5559 86.535 34.4938C86.8732 34.4194 87.2865 34.2954 87.7248 34.0721C88.1674 33.8488 88.6433 33.547 89.1442 33.1707C89.6452 32.7986 90.1754 32.3603 90.7599 31.9097C91.3443 31.459 91.9956 30.9918 92.7595 30.6403C94.2708 29.925 96.1285 29.5074 98.0656 29.6149C100.003 29.7183 101.81 30.3137 103.226 31.2109C104.653 32.0957 105.701 33.2204 106.415 34.2499C107.137 35.2836 107.534 36.2304 107.759 36.892C107.872 37.2227 107.943 37.4873 107.981 37.6651C108.022 37.8429 108.039 37.938 108.035 37.9422C108.01 37.9504 107.93 37.57 107.68 36.9209C107.434 36.2717 107.02 35.3456 106.29 34.3367C105.568 33.332 104.524 32.2404 103.117 31.3804C101.723 30.508 99.9526 29.9291 98.0489 29.8299C96.1494 29.7265 94.3251 30.1276 92.8389 30.8222C92.0916 31.1613 91.4487 31.6161 90.86 32.0544C90.2714 32.4968 89.737 32.9268 89.2236 33.2948C88.7142 33.6628 88.2216 33.9605 87.7666 34.1796C87.3115 34.3987 86.8857 34.5145 86.5392 34.5765C86.1885 34.6261 85.9088 34.6385 85.7251 34.6137C85.5373 34.5972 85.4413 34.5848 85.4454 34.5807L85.4538 34.5765Z" fill="#455A64"/>
<path d="M77.2215 44.9298C77.2716 44.9215 77.2841 45.8683 77.735 47.2989C78.1733 48.7171 79.1502 50.6274 80.8702 52.1489C82.5944 53.6705 84.6149 54.4189 86.0928 54.6918C87.579 54.9729 88.5308 54.882 88.5266 54.9316C88.5266 54.9398 88.4682 54.9481 88.3555 54.9564C88.2427 54.9647 88.0799 54.9853 87.8628 54.9812C87.437 54.9936 86.815 54.9647 86.0594 54.8406C84.5565 54.6049 82.4816 53.8648 80.7199 52.3102C78.9624 50.7514 77.9855 48.7916 77.5805 47.3444C77.3718 46.6167 77.2716 46.0089 77.2382 45.5872C77.2132 45.3763 77.2132 45.2109 77.209 45.1034C77.209 44.9918 77.209 44.9339 77.2173 44.9339L77.2215 44.9298Z" fill="#455A64"/>
<path d="M86.4967 59.302C86.4967 59.302 86.2588 59.2813 85.833 59.1986C85.4113 59.1159 84.8018 58.9712 84.0629 58.7479C82.6017 58.2972 80.5561 57.4744 78.8153 55.8495C77.0786 54.2163 76.2353 52.1159 76.1059 50.5902C76.0307 49.8211 76.085 49.1968 76.1727 48.7751C76.2019 48.5642 76.2645 48.4029 76.2896 48.2954C76.323 48.1879 76.3397 48.13 76.348 48.1342C76.4065 48.1383 76.0683 49.0645 76.2562 50.5736C76.4273 52.0621 77.2664 54.1005 78.9656 55.6924C80.6688 57.2801 82.6685 58.1195 84.1088 58.6032C84.8352 58.8472 85.4364 59.0084 85.8497 59.12C86.2671 59.2275 86.4967 59.2896 86.4926 59.3061L86.4967 59.302Z" fill="#455A64"/>
<path d="M117.169 33.0301C117.16 33.1004 115.72 32.7448 113.967 33.088C112.209 33.4064 111.003 34.2664 110.969 34.2003C110.957 34.1796 111.232 33.9398 111.75 33.6503C112.263 33.3609 113.031 33.0425 113.925 32.873C114.818 32.7076 115.649 32.72 116.238 32.8027C116.826 32.8813 117.173 33.0053 117.169 33.026V33.0301Z" fill="#263238"/>
<path d="M113.261 28.0189C113.286 28.0189 113.349 28.4034 113.332 29.036C113.32 29.6645 113.207 30.5411 112.906 31.459C112.606 32.3769 112.18 33.1542 111.817 33.671C111.453 34.192 111.178 34.469 111.157 34.4525C111.094 34.4111 112.117 33.2038 112.698 31.3928C113.299 29.5859 113.182 28.0148 113.257 28.0189H113.261Z" fill="#263238"/>
<path d="M72.7305 74.6623C72.7555 74.6251 73.2314 75.051 74.1582 75.4479C75.0725 75.8449 76.4877 76.155 77.9948 75.8366C79.4977 75.5141 80.6624 74.6582 81.3346 73.9264C82.0192 73.1904 82.2739 72.6074 82.3156 72.6322C82.3281 72.6363 82.2739 72.7852 82.1403 73.0374C82.0067 73.2896 81.7854 73.6411 81.4514 74.0297C80.796 74.807 79.6062 75.7167 78.0449 76.0516C76.4835 76.3782 75.0182 76.0309 74.0998 75.5885C73.6364 75.3694 73.2857 75.142 73.0603 74.9642C72.8348 74.7864 72.7263 74.6747 72.7346 74.6665L72.7305 74.6623Z" fill="#263238"/>
<path d="M69.957 71.6771C69.957 71.6771 70.2159 71.706 70.6834 71.768C71.1385 71.8135 71.844 71.9293 72.6163 71.6399C72.9879 71.4951 73.3469 71.1933 73.5598 70.7757C73.6642 70.569 73.7351 70.3333 73.731 70.0894C73.7226 69.8495 73.6308 69.6056 73.4638 69.4195C73.1215 69.0474 72.4702 68.9482 71.9734 69.2004C71.4683 69.4485 71.1593 70.048 71.1593 70.6434C71.1468 71.2512 71.4516 71.8177 71.844 72.2353C72.2406 72.6653 72.7457 72.9588 73.2509 73.1449C74.2779 73.5046 75.3174 73.4095 76.0897 73.1407C76.8829 72.8844 77.4172 72.4503 77.7429 72.1236C77.818 72.0409 77.889 71.9665 77.9558 71.9003L78.0935 71.7226C78.1687 71.6275 78.2146 71.5778 78.2188 71.582C78.2271 71.582 78.1937 71.644 78.1311 71.7474C78.0935 71.8052 78.0518 71.8714 78.01 71.9417C77.9474 72.0161 77.8806 72.0947 77.8097 72.1815C77.4966 72.5288 76.958 73.0002 76.1481 73.2813C75.3549 73.579 74.2779 73.6989 73.1924 73.3309C72.6581 73.1407 72.1237 72.8306 71.6979 72.38C71.2762 71.9334 70.9381 71.3215 70.9506 70.6393C70.9506 69.9777 71.2929 69.2996 71.8899 69.0102C72.4744 68.7249 73.2091 68.8365 73.6266 69.2872C73.827 69.5146 73.9314 69.8041 73.9355 70.0852C73.9355 70.3664 73.852 70.631 73.731 70.8584C73.4888 71.3132 73.0922 71.6357 72.6831 71.7846C71.8523 72.074 71.1385 71.9251 70.6834 71.8549C70.4496 71.8135 70.2743 71.768 70.1532 71.7391C70.0322 71.706 69.9696 71.6895 69.9737 71.6812L69.957 71.6771Z" fill="#263238"/>
<path d="M86.5847 55.4608C86.4344 55.3906 80.4729 53.3935 80.4145 59.5004C80.356 65.6074 86.5596 64.4042 86.5722 64.2305C86.5847 64.0569 86.5847 55.4608 86.5847 55.4608Z" fill="#F7A491"/>
<path d="M84.7115 61.8985C84.6864 61.8779 84.6029 61.973 84.4192 62.0515C84.2397 62.1301 83.935 62.1838 83.6177 62.0598C82.9706 61.8159 82.4279 60.7863 82.4112 59.6865C82.3987 59.1324 82.5239 58.6032 82.7243 58.1649C82.9163 57.7184 83.2127 57.4124 83.5384 57.3545C83.864 57.2842 84.0936 57.4786 84.1687 57.6522C84.2481 57.8217 84.2105 57.9458 84.2439 57.9541C84.2606 57.9706 84.3775 57.8548 84.3316 57.5985C84.3065 57.4786 84.2355 57.3339 84.0936 57.2139C83.9475 57.094 83.7304 57.032 83.5008 57.0527C83.0249 57.0816 82.5949 57.5116 82.3694 57.9871C82.119 58.4668 81.9687 59.0621 81.9812 59.6865C82.0104 60.9186 82.6325 62.0763 83.5217 62.3368C83.9558 62.4526 84.319 62.3286 84.5069 62.1838C84.6989 62.035 84.7323 61.8985 84.7115 61.8861V61.8985Z" fill="#784D48"/>
<path d="M81.4041 62.9033C81.4041 62.9033 81.3081 62.9694 81.1202 63.0769C80.9324 63.1886 80.6443 63.3333 80.2936 63.5524C79.6131 63.9948 78.6864 64.8259 78.1186 66.1821C77.8389 66.8519 77.6636 67.6457 77.6844 68.4975C77.697 69.3492 77.9182 70.2589 78.3816 71.0982C78.8283 71.9458 79.5463 72.7025 80.4314 73.2565C81.329 73.794 82.406 74.1207 83.5207 74.1041C84.0759 74.0917 84.627 74.0214 85.1446 73.856C85.6665 73.7072 86.1507 73.4757 86.5933 73.1945C87.4825 72.6363 88.1588 71.8466 88.6055 70.999C89.4989 69.2789 89.3611 67.3894 88.7641 66.0746C88.1671 64.7349 87.2236 63.9204 86.5348 63.4945C85.8376 63.0562 85.3868 62.9322 85.3951 62.9074C85.3951 62.9074 85.8543 63.0025 86.5766 63.4242C87.2904 63.8377 88.2715 64.6481 88.9019 66.0167C89.2108 66.6948 89.4154 67.5052 89.4195 68.3859C89.4195 69.2624 89.24 70.2093 88.7808 71.0941C88.3258 71.9748 87.6286 72.7934 86.706 73.3764C86.2509 73.67 85.7458 73.9139 85.2073 74.0669C84.6729 74.2406 84.101 74.315 83.5249 74.3274C82.3685 74.3481 81.2496 74.009 80.3228 73.4467C79.4044 72.8679 78.6655 72.0823 78.2063 71.2057C77.7345 70.3333 77.5091 69.3906 77.5049 68.514C77.4882 67.6333 77.6803 66.8188 77.9767 66.1366C78.5778 64.7556 79.5422 63.9245 80.2477 63.4945C80.6067 63.2837 80.9031 63.1555 81.0952 63.0521C81.2914 62.957 81.3957 62.9074 81.3999 62.9157L81.4041 62.9033Z" fill="white"/>
<path d="M76.7278 44.2765C76.7278 44.2765 76.732 44.3799 76.7237 44.5742C76.7028 44.7685 76.7153 45.0621 76.6402 45.4259C76.5483 46.166 76.2561 47.2163 75.7343 48.4443C75.2124 49.6723 74.4317 51.0574 73.6219 52.612C73.2127 53.3893 72.8161 54.2163 72.4655 55.1011C72.1106 55.9818 71.8392 56.9328 71.7098 57.9251C71.4552 59.918 71.8267 61.8613 72.5448 63.4449C72.8955 64.2429 73.3547 64.9375 73.8139 65.566C74.2773 66.1945 74.7323 66.7651 75.1498 67.2819C75.9847 68.3156 76.6944 69.1301 77.1829 69.6883C77.4167 69.9529 77.6045 70.1679 77.7506 70.3333C77.8801 70.4821 77.9469 70.5607 77.9385 70.5648C77.9343 70.569 77.855 70.4987 77.7172 70.3622C77.5795 70.2258 77.3749 70.0149 77.1203 69.7462C76.6068 69.2045 75.8804 68.4065 75.0287 67.3811C74.6029 66.8684 74.1437 66.302 73.6678 65.6776C73.196 65.0492 72.7243 64.3421 72.3611 63.5317C71.618 61.9233 71.2339 59.9387 71.4927 57.9044C71.6263 56.8873 71.906 55.9239 72.2651 55.0308C72.6199 54.1377 73.029 53.3025 73.4423 52.5293C74.2689 50.9747 75.058 49.602 75.5923 48.3905C76.1309 47.1832 76.4398 46.1495 76.5567 45.4218C76.6443 45.0621 76.6485 44.7727 76.6819 44.5783C76.707 44.384 76.7237 44.2848 76.732 44.2848L76.7278 44.2765Z" fill="#455A64"/>
<path d="M57.479 78.9334C57.479 78.9334 57.4665 78.8797 57.4164 78.797C57.3663 78.7143 57.2619 78.5944 57.074 78.5324C56.8945 78.4704 56.6315 78.458 56.3727 78.5737C56.1139 78.6895 55.9176 78.9872 55.8341 79.3428C55.7507 79.7025 55.7674 80.1242 55.8425 80.5708C55.9176 81.0132 56.0679 81.5052 56.427 81.8856C56.7818 82.2701 57.3663 82.4521 57.9549 82.3528C58.5394 82.2619 59.1363 81.9435 59.5329 81.4225C59.9337 80.8974 60.1341 80.2069 60.18 79.4875C60.2259 78.7639 60.1258 78.0073 59.9671 77.2341C59.654 75.6877 59.0654 74.1 58.5644 72.3841C58.0634 70.6806 57.7002 68.7704 58.0509 66.8271C58.2346 65.8637 58.6145 64.9003 59.2574 64.1023C59.892 63.3085 60.681 62.6386 61.1277 61.7249C61.5952 60.8276 61.804 59.8229 61.8624 58.8389C61.9209 57.8507 61.8374 56.8707 61.6913 55.9156C61.3949 54.0095 60.9189 52.182 60.8855 50.3793C60.848 48.5807 61.2863 46.8772 62.0127 45.4549C62.7349 44.0243 63.7244 42.8666 64.7889 42.0148C65.8535 41.1589 66.989 40.6173 68.0118 40.27C69.0429 39.9268 69.9739 39.7862 70.7337 39.7366C71.4977 39.687 72.0905 39.7366 72.4871 39.7738C72.6875 39.7986 72.8377 39.8234 72.9379 39.84C73.0381 39.8565 73.0924 39.8689 73.0882 39.8689C73.0882 39.8689 73.034 39.8689 72.9338 39.8606C72.821 39.8482 72.6708 39.8358 72.4829 39.8152C72.0863 39.7904 71.4935 39.7573 70.7379 39.8152C69.9864 39.8772 69.0638 40.0302 68.0494 40.3816C67.0391 40.7372 65.9244 41.2788 64.8849 42.1306C63.8412 42.9782 62.8769 44.1235 62.1714 45.5334C61.4617 46.9351 61.04 48.6096 61.0818 50.3752C61.1193 52.1448 61.5952 53.9641 61.9 55.8826C62.0545 56.8418 62.138 57.8383 62.0795 58.8513C62.0211 59.856 61.8082 60.8897 61.3197 61.8241C60.848 62.7792 60.0381 63.4656 59.4244 64.2346C58.8024 65.0037 58.435 65.9298 58.2555 66.8643C57.909 68.758 58.2597 70.6351 58.7523 72.3303C59.2449 74.0338 59.8335 75.634 60.1424 77.201C60.3011 77.9783 60.3971 78.7515 60.347 79.4999C60.2969 80.24 60.084 80.9636 59.6582 81.5176C59.2282 82.0717 58.5978 82.3983 57.9758 82.4893C57.3537 82.5885 56.715 82.3859 56.3393 81.9683C55.9594 81.5548 55.8133 81.0421 55.7423 80.5873C55.6755 80.1325 55.6588 79.6984 55.7548 79.3221C55.8467 78.95 56.0638 78.6357 56.3476 78.5158C56.6273 78.3959 56.8987 78.4166 57.0907 78.491C57.2869 78.5613 57.3913 78.6936 57.4372 78.7846C57.4832 78.8797 57.4832 78.9334 57.4832 78.9334H57.479Z" fill="#263238"/>
<path d="M86.6469 85.2554C86.6469 85.2554 94.7041 89.2826 98.7577 88.5632C103.83 87.6659 105.107 85.4994 105.107 85.4994L107.145 90.0971L121.748 184H73.793L83.9333 87.7982L86.6511 85.2554H86.6469Z" fill="#FFD8E4"/>
<path d="M100.861 110.7C100.861 110.7 98.1766 97.0682 87.1511 86.3552L83.8656 77.1266C83.8656 77.1266 79.7535 77.9742 79.1315 79.8183C78.5095 81.6623 78.2006 84.2796 78.2006 84.2796C78.2006 84.2796 63.7602 87.0498 61.5852 89.8159C59.4102 92.5862 71.2121 143.182 71.2121 143.182C71.2121 143.182 62.4702 163.182 61.5226 170.103C60.4121 178.203 60.4121 184 60.4121 184H101.679C101.679 179.696 103.357 142.26 103.357 142.26L100.861 110.7Z" fill="#3B8AD2"/>
<path d="M87.1511 86.3552C87.1678 86.4007 86.2118 86.5702 84.8384 87.2483C84.1579 87.5915 83.3814 88.0752 82.6216 88.7368C81.8618 89.3983 81.1229 90.2294 80.4758 91.1887C80.3422 91.383 80.2169 91.5856 80.0959 91.7717L79.9999 91.9205L79.9122 91.7717C78.7725 89.8862 78.3216 87.9347 78.2173 86.5413C78.163 85.8425 78.1755 85.2802 78.2047 84.8915C78.2173 84.6972 78.2381 84.5484 78.2507 84.4491C78.2632 84.3499 78.2757 84.2961 78.2841 84.2961C78.3008 84.2961 78.2924 84.5111 78.2841 84.8957C78.2799 85.2802 78.2882 85.8384 78.3634 86.5289C78.5011 87.8975 78.9729 89.8118 80.0959 91.66H79.9122C80.0333 91.4698 80.1585 91.2672 80.2963 91.0688C80.9559 90.093 81.7157 89.2536 82.4922 88.588C83.2728 87.9264 84.0702 87.4426 84.7716 87.1119C85.4729 86.7811 86.0741 86.595 86.4915 86.4834C86.7003 86.4296 86.8673 86.3966 86.9758 86.3759C87.0885 86.3552 87.147 86.3469 87.147 86.3552H87.1511Z" fill="white"/>
<path d="M97.4598 120.499C97.4598 120.499 97.4306 120.375 97.393 120.144C97.3555 119.892 97.3054 119.548 97.2428 119.114C97.2094 118.891 97.176 118.643 97.1384 118.37C97.0841 118.097 97.0298 117.808 96.9672 117.494C96.8462 116.865 96.7209 116.146 96.5163 115.364C95.7899 112.222 94.4666 107.947 92.5378 103.411C91.5818 101.137 90.5883 99.0074 89.6072 97.1095C88.6428 95.2035 87.6827 93.533 86.8519 92.1479C86.0086 90.7669 85.2739 89.6836 84.752 88.9435C84.4932 88.588 84.2886 88.3068 84.1383 88.1001C84.0006 87.9057 83.9296 87.8024 83.9338 87.7982C83.9379 87.7941 84.0214 87.8892 84.1717 88.0752C84.3304 88.2778 84.5475 88.5507 84.8188 88.8939C85.3615 89.6175 86.1171 90.6966 86.9813 92.0694C87.8288 93.4503 88.8098 95.1125 89.7867 97.0227C90.7803 98.9205 91.7822 101.054 92.7424 103.332C94.6753 107.88 95.9778 112.176 96.6708 115.335C96.8629 116.121 96.9797 116.844 97.0883 117.477C97.1426 117.791 97.1927 118.085 97.2428 118.358C97.2761 118.631 97.3054 118.879 97.3304 119.106C97.3763 119.54 97.4139 119.888 97.4431 120.14C97.4682 120.375 97.4765 120.499 97.4682 120.504L97.4598 120.499Z" fill="white"/>
<path d="M81.9235 154.615C81.9235 154.615 81.8901 154.677 81.8066 154.776C81.7064 154.896 81.5853 155.041 81.4392 155.214C81.0927 155.619 80.6335 156.157 80.0741 156.81C78.926 158.162 77.3605 160.048 75.7032 162.185C74.0458 164.323 72.6097 166.308 71.5911 167.759C71.0985 168.462 70.6893 169.045 70.3846 169.479C70.251 169.665 70.1424 169.818 70.0506 169.942C69.9713 170.045 69.9295 170.099 69.9212 170.095C69.9128 170.095 69.9462 170.029 70.013 169.917C70.0923 169.785 70.1925 169.624 70.3094 169.429C70.5724 169.008 70.9649 168.408 71.4575 167.672C72.4469 166.2 73.8663 164.195 75.5278 162.053C77.1894 159.911 78.7757 158.038 79.9572 156.711C80.5458 156.045 81.0343 155.516 81.3766 155.156C81.5352 154.991 81.6646 154.859 81.7732 154.743C81.865 154.652 81.9193 154.602 81.9235 154.611V154.615Z" fill="white"/>
<path d="M85.8325 158.456C85.8325 158.456 85.795 158.526 85.7031 158.65C85.5946 158.791 85.461 158.964 85.294 159.175C84.935 159.63 84.4006 160.279 83.7243 161.065C82.3759 162.64 80.443 164.761 78.1761 166.973C75.8925 169.21 73.7008 171.108 72.0936 172.423L72.0393 172.464L71.9892 172.419C71.2628 171.732 70.67 171.166 70.2316 170.752C70.0438 170.566 69.8851 170.413 69.7641 170.294C69.6597 170.186 69.6054 170.128 69.6096 170.124C69.6138 170.12 69.6764 170.165 69.7933 170.265C69.9269 170.38 70.0897 170.521 70.2901 170.695C70.7368 171.096 71.3463 171.641 72.0936 172.307H71.9934C73.5714 170.963 75.7381 169.053 78.0216 166.82C80.2843 164.612 82.2298 162.512 83.6074 160.966C84.2754 160.205 84.8222 159.581 85.2272 159.122C85.4067 158.919 85.5528 158.754 85.6697 158.621C85.7741 158.51 85.8284 158.452 85.8367 158.456H85.8325Z" fill="white"/>
<path d="M85.6484 158.299C85.6024 158.34 84.7299 157.464 83.6988 156.339C82.6634 155.218 81.8661 154.276 81.9078 154.234C81.9537 154.193 82.8263 155.07 83.8574 156.194C84.8886 157.315 85.6901 158.257 85.6484 158.299Z" fill="white"/>
<path d="M96.4026 184C96.4026 184 96.4026 183.955 96.4068 183.872C96.4151 183.777 96.4277 183.653 96.4444 183.5C96.4861 183.157 96.5446 182.677 96.6155 182.069C96.6948 181.449 96.7867 180.688 96.8827 179.803C96.9787 178.918 97.104 177.914 97.2083 176.801C97.4421 174.577 97.6717 171.918 97.8805 168.97C98.0767 166.018 98.2395 162.768 98.3313 159.357C98.4107 155.942 98.4107 152.688 98.3606 149.732C98.3021 146.771 98.2019 144.109 98.0808 141.876C98.0307 140.759 97.9556 139.746 97.9055 138.862C97.8554 137.973 97.797 137.212 97.751 136.588C97.7093 135.976 97.6759 135.492 97.6509 135.149C97.6425 134.996 97.6342 134.872 97.63 134.772C97.63 134.69 97.63 134.644 97.63 134.644C97.63 134.644 97.6425 134.686 97.6509 134.772C97.6634 134.867 97.6759 134.992 97.6926 135.145C97.726 135.488 97.7719 135.967 97.8345 136.579C97.8972 137.204 97.964 137.964 98.0266 138.853C98.0934 139.742 98.1769 140.751 98.2353 141.868C98.3773 144.104 98.49 146.767 98.5609 149.728C98.6194 152.688 98.6277 155.946 98.5484 159.366C98.4566 162.781 98.2854 166.035 98.0808 168.987C97.8638 171.939 97.6175 174.598 97.3628 176.822C97.2501 177.934 97.1123 178.939 97.0038 179.824C96.8952 180.709 96.7909 181.465 96.699 182.086C96.6072 182.693 96.5362 183.173 96.4861 183.512C96.4611 183.665 96.4402 183.789 96.4277 183.884C96.411 183.967 96.4026 184.008 96.3984 184.008L96.4026 184Z" fill="white"/>
<path d="M115.301 83.1715C115.301 83.1715 119.363 82.7084 123.73 88.5714C128.096 94.4344 133.214 113.098 133.461 120.049C133.703 126.999 135.573 137.989 130.589 141.214C125.604 144.439 122.331 144.224 119.68 142.554C117.029 140.888 115.518 135.335 115.518 135.335L115.305 83.1674L115.301 83.1715Z" fill="#3B8AD2"/>
<path d="M112.583 184C108.17 174.122 106.922 166.688 105.899 154.408C104.876 142.128 102.363 116.204 101.808 115.914C101.403 115.703 100.589 106.735 100.184 101.964C100.021 100.041 100.339 98.1184 101.115 96.3488C102.042 94.2318 103.202 91.6145 103.361 91.4616C103.628 91.2011 105.11 85.5035 105.11 85.5035L105.294 78.1727L109.615 82.0965L115.305 83.1756L120.757 143.749C120.757 143.749 128.063 162.19 129.324 168.363C130.589 174.536 129.72 184 129.72 184" fill="#3B8AD2"/>
<path d="M109.66 82.0841C109.66 82.0841 109.71 82.1378 109.794 82.2495C109.873 82.3611 109.998 82.5224 110.145 82.7456C110.441 83.1839 110.854 83.8413 111.313 84.7055C112.228 86.4214 113.284 89.0179 113.731 92.2141L113.756 92.4043L113.58 92.3174C112.036 91.5442 110.145 91.0688 108.166 91.0894C107.03 91.106 105.924 91.2796 104.905 91.5897L104.976 91.4574C105.352 92.5738 105.715 93.6488 106.053 94.6618L106.083 94.7486L105.995 94.7858C104.646 95.3316 103.557 96.1792 102.785 97.0889C101.996 97.9902 101.507 98.9371 101.202 99.7475C100.898 100.562 100.777 101.24 100.722 101.707C100.676 102.175 100.664 102.431 100.651 102.427C100.647 102.427 100.643 102.365 100.643 102.241C100.643 102.117 100.639 101.935 100.66 101.699C100.697 101.228 100.802 100.537 101.09 99.7061C101.382 98.8792 101.862 97.9075 102.659 96.9814C103.436 96.0469 104.542 95.1704 105.92 94.6039L105.861 94.728C105.515 93.715 105.152 92.6441 104.768 91.5277L104.734 91.4243L104.839 91.3913C105.878 91.077 107.005 90.8951 108.162 90.8786C110.178 90.8538 112.103 91.3458 113.672 92.1396L113.526 92.243C113.1 89.0717 112.077 86.4875 111.201 84.7634C110.762 83.8992 110.366 83.2335 110.09 82.7828C109.957 82.572 109.852 82.4024 109.769 82.2701C109.698 82.1544 109.66 82.0923 109.664 82.0882L109.66 82.0841Z" fill="white"/>
<path d="M107.31 110.804C107.035 109.919 106.012 109.336 105.102 109.547L104.605 109.737C103.791 110.192 103.432 111.308 103.833 112.143C104.233 112.978 105.331 113.413 106.204 113.078C107.076 112.743 107.59 111.688 107.314 110.804H107.31Z" fill="#EBEBEB"/>
<path d="M110.207 140.937C109.931 140.052 108.908 139.469 107.998 139.68L107.501 139.87C106.687 140.325 106.328 141.442 106.729 142.277C107.13 143.112 108.228 143.546 109.1 143.211C109.973 142.876 110.486 141.822 110.211 140.937H110.207Z" fill="#EBEBEB"/>
<path d="M112.17 161.255C111.894 160.37 110.871 159.787 109.957 159.998L109.46 160.188C108.646 160.643 108.287 161.76 108.688 162.595C109.089 163.43 110.187 163.864 111.059 163.529C111.932 163.194 112.445 162.14 112.17 161.255Z" fill="#EBEBEB"/>
<path d="M122.119 184C122.119 184 122.056 183.901 121.956 183.706C121.848 183.491 121.706 183.206 121.53 182.846C121.159 182.098 120.645 181.006 120.032 179.646C118.8 176.93 117.197 173.126 115.682 168.834C114.17 164.538 113.035 160.573 112.288 157.687C111.916 156.244 111.632 155.07 111.448 154.259C111.361 153.866 111.294 153.556 111.244 153.321C111.198 153.106 111.177 152.994 111.185 152.99C111.194 152.986 111.227 153.097 111.286 153.308C111.348 153.54 111.428 153.85 111.532 154.234C111.736 155.041 112.045 156.207 112.434 157.645C113.214 160.519 114.375 164.472 115.882 168.76C117.397 173.047 118.971 176.851 120.165 179.58C120.762 180.944 121.255 182.048 121.601 182.805C121.764 183.173 121.894 183.462 121.994 183.682C122.081 183.884 122.123 183.992 122.115 183.996L122.119 184Z" fill="white"/>
<path d="M61.5847 89.8159C61.5847 89.8159 55.6315 94.3476 54.4292 104.337C53.2269 114.326 55.4812 127.144 55.4812 127.144L56.2327 135.938C56.2327 135.938 55.3309 140.71 57.1344 144.137C58.9421 147.565 57.1344 149.802 62.5532 151.443C67.972 153.085 67.8217 155.169 74.2925 154.127C80.7633 153.085 83.4727 148.76 83.4727 148.76L76.3965 132.957C76.3965 132.957 76.096 131.093 72.6351 132.66L70.8275 109.704C70.8275 109.704 64.6739 90.8 61.5805 89.8159H61.5847Z" fill="#3B8AD2"/>
<path d="M62.2031 141.218C62.2031 141.218 62.2156 141.016 62.3033 140.656C62.3868 140.3 62.5413 139.788 62.8043 139.184C63.3136 137.977 64.3281 136.393 65.9311 135.145C67.5134 133.896 69.2125 133.102 70.5108 132.821C71.1579 132.676 71.6964 132.626 72.068 132.626C72.4395 132.626 72.6441 132.647 72.6399 132.66C72.6399 132.709 71.8133 132.643 70.5484 132.97C69.2793 133.284 67.6302 134.082 66.0647 135.314C64.495 136.538 63.4806 138.072 62.942 139.246C62.3952 140.425 62.2449 141.227 62.2031 141.214V141.218Z" fill="white"/>
<path d="M75.5194 152.163C75.5194 152.163 75.4401 152.134 75.294 152.064C75.1478 151.993 74.9433 151.882 74.6886 151.716C74.1751 151.394 73.4654 150.86 72.7307 150.058C71.9959 149.26 71.2403 148.198 70.6016 146.916C69.9545 145.638 69.416 144.158 68.9317 142.591C68.4432 141.032 68.0049 139.486 68.1093 138.035C68.1552 137.315 68.3472 136.637 68.6603 136.071C68.986 135.508 69.3909 135.062 69.7875 134.69C70.5891 133.95 71.328 133.47 71.8331 133.139C72.0878 132.974 72.2882 132.854 72.4259 132.771C72.5637 132.689 72.6388 132.651 72.643 132.655C72.6472 132.66 72.5804 132.713 72.451 132.804C72.3007 132.908 72.1128 133.04 71.8832 133.205C71.3948 133.557 70.6725 134.053 69.8961 134.797C69.512 135.169 69.1237 135.612 68.819 136.153C68.5267 136.699 68.3514 137.348 68.3097 138.047C68.2178 139.453 68.652 140.97 69.1404 142.529C69.6247 144.092 70.1507 145.56 70.7811 146.829C71.4031 148.098 72.1337 149.157 72.8434 149.959C73.5531 150.761 74.2419 151.307 74.7345 151.65C75.2313 151.993 75.5277 152.146 75.5194 152.163Z" fill="white"/>
<path d="M60.6582 96.4687C60.6582 96.4687 60.8252 96.6051 61.1049 96.8656C61.3846 97.1302 61.7937 97.5023 62.3156 97.9448C63.3467 98.8461 64.8788 99.9708 66.436 101.385C67.9932 102.803 69.1454 104.37 69.6923 105.639C69.972 106.272 70.1264 106.81 70.2016 107.186C70.2475 107.372 70.2559 107.521 70.2726 107.624C70.2851 107.723 70.2893 107.777 70.2809 107.777C70.235 107.789 70.1431 106.934 69.5545 105.701C68.9826 104.469 67.8345 102.944 66.2899 101.542C64.7452 100.14 63.2257 98.9908 62.2154 98.0564C61.7061 97.5933 61.3095 97.2047 61.0465 96.9194C60.7834 96.6382 60.6499 96.4728 60.6624 96.4645L60.6582 96.4687Z" fill="white"/>
<path d="M74.2012 134.549L95.5214 122.12L96.9032 134.52L79.2233 148.297C79.2233 148.297 76.4555 144.29 75.5329 141.256C74.6103 138.225 74.2012 134.553 74.2012 134.553V134.549Z" fill="#F7A491"/>
<path d="M108.762 122.211L117.542 115.207C117.851 114.959 118.235 114.827 118.631 114.827L130.884 114.856C131.381 114.856 131.794 115.24 131.815 115.728C131.836 116.208 131.765 116.762 131.414 117.051C130.717 117.622 112.795 132.263 112.795 132.263L97.8789 131.159L108.762 122.215V122.211Z" fill="#E0E0E0"/>
<path d="M95.5218 122.12C95.5218 122.12 100.235 118.023 101.396 117.721C102.556 117.419 107.866 117.01 107.866 117.01L112.538 119.168L109.933 121.252C107.979 120.991 107.365 120.297 107.365 120.297L104.297 120.756L95.5176 122.12H95.5218Z" fill="#F7A491"/>
<path d="M101.034 120.053L109.204 122.1L120.743 122.753C120.743 122.753 121.006 125.035 118.684 125.478C117.319 125.738 114.927 126.098 114.927 126.098C114.927 126.098 114.522 128.223 112.786 128.831C112.786 128.831 112.139 130.365 111.237 130.981C111.128 131.055 111.016 131.117 110.903 131.159C109.83 131.564 107.897 134.686 106.469 135.202C105.042 135.719 96.9092 134.516 96.9092 134.516L95.5273 122.116L101.038 120.049L101.034 120.053Z" fill="#F7A491"/>
<path d="M121.083 123.981C121.083 123.981 120.173 123.753 121.008 122.302C121.843 120.851 124.636 122.298 124.636 122.298L128.193 124.018C128.193 124.018 129.103 125.701 128.193 126.243L127.567 127.152C127.567 127.152 129.003 128.368 128.564 129.579C128.126 130.791 126.803 130.729 126.803 130.729C126.803 130.729 127.153 133.069 126.46 134.036C125.763 135.004 125.066 135.145 125.066 135.145C125.066 135.145 124.582 137.15 122.348 137.911C120.119 138.671 118.933 138.812 118.236 137.915C117.539 137.018 117.046 135.843 117.046 135.843C117.046 135.843 111.953 133.706 111.74 132.432C111.527 131.155 111.74 131.018 111.74 131.018C111.74 131.018 111.26 129.98 111.686 129.153C112.112 128.326 114.107 128.852 114.107 128.852L120.453 129.79C120.453 129.79 115.276 127.88 114.621 127.169C113.965 126.458 114.521 125.482 116.541 125.552C118.562 125.622 124.703 126.251 124.703 126.251C124.703 126.251 124.352 125.676 123.935 125.544C123.517 125.411 122.206 124.791 122.206 124.791L121.075 123.985L121.083 123.981Z" fill="#F7A491"/>
<path d="M131.274 115.922C131.274 115.922 131.195 115.931 131.044 115.926C130.869 115.918 130.652 115.91 130.389 115.898C129.821 115.873 128.999 115.836 127.98 115.802C125.947 115.74 123.133 115.728 120.031 115.91C119.259 115.96 118.478 115.951 117.886 116.34C117.589 116.526 117.322 116.77 117.051 116.993C116.779 117.217 116.516 117.44 116.257 117.655C115.23 118.507 114.304 119.276 113.515 119.929C112.747 120.557 112.116 121.07 111.653 121.45C111.444 121.616 111.277 121.748 111.139 121.856C111.022 121.947 110.956 121.992 110.951 121.984C110.947 121.98 111.001 121.922 111.11 121.823C111.239 121.707 111.402 121.562 111.598 121.388C112.049 120.996 112.667 120.466 113.414 119.817C114.195 119.152 115.114 118.37 116.128 117.506C116.383 117.291 116.646 117.068 116.913 116.84C117.184 116.617 117.447 116.369 117.769 116.166C118.09 115.955 118.478 115.844 118.858 115.79C119.242 115.736 119.626 115.724 120.015 115.699C123.125 115.517 125.947 115.554 127.98 115.654C128.999 115.703 129.821 115.765 130.389 115.815C130.652 115.844 130.869 115.864 131.04 115.881C131.19 115.898 131.266 115.914 131.266 115.918L131.274 115.922Z" fill="#263238"/>
<path d="M123.77 117.618C123.666 117.456 123.403 117.394 123.165 117.444L123.19 117.436C123.157 117.444 123.127 117.452 123.094 117.46C123.081 117.46 123.069 117.469 123.056 117.473C122.877 117.531 122.71 117.626 122.601 117.779C122.468 117.969 122.464 118.258 122.639 118.411C122.735 118.498 122.864 118.531 122.994 118.544C123.244 118.564 123.511 118.49 123.687 118.308C123.858 118.126 123.912 117.828 123.774 117.618H123.77Z" fill="white"/>
</g>
<defs>
<clipPath id="clip0_1744_6531">
<rect width="80" height="160" fill="white" transform="translate(54 24)"/>
</clipPath>
</defs>
</svg>
