<svg width="240" height="160" viewBox="0 0 240 160" fill="none" xmlns="http://www.w3.org/2000/svg">
<path d="M232.753 160C242.32 149.942 244.593 117.897 225.956 98.2571C202.026 73.0378 220.587 72.5471 182.891 32.1713C157.806 5.30476 94.4038 -24.9266 60.6656 33.5934C46.1517 58.7675 39.4863 50.6863 17.4387 73.1783C-3.04825 90.5426 -6.9217 128.992 13.5626 160H232.753Z" fill="url(#paint0_linear_3270_15531)"/>
<path d="M58.3266 85.7036C58.3266 85.7036 68.4951 100.19 75.6015 102.261C83.5194 104.568 102.942 100.913 102.942 100.913L109.223 103.7C109.223 103.7 87.51 118.1 77.191 118.1C66.872 118.1 48.7598 107.917 48.7598 107.917L58.3246 85.7017L58.3266 85.7036Z" fill="#6EBAFF"/>
<path d="M105.946 93.5733C106.78 93.5733 107.456 92.6363 107.456 91.4805C107.456 90.3247 106.78 89.3877 105.946 89.3877C105.112 89.3877 104.436 90.3247 104.436 91.4805C104.436 92.6363 105.112 93.5733 105.946 93.5733Z" fill="#2D2861"/>
<path d="M99.7684 83.3315C98.6599 83.5577 98.0363 84.2911 98.0561 85.3326C98.0997 87.7317 101.451 91.104 105.871 92.0265L106.584 92.1748L106.368 91.4726C106.087 90.5579 103.519 82.5552 99.7684 83.3295V83.3315ZM105.291 90.9831C101.481 89.9045 98.9607 86.9671 98.9311 85.3346C98.9212 84.8294 99.1448 84.4861 99.608 84.2989C99.7129 84.256 99.8317 84.2209 99.9624 84.1936C102.243 83.7235 104.388 88.4065 105.291 90.9831Z" fill="#2D2861"/>
<path d="M105.673 91.1568L106.401 91.0612C107.064 90.9734 107.69 90.8038 108.272 90.5678C111.196 89.3819 112.993 86.5343 112.738 84.1937C112.601 82.9494 111.898 81.9995 110.808 81.586C107.163 80.209 105.916 89.2298 105.786 90.2635L105.673 91.1587V91.1568ZM106.845 89.7603C107.254 87.3105 108.254 83.3414 109.844 82.6978C110.125 82.5846 110.424 82.5729 110.742 82.6938C111.388 82.9396 111.738 83.3882 111.813 84.0709C112.015 85.9257 110.144 88.945 106.845 89.7603Z" fill="#2D2861"/>
<path d="M124.898 125.658H84.2492C81.3453 125.658 78.9898 123.335 78.9898 120.476V97.3593C78.9898 94.498 81.3473 92.177 84.2492 92.177H124.898C127.802 92.177 130.157 94.5 130.157 97.3593V120.476C130.157 123.337 127.8 125.658 124.898 125.658Z" fill="#F05662"/>
<path d="M82.3385 92.1748H98.3307V125.656H82.3385C80.4897 125.656 78.9912 123.579 78.9912 121.016V96.8149C78.9912 94.252 80.4897 92.1748 82.3385 92.1748Z" fill="#DB3643"/>
<path d="M112.718 92.1748H113.981C120.806 102.859 116.625 121.576 115.596 125.656H114.61C115.317 122.906 120.192 102.549 112.777 92.2723C112.755 92.2411 112.736 92.208 112.718 92.1748Z" fill="#2D2861"/>
<path d="M89.115 125.531C89.1209 125.574 89.1249 125.615 89.1249 125.658H88.1906C85.4371 106.583 88.4756 96.4911 90.5283 92.1768H91.6843C89.8177 95.7831 86.2368 105.724 89.117 125.533L89.115 125.531Z" fill="#2D2861"/>
<path d="M66.1672 71.7811L64.0947 88.3247L51.0361 81.2329L58.0653 68.8301L66.1672 71.7811Z" fill="#FEE4E0"/>
<path d="M65.4525 51.3326C65.4525 51.3326 65.8563 51.1708 68.1703 54.2993C69.8192 56.5306 70.8169 59.1948 71.8462 61.7402C73.3803 65.5299 74.6591 69.655 73.503 73.7158C72.8953 75.8496 64.2054 76.4289 60.7057 74.5935C57.208 72.7562 53.9597 66.864 54.1655 62.6666C54.3714 58.4693 63.8907 50.5154 65.4525 51.3346V51.3326Z" fill="#FEE4E0"/>
<path d="M59.732 71.7617C59.1956 72.8851 58.2969 73.1933 55.5791 73.244C52.0833 73.3084 48.6113 70.6967 47.7285 65.926C45.0324 51.3348 59.0629 47.7733 62.6715 46.3768C64.0235 45.854 65.0825 46.2851 65.8763 47.0301C67.155 48.2297 68.8772 48.8187 70.6191 48.5417C71.3812 48.4208 73.4003 48.374 73.9486 49.517C75.5163 52.7917 75.5579 56.1972 69.6452 56.1972C56.2442 56.1972 60.7633 69.5967 59.732 71.7617Z" fill="#2D2861"/>
<path d="M19.9151 149.983C21.6056 143.615 34.9096 139.822 37.2038 139.777C37.2038 139.777 52.8833 144.035 57.0125 151.197C57.3985 151.864 57.527 158.001 57.4478 160C49.3025 160 19.5034 160 19.5034 160C19.26 154.763 19.6261 151.07 19.9151 149.983Z" fill="#2D2861"/>
<path d="M68.3695 95.937L68.6189 97.117C71.6475 111.445 66.8018 129.992 61.1523 143.528C59.3728 147.793 59.4183 149.127 57.1241 151.195L46.7734 145.57L68.3695 95.9351V95.937Z" fill="#FCC13F"/>
<g opacity="0.5">
<path d="M68.3696 95.9375L68.619 97.1175C70.262 104.89 69.587 113.903 67.7243 122.684C65.2064 121.071 62.2788 119.017 59.3828 116.591L68.3696 95.9375Z" fill="#531C2E"/>
</g>
<path d="M52.3988 78.2334C52.3988 78.2334 43.3625 88.914 38.6929 99.9573C34.0233 111.003 18.1143 147.246 18.1143 147.246C18.1143 147.246 33.0751 157.006 42.4202 154.201C51.7653 151.394 66.9578 121.869 70.992 108.079C75.0242 94.2894 65.1169 84.268 63.3393 83.3338C61.5618 82.3995 52.4008 78.2334 52.4008 78.2334H52.3988Z" fill="#6EBAFF"/>
<path d="M45.1434 93.5733C45.474 90.2283 50.0129 80.599 59.3818 85.2684C68.7526 89.9377 66.6781 109.791 70.6113 109.311C68.6516 115.473 64.8095 124.193 60.3438 132.33C58.3247 132.459 56.7154 132.227 55.7356 131.494C49.518 126.828 43.5855 109.311 45.1434 93.5733Z" fill="#6EBAFF"/>
<path d="M61.3247 64.465C61.3247 64.465 61.0614 60.7729 59.0879 61.4048C57.1143 62.0367 56.3602 65.9942 58.1655 66.8309C59.9707 67.6657 61.3247 64.467 61.3247 64.467V64.465Z" fill="#FEE4E0"/>
<path d="M85.4668 112.128C86.2408 112.594 90.0631 110.958 90.0631 110.958C90.0631 110.958 97.2783 107.852 101.192 109.015C103.361 109.659 108.336 112.615 109.193 114.336C107.31 115.055 98.6184 117.396 94.7881 116.943C93.2501 116.762 88.9447 116.313 88.9447 116.313L85.4668 112.128Z" fill="#FEE4E0"/>
<path d="M44.9932 94.9522C44.9457 104.191 50.9098 124.355 57.1274 129.02C63.3449 133.686 90.8141 118.558 90.8141 118.558L90.3905 109.075C90.3905 109.075 69.988 114.203 67.3791 111.353C64.7701 108.504 67.7453 89.3193 58.3744 84.65C49.0036 79.9807 45.009 91.5916 44.9912 94.9541L44.9932 94.9522Z" fill="#6EBAFF"/>
<path d="M176.535 64.0822C179.651 62.1864 184.073 60.3394 184.073 60.3394C183.693 63.4152 181.745 69.8906 181.745 69.8906C178.121 73.1966 177.616 73.0367 177.616 73.0367C175.741 67.0625 176.535 64.0842 176.535 64.0842V64.0822Z" fill="#FEE4E0"/>
<path d="M184.695 77.4858C184.695 77.4858 177.359 100.458 173.028 100.702C171.126 100.809 150.328 87.6242 150.328 87.6242L148.374 95.7556C148.374 95.7556 167.983 113.313 176.485 111.104C184.986 108.894 186.602 103.142 186.602 103.142L184.693 77.4878L184.695 77.4858Z" fill="#E76A53"/>
<path d="M195.883 39.6143L195.398 39.6728L187.655 40.6012C187.655 40.6012 187.981 42.2259 186.245 43.7082C184.509 45.1925 173.787 74.726 178.385 79.725C182.983 84.722 202.821 84.1329 203.407 84.1661C203.993 84.1993 208.467 62.5436 208.467 62.5436L195.883 39.6143Z" fill="#2D2861"/>
<path d="M211.466 159.999C212.166 148.763 211.491 150.276 211.794 145.431C212.329 136.853 211.293 133.143 206.517 121.61C201.74 110.077 178.45 119.984 178.45 119.984C178.45 119.984 172.612 130.592 170.255 146.348L166.419 159.999C191.368 159.999 199.684 159.999 211.466 159.999Z" fill="#FCC13F"/>
<path d="M187.337 72.2622C186.514 72.9663 174.817 84.1481 175.15 92.4726C175.648 104.911 178.42 117.643 176.882 122.511C174.314 130.639 205.061 133.664 207.15 123.325C207.892 119.646 207.472 110.313 208.902 101.973C211.17 88.7297 215.277 75.8003 214.69 75.4043C201.692 66.6449 189.592 70.3352 187.337 72.2622Z" fill="#FCC13F"/>
<path d="M177.388 114.314C181.721 114.382 188.932 113.91 189.912 113.073C191.268 111.915 195.132 101.983 195.132 101.983L192.865 100.811C192.865 100.811 199.289 82.582 205.19 77.5381C208.685 74.5501 210.78 73.8011 211.904 73.6841C212.425 73.9766 212.945 74.2829 213.468 74.6086C213.444 75.9154 213.4 78.8956 213.42 81.6692C212.474 85.4296 211.176 90.5417 210.031 96.0478C207.723 100.466 205.087 105.018 204.526 105.788C203.462 107.255 194.948 118.493 194.948 118.493L177.081 121.624C177.352 119.822 177.843 117.573 177.388 114.314Z" fill="#FFA42F"/>
<g style="mix-blend-mode:multiply">
<path d="M218.715 84.4465C216.92 75.4082 214.691 75.4043 214.691 75.4043C214.691 75.4043 212.197 84.4153 210.106 92.5837C211.1 92.3828 212.088 92.0493 213.054 91.5676C216.027 90.0852 217.737 87.1459 218.715 84.4485V84.4465Z" fill="#6ADAF4"/>
</g>
<path d="M190.258 56.1754L188.247 69.5418C188.247 69.5418 182.558 85.2155 186.243 86.7622C189.929 88.3089 196.483 70.636 196.483 70.636L197.556 53.4409L190.258 56.1754Z" fill="#FEE4E0"/>
<path d="M191.043 40.6381C191.043 40.6381 186.662 38.4497 184.622 47.0375C182.581 55.6252 183.216 63.8015 187.62 64.7006C192.025 65.6017 198.609 58.8122 201.136 53.154C203.664 47.4958 194.658 39.9281 191.043 40.6381Z" fill="#FEE4E0"/>
<path d="M160.563 130.846C158.968 130.684 157.643 130.613 157.307 130.769C156.327 131.224 156.503 135.548 157.637 136.435C157.637 136.435 160.32 135.948 162.976 136.03C162.574 134.173 161.67 132.441 160.565 130.846H160.563Z" fill="#FFBA94"/>
<path d="M159.523 135.788C160.243 135.977 160.78 136.557 160.894 137.269C161.029 138.103 161.132 139.402 161.031 141.306C160.821 145.256 159.503 147.938 158.309 146.461C157.114 144.985 149.964 131.657 151.696 130.992C153.428 130.327 157.626 130.091 158.157 130.641C158.689 131.191 156.401 132.927 156.945 134.249C157.282 135.063 158.575 135.543 159.523 135.79V135.788Z" fill="#2D2861"/>
<path d="M158.305 146.459C158.881 147.171 159.487 146.915 159.982 146.016C156.069 142.094 153.931 134.025 153.171 130.609C152.599 130.711 152.084 130.84 151.692 130.99C149.96 131.655 157.11 144.982 158.305 146.459Z" fill="#FEE2BF"/>
<path d="M151.214 105.782C151.214 105.782 173.434 120.112 172.745 122.73C172.058 125.347 157.998 130.369 157.998 130.369C157.998 130.369 157.788 134.748 161.561 136.868C162.825 137.578 176.102 132.96 181.027 128.998C184.744 126.01 186.484 122.464 183.087 117.701C179.691 112.94 170.534 104.425 170.534 104.425L151.212 105.782H151.214Z" fill="#2D2861"/>
<path d="M146.884 131.308C145.289 131.146 143.965 131.076 143.628 131.232C142.648 131.686 142.824 136.01 143.959 136.898C143.959 136.898 146.641 136.41 149.297 136.492C148.895 134.635 147.991 132.903 146.886 131.308H146.884Z" fill="#FFBA94"/>
<path d="M145.847 136.25C146.567 136.439 147.104 137.019 147.219 137.731C147.353 138.565 147.456 139.864 147.355 141.768C147.145 145.718 145.827 148.399 144.633 146.923C143.438 145.447 136.288 132.119 138.02 131.454C139.752 130.789 143.951 130.553 144.481 131.103C145.014 131.653 142.725 133.389 143.27 134.711C143.606 135.525 144.901 136.004 145.847 136.252V136.25Z" fill="#2D2861"/>
<path d="M144.632 146.921C145.208 147.633 145.813 147.377 146.308 146.478C142.395 142.556 140.257 134.487 139.495 131.072C138.923 131.173 138.408 131.302 138.016 131.452C136.284 132.117 143.434 145.445 144.63 146.921H144.632Z" fill="#FEE2BF"/>
<path d="M145.639 113.543C147.533 119.42 160.865 121.48 159.667 123.327C158.181 125.616 144.32 130.832 144.32 130.832C144.32 130.832 144.111 135.211 147.884 137.331C149.148 138.041 163.917 132.466 167.061 128.918C170.204 125.369 171.916 123.968 169.802 118.562C168.747 115.862 163.713 108.581 159.41 104.481C153.666 99.0085 150.445 102.66 150.445 102.66C150.445 102.66 143.408 106.617 145.641 113.545L145.639 113.543Z" fill="#352E73"/>
<path d="M151.491 117.017C151.685 117.132 151.905 116.906 151.768 116.728C150.719 115.355 148.987 112.82 150.555 112.911C152.14 113.003 153.623 115.024 155.412 115.788C156.048 116.059 189.337 119.067 192.466 113.752C193.557 111.899 196.835 105.603 198.614 98.9209C204.858 99.4612 208.144 100.403 213.466 103.596C210.814 113.571 207.348 121.998 203.262 125.492C198.127 129.88 170.369 124.702 163.829 123.407C162.865 123.216 161.895 123.075 160.917 122.983C158.051 122.714 152.049 122.158 150.78 122.086C149.1 121.989 145.636 113.545 145.636 113.545L151.489 117.019L151.491 117.017Z" fill="#FEE4E0"/>
<path d="M212.995 73.8267C212.995 73.8267 217.761 73.5302 216.696 90.5868C216.378 95.6833 215.57 100.401 214.44 104.651C211.564 104.72 200.275 104.304 196.658 99.3696C196.658 99.3696 204.921 71.4823 212.995 73.8287V73.8267Z" fill="#FCC13F"/>
<path d="M195.577 35.764C194.862 35.9805 194.126 36.1287 193.381 36.1989C191.776 36.3511 189.068 37.1 187.249 40.2344C184.521 44.9369 200.42 58.2057 195.491 66.5575C191.794 72.8242 196.438 80.4328 202.798 84.8369C209.158 89.2391 200.369 87.5402 208.132 91.8175C215.896 96.0929 226.927 82.5276 221.403 71.8451C215.878 61.1625 211.656 40.9853 204.257 37.533C199.375 35.2549 196.778 35.4012 195.577 35.7659V35.764Z" fill="#352E73"/>
<path d="M117.46 72.4849C121.262 74.2579 127.569 77.0236 130.92 77.5287C135.924 78.2855 141.136 80.784 141.136 80.784L140.79 74.1291C140.79 74.1291 119.813 68.6699 118.372 67.2519C116.931 65.8339 114.419 62.4655 113.548 62.8771C112.677 63.2886 115.571 65.1415 114.696 66.0017C113.82 66.8618 109.777 61.8843 109.14 61.8921C109.011 61.8921 108.772 62.0676 108.843 62.2841C109.112 63.0897 111.106 65.2898 111.106 65.2898L108.517 62.7405C108.291 62.5182 107.909 62.5806 107.751 62.8634C107.751 62.8654 107.747 62.8693 107.745 62.8712C107.648 63.0468 107.679 63.2613 107.812 63.4056L110.708 66.5146C110.708 66.5146 107.844 63.4915 107.566 63.4583C107.131 63.4056 108.043 64.6832 109.081 65.8495C111.7 68.7927 115.888 71.7516 117.458 72.483L117.46 72.4849Z" fill="#FEE4E0"/>
<path d="M137.381 71.7922C137.381 71.7922 136.071 82.463 136.577 82.5878C139.566 83.3231 147.944 86.0908 148.646 86.8554C149.349 87.6199 144.873 105.909 145.422 108.287C145.968 110.664 171.753 108.472 172.792 105.767C173.829 103.062 171.012 79.9391 172.113 78.9971C173.216 78.055 177.25 74.9597 177.25 74.9597C177.25 74.9597 177.428 71.603 178.218 67.3588C178.265 66.6001 177.737 63.5243 177.557 62.6992C176.054 63.4462 172.946 64.9227 169.975 65.8843C165.145 67.4446 156.319 71.7941 152.53 71.9872C146.17 72.311 143.872 71.8994 137.381 71.7902V71.7922Z" fill="#F05662"/>
<path d="M169.288 86.9727C169.141 91.999 164.581 95.8413 159.371 95.2796C154.832 94.7901 151.33 91.0023 151.461 86.5046C151.607 81.4783 156.168 77.6379 161.378 78.1996C165.917 78.6892 169.42 82.477 169.288 86.9747V86.9727Z" fill="#FCC13F"/>
<path d="M158.706 85.2562C158.811 86.0344 158.077 86.6566 157.287 86.4537C156.86 86.3445 156.527 85.9856 156.47 85.5526C156.367 84.7744 157.099 84.1542 157.889 84.3551C158.317 84.4643 158.649 84.8232 158.706 85.2542V85.2562Z" fill="#352E73"/>
<path d="M164.263 84.2069C164.366 84.9831 163.636 85.6053 162.846 85.4044C162.419 85.2952 162.084 84.9383 162.027 84.5053C161.922 83.727 162.656 83.1029 163.446 83.3058C163.873 83.415 164.206 83.7739 164.263 84.2069Z" fill="#352E73"/>
<path d="M157.142 89.9467C157.324 90.0813 161.681 93.1883 165.489 88.4878C165.917 87.965 166.734 88.5833 166.311 89.1061C164.315 91.5675 162.144 92.1526 160.35 92.0493C158.161 91.9225 156.54 90.7659 156.512 90.7444C155.964 90.3426 156.593 89.5429 157.142 89.9447V89.9467Z" fill="#352E73"/>
<path d="M152.934 65.9388L155.83 73.7133C155.83 73.7133 159.927 75.7164 162.97 72.2212L161.008 61.5835L152.934 65.9408V65.9388Z" fill="#FEE4E0"/>
<path d="M149.488 53.6455C149.488 53.6455 145.307 64.7591 150.2 67.7218C155.094 70.6845 161.624 65.1375 163.415 58.5314C165.207 51.9252 149.411 49.2219 149.486 53.6455H149.488Z" fill="#FEE4E0"/>
<path d="M157.805 54.133C157.805 54.133 160.525 53.2455 160.373 56.0619C160.22 58.8764 158.611 60.388 159.995 61.0043C160.947 61.4276 161.062 62.9509 161.04 63.8617C161.028 64.3318 161.171 64.7921 161.464 65.1666L161.503 65.2153C162.15 66.0462 163.312 66.3212 164.296 65.8726C166.689 64.7823 170.373 62.1024 168.004 56.4384C168.004 56.4384 168.687 52.0089 165.585 49.9161C162.483 47.8233 161.022 48.6152 161.022 48.6152C161.022 48.6152 159.294 46.2083 156.776 46.3995C154.258 46.5906 146.724 46.7116 147.306 50.509C147.888 54.3065 152.116 55.7284 157.807 54.131L157.805 54.133Z" fill="#2D2861"/>
<path d="M158.737 58.8292C158.893 58.6674 161.154 56.4829 162.106 57.8209C162.989 59.0633 163.268 61.3765 161.32 62.0748C159.374 62.773 156.74 60.9143 158.737 58.8292Z" fill="#FEE4E0"/>
<path d="M148.444 89.7114C148.444 89.7114 151.896 90.8797 152.063 92.3328C152.229 93.7878 148.03 92.0539 148.836 92.6761C149.64 93.2963 152.722 93.8405 152.524 94.884C152.15 96.8637 148.767 94.3008 148.133 95.0634C147.5 95.826 150.764 96.183 150.859 97.0061C150.954 97.8311 148.129 97.3981 147.225 97.3259C146.32 97.2538 147.524 91.2815 148.446 89.7114H148.444Z" fill="#FEE4E0"/>
<defs>
<linearGradient id="paint0_linear_3270_15531" x1="197.5" y1="176" x2="70.0077" y2="-31.9056" gradientUnits="userSpaceOnUse">
<stop stop-color="#6EBAFF"/>
<stop offset="0.99" stop-color="white" stop-opacity="0"/>
</linearGradient>
</defs>
</svg>
