<svg width="56" height="56" viewBox="0 0 56 56" fill="none" xmlns="http://www.w3.org/2000/svg">
<path d="M2.06229 29.4866C1.88388 27.0789 2.08931 24.6578 2.67075 22.3158C2.90197 21.3634 3.15143 20.411 3.43741 19.477C3.97285 17.7811 4.50221 16.079 5.10458 14.4138C6.0552 11.7384 7.51911 9.27861 9.41247 7.17539C10.6602 5.75133 12.1322 4.54509 13.769 3.60535C15.2983 2.72308 16.8885 1.95301 18.5272 1.3011C19.9386 0.746336 21.4152 0.378689 22.9202 0.207356C24.5348 0.00746183 26.1637 -0.0480557 27.7879 0.04145C28.3422 0.0775097 28.8933 0.153487 29.4368 0.268802C31.6608 0.754379 33.7972 1.58341 35.7709 2.72666C37.0764 3.49322 38.2583 4.45676 39.2756 5.58393C41.0337 7.45044 42.5544 9.5311 43.8025 11.7777C44.5667 13.1431 45.2376 14.5597 45.8105 16.0176C46.3594 17.4886 47.1469 18.8571 48.1409 20.0669C49.7018 21.9584 50.9846 24.0672 51.9498 26.3283C52.4834 27.5103 52.8913 28.7461 53.1667 30.0151C53.331 30.8385 53.5318 31.6618 53.7204 32.4729C53.8815 33.2284 53.9671 33.9983 53.976 34.771C54.0131 36.2473 53.8721 37.7226 53.5561 39.1645C53.4666 39.6334 53.3446 40.0954 53.1911 40.547C52.6204 42.1316 51.8948 43.6548 51.0249 45.0941C50.7572 45.5365 50.4712 45.9605 50.24 46.4213C49.5103 47.7545 48.55 48.9448 47.4046 49.9361C46.1222 51.0904 44.6764 52.0452 43.115 52.7687C41.2876 53.6263 39.3954 54.3352 37.4563 54.8886C36.1397 55.2686 34.784 55.4934 33.4162 55.5584C32.0775 55.6321 30.745 55.7919 29.4003 55.8964C28.731 55.9455 28.0617 55.9578 27.1734 55.9947C24.5451 56.0568 21.9321 55.5741 19.4958 54.5765C17.0595 53.5788 14.8516 52.0873 13.0085 50.1941C12.2296 49.426 11.4812 48.6272 10.7389 47.8223C9.64243 46.4948 8.62648 45.1015 7.69662 43.6501C6.52601 41.9622 5.49038 40.1828 4.59956 38.3288C4.3075 37.7143 3.99111 37.1736 3.66862 36.6021C3.36232 36.0517 3.1291 35.4629 2.97498 34.8509C2.51172 33.0942 2.20625 31.2988 2.06229 29.4866Z" fill="white"/>
<path d="M53.9918 34.8079C53.977 34.0345 53.8852 33.2647 53.718 32.5098C53.5294 31.6926 53.3286 30.8692 53.1643 30.0519C52.8889 28.783 52.481 27.5472 51.9474 26.3652C50.9822 24.104 49.6994 21.9952 48.1385 20.1038C47.141 18.8828 46.3533 17.5016 45.8081 16.0176C45.2352 14.5597 44.5643 13.1431 43.8001 11.7777C42.5505 9.52861 41.0278 7.44585 39.2671 5.57778C38.2498 4.45062 37.068 3.48707 35.7624 2.72052C33.7887 1.57727 31.6523 0.748234 29.4284 0.262658C28.8846 0.149407 28.3336 0.0754836 27.7794 0.04145C26.1552 -0.0480557 24.5263 0.00746183 22.9118 0.207356C21.4143 0.370365 19.9439 0.727652 18.5369 1.27038C16.8983 1.92229 15.3081 2.69236 13.7788 3.57463C12.1419 4.51436 10.6699 5.7206 9.42224 7.14467C7.53105 9.24842 6.06923 11.7081 5.12044 14.3831C4.51198 16.0483 3.9887 17.7503 3.45326 19.4463C3.16729 20.3803 2.91782 21.3327 2.6866 22.2851C2.09578 24.636 1.88416 27.0677 2.05989 29.4866C2.19406 31.3084 2.49139 33.1141 2.94824 34.8816C3.10487 35.483 3.33802 36.0613 3.64188 36.6021C3.96437 37.1736 4.25034 37.7451 4.57282 38.3288C5.46364 40.1828 6.49927 41.9622 7.66988 43.6501C8.59974 45.1015 9.61569 46.4948 10.7122 47.8223C11.4545 48.6272 12.2029 49.426 12.9817 50.1941C14.8249 52.0873 17.0328 53.5788 19.4691 54.5765C21.9054 55.5741 24.5184 56.0568 27.1466 55.9947C28.035 55.9578 28.7043 55.9455 29.3736 55.8964C30.7183 55.7919 32.0508 55.6321 33.3894 55.5584C34.7572 55.4934 36.113 55.2686 37.4296 54.8886C39.3687 54.3352 41.2609 53.6263 43.0882 52.7687C44.6496 52.0452 46.0954 51.0904 47.3779 49.9361C48.5232 48.9448 49.4835 47.7545 50.2133 46.4213C50.4445 45.9605 50.7305 45.5365 50.9982 45.0941C51.8764 43.6558 52.6102 42.1326 53.1887 40.547C53.3468 40.1079 53.4749 39.6582 53.572 39.2013C53.888 37.7595 54.0289 36.2842 53.9918 34.8079ZM53.3286 36.2458C53.2789 37.1103 53.1711 37.9705 53.0061 38.8204C52.9254 39.2361 52.8198 39.6465 52.6897 40.0493C52.1589 41.5872 51.4845 43.0706 50.6757 44.4796C50.3472 45.0388 49.9821 45.5856 49.6778 46.1694C49.023 47.3207 48.1889 48.3581 47.2075 49.2417C45.7321 50.6318 44.0216 51.7432 42.1573 52.5229C40.0139 53.5102 37.7693 54.2562 35.4643 54.7473C35.0998 54.8133 34.7322 54.8605 34.3629 54.8886L31.7344 55.0976C30.9495 55.1652 30.1646 55.2512 29.3797 55.3126C26.3212 55.6125 23.2346 55.2501 20.3258 54.2496C18.1373 53.4565 16.1209 52.2443 14.3873 50.6796C13.1319 49.5674 11.9547 48.3684 10.8643 47.0911C10.4627 46.6118 10.0855 46.1079 9.70821 45.5979C8.88679 44.4673 8.07146 43.3305 7.27438 42.1938C6.48912 41.0691 5.76206 39.9042 5.0961 38.7036C4.97834 38.476 4.87272 38.2422 4.7797 38.0031C4.46939 37.3211 4.17124 36.6452 3.86093 35.957C3.66754 35.5071 3.50887 35.0428 3.38633 34.5683C3.0003 33.0379 2.73981 31.478 2.6075 29.9045C2.51684 28.8831 2.49245 27.8568 2.53449 26.8321C2.59639 25.7351 2.74081 24.6443 2.96649 23.5693C3.26634 22.0774 3.65855 20.606 4.14082 19.1636C4.66409 17.6152 5.14477 16.0483 5.71064 14.5183C6.56752 12.2091 7.82429 10.0723 9.42224 8.2077C10.8493 6.47609 12.5901 5.03506 14.5515 3.96174C16.0733 3.10984 17.6532 2.36856 19.2793 1.74352C20.501 1.30319 21.7724 1.01834 23.0639 0.895557C24.1043 0.791098 25.1448 0.741941 26.0332 0.680494C26.9276 0.729651 27.676 0.723507 28.4061 0.815677C30.1048 1.06993 31.761 1.55784 33.3286 2.26582C35.0089 2.95062 36.556 3.93045 37.8981 5.15995C38.7197 5.91727 39.4806 6.73913 40.1737 7.61781C41.3196 9.0043 42.3379 10.4934 43.216 12.0665C43.9653 13.4191 44.6279 14.8189 45.1996 16.2572C45.7585 17.7744 46.5579 19.1897 47.5665 20.4479C48.0289 21.007 48.467 21.5846 48.8808 22.1745C50.1398 23.9973 51.1622 25.9757 51.9231 28.0611C52.2012 28.807 52.4229 29.5732 52.5863 30.353C52.7627 31.1764 52.9757 31.9875 53.1461 32.8109C53.3729 33.9407 53.4344 35.0979 53.3286 36.2458Z" fill="#FFACBA"/>
<path d="M32.309 30.3476L33.0817 30.2432C32.9996 29.8831 32.8231 29.552 32.5706 29.2846C32.3759 28.9958 32.1569 28.7254 31.9622 28.4182L31.4328 28.6271C30.8581 28.8907 30.2381 29.0389 29.6074 29.0634C29.1416 29.0767 28.6778 28.9961 28.2432 28.8262C27.8085 28.6564 27.4118 28.4007 27.0762 28.0741C25.9167 26.9774 25.111 25.5536 24.7641 23.9879C24.7315 23.8052 24.7112 23.6204 24.7033 23.4349C24.7065 23.368 24.7188 23.3018 24.7398 23.2383C24.9345 23.269 24.9466 23.4287 24.9831 23.5516C25.4776 24.9662 26.3142 26.2335 27.417 27.2384C27.9397 27.7775 28.6329 28.1145 29.3762 28.1909C29.6293 28.2133 29.8844 28.1925 30.1307 28.1294C31.1074 27.9043 32.0053 27.4159 32.7288 26.7161C33.6478 25.8638 34.1984 24.681 34.2621 23.4226C34.3169 22.6115 34.323 21.7881 34.3169 20.9647C34.3169 19.7358 34.2743 18.5745 34.2378 17.3824C34.2378 16.473 34.1709 15.539 34.1283 14.648C34.1109 14.4411 34.0783 14.2357 34.0309 14.0336C33.9196 13.3351 33.6258 12.6794 33.1798 12.1339C32.7338 11.5884 32.1517 11.173 31.4936 10.9305C30.5453 10.5487 29.5604 10.2666 28.5548 10.0887C27.4325 9.88612 26.2791 9.94709 25.1839 10.2669C24.1841 10.5748 23.2509 11.071 22.4337 11.7293C20.3791 13.3245 18.714 15.374 17.566 17.7204C17.0311 18.8656 16.623 20.067 16.3491 21.3027C15.9797 22.8034 15.7756 24.3407 15.7407 25.8866C15.6676 27.9205 15.692 29.9605 15.7407 31.9883C15.8462 34.598 16.5502 37.1473 17.7972 39.4356C18.5414 40.7693 19.5185 41.9559 20.6813 42.938C21.1151 43.3282 21.6109 43.6418 22.1477 43.8659C22.3607 43.9519 22.5858 44.0256 22.7927 44.1239C23.8825 44.6051 25.0843 44.7669 26.2609 44.5909C26.9545 44.5111 27.6421 44.4373 28.3358 44.382C28.7875 44.336 29.2438 44.3902 29.6726 44.5409C30.1014 44.6917 30.4924 44.9352 30.8183 45.2546C31.1604 45.568 31.5266 45.8536 31.9135 46.1087C32.2995 46.3735 32.7451 46.5362 33.2095 46.5818C33.9031 46.6617 34.5968 46.717 35.2904 46.7784C35.7159 46.8384 36.1483 46.7401 36.5073 46.5019C36.8128 46.3382 37.141 46.2222 37.4809 46.1578C37.7047 46.094 37.9323 46.0447 38.1624 46.0104C38.3084 45.7031 37.7729 45.445 38.2475 45.2115C38.0042 44.9412 37.6391 44.7876 37.8946 44.2346C37.42 44.5541 37.0976 44.7384 36.8055 44.9658C36.4483 45.2507 36.0202 45.4307 35.5683 45.486C35.1164 45.5413 34.6581 45.4697 34.2439 45.2791C33.3466 44.9455 32.5559 44.372 31.9561 43.6201C31.8219 43.4586 31.7113 43.2786 31.6275 43.0855C31.5452 42.9148 31.5203 42.7216 31.5565 42.5354C31.5928 42.3491 31.6882 42.1798 31.8283 42.0532L32.0291 41.8566C32.5355 41.4131 32.9492 40.8721 33.246 40.2651C33.4314 39.8537 33.7428 39.5133 34.1344 39.2942C34.3772 39.1512 34.6533 39.0758 34.9345 39.0758C35.2156 39.0758 35.4917 39.1512 35.7346 39.2942C36.072 39.4969 36.3953 39.7227 36.7021 39.9702C37.2674 40.4238 37.9266 40.7431 38.6309 40.9041C39.5067 41.0602 40.4089 40.8945 41.1742 40.4372C41.295 40.3645 41.4038 40.2733 41.4967 40.1668C41.874 39.7612 42.239 39.3434 42.6345 38.9379C42.6197 38.8061 42.5716 38.6804 42.4949 38.5729C42.4182 38.4653 42.3154 38.3794 42.1964 38.3234C41.9591 38.2251 41.9409 37.9547 41.9044 37.7089C41.8009 37.7221 41.7019 37.7595 41.6152 37.8182C41.5286 37.8769 41.4568 37.9552 41.4054 38.0469C41.229 38.2619 41.0708 38.4954 40.9004 38.7166C40.6651 39.0418 40.3235 39.2726 39.9361 39.3681C39.5487 39.4637 39.1403 39.4179 38.783 39.2389C38.0676 38.946 37.439 38.472 36.9576 37.8625C35.9365 36.6177 35.0187 35.2901 34.2135 33.8931C34.0613 33.6289 33.964 33.3401 33.8301 33.0636C33.7385 32.8529 33.6349 32.6477 33.5198 32.4491C33.319 32.1357 33.1122 31.8346 32.6619 31.8346C32.5828 31.8346 32.4976 31.7609 32.3577 31.681C32.4541 31.6099 32.5582 31.5502 32.668 31.5028L34.8402 31.0174C35.3817 30.8945 35.9293 30.7839 36.4648 30.6487C36.9759 30.4884 37.4571 30.2434 37.8885 29.9236C38.6126 29.4628 39.3428 29.0019 40.0242 28.4797C41.0264 27.6663 42.2678 27.2124 43.5533 27.1893C44.5008 27.1345 45.449 27.2854 46.334 27.6317C46.6358 27.7549 46.9251 27.9071 47.198 28.0864C48.0569 28.6385 48.7973 29.3592 49.3753 30.2058C49.9533 31.0523 50.3571 32.0074 50.5627 33.0144C50.717 33.6983 50.8026 34.3962 50.8183 35.0974C50.8093 35.8925 50.7237 36.6848 50.5627 37.4631C50.1218 39.6919 49.2981 41.8255 48.1289 43.7676C47.3875 44.9874 46.4427 46.0685 45.3361 46.9628C44.023 48.0045 42.5935 48.8872 41.0769 49.5927C38.8088 50.6695 36.4265 51.4818 33.9762 52.0137C32.9039 52.2163 31.8175 52.3334 30.727 52.3639C30.0151 52.4069 29.291 52.4192 28.573 52.3639C27.045 52.2758 25.5321 52.0098 24.0644 51.5713C22.6771 51.1842 21.2959 50.7848 19.9208 50.3423C17.4628 49.6058 15.1934 48.3372 13.2703 46.6248C13.0513 46.422 12.8444 46.1947 12.6619 45.9673C11.0797 44.2072 9.70927 42.2643 8.5791 40.1791C7.49031 38.1062 6.75592 35.8626 6.4069 33.5428C6.07992 31.5577 5.94948 29.5446 6.01749 27.5334C6.13235 25.1672 6.52867 22.8236 7.1979 20.553C7.58123 19.2565 8.0254 17.9723 8.48783 16.7003C9.32572 14.5364 10.5486 12.5455 12.096 10.8261C14.0292 8.65909 16.3441 6.87349 18.9229 5.56009C20.2689 4.83368 21.6637 4.20334 23.0969 3.67368C25.5798 2.74468 28.3154 2.77752 30.7757 3.76585C32.7059 4.45606 34.4718 5.54655 35.9597 6.96721C38.1895 9.05087 39.7101 11.793 40.3041 14.8016C40.5971 16.2461 40.7842 17.7105 40.8639 19.1828C41.0033 21.8857 40.356 24.5708 39.002 26.9066C38.4423 27.8612 37.7239 28.7113 36.8785 29.4198C36.2856 29.9127 35.6095 30.2936 34.8828 30.5443C34.0911 30.7989 33.2406 30.7989 32.4489 30.5443C32.4124 30.5443 32.382 30.489 32.3516 30.4521C32.3338 30.4188 32.3196 30.3838 32.309 30.3476Z" fill="#FFB8C3"/>
<path d="M25.1235 25C25.1844 25.0553 25.2513 25.0983 25.3061 25.1536C25.5905 25.467 25.8976 25.7586 26.2248 26.0262C26.8759 26.4747 27.5574 26.8803 28.2327 27.2551C28.4588 27.3728 28.6951 27.4695 28.9386 27.5439C29.1901 27.6393 29.4606 27.6723 29.7274 27.6402C29.9942 27.6082 30.2495 27.5119 30.4719 27.3595C30.6462 27.2447 30.8293 27.144 31.0195 27.0585C31.1657 26.9894 31.3217 26.9438 31.4819 26.9233C31.5548 26.9013 31.6316 26.8955 31.7069 26.9061C31.7823 26.9168 31.8545 26.9438 31.9186 26.9852C31.9827 27.0266 32.0372 27.0815 32.0784 27.1461C32.1196 27.2107 32.1465 27.2835 32.1573 27.3595C32.1938 27.4701 32.206 27.5869 32.2364 27.7282L32.997 27.7712C33.0499 27.7686 33.1028 27.778 33.1516 27.7988C33.2005 27.8196 33.2441 27.8512 33.2791 27.8914C33.3142 27.9315 33.3399 27.9791 33.3542 28.0307C33.3686 28.0822 33.3713 28.1364 33.362 28.1891C33.3552 28.3049 33.339 28.42 33.3134 28.5332C33.3134 28.6438 33.2343 28.7482 33.1917 28.865C33.3255 28.9694 33.4411 29.0432 33.5446 29.1354C33.603 29.1831 33.6481 29.2454 33.6754 29.3162C33.7027 29.3869 33.7112 29.4636 33.7002 29.5387C33.6891 29.6138 33.6588 29.6847 33.6123 29.7443C33.5658 29.804 33.5047 29.8503 33.4351 29.8789C33.3478 29.9086 33.2582 29.9312 33.1673 29.9464L32.9057 30.0509C32.918 30.2412 32.918 30.4321 32.9057 30.6224C32.9051 30.6756 32.8922 30.728 32.8682 30.7754C32.8441 30.8227 32.8095 30.8638 32.767 30.8954C32.7245 30.927 32.6754 30.9481 32.6234 30.9573C32.5715 30.9664 32.5181 30.9632 32.4676 30.948C32.3541 30.9309 32.2421 30.9041 32.133 30.8681C31.4943 30.6427 30.8084 30.5898 30.1433 30.7145C29.5348 30.8006 28.9264 30.8743 28.3179 30.9849C27.5036 31.1304 26.6672 31.0865 25.8722 30.8565C25.0772 30.6265 24.3447 30.2165 23.7301 29.6576C23.3414 29.3562 23.0805 28.917 23 28.4287C23.1582 28.3918 23.1886 28.4963 23.2373 28.5639C23.5466 29.0366 23.9838 29.4098 24.4968 29.6392C24.941 29.842 25.3852 30.0386 25.8415 30.2045C26.6588 30.4812 27.5338 30.5363 28.3788 30.3643C29.1819 30.2352 29.9851 30.1308 30.8126 30.0448C31.0672 30.0305 31.3225 30.047 31.5732 30.0939C31.7801 30.0939 31.9808 30.1492 32.2242 30.1861L32.1086 29.6761L32.7171 29.418C32.6015 29.2214 32.2851 29.1415 32.3216 28.8035L32.7049 28.3796C32.4433 28.3796 32.2607 28.3796 32.0965 28.3796C31.7192 28.3796 31.5975 28.2321 31.5428 27.8081C31.5428 27.7467 31.5428 27.6791 31.5428 27.5869C31.3005 27.6047 31.0712 27.7043 30.8917 27.8696C30.5544 28.105 30.1586 28.2407 29.7491 28.2613C29.3395 28.282 28.9323 28.1867 28.5735 27.9863C27.4909 27.449 26.4942 26.7511 25.6164 25.9156C25.4427 25.7234 25.284 25.518 25.1418 25.3011C25.1002 25.2634 25.075 25.2106 25.0716 25.1543C25.0682 25.098 25.0868 25.0426 25.1235 25Z" fill="#FFB8C3"/>
</svg>
