<svg width="112" height="112" viewBox="0 0 112 112" fill="none" xmlns="http://www.w3.org/2000/svg">
<path fill-rule="evenodd" clip-rule="evenodd" d="M0 0V81.7185C0 98.4424 13.5576 112 30.2815 112C47.0053 112 60.563 98.4424 60.563 81.7185V60.563H81.7185C98.4424 60.563 112 47.0053 112 30.2815C112 13.5576 98.4424 0 81.7185 0H0ZM12.4444 12.4444H26.5481C38.4611 12.4444 48.1185 22.1018 48.1185 34.0148V81.7185C48.1185 91.5696 40.1326 99.5555 30.2815 99.5555C20.4304 99.5555 12.4444 91.5696 12.4444 81.7185V12.4444ZM81.7185 12.4444H60.563V34.7789C60.563 42.1462 66.5353 48.1185 73.9025 48.1185H81.7185C91.5696 48.1185 99.5555 40.1326 99.5555 30.2815C99.5555 20.4304 91.5696 12.4444 81.7185 12.4444Z" fill="#75B3EB"/>
</svg>
