<svg width="160" height="160" viewBox="0 0 160 160" fill="none" xmlns="http://www.w3.org/2000/svg">
<path d="M120 120C142.091 97.9086 142.091 62.0914 120 40C97.9086 17.9086 62.0914 17.9086 40 40C17.9086 62.0914 17.9086 97.9086 40 120C62.0914 142.091 97.9086 142.091 120 120Z" fill="white"/>
<path d="M79.7198 132.608C108.431 132.608 131.706 109.333 131.706 80.6214C131.706 51.9101 108.431 28.635 79.7198 28.635C51.0085 28.635 27.7334 51.9101 27.7334 80.6214C27.7334 109.333 51.0085 132.608 79.7198 132.608Z" fill="#C5E3FF"/>
<path d="M77.0267 78.1937C73.1158 78.898 69.3042 76.0974 67.0835 72.9652C66.5532 72.2195 66.0146 71.308 65.1115 71.1175C64.7852 71.066 64.4516 71.0857 64.1337 71.1755C62.6755 71.498 61.3783 72.3256 60.4713 73.5121C61.5153 74.4733 60.985 76.2382 62.0788 77.1497C63.1725 78.0611 64.4652 77.4645 65.6666 77.8291C66.178 78.0159 66.6584 78.2785 67.0918 78.608C70.3234 80.7872 76.4633 85.5765 80.6063 85.0297C81.5754 84.8325 82.479 84.3936 83.233 83.7536L87.7323 80.4889C83.9207 83.2233 84.7493 88.5015 79.554 89.8438C74.5824 91.1282 72.6352 86.5294 68.9396 84.0022C67.6728 83.1512 66.2137 82.6298 64.6945 82.4851C63.1753 82.3404 61.644 82.5771 60.2393 83.1736C56.2206 84.9302 53.7265 89.4875 49.4675 90.5316C44.8273 91.6668 40.0877 87.7889 38.7868 83.1985C37.8588 79.8841 38.0411 75.9068 35.4144 73.711C34.1384 72.6338 32.4315 72.2444 30.9483 71.482C29.4651 70.7197 28.073 69.2448 28.3548 67.5959C27.2505 71.6773 26.8387 75.915 27.1367 80.1326C27.435 73.8684 33.8235 74.697 35.6879 79.5112C37.2456 83.5133 36.7816 86.8692 40.2535 90.0013C44.6533 93.9703 49.7078 94.6 54.1657 90.9459C57.4138 88.2778 61.2005 84.0022 65.8738 85.8168C69.3622 87.1757 70.746 90.6724 74.3752 91.9319C75.3281 92.2551 84.4427 92.6776 83.581 90.7636C84.625 93.0339 83.0921 95.1717 80.4406 94.8569C76.1733 94.3348 69.0225 92.3711 65.1032 93.4814C55.8394 96.05 66.7604 110.053 70.3151 114.52C70.9236 115.159 71.3647 115.939 71.5994 116.79C71.9143 118.87 68.9313 120.378 67.6056 121.438C67.5144 121.902 68.3182 122.118 68.8319 122.052C71.4718 121.749 74.0919 121.292 76.6787 120.684C77.4338 120.578 78.1448 120.266 78.7337 119.781C79.0064 119.514 79.1648 119.151 79.1756 118.77C79.1865 118.388 79.0488 118.017 78.7917 117.735C78.3939 117.32 77.7559 117.163 77.383 116.724C77.1352 116.378 76.9889 115.971 76.9605 115.547C76.5379 112.68 76.6539 106.432 74.4001 103.822C78.1702 108.33 83.4235 112.158 89.1906 113.036C98.9929 114.578 105.688 107.468 107.95 98.4944C109.068 93.9327 109.251 89.1918 108.489 84.5574C107.837 79.7243 105.487 75.2806 101.86 72.0206C100.591 70.7868 99.5969 69.2987 98.9432 67.6539C98.1146 65.6404 97.8578 63.1712 98.9929 61.1743C99.4717 60.4499 99.9976 59.7579 100.567 59.1028C102.664 56.3104 103.401 52.2585 101.835 49.1596C98.7775 43.0611 93.6982 38.9098 86.6551 40.7078C81.1449 42.1165 76.0407 46.798 75.6596 52.7225C75.3613 57.371 77.0516 63.2126 80.1008 66.8087C81.6338 68.5985 83.4733 68.8802 85.6442 68.6482C86.2905 68.5737 90.3755 67.6953 88.6354 69.7917C88.1361 70.2368 87.5267 70.5401 86.8705 70.67C82.5204 72.0952 81.6172 77.3817 77.0267 78.1937Z" fill="white"/>
</svg>
