<svg width="32" height="32" viewBox="0 0 32 32" fill="none" xmlns="http://www.w3.org/2000/svg">
<rect width="32" height="32" rx="16" fill="#F1F6FB"/>
<path d="M21.9715 14.7107C21.4477 12.9532 20.1906 11.5252 18.6191 10.7563C18.4096 9.98741 17.9906 9.32835 17.362 8.77913C17.1525 8.61437 16.7858 8.61437 16.6287 8.88898C16.4715 9.10866 16.4715 9.49311 16.7334 9.65788C17.781 10.5366 18.0953 12.0744 17.4667 13.3376C16.9429 14.4361 15.6334 14.8205 14.5858 14.2713C13.8001 13.8319 13.4858 12.8433 13.9048 12.0195C14.062 11.7449 14.2715 11.5252 14.5858 11.4154C14.9001 11.3055 15.2144 11.3604 15.4763 11.5252C15.6858 11.6351 15.8429 11.7998 15.8953 12.0195C15.9477 12.2392 15.9477 12.4589 15.8429 12.6786C15.6858 12.9532 15.7906 13.2827 16.0525 13.4475C16.3144 13.6122 16.6287 13.5024 16.7858 13.2278C16.9953 12.7884 17.0477 12.2392 16.9429 11.7449C16.8382 11.2506 16.4715 10.8112 16.0001 10.5915C15.4763 10.3169 14.8477 10.262 14.3239 10.4268C14.1144 10.4817 13.9048 10.5915 13.7477 10.7563C12.0191 11.4703 10.7096 12.9532 10.1334 14.8205C9.24294 14.9853 8.66675 15.8091 8.66675 16.7428C8.66675 17.6764 9.24294 18.5003 10.0287 18.8298C10.8667 21.466 13.2763 23.3334 16.0001 23.3334C18.7239 23.3334 21.1334 21.466 21.9715 18.7749C22.7572 18.4453 23.3334 17.6215 23.3334 16.6878C23.3334 15.8091 22.7572 14.9853 21.9715 14.7107ZM13.9048 16.7428C13.9048 16.4132 14.1144 16.1935 14.4287 16.1935C14.7429 16.1935 14.9525 16.4132 14.9525 16.7428V17.8412C14.9525 18.1707 14.7429 18.3904 14.4287 18.3904C14.1144 18.3904 13.9048 18.1707 13.9048 17.8412V16.7428ZM14.9525 20.5873C14.062 20.5873 13.2763 19.9831 12.962 19.1044C12.8572 18.8298 13.0144 18.5003 13.2763 18.3904C13.5382 18.2806 13.8525 18.4453 13.9572 18.7199C14.1144 19.1593 14.481 19.4339 14.9525 19.4339C15.2667 19.4339 15.4763 19.6536 15.4763 19.9831C15.4763 20.3127 15.2667 20.5873 14.9525 20.5873ZM18.0953 17.8412C18.0953 18.1707 17.8858 18.3904 17.5715 18.3904C17.2572 18.3904 17.0477 18.1707 17.0477 17.8412V16.7428C17.0477 16.4132 17.2572 16.1935 17.5715 16.1935C17.8858 16.1935 18.0953 16.4132 18.0953 16.7428V17.8412Z" fill="#75B3EB"/>
</svg>
