<svg width="176" height="120" viewBox="0 0 176 120" fill="none" xmlns="http://www.w3.org/2000/svg">
<path d="M161.674 85.8818H125.35V56.947H167.604L161.674 85.8818Z" fill="#F49F9F"/>
<path d="M73.7722 84.1711H9.5576L0.0834703 24.65C-0.523724 20.8364 2.25419 17.3608 5.90779 17.3608H63.1377L73.7722 84.1721V84.1711Z" fill="#F49F9F"/>
<path d="M144.932 84.1711H16.6466L7.23317 25.0212L6.01404 17.3599H129.303C132.187 17.3599 134.649 19.5636 135.127 22.5718L135.517 25.0203L144.932 84.1711H144.932Z" fill="#FCB4B4"/>
<path d="M120.173 37.382C121.003 37.3802 121.674 36.7033 121.672 35.87C121.67 35.0367 120.996 34.3625 120.167 34.3643C119.337 34.366 118.666 35.043 118.668 35.8763C118.67 36.7096 119.344 37.3837 120.173 37.382Z" fill="#F49F9F"/>
<path d="M95.2337 37.3853C96.0631 37.3853 96.7355 36.7097 96.7355 35.8764C96.7355 35.0431 96.0631 34.3676 95.2337 34.3676C94.4042 34.3676 93.7318 35.0431 93.7318 35.8764C93.7318 36.7097 94.4042 37.3853 95.2337 37.3853Z" fill="#F49F9F"/>
<path d="M123.803 60.5459C124.633 60.5442 125.304 59.8672 125.302 59.0339C125.3 58.2006 124.626 57.5265 123.797 57.5282C122.967 57.53 122.296 58.2069 122.298 59.0402C122.3 59.8735 122.974 60.5477 123.803 60.5459Z" fill="#F49F9F"/>
<path d="M98.8683 60.5451C99.6977 60.5433 100.369 59.8664 100.367 59.0331C100.365 58.1997 99.6914 57.5256 98.862 57.5274C98.0325 57.5291 97.3615 58.2061 97.3633 59.0394C97.365 59.8727 98.0388 60.5468 98.8683 60.5451Z" fill="#F49F9F"/>
<path d="M60.7849 60.548C61.6143 60.5462 62.2853 59.8693 62.2836 59.036C62.2818 58.2027 61.608 57.5285 60.7786 57.5303C59.9491 57.532 59.2781 58.209 59.2799 59.0423C59.2816 59.8756 59.9554 60.5497 60.7849 60.548Z" fill="#F49F9F"/>
<path d="M163.139 97.4252L163.834 100.747L164.946 106.044C165.158 107.046 166.137 107.688 167.135 107.478C167.872 107.322 168.415 106.741 168.561 106.044L169.672 100.747L170.367 97.4252C170.789 95.4213 169.511 93.4546 167.513 93.0319C165.518 92.6093 163.559 93.8925 163.138 95.8973C163.032 96.4104 163.038 96.9407 163.138 97.4252H163.139Z" fill="#FCB4B4"/>
<path d="M163.139 97.4252L163.834 100.747H169.672L170.367 97.4252C170.789 95.4213 169.511 93.4546 167.513 93.0319C165.518 92.6093 163.559 93.8925 163.138 95.8973C163.032 96.4104 163.038 96.9407 163.138 97.4252H163.139Z" fill="#F49F9F"/>
<path d="M135.538 97.4252L136.234 100.747L137.345 106.044C137.557 107.046 138.536 107.688 139.534 107.478C140.271 107.322 140.814 106.741 140.96 106.044L142.071 100.747L142.767 97.4252C143.188 95.4213 141.91 93.4546 139.913 93.0319C137.918 92.6093 135.958 93.8925 135.537 95.8973C135.431 96.4104 135.438 96.9407 135.537 97.4252H135.538Z" fill="#FCB4B4"/>
<path d="M135.538 97.4252L136.234 100.747H142.071L142.767 97.4252C143.188 95.4213 141.91 93.4546 139.913 93.0319C137.918 92.6093 135.958 93.8925 135.537 95.8973C135.431 96.4104 135.438 96.9407 135.537 97.4252H135.538Z" fill="#F49F9F"/>
<path d="M48.3896 97.4252L49.085 100.747L50.1969 106.044C50.4085 107.046 51.3876 107.688 52.3857 107.478C53.1228 107.322 53.6655 106.741 53.8116 106.044L54.9226 100.747L55.618 97.4252C56.0393 95.4213 54.7613 93.4546 52.7642 93.0319C50.769 92.6093 48.8099 93.8925 48.3886 95.8973C48.2824 96.4104 48.289 96.9407 48.3886 97.4252H48.3896Z" fill="#FCB4B4"/>
<path d="M48.3896 97.4252L49.085 100.747H54.9226L55.618 97.4252C56.0393 95.4213 54.7613 93.4546 52.7642 93.0319C50.769 92.6093 48.8099 93.8925 48.3886 95.8973C48.2824 96.4104 48.289 96.9407 48.3886 97.4252H48.3896Z" fill="#F49F9F"/>
<path d="M17.934 97.4252L18.6294 100.747L19.7414 106.044C19.9529 107.046 20.932 107.688 21.9301 107.478C22.6673 107.322 23.21 106.741 23.3561 106.044L24.467 100.747L25.1625 97.4252C25.5837 95.4213 24.3058 93.4546 22.3087 93.0319C20.3134 92.6093 18.3543 93.8925 17.9331 95.8973C17.8268 96.4104 17.8334 96.9407 17.9331 97.4252H17.934Z" fill="#FCB4B4"/>
<path d="M17.934 97.4252L18.6294 100.747H24.467L25.1625 97.4252C25.5837 95.4213 24.3058 93.4546 22.3087 93.0319C20.3134 92.6093 18.3543 93.8925 17.9331 95.8973C17.8268 96.4104 17.8334 96.9407 17.9331 97.4252H17.934Z" fill="#F49F9F"/>
<path d="M7.11462 84.1711H76.0805V98.202H18.0052C11.994 98.202 7.11462 93.3052 7.11462 87.2745V84.1721V84.1711Z" fill="#F49F9F"/>
<path d="M50.5319 77.8711C50.5319 81.3847 62.5562 84.234 77.3879 84.234C92.2195 84.234 104.246 81.3847 104.246 77.8711C104.246 74.3574 92.2214 71.5082 77.3879 71.5082C62.5543 71.5082 50.5319 74.3574 50.5319 77.8711Z" fill="#FCB4B4"/>
<path d="M45.3992 77.8711C77.9068 70.839 108.872 77.8711 108.872 77.8711C108.872 74.3574 94.6626 71.5082 77.1346 71.5082C59.6066 71.5082 45.3992 74.3574 45.3992 77.8711Z" fill="#F9C0C0"/>
<path d="M109.351 77.8711C109.351 81.3847 120.512 84.234 134.277 84.234C148.043 84.234 159.205 81.3847 159.205 77.8711C159.205 74.3574 148.044 71.5082 134.277 71.5082C120.51 71.5082 109.351 74.3574 109.351 77.8711Z" fill="#FCB4B4"/>
<path d="M108.949 77.8711C134.688 70.839 159.205 77.8711 159.205 77.8711C159.205 74.3574 147.955 71.5082 134.076 71.5082C120.197 71.5082 108.949 74.3574 108.949 77.8711Z" fill="#F9C0C0"/>
<path d="M159.205 77.8711C133.466 84.9032 108.949 77.8711 108.949 77.8711C108.942 77.9758 108.935 78.0786 108.93 78.1805C108.911 78.0786 108.891 77.9758 108.871 77.8711C76.3633 84.9032 45.3982 77.8711 45.3982 77.8711C45.2939 80.4157 60.3694 84.234 60.3694 84.234C84.548 89.861 138.266 89.3945 159.223 84.234L159.204 77.8711H159.205Z" fill="#F49F9F"/>
<path d="M45.3992 84.233C45.3992 90.2456 51.9758 98.202 51.9758 98.202H167.604C167.604 98.202 173.602 90.2132 173.602 84.1711L45.4001 84.233H45.3992Z" fill="#FCB4B4"/>
<path d="M159.208 89.9476C159.208 89.9476 133.339 93.5165 111.905 93.5165C90.471 93.5165 60.3703 89.9476 60.3703 89.9476L51.9758 98.3791H167.605L159.209 89.9476H159.208Z" fill="#F49F9F"/>
<path d="M159.208 65.3766V89.9466C159.208 94.6036 162.967 98.3781 167.603 98.3781C169.921 98.3781 172.02 97.4347 173.54 95.9078C175.06 94.3818 176 92.2751 176 89.9466V65.3766C176 60.7215 172.241 56.947 167.604 56.947C165.287 56.947 163.186 57.8904 161.668 59.4173C160.148 60.9414 159.208 63.0491 159.208 65.3766Z" fill="#FCB4B4"/>
<path d="M159.208 65.3766V89.9466C159.208 94.6036 162.967 98.3781 167.603 98.3781C159.519 78.9982 159.208 65.3766 159.208 65.3766Z" fill="#F49F9F"/>
<path d="M58.4554 36.2666C59.2849 36.2649 59.9559 35.5879 59.9541 34.7546C59.9524 33.9213 59.2786 33.2472 58.4491 33.2489C57.6197 33.2507 56.9487 33.9276 56.9504 34.7609C56.9522 35.5942 57.626 36.2684 58.4554 36.2666Z" fill="#F49F9F"/>
<path d="M33.5206 36.2656C34.3501 36.2639 35.021 35.587 35.0193 34.7536C35.0176 33.9203 34.3438 33.2462 33.5143 33.2479C32.6849 33.2497 32.0139 33.9266 32.0156 34.7599C32.0173 35.5933 32.6912 36.2674 33.5206 36.2656Z" fill="#F49F9F"/>
<path d="M135.516 25.0212C74.1906 14.7458 7.23317 25.0212 7.23317 25.0212L6.01404 17.3599H129.303C132.187 17.3599 134.649 19.5636 135.127 22.5718L135.517 25.0203L135.516 25.0212Z" fill="#F9C0C0"/>
<path d="M107.891 40.7018C102.206 48.2204 93.1634 52.2433 83.7083 49.1047C83.3971 49.0019 83.0859 48.8906 82.7738 48.7716C82.5736 48.6954 82.3743 48.6164 82.1742 48.5336C82.0698 48.2346 81.6543 47.0371 81.0537 45.3112C80.4693 43.63 79.7112 41.4462 78.8972 39.1025C78.6448 38.3733 78.3858 37.6298 78.1259 36.8797C76.3574 31.7886 74.5055 26.4558 73.6867 24.1006C73.5122 23.597 73.3841 23.2296 73.3148 23.0297C78.9911 24.3805 82.6296 31.0194 88.0175 34.9863C88.5506 35.3794 89.1009 35.745 89.6721 36.0772C93.7516 38.4533 98.8919 39.0987 106.433 35.2004C106.764 35.0529 107.162 35.467 107.084 35.8221C106.927 36.5379 107.252 38.1563 108.152 38.9673C108.634 39.4024 108.321 40.2163 107.891 40.7018Z" fill="#1D3F70"/>
<path d="M81.011 45.1856L82.1741 48.5336C83.6381 49.2038 85.6124 49.7436 87.8666 49.9759C81.5527 45.7863 87.3087 36.2838 81.807 32.0676L81.011 45.1856Z" fill="#163356"/>
<path d="M88.6143 46.2423C87.5915 46.8439 85.9426 47.9853 83.7083 49.1048C83.3971 49.002 83.086 48.8906 82.7738 48.7716C82.5101 48.1548 82.438 47.0105 82.4399 45.9129C82.4655 45.9262 82.4911 45.9396 82.5167 45.9529C82.5167 45.9586 82.5158 45.9643 82.5158 45.97C82.5158 46.7868 87.8989 43.6273 88.0972 44.3622C88.1342 44.4983 88.5782 46.109 88.6143 46.2423Z" fill="#163356"/>
<path d="M121.717 67.0501C121.717 67.0501 120.805 76.7877 108.376 76.7106L117.198 56.0616L121.717 67.051V67.0501Z" fill="#103663"/>
<path d="M92.8959 24.1521C97.893 18.4023 93.9974 11.0827 102.13 5.10345C106.964 1.54979 112.605 2.95583 114.635 5.99829C125.667 10.5572 114.186 23.3173 117.261 39.3606C118.313 44.842 95.8105 38.6247 94.4462 37.945C93.0819 37.2653 85.065 33.1624 92.8959 24.1521Z" fill="#8E4A35"/>
<path d="M110.706 26.7014L111.136 26.9271C111.254 26.9908 111.364 27.0518 111.473 27.1136C111.689 27.2393 111.898 27.3621 112.1 27.4916C112.505 27.7476 112.891 28.0161 113.266 28.295C113.639 28.5768 114.005 28.8662 114.356 29.1718C114.533 29.3241 114.708 29.4773 114.878 29.6354C115.048 29.7944 115.217 29.9552 115.383 30.119C116.708 31.4279 117.882 32.9187 118.836 34.5656C119.795 36.2086 120.533 38.0069 120.998 39.8699C121.112 40.3363 121.217 40.8037 121.296 41.2759C121.317 41.393 121.335 41.512 121.354 41.63L121.382 41.8071L121.405 41.9613L121.482 42.5116C121.531 42.8781 121.59 43.2455 121.641 43.6139L121.809 44.7201C122.273 47.674 122.804 50.6622 123.354 53.6742L124.185 58.2131L124.595 60.4998L124.794 61.6478L124.89 62.2228C124.922 62.4122 124.954 62.6093 124.98 62.7911L124.989 62.8463C125.111 63.6679 124.547 64.4332 123.728 64.556C123.134 64.6455 122.569 64.3695 122.257 63.8992C122.14 63.7221 122.03 63.5584 121.921 63.388C121.811 63.2195 121.705 63.0491 121.599 62.8796C121.387 62.5398 121.182 62.198 120.979 61.8553C120.575 61.168 120.183 60.475 119.805 59.7753C119.425 59.0766 119.062 58.3702 118.702 57.6601C118.35 56.948 117.999 56.234 117.667 55.5115C117.502 55.1497 117.332 54.7899 117.17 54.4253C117.009 54.0617 116.851 53.6961 116.692 53.3306C116.374 52.5994 116.071 51.8617 115.778 51.1182C115.19 49.6322 114.644 48.1243 114.143 46.5916C113.895 45.8244 113.654 45.0533 113.431 44.2727L113.264 43.6872L113.243 43.6139L113.225 43.5578L113.19 43.4511C113.166 43.3797 113.144 43.3093 113.118 43.2388C113.022 42.9571 112.916 42.6791 112.805 42.4049C112.36 41.3073 111.807 40.2649 111.156 39.2644C110.505 38.2658 109.759 37.3053 108.936 36.3905C108.834 36.2753 108.73 36.163 108.624 36.0506C108.519 35.9383 108.415 35.8241 108.307 35.7136C108.093 35.4928 107.878 35.27 107.658 35.0568C107.441 34.8397 107.219 34.6303 107.004 34.4266L106.687 34.1315L106.543 33.9953C106.52 33.9744 106.501 33.9535 106.483 33.9344C106.475 33.9258 106.466 33.9163 106.462 33.9106C106.459 33.9068 106.457 33.904 106.458 33.9021C106.458 33.9021 106.456 33.8992 106.461 33.9011C106.466 33.903 106.46 33.8982 106.484 33.9125C104.5 32.7435 103.836 30.1818 105.001 28.1913C106.166 26.2007 108.719 25.5343 110.703 26.7033L110.706 26.7014Z" fill="#F99370"/>
<path d="M121.949 36.7579L116.753 37.4833L113.463 37.9431L110.859 28.5644L110.108 25.8561C110.108 25.8561 111.031 26.0588 112.4 26.6852C115.06 27.9018 119.404 30.7187 121.949 36.7589V36.7579Z" fill="#EB5648"/>
<path d="M110.552 23.9969L110.108 25.8561C110.108 25.8561 111.766 28.691 113.291 30.7139C113.291 30.7139 104.449 31.2756 100.297 27.0022L104.464 24.2949C104.464 24.2949 105.139 22.0873 105.293 21.2562L110.552 23.9969Z" fill="#F99370"/>
<path d="M104.94 22.6784C107.12 24.3167 109.927 24.4253 110.444 24.4319L111.15 21.7217C111.15 21.4104 105.464 20.5984 105.464 20.5984C105.464 20.5984 104.965 22.6965 104.94 22.6784Z" fill="#E57D61"/>
<path d="M103.659 12.6753C103.087 14.9629 102.775 17.6855 103.854 19.8264H103.857C104.294 20.6879 104.969 21.4067 105.773 21.9588C109.901 25.5648 118.647 22.0178 116.392 16.3061C116.015 15.3779 115.864 14.2822 115.925 13.374C116.834 3.8678 105.461 4.65983 103.658 12.6763L103.659 12.6753Z" fill="#F99370"/>
<path d="M134.21 77.5141L122.871 76.9277C122.353 76.901 121.966 76.4717 122.017 75.9872C122.195 74.8667 122.516 73.6463 122.514 72.4868C122.592 71.7557 122.091 64.5703 122.066 63.665C122.037 63.1633 122.477 62.7502 123.011 62.7778C131.258 63.1795 128.763 62.1571 127.6 70.8057C127.078 74.1594 130.932 74.3822 133.115 75.0343C133.955 75.3056 134.645 75.6435 135.024 76.2261C135.402 76.8106 134.936 77.5512 134.211 77.5132L134.21 77.5141Z" fill="#F99370"/>
<path d="M121.697 75.7596C121.703 76.306 121.957 76.8924 122.591 76.9143L134.352 77.5226C137.123 76.9429 133.426 72.9646 127.968 72.7885C127.885 72.779 125.526 73.0532 123.195 72.6257C121.928 72.4001 121.689 74.6572 121.698 75.7596H121.697Z" fill="#103663"/>
<path d="M131.642 75.889C131.605 75.889 131.566 75.8814 131.53 75.8633C131.41 75.8034 131.361 75.6577 131.42 75.5378C132.022 74.3202 133.041 73.9899 133.084 73.9766C133.211 73.9366 133.347 74.008 133.387 74.1365C133.427 74.2641 133.356 74.4002 133.229 74.4402C133.216 74.444 132.359 74.7324 131.855 75.7529C131.813 75.8367 131.731 75.8862 131.643 75.8881L131.642 75.889Z" fill="#E8C0A6"/>
<path d="M129.712 75.5692C129.68 75.5692 129.649 75.5645 129.619 75.553C129.494 75.5045 129.433 75.3636 129.481 75.2389C130.015 73.8605 131.315 73.2941 131.37 73.2703C131.494 73.2179 131.636 73.276 131.688 73.3988C131.74 73.5225 131.683 73.6644 131.56 73.7167C131.542 73.7243 130.39 74.2346 129.933 75.4141C129.896 75.5083 129.808 75.5664 129.713 75.5692H129.712Z" fill="#E8C0A6"/>
<path d="M127.515 75.1989C127.48 75.1989 127.446 75.1932 127.413 75.1789C127.291 75.1256 127.234 74.9828 127.287 74.86C127.885 73.4692 129.101 72.7857 129.152 72.7571C129.27 72.6924 129.417 72.7352 129.481 72.8532C129.546 72.9703 129.503 73.1179 129.386 73.1836C129.371 73.1921 128.261 73.8223 127.732 75.0532C127.693 75.1436 127.607 75.1979 127.516 75.1998L127.515 75.1989Z" fill="#E8C0A6"/>
<path d="M135.232 76.4593L121.697 75.7596C121.727 76.1499 121.821 76.5336 122.011 76.8839L134.351 77.5217C134.951 77.5531 135.409 77.02 135.237 76.4784C135.235 76.4717 135.234 76.465 135.231 76.4593H135.232Z" fill="#0F2E54"/>
<path d="M127.411 80.9268L116.073 80.3404C115.555 80.3138 115.168 79.8844 115.219 79.3999C115.396 78.2794 115.717 77.059 115.715 75.8995C115.794 75.1684 115.293 67.9831 115.267 67.0777C115.239 66.5761 115.678 66.1629 116.212 66.1905C124.46 66.5922 121.964 65.5698 120.801 74.2184C120.28 77.5721 124.133 77.7949 126.316 78.447C127.157 78.7183 127.847 79.0562 128.225 79.6388C128.604 80.2233 128.137 80.9639 127.412 80.9259L127.411 80.9268Z" fill="#F99370"/>
<path d="M114.898 79.1714C114.904 79.7178 115.158 80.3042 115.792 80.3261L127.553 80.9344C128.161 80.9668 128.622 80.4175 128.433 79.872C128.038 78.6421 126.66 76.6934 121.117 76.1108C121.033 76.1023 118.04 76.4621 115.709 76.0347C115.215 76.7248 114.837 78.0262 114.898 79.1723V79.1714Z" fill="#103663"/>
<path d="M124.844 79.3019C124.806 79.3019 124.767 79.2943 124.731 79.2762C124.611 79.2162 124.562 79.0706 124.622 78.9506C125.223 77.7331 126.242 77.4027 126.285 77.3894C126.413 77.3494 126.549 77.4208 126.589 77.5493C126.628 77.6769 126.557 77.813 126.43 77.853C126.417 77.8578 125.56 78.1462 125.056 79.1657C125.015 79.2495 124.932 79.299 124.845 79.3009L124.844 79.3019Z" fill="#E8C0A6"/>
<path d="M122.913 78.9811C122.745 78.9877 122.617 78.8069 122.682 78.6498C123.216 77.2713 124.516 76.7049 124.571 76.6811C124.857 76.5545 125.051 77.0086 124.76 77.1286C124.752 77.1286 123.576 77.6578 123.129 78.8364C123.09 78.9239 123.004 78.9782 122.913 78.9801V78.9811Z" fill="#E8C0A6"/>
<path d="M120.716 78.6116C120.545 78.6192 120.415 78.4307 120.488 78.2727C121.086 76.8819 122.302 76.1984 122.353 76.1698C122.626 76.0147 122.865 76.4469 122.587 76.5954C122.58 76.5954 121.447 77.2475 120.927 78.4755C120.887 78.5593 120.803 78.6097 120.716 78.6116Z" fill="#E8C0A6"/>
<path d="M128.433 79.8721L114.898 79.1724C114.929 79.5627 115.022 79.9463 115.212 80.2966L127.552 80.9344C128.152 80.9659 128.61 80.4328 128.439 79.8911C128.437 79.8844 128.435 79.8778 128.432 79.8721H128.433Z" fill="#0F2E54"/>
<path d="M114.678 8.12588C114.678 8.12588 112.475 13.9319 105.096 13.8262L102.469 11.9594C102.469 11.9594 104.416 7.12156 107.785 5.64888C111.155 4.1762 114.245 6.9207 114.677 8.12588H114.678Z" fill="#8E4A35"/>
<path d="M105.091 13.8238C105.314 12.7035 104.766 11.6493 103.868 11.4691C102.969 11.2889 102.06 12.051 101.837 13.1713C101.613 14.2916 102.161 15.3459 103.06 15.5261C103.958 15.7063 104.868 14.9441 105.091 13.8238Z" fill="#F99370"/>
<path d="M102.703 12.5705C102.822 12.3973 102.963 12.2802 103.129 12.2211C103.722 12.0098 104.352 12.6267 104.379 12.6533C104.432 12.7047 104.433 12.7895 104.38 12.8418C104.328 12.8932 104.246 12.8942 104.193 12.8428C104.046 12.6962 103.582 12.343 103.218 12.4725C103.15 12.4972 103.087 12.542 103.028 12.5991C103.789 13.1084 103.795 14.1584 103.795 14.205C103.795 14.2793 103.735 14.3383 103.662 14.3383C103.647 14.3383 103.632 14.3354 103.618 14.3307C103.566 14.3126 103.529 14.2631 103.529 14.205C103.529 14.1955 103.514 13.2512 102.863 12.8218C102.729 13.0674 102.632 13.4273 102.581 13.8994C102.573 13.9727 102.507 14.0251 102.435 14.0175C102.424 14.0165 102.414 14.0137 102.404 14.0108C102.347 13.9908 102.31 13.9337 102.317 13.8709C102.38 13.2883 102.51 12.8551 102.703 12.5715V12.5705Z" fill="#C16256"/>
<path d="M102.697 14.8705C102.632 15.0228 102.702 15.1989 102.854 15.2637C103.006 15.3294 103.181 15.2589 103.246 15.1066C103.311 14.9543 103.241 14.7782 103.089 14.7134C102.937 14.6478 102.762 14.7182 102.697 14.8705Z" fill="#F4D4BE"/>
<path d="M119.21 59.1537C118.306 60.1028 116.129 60.9386 113.301 61.6059C108.282 62.7873 101.286 63.4394 95.5686 63.2271C87.3411 63.1157 86.1447 61.6992 87.0223 51.4019C87.9426 39.7566 97.2222 25.4525 104.465 24.2939C104.465 24.2939 106.232 27.1051 109.097 27.1422C109.964 27.1536 110.108 25.8552 110.108 25.8552C112.773 29.4707 115.737 33.963 116.753 37.4833C117.385 39.5557 117.556 41.7329 117.12 44.3793C116.873 45.8767 117.04 47.3228 117.394 48.6993C118.026 51.9759 121.651 56.6243 119.21 59.1537Z" fill="#EB5648"/>
<path d="M103.878 35.2623C103.878 35.2623 102.149 40.0488 102.655 43.4749L100.739 45.7234C100.739 45.7234 100.398 38.9274 103.878 35.2633V35.2623Z" fill="#CE3932"/>
<path d="M128.742 70.5962C127.722 71.5529 123.11 72.9104 120.34 71.5281C120.34 71.5281 108.457 35.9145 118.89 32.6588C130.219 30.7786 132.193 48.2099 128.742 70.5962Z" fill="#1D3F70"/>
<path d="M126.232 52.1797C126.017 62.3133 125.091 68.5962 124.371 72.0556C123.174 72.1622 121.793 72.0908 120.339 71.5282C120.392 71.552 107.999 35.33 118.89 32.6588C118.89 32.6588 126.591 35.1729 126.232 52.1797Z" fill="#103663"/>
<path d="M115.674 32.7816C115.309 32.7845 114.964 32.8216 114.634 32.8863V32.8844C105.674 35.35 92.6009 58.0294 89.4653 62.3846C86.0992 73.9319 99.3057 82.6909 108.376 76.7107C110.223 75.5026 111.812 73.9233 113.011 72.1812C113.337 73.5321 113.545 74.3174 113.545 74.3174C118.389 76.2937 123.066 74.2241 123.066 74.2241C128.14 51.559 124.976 32.7045 115.674 32.7826V32.7816Z" fill="#1D3F70"/>
<path d="M126.47 47.7596C126.388 47.6911 126.292 47.6521 126.194 47.6406C126.5 47.1999 126.842 46.3317 126.015 46.2784C126.708 45.4473 125.987 44.5001 125.313 45.3264C126.072 44.2298 125.176 43.612 124.65 44.2707C124.411 44.701 124.143 45.1122 123.797 45.4616C122.99 46.464 121.387 46.8648 120.352 47.2722C120.777 46.5468 121.334 45.9119 122 45.3969C122.183 45.2655 122.245 45.0113 122.128 44.8095C121.537 43.9052 118.806 46.6363 118.164 48.3965C113.362 50.5498 107.154 52.7127 101.946 51.1895C99.5447 50.4204 98.1064 48.0557 98.1188 45.6006C98.2004 41.8784 100.559 38.3067 102.844 35.3804L102.835 35.3889C106.613 31.1622 100.277 25.5752 96.5628 29.8742C92.6 34.2647 89.6029 40.0592 90.1313 46.1527C90.5621 50.9906 93.8219 55.5809 98.4641 57.1612C105.804 59.5211 113.524 55.9208 119.414 51.6922C121.066 51.4551 124.797 50.9573 126.092 49.1647C126.351 48.7716 126.958 48.2004 126.47 47.7596Z" fill="#F99370"/>
<path d="M130.16 44.2488C130.127 44.2269 130.093 44.2117 130.058 44.2003C130.33 43.8119 130.276 43.2807 129.85 43.2188C130.161 42.8171 130.081 42.1992 129.585 42.2088C129.915 41.4453 129.047 41.0893 128.611 41.7794C128.328 42.1964 128.429 42.7571 128.904 42.7514C128.754 43.1103 128.855 43.5053 129.211 43.5529C128.942 43.9099 128.956 44.4202 129.323 44.543C129.091 44.8714 129.102 45.2941 129.35 45.4587C129.914 45.8586 130.742 44.622 130.161 44.2488H130.16Z" fill="#F99370"/>
<path d="M112.959 73.0399C112.871 73.0418 112.789 72.9808 112.769 72.8914C112.743 72.7724 110.129 60.9452 109.803 56.2464C109.796 56.1417 109.875 56.0503 109.98 56.0436C110.087 56.036 110.175 56.115 110.182 56.2207C110.506 60.891 113.114 72.6905 113.14 72.8095C113.163 72.9123 113.098 73.0142 112.996 73.037C112.984 73.0399 112.971 73.0408 112.959 73.0418V73.0399Z" fill="#103663"/>
<path d="M95.5619 54.4862L92.5838 57.6191C88.4558 55.7466 87.2395 49.496 87.2395 49.496C87.4482 48.1918 87.7309 46.782 88.0583 45.4778L95.5628 54.4862H95.5619Z" fill="#CE3932"/>
<path d="M118.988 52.0169C115.586 54.908 109.799 59.3612 103.329 59.9667C95.7906 60.4807 84.1438 54.6224 88.5147 40.0927C92.8855 25.5629 104.464 24.2949 104.464 24.2949C104.464 24.2949 106.101 30.9472 103.35 36.4686C96.2222 50.6051 106.538 50.6232 117.561 48.6698C117.531 50.5947 118.988 52.0169 118.988 52.0169Z" fill="#EB5648"/>
<path d="M118.988 52.0169C118.988 52.0169 118.413 52.5433 117.427 53.3258C115.364 51.7846 115.693 49.2886 115.746 48.9582C116.857 48.7993 117.562 48.6698 117.562 48.6698C117.532 50.5947 118.989 52.0169 118.989 52.0169H118.988Z" fill="#CE3932"/>
<path d="M123.454 47.4103C123.416 47.4103 123.378 47.3923 123.356 47.358C123.323 47.3056 123.338 47.2361 123.391 47.2028C124.757 46.3356 125.205 45.2941 125.21 45.2837C125.234 45.2266 125.299 45.199 125.357 45.2237C125.414 45.2475 125.441 45.3141 125.417 45.3713C125.398 45.416 124.936 46.4879 123.511 47.3932C123.493 47.4046 123.473 47.4103 123.454 47.4103Z" fill="#E57D61"/>
<path d="M123.963 48.5098C123.925 48.5098 123.888 48.4917 123.866 48.4574C123.832 48.4051 123.848 48.3356 123.901 48.3022C125.417 47.3398 125.906 46.2451 125.911 46.2346C125.936 46.1775 126.002 46.1518 126.059 46.1765C126.116 46.2013 126.142 46.2679 126.117 46.3241C126.097 46.3707 125.6 47.4893 124.02 48.4926C124.002 48.5041 123.982 48.5098 123.963 48.5098Z" fill="#E57D61"/>
<path d="M123.99 49.6331C123.944 49.6341 123.9 49.6065 123.883 49.5617C123.86 49.5037 123.889 49.4389 123.947 49.4161C125.557 48.7897 126.087 47.6093 126.091 47.5969C126.116 47.5398 126.182 47.5141 126.239 47.5388C126.296 47.5636 126.322 47.6293 126.297 47.6864C126.275 47.7378 125.731 48.963 124.029 49.6255C124.016 49.6303 124.003 49.6331 123.991 49.6331H123.99Z" fill="#E57D61"/>
<path d="M112.4 26.6843C112.127 30.1932 109.484 28.5244 109.097 27.1422C109.639 29.1793 107.607 30.415 104.939 28.2959C103.389 26.9851 102.438 24.7642 102.438 24.7642C103.523 23.955 104.485 24.291 104.465 24.2929C107.148 26.6576 108.988 27.5115 110.108 25.8542C110.108 25.8542 111.212 25.6999 112.4 26.6833V26.6843Z" fill="#F4D4BE"/>
<path d="M108.416 117.087L95.7478 116.947C95.7801 114.915 96.3199 110.813 95.9176 108.495L101.575 107.82C101.423 108.933 100.404 112.75 102.741 113.31C105.174 113.892 107.727 113.828 109.216 115.67C109.603 116.289 109.146 117.094 108.417 117.086L108.416 117.087Z" fill="#F99370"/>
<path d="M95.3759 115.719C95.4234 116.149 95.5363 116.568 95.7479 116.947L108.54 117.088C109.162 117.095 109.618 116.485 109.419 115.894C108.949 114.513 107.315 112.439 101.422 112.064C101.422 112.064 99.3256 112.699 96.0344 112.064C96.0344 112.064 95.1834 113.973 95.3769 115.718L95.3759 115.719Z" fill="#EB5648"/>
<path d="M105.658 115.4C105.76 115.4 105.856 115.34 105.897 115.24C106.379 114.085 107.229 113.739 107.265 113.725C107.577 113.608 107.391 113.114 107.079 113.239C107.035 113.256 105.99 113.668 105.419 115.039C105.345 115.206 105.478 115.403 105.658 115.4Z" fill="#E8C0A6"/>
<path d="M103.647 115.134C103.757 115.134 103.859 115.063 103.894 114.953C104.323 113.613 105.496 113.005 105.509 112.999C105.81 112.852 105.573 112.379 105.274 112.535C105.218 112.563 103.896 113.249 103.4 114.793C103.344 114.957 103.475 115.135 103.647 115.133V115.134Z" fill="#E8C0A6"/>
<path d="M101.358 114.826C101.464 114.826 101.564 114.76 101.602 114.654C102.101 113.264 103.227 112.516 103.238 112.508C103.522 112.329 103.236 111.885 102.956 112.071C102.904 112.104 101.675 112.915 101.114 114.477C101.051 114.641 101.182 114.828 101.358 114.825V114.826Z" fill="#E8C0A6"/>
<path d="M109.412 115.873L95.376 115.719C95.4234 116.149 95.5363 116.568 95.7479 116.947L108.54 117.088C109.171 117.096 109.629 116.467 109.412 115.873Z" fill="#CE3932"/>
<path d="M67.7239 71.4692C75.0293 71.4939 84.4854 75.6226 88.9283 82.6966C93.3599 89.4878 92.9813 101.898 92.9254 108.007C99.7696 110.219 103.839 108.518 103.839 108.518C106.417 87.3859 106.261 63.4089 82.9617 57.7324H62.2554C58.654 65.0987 61.874 71.3445 67.723 71.4692H67.7239Z" fill="#3A72AA"/>
<path d="M74.6526 59.7629L81.8412 75.7787C85.8231 78.3223 89.6778 82.4357 91.1104 87.4706C92.5354 63.3985 77.8574 60.8129 74.6526 59.7629Z" fill="#23659B"/>
<path d="M92.9159 119.999L80.2473 119.859C80.2796 117.828 80.8194 113.726 80.4171 111.407L86.4644 111.467C86.3126 112.58 85.5982 115.719 87.2395 116.222C89.6313 116.955 92.2252 116.74 93.7147 118.582C94.1018 119.201 93.6445 120.006 92.9159 119.998V119.999Z" fill="#F99370"/>
<path d="M79.8754 118.631C79.9229 119.061 80.0358 119.48 80.2473 119.859L93.0392 120C93.6616 120.007 94.1179 119.397 93.9187 118.806C93.4481 117.425 92.1531 115.312 86.2604 114.938C86.2604 114.938 83.8269 115.573 80.5357 114.938C80.5357 114.938 79.6838 116.885 79.8764 118.63L79.8754 118.631Z" fill="#EB5648"/>
<path d="M90.1579 118.312C90.2594 118.312 90.3552 118.252 90.397 118.152C90.879 116.996 91.7281 116.651 91.7641 116.637C92.0763 116.52 91.8903 116.026 91.5782 116.151C91.5345 116.168 90.49 116.58 89.9188 117.951C89.8448 118.118 89.9776 118.315 90.1579 118.312Z" fill="#E8C0A6"/>
<path d="M88.1465 118.046C88.2566 118.046 88.3581 117.975 88.3932 117.865C88.822 116.525 89.9956 115.917 90.0079 115.911C90.3096 115.764 90.0724 115.291 89.7736 115.447C89.7176 115.475 88.3951 116.161 87.8998 117.705C87.8439 117.868 87.9748 118.047 88.1465 118.045V118.046Z" fill="#E8C0A6"/>
<path d="M85.8581 117.738C85.9644 117.738 86.064 117.672 86.1019 117.566C86.601 116.176 87.7271 115.428 87.7385 115.42C88.0222 115.241 87.7366 114.796 87.4567 114.983C87.4046 115.016 86.175 115.827 85.6143 117.389C85.5517 117.553 85.6826 117.74 85.8581 117.737V117.738Z" fill="#E8C0A6"/>
<path d="M93.911 118.785L79.8754 118.631C79.9228 119.061 80.0357 119.48 80.2473 119.859L93.0391 120C93.6701 120.008 94.1283 119.379 93.911 118.785Z" fill="#CE3932"/>
<path d="M56.9187 74.0289C63.4736 78.0091 71.462 74.5363 76.0501 83.8312C79.7407 91.8667 78.5386 105.234 77.8517 111.766C84.696 113.978 88.3752 111.766 88.3752 111.766C94.0942 79.6055 92.3371 54.6376 53.4577 57.7324C53.4577 57.7324 48.548 68.5599 56.9187 74.0289Z" fill="#3A72AA"/>
<path d="M77.8517 111.767C84.6959 113.979 88.3751 111.767 88.3751 111.767C88.3751 111.767 88.507 111.098 88.7072 109.921C88.7072 109.921 84.545 111.329 78.1031 109.45C77.9655 110.9 77.8517 111.767 77.8517 111.767Z" fill="#23659B"/>
<path d="M92.9253 108.007C99.7695 110.219 103.839 108.518 103.839 108.518C103.839 108.518 103.923 107.832 104.044 106.64C104.044 106.64 100.617 108.196 92.968 106.256C92.9519 107.355 92.9253 108.008 92.9253 108.008V108.007Z" fill="#23659B"/>
<path d="M71.7788 2.17612C71.7788 2.17612 69.0351 -0.891089 64.3682 0.256972C59.7004 1.40503 60.8427 4.52174 58.9841 7.06347C57.3172 9.34341 57.4813 12.0584 58.9841 14.78C60.1179 16.8334 56.839 17.437 57.4813 20.3242C58.172 23.4324 70.0208 25.7266 75.4856 22.688C80.9513 19.6484 76.5377 14.4231 76.7825 11.6452C77.0273 8.86743 71.7788 2.17517 71.7788 2.17517V2.17612Z" fill="#662948"/>
<path d="M72.1973 20.6803C72.147 21.2305 72.0644 21.8217 71.9601 22.3243C72.0037 24.3196 66.7591 24.0369 66.6604 21.8978C66.7667 20.6498 67.2173 14.8219 66.76 14.2727C66.113 10.8361 71.6252 9.92127 72.0986 13.4016C72.388 15.1647 72.3965 18.5079 72.1982 20.6803H72.1973Z" fill="#F99370"/>
<path d="M72.1972 20.6803C68.7315 21.4085 66.8018 20.0054 66.8018 20.0054L66.8492 19.2504C66.9279 18.1862 66.9222 18.1566 66.9498 17.2275L72.3301 17.3027C72.3377 18.3956 72.3054 19.5827 72.1972 20.6803Z" fill="#E57D61"/>
<path d="M70.9344 2.08379C77.7863 0.498781 80.067 11.3749 75.7835 15.9291L70.9344 2.08379Z" fill="#662948"/>
<path d="M63.5818 10.7143C63.5049 13.1513 63.7848 15.97 65.3426 17.8949H65.3455C69.7211 23.4477 81.2682 18.4261 77.2379 11.5768C75.9571 9.82611 76.1213 7.1987 75.1555 5.51755C71.406 -0.907217 63.4812 4.44374 63.5818 10.7152V10.7143Z" fill="#F99370"/>
<path d="M73.7171 3.69064C73.7171 3.69064 73.1185 10.3172 65.2847 11.5595L62.9394 9.59373C61.3531 4.05238 67.4222 -2.45044 73.7171 3.69064Z" fill="#662948"/>
<path d="M61.855 11.6167C61.9147 14.4155 65.3169 14.3584 65.2837 11.5596C65.224 8.76086 61.8218 8.81798 61.855 11.6167Z" fill="#F99370"/>
<path d="M62.5978 12.3373C62.6861 12.3554 62.7715 12.2783 62.761 12.1879C62.5267 10.66 63.2743 10.1821 64.1576 10.7657C64.3056 10.8637 64.4564 10.6257 64.3046 10.5324C63.279 9.73087 61.9499 10.7066 62.5978 12.3373Z" fill="#C16256"/>
<path d="M63.8938 12.3935C64.5001 12.4554 63.2088 10.3154 62.594 10.818C62.5751 10.8913 62.6187 10.9674 62.6918 10.9865C63.7173 11.2987 63.6528 12.3097 63.8938 12.3935Z" fill="#C16256"/>
<path d="M63.0903 13.1427C63.0087 13.5359 63.6254 13.6558 63.6956 13.2608C63.7772 12.8676 63.1605 12.7477 63.0903 13.1427Z" fill="#F4D4BE"/>
<path d="M83.6647 57.9113C81.8545 60.1856 65.187 62.4265 53.1238 58.6748C53.1238 58.6748 53.7556 51.8626 55.1436 44.1679C55.3362 43.0979 55.544 42.0117 55.766 40.9236C57.3751 33.0643 59.7631 25.1468 63.0599 23.1725C68.0655 24.4138 71.7495 24.3139 73.6868 24.1006C74.6953 23.9883 75.2294 23.8465 75.2294 23.8465C75.2294 23.8465 79.5993 27.184 83.2093 34.5969C84.7814 37.825 82.8108 42.3373 82.5167 45.9528C82.5167 45.9585 82.5158 45.9643 82.5158 45.97C82.4446 46.8391 82.4731 47.6568 82.6714 48.3917C82.7065 48.5203 82.7397 48.6459 82.7738 48.7716C82.7757 48.7792 82.7786 48.7878 82.7805 48.7954C82.8421 49.0239 82.9029 49.2485 82.9617 49.4675C84.0774 53.6504 85.4493 55.6695 83.6647 57.9113Z" fill="#1D3F70"/>
<path d="M82.9617 49.4675C78.8537 51.3981 72.9867 53.0783 65.5865 51.5485C59.747 50.3414 56.3543 45.9891 55.1437 44.168C55.3363 43.098 55.544 42.0118 55.7661 40.9237C62.819 42.0718 80.4106 45.0914 80.4106 45.0914C80.4106 45.0914 80.6715 45.1694 81.0538 45.3113C81.4409 45.4531 81.9513 45.6597 82.4399 45.9129C82.438 47.0105 82.5101 48.1548 82.7739 48.7716C82.7758 48.7793 82.7786 48.7878 82.7805 48.7954C82.8422 49.0239 82.9029 49.2486 82.9617 49.4675Z" fill="#163356"/>
<path d="M90.229 37.9431C90.229 38.6827 84.5423 38.9845 78.8973 39.1026C73.3358 39.2187 67.815 39.1549 67.815 39.1549L66.5029 32.2599C66.5029 32.2599 69.2733 36.1553 72.0293 36.6046C74.0075 36.9264 76.0425 37.0063 78.126 36.8797C81.3232 36.6865 84.6324 36.0106 88.0175 34.9863C88.5507 35.3795 89.101 35.745 89.6721 36.0772C89.9691 36.6437 90.229 37.3167 90.229 37.9431Z" fill="#163356"/>
<path d="M93.7413 39.3634C93.747 39.609 93.1208 40.58 91.9947 41.8356C88.2623 45.9966 73.3149 55.7133 61.855 49.2047C49.6675 42.283 51.3345 23.6732 63.06 23.1725C63.06 23.1725 63.7032 25.8561 65.2848 29.4002C68.0171 35.526 68.2002 41.0217 89.5194 35.3042C89.933 35.1929 90.3714 35.1405 90.8106 35.051C92.9425 34.615 93.7754 38.2877 93.7403 39.3634H93.7413Z" fill="#1D3F70"/>
<path d="M71.9591 22.3243C71.9591 22.3243 74.1194 22.0092 75.3423 23.7627C75.3423 23.7627 74.7484 25.8361 71.9961 26.8842C71.9961 26.8842 71.4895 25.6152 70.6233 24.7623C70.6233 24.7623 70.2931 25.9989 70.167 27.1736C70.167 27.1736 64.91 27.7372 63.0599 23.1725C63.0599 23.1725 65.0637 21.7455 66.6595 21.8979C67.427 23.7618 71.1081 24.3073 71.9591 22.3243Z" fill="#EB5648"/>
<path d="M96.06 29.7467C96.2658 29.8543 96.3342 30.1151 96.2146 30.3131C95.8873 30.9024 95.6093 31.5268 95.4272 32.1742C96.5884 31.8001 97.651 31.087 97.6595 31.0889C98.7421 30.0313 99.7657 28.9166 100.739 27.7552C101.042 27.3754 101.658 27.8247 101.381 28.2321C100.579 29.4735 99.7193 30.6844 98.8018 31.8458C98.8066 31.8515 98.8113 31.8572 98.8161 31.8638C100.155 31.0175 101.451 30.097 102.659 29.0717C105.11 28.6795 99.8198 32.6521 99.4128 32.9986C99.4138 33.0024 99.4147 33.0062 99.4166 33.009C100.81 32.4274 102.134 31.6734 103.361 30.7891C105.841 30.6491 100.194 34.2076 99.6633 34.416C99.6633 34.4218 99.6633 34.4284 99.6642 34.4341C100.825 34.1371 101.948 33.6916 103.039 33.1918C105.335 33.4013 100.146 35.724 99.6396 35.8821C99.131 36.1962 98.1804 37.1596 95.3683 37.5861C94.4936 37.7203 92.9253 35.9059 92.9965 35.0367C93.0771 34.0591 93.893 32.8091 94.1198 32.4779C94.3769 31.8638 95.2829 29.4716 96.06 29.7457V29.7467Z" fill="#F99370"/>
<path d="M93.7384 39.155L95.3683 37.588L93.1009 34.5046L91.8485 35.1805L93.7384 39.155Z" fill="#F99370"/>
<path d="M93.7413 39.3634C93.747 39.609 93.1208 40.58 91.9947 41.8356C91.9947 41.8356 91.9947 41.8347 91.9947 41.8337C92.2053 38.2696 89.5194 35.3042 89.5194 35.3042C89.9407 35.2252 90.3714 35.1405 90.8106 35.051C92.9425 34.615 93.7755 38.2877 93.7404 39.3634H93.7413Z" fill="#163356"/>
<path d="M43.4372 85.8818H7.11462V56.947H51.9749L43.4372 85.8818Z" fill="#F49F9F"/>
<path d="M60.3703 65.3766V89.9466C60.3703 94.6036 56.6114 98.3781 51.9758 98.3781C49.6571 98.3781 47.5585 97.4347 46.0386 95.9078C44.5187 94.3818 43.5785 92.2751 43.5785 89.9466V65.3766C43.5785 60.7215 47.3374 56.947 51.9749 56.947C54.2917 56.947 56.3922 57.8904 57.9102 59.4173C59.4301 60.9414 60.3703 63.0491 60.3703 65.3766Z" fill="#FCB4B4"/>
<path d="M60.3703 65.3766V89.9466C60.3703 94.6036 56.6114 98.3781 51.9758 98.3781C60.3864 79.5512 60.3703 65.3766 60.3703 65.3766Z" fill="#F49F9F"/>
</svg>
