<svg width="151" height="149" viewBox="0 0 151 149" fill="none" xmlns="http://www.w3.org/2000/svg">
<path d="M16.0348 78.5118C15.6373 78.3749 15.5719 79.6209 15.937 79.3647L16.5079 79.3315C16.4341 78.9418 16.2965 78.6 16.0348 78.5118Z" fill="#FFE36C"/>
<path d="M16.5079 79.3315C16.5477 79.5372 16.5724 79.7585 16.5842 79.9601C17.2636 90.5912 19.0936 101.103 21.9885 110.99C23.0654 114.665 24.3313 118.344 26.3356 121.11C28.217 123.704 30.6387 125.334 33.1173 126.432C37.2416 128.255 41.5765 128.701 45.8671 129.038C67.0608 130.719 88.3098 130.155 109.389 127.354C117.293 126.303 126.014 124.291 130.862 115.335C133.776 109.945 134.751 102.923 135.642 96.1751C136.689 88.2337 137.126 84.9371 138.177 76.9948L16.5124 79.3342L16.5079 79.3315Z" fill="#C5E3FF"/>
<path opacity="0.1" d="M136.579 89.0433C136.914 86.4965 137.218 84.2054 137.589 81.3939C105.841 81.9193 74.0935 82.4448 42.3491 82.9693L16.8474 83.3934C17.0704 85.9451 17.3598 88.4868 17.7138 91.0113C48.7582 90.4966 79.8026 89.982 110.847 89.4673C119.424 89.3248 128.001 89.1822 136.578 89.0397L136.579 89.0433Z" fill="#6EBAFF"/>
<path d="M90.5826 74.4184C77.4456 56.9844 64.3077 39.5468 51.1662 22.1101C47.4659 17.1986 40.2933 23.4279 43.9787 28.3125C57.1166 45.7502 70.2571 63.1832 83.395 80.6209C87.0952 85.5324 94.2643 79.3039 90.5826 74.4184Z" fill="white"/>
<path d="M87.6256 80.3062C87.6256 80.3062 45.5203 24.8977 44.0569 23.0182C42.5899 21.1397 33.3948 23.704 34.0005 29.4176C34.6062 35.1313 29.1321 29.2734 25.5516 33.5204C21.9702 37.7638 24.6504 40.932 24.3171 41.8944C23.9837 42.8568 20.283 41.855 18.2333 45.7111C16.1837 49.5672 18.6186 52.2642 18.4166 53.8172C18.2147 55.3703 13.362 54.511 12.4536 59.6607C11.5453 64.8104 15.9909 65.5546 15.8264 66.9895C15.6618 68.4243 11.9686 67.7798 11.8587 73.3877C11.7489 78.9956 19.3894 81.2326 21.5316 81.5472C23.6737 81.8618 87.6256 80.3062 87.6256 80.3062Z" fill="#C5E3FF"/>
<path d="M85.3769 79.263C85.4292 79.3147 85.484 79.3618 85.5398 79.4126C85.9948 79.8354 86.5582 79.6883 86.8856 79.334C86.2106 78.4486 85.1013 76.9881 83.6711 75.1036C67.3788 60.0642 50.8139 45.3257 33.9865 30.8972C33.8156 31.8354 33.2678 32.098 32.4879 32.11C48.497 45.8345 64.27 59.8386 79.7934 74.1144C61.2989 63.1072 43.5263 50.8249 24.2615 41.1985C24.3407 41.494 24.3729 41.7288 24.3148 41.8989C24.1859 42.2773 23.5339 42.3515 22.6698 42.5367C44.1998 53.2096 63.842 67.2394 84.6707 79.178C84.9244 79.3225 85.1659 79.335 85.3788 79.2702L85.3769 79.263Z" fill="white"/>
<path d="M45.0498 73.6617C55.8149 75.6526 66.5799 77.6435 77.3495 79.637C78.0521 79.9239 78.7558 80.2144 79.4585 80.5013C80.4236 80.4783 81.3205 80.4582 82.1408 80.4393C82.3001 80.0451 82.2162 79.5885 81.703 79.3783C81.2424 79.1927 80.7845 79.0024 80.3266 78.8122C80.2784 78.489 80.067 78.2018 79.6391 78.1234C79.0377 78.0141 78.4354 77.9012 77.8377 77.7909C67.738 73.6553 57.6515 69.497 47.5683 65.3223C42.0315 63.0276 36.4938 60.7293 30.9551 58.4275C26.8555 56.7251 22.369 55.2694 18.3748 53.1293C18.4261 53.3783 18.4492 53.6077 18.4207 53.8163C18.3638 54.2487 17.9462 54.4958 17.354 54.7356C21.2393 56.8276 25.601 58.2473 29.5982 59.9114C35.2792 62.2717 40.9639 64.631 46.6475 66.9868C54.015 70.0387 61.3913 73.0805 68.7693 76.1142C61.0174 74.6796 53.2701 73.2477 45.5182 71.8132C39.984 70.7888 34.4543 69.7672 28.92 68.7428C24.4441 67.914 19.8997 67.231 15.4592 66.1763C15.7125 66.4483 15.8621 66.7057 15.8304 66.9885C15.7783 67.439 15.3761 67.6858 14.8461 67.9862C19.1855 69.0217 23.6235 69.6946 27.9984 70.5042C33.6861 71.5569 39.3738 72.6097 45.057 73.6597L45.0498 73.6617Z" fill="white"/>
<path d="M135.768 73.893L17.3941 76.2198C15.0076 76.2682 12.7666 78.4217 12.9352 80.8992C13.1021 83.3849 15.045 85.4488 17.6033 85.3968L135.977 83.07C138.364 83.0216 140.605 80.8681 140.436 78.3906C140.269 75.9049 138.326 73.841 135.768 73.893Z" fill="white"/>
<path d="M83.5936 79.0262C83.7671 78.914 83.9302 78.7776 84.1017 78.6583C84.461 78.28 84.7827 77.8615 85.0359 77.388C85.2149 76.9383 85.3857 76.4869 85.5439 76.0312C88.5277 66.4197 91.5115 56.8082 94.4989 47.1957C95.365 44.41 96.2308 41.609 96.7008 38.7209C96.9145 37.412 97.0337 36.0086 96.5181 34.8294C95.8173 33.2169 94.1489 32.478 92.5946 31.9788C91.2884 31.5601 89.9628 31.2121 88.6223 30.9378C87.4083 30.6913 86.0498 30.7076 84.9768 31.4317C83.8843 32.1687 82.8452 35.3831 82.446 36.7302C79.2845 47.4555 78.8532 56.7926 77.8921 67.9637C77.6844 70.3837 77.4757 72.8 77.2679 75.2199C77.2762 75.2795 77.2809 75.3401 77.2892 75.3997C77.5206 77.08 78.7076 78.2145 80.0558 78.8615C81.0518 79.3403 82.274 79.5459 83.3621 79.208C83.4329 79.1426 83.5056 79.0845 83.5875 79.0317L83.5936 79.0262Z" fill="white"/>
<path d="M84.1936 77.5829C84.2359 79.5032 82.8026 81.0887 80.9891 81.1265C79.1746 81.1607 77.6708 79.632 77.6285 77.7118C77.5862 75.7915 79.0195 74.206 80.833 74.1682C82.6475 74.134 84.1513 75.6626 84.1936 77.5829Z" fill="#6EBAFF"/>
<path opacity="0.1" d="M112.083 121.962C106.235 124.954 100.119 127.204 93.7479 128.787C93.2946 128.901 92.8404 129.011 92.3862 129.121C98.0603 128.69 103.728 128.106 109.382 127.356C117.285 126.305 126.006 124.293 130.855 115.336C132.901 111.551 133.989 106.96 134.767 102.224C130.58 111.516 120.954 117.429 112.084 121.966L112.083 121.962Z" fill="#6EBAFF"/>
</svg>
