<svg width="24" height="24" viewBox="0 0 24 24" fill="none" xmlns="http://www.w3.org/2000/svg">
<path fill-rule="evenodd" clip-rule="evenodd" d="M6.69744 1C3.55655 1 1 3.4687 1 6.59934V16.931C1 17.2254 1.1646 17.4932 1.42227 17.618C1.67995 17.7429 1.98418 17.7023 2.20278 17.5138C3.15708 16.6912 4.23722 16.0314 5.40002 15.5538V22.2414C5.40002 22.5357 5.56462 22.8035 5.8223 22.9284C6.07997 23.0532 6.38421 23.0126 6.6028 22.8242C8.73012 20.9905 11.4828 19.9655 14.3825 19.9655H17.3026C20.3633 19.9655 23 17.5039 23 14.3662V11.9097L22.9997 11.8883C22.9275 9.24473 21.081 7.06407 18.5958 6.47029C18.456 3.41203 15.9391 1 12.8296 1H6.69744ZM17.1136 6.31037C16.8996 4.21343 15.1197 2.51724 12.8296 2.51724H6.69744C4.29021 2.51724 2.46667 4.38351 2.46667 6.59934V15.4272C3.37853 14.8091 4.36408 14.3086 5.40002 13.935V11.9097C5.40002 8.77907 7.95657 6.31037 11.0975 6.31037H17.1136ZM6.86669 13.4993V11.9097C6.86669 9.69388 8.69023 7.82761 11.0975 7.82761H17.1333V9.05582C17.1333 11.2646 15.244 13.1379 12.9026 13.1379H9.9825C8.92189 13.1379 7.87688 13.2609 6.86669 13.4993ZM6.86669 15.0603C7.86955 14.7938 8.91608 14.6552 9.9825 14.6552H12.9026C15.9632 14.6552 18.6 12.1935 18.6 9.05582V8.0416C20.2965 8.59166 21.4803 10.1375 21.5334 11.9209V14.3662C21.5334 16.575 19.644 18.4483 17.3026 18.4483H14.3825C11.6676 18.4483 9.05494 19.2543 6.86669 20.7375V15.0603Z" fill="#7A7E80"/>
</svg>
