<svg width="24" height="24" viewBox="0 0 24 24" fill="none" xmlns="http://www.w3.org/2000/svg">
<path d="M18.5415 6.28C18.3223 3.34667 15.9103 1 12.9136 1H6.701C3.55814 1 1 3.56667 1 6.64667V17.1333C1 17.4267 1.14618 17.6467 1.43854 17.7933C1.51163 17.8667 1.65781 17.8667 1.7309 17.8667C1.87708 17.8667 2.09635 17.7933 2.24252 17.72C3.19269 16.9133 4.28904 16.2533 5.38538 15.74V22.2667C5.38538 22.56 5.53156 22.78 5.82392 22.9267C5.89701 23 6.04319 23 6.11628 23C6.26246 23 6.48173 22.9267 6.62791 22.8533C8.74751 20.9467 11.5249 19.92 14.3754 19.92H17.299C20.4419 19.92 23 17.3533 23 14.2733V11.78C22.9269 9.14 21.0266 6.86667 18.5415 6.28ZM21.4651 14.2733C21.4651 16.62 19.5648 18.4533 17.2259 18.4533H14.3023C11.6711 18.4533 9.03987 19.26 6.84718 20.8V15.2267C7.87043 14.9333 8.89369 14.7867 9.99003 14.7867H12.9136C16.0565 14.7867 18.6146 12.22 18.6146 9.14V7.82C20.2957 8.33333 21.5382 9.94667 21.5382 11.78V14.2733H21.4651Z" fill="#75B3EB"/>
</svg>
