<svg width="16" height="16" viewBox="0 0 16 16" fill="none" xmlns="http://www.w3.org/2000/svg">
<path d="M3.59996 5.14294C4.13986 5.14294 4.60068 4.957 4.98254 4.58496C5.36453 4.21294 5.55554 3.76397 5.55554 3.2382C5.55554 2.71247 5.36453 2.2635 4.98254 1.89144C4.60068 1.51942 4.13984 1.33337 3.59996 1.33337C3.06011 1.33337 2.59927 1.51942 2.21733 1.89144C1.83542 2.2635 1.64441 2.71237 1.64441 3.2382C1.64441 3.76407 1.83542 4.21294 2.21733 4.58496C2.59927 4.95689 3.06011 5.14294 3.59996 5.14294Z" fill="#75B3EB"/>
<path d="M5.92592 8.11556C6.49884 8.67341 7.19008 8.95247 7.99992 8.95247C8.80979 8.95247 9.501 8.67341 10.0739 8.11556C10.6467 7.55734 10.9332 6.88399 10.9332 6.09534C10.9332 5.30664 10.6467 4.63331 10.0739 4.07525C9.501 3.51719 8.80979 3.23816 7.99992 3.23816C7.19008 3.23816 6.49879 3.51724 5.92592 4.07525C5.35306 4.63324 5.06653 5.30656 5.06653 6.09534C5.06653 6.88412 5.35306 7.55742 5.92592 8.11556Z" fill="#75B3EB"/>
<path d="M12.4002 5.14294C12.9398 5.14294 13.4008 4.957 13.7827 4.58496C14.1646 4.21294 14.3555 3.76397 14.3555 3.2382C14.3555 2.71247 14.1646 2.2635 13.7827 1.89144C13.4008 1.51942 12.9398 1.33337 12.4002 1.33337C11.8601 1.33337 11.3993 1.51942 11.0174 1.89144C10.6356 2.2635 10.4446 2.71237 10.4446 3.2382C10.4446 3.76407 10.6356 4.21294 11.0174 4.58496C11.3993 4.95689 11.8601 5.14294 12.4002 5.14294Z" fill="#75B3EB"/>
<path d="M14.386 5.14307C14.3556 5.14307 14.2449 5.19516 14.0538 5.29933C13.863 5.40354 13.6146 5.50896 13.3092 5.61562C13.0037 5.72219 12.7005 5.77553 12.4002 5.77553C12.0589 5.77553 11.7205 5.71854 11.3842 5.60439C11.4095 5.78783 11.4223 5.95157 11.4223 6.09543C11.4223 6.78491 11.216 7.4198 10.8033 8.00017C11.6285 8.02506 12.3032 8.34245 12.8279 8.95273H13.8515C14.269 8.95273 14.6204 8.85206 14.9055 8.65121C15.1907 8.45047 15.3333 8.15643 15.3333 7.76958C15.3334 6.01847 15.0178 5.14296 14.386 5.14307Z" fill="#75B3EB"/>
<path d="M13.2444 11.1586C13.1909 10.8684 13.1233 10.5992 13.0418 10.3513C12.9603 10.1032 12.8508 9.86152 12.7135 9.62588C12.576 9.39045 12.418 9.18941 12.2398 9.02317C12.0614 8.85693 11.8437 8.72441 11.5866 8.62507C11.3295 8.52589 11.0454 8.47632 10.7349 8.47632C10.6839 8.47632 10.5744 8.52966 10.4063 8.63633C10.2382 8.74289 10.0525 8.86215 9.84873 8.99341C9.64499 9.12468 9.37277 9.24383 9.03134 9.3505C8.68989 9.45716 8.34618 9.51051 8.00007 9.51051C7.65382 9.51051 7.31001 9.45716 6.9688 9.3505C6.6275 9.24383 6.35513 9.12468 6.15141 8.99341C5.94764 8.86215 5.76182 8.74289 5.59379 8.63633C5.42569 8.52966 5.31625 8.47632 5.26526 8.47632C4.95465 8.47632 4.67075 8.52589 4.41354 8.62507C4.15634 8.72441 3.93866 8.85693 3.76044 9.02317C3.58205 9.18923 3.42433 9.39045 3.28672 9.62588C3.14928 9.86152 3.0398 10.1032 2.9583 10.3513C2.87683 10.5992 2.80943 10.8684 2.75586 11.1586C2.70235 11.4488 2.66674 11.719 2.64892 11.9696C2.63108 12.2202 2.62219 12.4769 2.62219 12.7398C2.62219 13.335 2.80801 13.805 3.17976 14.1497C3.55163 14.4943 4.04565 14.6668 4.66173 14.6668H11.3382C11.9544 14.6668 12.4483 14.4943 12.8203 14.1497C13.192 13.805 13.3779 13.335 13.3779 12.7398C13.3779 12.4769 13.3689 12.2202 13.3514 11.9696C13.3333 11.719 13.2977 11.4488 13.2444 11.1586Z" fill="#75B3EB"/>
<path d="M5.19645 8.00017C4.78393 7.4198 4.57773 6.78491 4.57781 6.09542C4.57781 5.95157 4.59057 5.78794 4.61599 5.60439C4.27983 5.71846 3.94118 5.77553 3.59996 5.77553C3.2995 5.77553 2.99657 5.72221 2.69097 5.61562C2.3855 5.50896 2.13715 5.40354 1.94625 5.29933C1.75526 5.19516 1.64441 5.14307 1.61389 5.14307C0.98237 5.14309 0.666626 6.0186 0.666626 7.76958C0.666626 8.15643 0.809234 8.45047 1.09437 8.65121C1.37959 8.85206 1.731 8.95255 2.14847 8.95255H3.17214C3.69674 8.34245 4.37141 8.02503 5.19645 8.00017Z" fill="#75B3EB"/>
</svg>
