<svg width="24" height="24" viewBox="0 0 24 24" fill="none" xmlns="http://www.w3.org/2000/svg">
<path fill-rule="evenodd" clip-rule="evenodd" d="M5.78501 19.4798L2.03767 19.5753C1.93981 19.5753 1.84293 19.5565 1.75274 19.5198C1.66255 19.4832 1.58088 19.4295 1.51253 19.3619C1.44419 19.2943 1.39056 19.2142 1.35481 19.1263C1.31905 19.0384 1.30189 18.9445 1.30434 18.8501L1.40334 15.2347C1.40793 15.054 1.48402 14.8818 1.616 14.7536L13.8663 2.93442C14.4884 2.33602 15.3309 2 16.2093 2C17.0877 2 17.9303 2.33602 18.5523 2.93442C19.1726 3.53455 19.5208 4.34745 19.5208 5.19495C19.5208 6.04242 19.1726 6.85533 18.5523 7.45548L6.28368 19.2746C6.15073 19.4019 5.97227 19.4754 5.78501 19.4798ZM17.5147 6.45434C19.1903 4.75275 16.6713 2.31887 14.904 3.93556L13.7783 5.02161L16.4 7.54038L17.5147 6.45434ZM1.73333 20.585H22.2667C22.4611 20.585 22.6477 20.6595 22.7852 20.7922C22.9227 20.9249 23 21.1048 23 21.2925C23 21.4802 22.9227 21.6601 22.7852 21.7928C22.6477 21.9255 22.4611 22 22.2667 22H1.73333C1.53884 22 1.35232 21.9255 1.21479 21.7928C1.07726 21.6601 1 21.4802 1 21.2925C1 21.1048 1.07726 20.9249 1.21479 20.7922C1.35232 20.6595 1.53884 20.585 1.73333 20.585Z" fill="#75B3EB"/>
</svg>
