<svg width="24" height="24" viewBox="0 0 24 24" fill="none" xmlns="http://www.w3.org/2000/svg">
<path d="M21.8744 2.11766C21.1513 1.40166 20.1746 1 19.1567 1C18.1389 1 17.1622 1.40166 16.439 2.11766L13.9105 4.63037L2.53389 16.0181C2.43302 16.1212 2.36408 16.2512 2.33535 16.3925L1.02425 22.062C0.991606 22.1872 0.991924 22.3186 1.02518 22.4436C1.05843 22.5685 1.12348 22.6828 1.214 22.7752C1.30452 22.8675 1.41743 22.9349 1.54172 22.9707C1.66602 23.0065 1.79747 23.0096 1.92329 22.9795L7.60971 21.6688C7.75108 21.6401 7.88116 21.5712 7.98431 21.4704L19.3609 10.0789L21.8894 7.55125C22.6037 6.82634 23.0028 5.84887 23 4.83137C22.9972 3.81388 22.5927 2.83863 21.8744 2.11766ZM7.06279 20.2384L2.7549 21.2307L3.74759 16.9243L14.4424 6.23311L17.7576 9.54719L7.06279 20.2384ZM20.8143 6.50273L18.8177 8.48743L15.5025 5.17335L17.4879 3.17742C19.758 1.05041 22.9383 4.2559 20.8143 6.50273Z" fill="#C7C7C7"/>
</svg>
