<svg width="110" height="128" viewBox="0 0 110 128" fill="none" xmlns="http://www.w3.org/2000/svg">
<circle cx="40" cy="70" r="40" fill="#3B8AD2"/>
<path fill-rule="evenodd" clip-rule="evenodd" d="M20 50V79.1852C20 85.158 24.842 90 30.8148 90C36.7876 90 41.6296 85.158 41.6296 79.1852V71.6296H49.1852C55.158 71.6296 60 66.7876 60 60.8148C60 54.842 55.158 50 49.1852 50H20ZM24.4444 54.4444H29.4815C33.7361 54.4444 37.1852 57.8935 37.1852 62.1481V79.1852C37.1852 82.7034 34.3331 85.5556 30.8148 85.5556C27.2966 85.5556 24.4444 82.7034 24.4444 79.1852V54.4444ZM49.1852 54.4444H41.6296V62.4211C41.6296 65.0522 43.7626 67.1852 46.3938 67.1852H49.1852C52.7034 67.1852 55.5556 64.3331 55.5556 60.8148C55.5556 57.2966 52.7034 54.4444 49.1852 54.4444Z" fill="white"/>
<path d="M44.8399 10.1862L56.1324 16.8087L67.4631 11.3375L65.2616 24.0357L74.3846 33.5721L61.7305 34.7966L56.0396 46.1626L50.4197 34.222L37.7812 31.7087L46.9609 23.1034L44.8399 10.1862Z" fill="#F2D231"/>
<circle cx="80" cy="98" r="30" fill="#90C63B"/>
<path fill-rule="evenodd" clip-rule="evenodd" d="M95.963 86.5407C96.6789 87.2617 96.6789 88.4306 95.963 89.1516L75.7963 109.459C75.0804 110.18 73.9196 110.18 73.2036 109.459L64.037 100.228C63.321 99.5075 63.321 98.3386 64.037 97.6176C64.7529 96.8967 65.9137 96.8967 66.6297 97.6176L74.5 105.543L93.3703 86.5407C94.0862 85.8198 95.247 85.8198 95.963 86.5407Z" fill="white"/>
</svg>
