<svg width="24" height="24" viewBox="0 0 24 24" fill="none" xmlns="http://www.w3.org/2000/svg">
<path fill-rule="evenodd" clip-rule="evenodd" d="M20.5556 1H3.44444C2.1 1 1.01222 2.1 1.01222 3.44444L1 20.5556C1 21.9 2.1 23 3.44444 23H20.5556C21.9 23 23 21.9 23 20.5556V3.44444C23 2.1 21.9 1 20.5556 1ZM18.1111 14.4444H14.4444V18.1111C14.4444 18.7833 13.8944 19.3333 13.2222 19.3333H10.7778C10.1056 19.3333 9.55556 18.7833 9.55556 18.1111V14.4444H5.88889C5.21667 14.4444 4.66667 13.8944 4.66667 13.2222V10.7778C4.66667 10.1056 5.21667 9.55556 5.88889 9.55556H9.55556V5.88889C9.55556 5.21667 10.1056 4.66667 10.7778 4.66667H13.2222C13.8944 4.66667 14.4444 5.21667 14.4444 5.88889V9.55556H18.1111C18.7833 9.55556 19.3333 10.1056 19.3333 10.7778V13.2222C19.3333 13.8944 18.7833 14.4444 18.1111 14.4444Z" fill="#65E3C5"/>
</svg>
