<svg width="76" height="120" viewBox="0 0 76 120" fill="none" xmlns="http://www.w3.org/2000/svg">
<path d="M28.3536 40.1355C28.4053 42.0394 28.8971 46.1247 33.2177 46.7991C35.8996 47.2178 39.3341 44.8107 39.1131 43.0441C38.8921 41.2765 38.4003 36.7735 35.5999 35.7419C33.2605 34.8805 28.2371 35.8882 28.3536 40.1355Z" fill="#184655"/>
<path d="M64.4014 101.668C65.0126 104.231 65.4935 107.93 65.6717 108.136C65.7573 108.236 65.9355 108.881 66.0211 108.987C68.8105 110.001 71.2625 108.954 73.2058 107.803C71.6826 107.534 69.6318 107.253 69.3451 107.051C68.2849 106.303 68.5388 103.641 68.3476 101.252C67.593 101.385 65.7623 100.909 64.4004 101.668H64.4014Z" fill="#F7A491"/>
<path d="M65.6133 107.99C65.6312 109.003 66.2833 111.163 66.4844 111.161C66.7253 111.158 75.1096 110.432 75.9 109.147C76.3749 108.374 75.0837 108.173 73.2051 107.802C71.2619 108.953 65.8453 108.624 65.6123 107.99H65.6133Z" fill="#466EB6"/>
<path d="M24.5836 107.387C22.6433 108.906 20.6821 110.12 20.4352 110.236C20.3168 110.292 19.6458 110.29 19.5213 110.346C17.7961 112.76 18.1485 115.4 18.7379 117.579C19.4059 116.185 20.1933 114.238 20.4969 114.064C20.9808 113.787 22.7279 112.751 25.8648 111.476C24.8026 110.324 24.9499 108.9 24.5836 107.386V107.387Z" fill="#F7A491"/>
<path d="M29.0002 53.8286L23.0072 64.7216C23.0072 64.7216 19.0002 69.7598 16.9375 72.346C17.3815 73.0722 17.8116 73.8172 18.1948 74.5821C20.2476 72.8384 24.614 69.1371 26.1729 67.093C28.4756 64.0721 32.6438 56.8983 32.6438 56.8983L28.9992 53.8296L29.0002 53.8286Z" fill="#F7A491"/>
<path d="M44.9347 72.7867L38.5255 82.2344C38.5255 82.2344 38.1582 81.6017 40.4528 82.4403C42.7485 83.2788 57.5519 86.0421 58.428 87.0865C59.0482 87.8256 63.6395 102.335 64.5235 104.198C65.8555 104.738 67.7918 104.139 69.1587 103.943C69.2453 96.953 65.5419 84.2288 64.5534 82.7377C62.3443 79.4035 51.8267 75.8006 47.092 73.7804C46.3244 73.4531 45.7281 73.1587 45.3588 72.9807C45.085 72.8493 44.9347 72.7887 44.9347 72.7887V72.7867Z" fill="#3B8AD2"/>
<path d="M20.3314 110.261C19.3508 110.007 17.3508 110.014 17.299 110.209C17.2373 110.442 15.6912 118.708 16.7186 119.813C17.3368 120.478 17.8764 119.289 18.7375 117.579C18.1482 115.4 19.6584 110.316 20.3314 110.261Z" fill="#466EB6"/>
<path d="M43.2527 79.4372C43.3085 78.728 44.8266 74.5861 45.3642 72.9737C45.3811 72.9229 44.9839 71.9899 44.5548 70.649L43.9396 70.7475L34.8266 71.1603C34.8266 71.1603 31.1571 77.3543 31.5842 80.1992C32.1805 84.172 37.9287 98.2919 37.0546 98.9573C35.4767 100.158 27.7485 104.632 23.7773 107.293C24.0312 108.83 24.742 110.974 25.7166 112.201C28.9481 111.078 42.9142 105.453 44.3508 101.137C45.6201 97.325 43.1591 80.6428 43.2527 79.4363V79.4372Z" fill="#75B3EB"/>
<path d="M43.1063 44.6276C43.1063 44.6276 40.5965 48.5677 39.1162 48.7099L44.3507 53.5491C44.3507 53.5491 47.9166 48.2076 48.2879 47.2914C48.2879 47.2914 45.0425 44.4038 43.1063 44.6286V44.6276Z" fill="#FFD8E4"/>
<path d="M44.9381 68.4349C44.7032 70.6043 45.3732 72.9767 45.3732 72.9767C43.2686 73.4283 35.8082 74.3782 33.9834 72.159C33.9177 72.0794 36.5668 67.4113 36.2024 65.5045C35.6648 62.6924 33.3284 57.9248 33.1342 57.6692C32.8087 57.2405 31.6141 59.4586 31.6141 59.4586C30.2144 59.4656 27.0088 56.2159 27.0088 56.2159C27.0088 56.2159 30.3239 50.4456 31.2368 49.9025C32.1487 49.3604 39.6857 48.5408 39.6917 48.5398C40.2462 48.5 41.7614 49.814 42.1775 50.2288C46.9421 54.9785 45.6589 61.7843 44.9391 68.4339L44.9381 68.4349Z" fill="#FFD8E4"/>
<path d="M35.4414 46.1197C35.4414 46.1197 36.2627 48.8322 36.2687 49.9344C36.2747 51.0375 36.7147 52.5375 39.0283 52.3107C41.3419 52.0839 39.4444 49.7573 39.1159 48.7099C38.7873 47.6625 38.3931 44.3561 38.3931 44.3561L35.4414 46.1197Z" fill="#F7A491"/>
<path d="M38.6131 46.0123C38.4837 45.1101 38.3931 44.3561 38.3931 44.3561L35.4414 46.1197C35.4414 46.1197 35.6096 46.6747 35.7938 47.384C37.1796 47.5162 38.1114 46.9125 38.6121 46.0123H38.6131Z" fill="#F47458"/>
<path d="M33.0339 37.9323C33.0339 37.9323 31.8164 38.7818 31.5048 40.3822C31.1932 41.9827 32.1449 45.9307 35.5804 46.5524C39.0169 47.1741 40.1339 43.8548 39.1902 41.4466C38.2464 39.0384 36.4276 36.0543 33.0339 37.9323Z" fill="#F7A491"/>
<path d="M39.5095 40.4429C39.5135 41.1153 39.1979 41.6624 38.8056 41.6644C38.4134 41.6664 38.0929 41.1233 38.0899 40.4509C38.0869 39.7785 38.4015 39.2314 38.7937 39.2294C39.1859 39.2274 39.5065 39.7705 39.5095 40.4429Z" fill="#F7A491"/>
<path d="M32.9986 43.7931C33.4505 44.3342 33.5202 45.0205 33.1539 45.3259C32.7875 45.6313 32.1245 45.4393 31.6725 44.8982C31.2206 44.3571 31.1509 43.6707 31.5172 43.3654C31.8836 43.06 32.5466 43.252 32.9986 43.7931Z" fill="#F7A491"/>
<path d="M29.514 36.4253C29.6484 34.5811 30.9546 27.7217 26.7555 27.0721C22.5563 26.4216 21.6594 31.0052 19.3309 24.836C17.1736 19.1205 10.7624 21.3337 10.4946 25.6736C9.88636 25.6218 9.26217 25.7104 8.66884 25.961C6.61409 26.8264 5.69025 29.2863 6.60513 31.4568C6.75047 31.8019 6.66785 32.1441 6.88188 32.4286C6.3891 34.3195 6.72957 36.48 8.19 38.6753C12.179 44.6714 16.181 38.36 18.8789 38.6962C21.5768 39.0324 19.8187 41.1402 22.1552 42.7844C24.4916 44.4297 26.3732 43.999 30.1771 39.5119L31.1158 38.2755C31.1158 38.2755 29.3796 38.2705 29.514 36.4263V36.4253Z" fill="#184655"/>
<path d="M61.1666 72.4535C60.7106 71.1255 42.1402 17.0743 41.3289 14.7129C40.0865 11.0982 36.1123 9.15552 32.4518 10.373L4.75246 19.5909C1.09193 20.8085 -0.869244 24.7266 0.373165 28.3423L20.2109 86.0819C21.4533 89.6966 25.4274 91.6393 29.088 90.4218L56.7863 81.2048C60.4468 79.9863 62.408 76.0682 61.1666 72.4535ZM54.4389 73.9107L26.4558 83.2221C24.3443 83.9244 22.0516 82.8043 21.3358 80.7194L2.9884 27.3148C2.27162 25.2299 3.40253 22.97 5.51503 22.2677L33.4981 12.9563C35.6096 12.254 37.9023 13.3741 38.6181 15.459C43.073 28.4269 56.5653 67.6958 56.9655 68.8626C57.6823 70.9475 56.5504 73.2074 54.4389 73.9097V73.9107Z" fill="#355389"/>
<path d="M47.2653 80.1723C47.6924 81.4147 45.7332 83.1893 42.889 84.1362C40.0448 85.0822 37.3937 84.8425 36.9667 83.6001C36.5396 82.3577 38.4988 80.5832 41.343 79.6362C44.1872 78.6902 46.8382 78.93 47.2653 80.1723Z" fill="#184655"/>
<path d="M46.5078 80.2728C46.909 81.4406 45.2863 83.0341 42.8841 83.8339C40.482 84.6336 38.2092 84.3352 37.808 83.1674C37.4068 81.9996 39.0295 80.4061 41.4317 79.6064C43.8339 78.8066 46.1066 79.105 46.5078 80.2728Z" fill="#355389"/>
<path d="M50.8156 23.3937C50.3288 22.9928 49.1929 22.6636 48.6274 22.6128C48.062 22.5621 45.5921 22.5641 45.2725 23.157C44.953 23.7508 47.5453 25.4318 47.6837 26.1301C47.8221 26.8284 46.1824 37.6766 45.7086 39.8302C45.4746 40.8925 44.5787 42.8939 43.7305 44.6495C44.951 44.8445 46.4423 45.8422 47.379 46.5534C48.5796 43.9293 49.8081 40.9791 49.9604 39.5934C50.269 36.7943 51.3024 23.7946 50.8156 23.3937Z" fill="#F7A491"/>
<path d="M57.9776 4.68036C57.1364 4.60974 52.7342 7.96387 52.7342 7.96387L52.5381 8.22648C52.5381 8.22648 58.4803 9.23013 58.7591 9.04313C59.5117 8.53981 58.6685 4.73805 57.9776 4.68036ZM52.7491 8.06633C54.1837 7.02388 57.1384 5.74668 57.7745 5.47911C58.102 6.0819 58.4007 7.67044 58.3131 8.32495C57.6123 8.27223 54.4873 8.34286 52.7481 8.06633H52.7491Z" fill="#75B3EB"/>
<path d="M51.5495 1.90016C50.7879 -0.136 50.0443 -0.0415028 49.5166 0.0271317C48.989 0.0957663 46.6187 1.77284 46.8397 3.06297C47.0617 4.3531 51.8054 8.11904 51.8054 8.11904L52.1189 7.75598C52.1189 7.75598 52.3111 3.93532 51.5495 1.90016ZM47.5614 2.93763C47.4509 2.29406 49.0955 0.923359 49.6361 0.751276C49.7615 0.735361 49.8701 0.723424 49.9527 0.747297C50.0532 0.776143 50.4146 0.962153 50.8616 2.15779C51.3504 3.46483 51.8611 6.48673 51.8541 7.69331C49.9626 6.11372 47.6839 3.49268 47.5605 2.93863L47.5614 2.93763Z" fill="#75B3EB"/>
<path d="M51.7303 7.56173L51.5132 8.32116C51.4401 8.57683 51.5883 8.84328 51.8442 8.91631L52.1036 8.99034C52.3595 9.06336 52.6261 8.91529 52.6992 8.65963L52.9163 7.9002C52.9894 7.64453 52.8412 7.37808 52.5853 7.30506L52.3259 7.23103C52.07 7.15801 51.8033 7.30607 51.7303 7.56173Z" fill="#466EB6"/>
<path d="M56.6667 25.5333L40.2984 20.8632C39.4133 20.6105 38.8767 19.7153 39.0709 18.8171L41.9668 5.43533L63.2819 11.5169L58.4775 24.9444C58.2764 25.5055 57.478 25.7651 56.6657 25.5333H56.6667Z" fill="#8775B8"/>
<path d="M63.3442 14.6353L40.1914 8.07725L40.3706 6.52054C40.4781 5.58651 41.399 4.97278 42.3029 5.23339L63.2257 11.2653C63.9694 11.4801 64.4214 12.1038 64.2034 12.6171L63.3442 14.6353Z" fill="#FAE0B2"/>
<path d="M52.1941 8.07644L51.2939 11.2278L51.7337 11.3532L52.6339 8.20184L52.1941 8.07644Z" fill="#75B3EB"/>
<path d="M51.7434 11.3387L48.3594 23.185L48.9098 23.342L52.2938 11.4957L51.7434 11.3387Z" fill="white"/>
<path d="M46.5977 23.3748L46.6565 22.6795C46.094 22.5203 45.4459 22.2866 45.1134 22.1463L45.0228 21.6152C44.7291 20.887 44.4026 21.4063 44.307 21.5724C44.307 21.5724 44.2831 22.5064 44.3877 22.6158C44.3877 22.6158 45.4907 23.7806 45.9616 24.2203C46.1945 24.4381 46.9392 25.0419 46.9392 25.0419L47.5315 24.2223L46.5967 23.3748H46.5977Z" fill="#F7A491"/>
</svg>
