<svg width="192" height="192" viewBox="0 0 192 192" fill="none" xmlns="http://www.w3.org/2000/svg">
<g clip-path="url(#clip0_2074_10083)">
<rect width="192" height="192" rx="24" fill="white"/>
<rect width="192" height="192" fill="url(#paint0_linear_2074_10083)"/>
<path d="M201.3 76.7126C199.199 47.4278 176.09 24 147.379 24H87.8557C57.744 24 33.2344 49.6242 33.2344 80.3732V185.066C33.2344 187.995 34.635 190.191 37.4361 191.655C38.1363 192.388 39.5369 192.388 40.2372 192.388C41.6377 192.388 43.7385 191.655 45.1391 190.923C54.2426 182.87 64.7467 176.281 75.2508 171.156C75.2508 171.156 92.8276 161.639 119.368 161.639H147.379C177.49 161.639 202 136.014 202 105.265V92.0872L201.3 76.7126Z" fill="url(#paint1_linear_2074_10083)"/>
<path d="M60.0035 138.177C59.3613 136.782 58.1906 134.213 58.1906 134.213L58.5808 134.033C58.5808 134.033 59.7596 136.611 60.3938 137.997L60.0035 138.177Z" fill="black"/>
<path d="M32.1581 172.249C32.1581 172.249 30.3451 199.158 37.5158 237.731C37.5158 237.731 43.0279 240.072 50.2554 236.972C50.2554 236.972 47.9303 213.171 48.8652 195.161L53.353 194.304C53.353 194.304 57.5074 227.559 60.174 237.201C60.174 237.201 65.6699 239.289 72.0682 236.01C72.0682 236.01 68.9381 179.696 66.0032 169.067C63.0683 158.439 32.1662 172.257 32.1662 172.257L32.1581 172.249Z" fill="#002C5B"/>
<path d="M42.6792 238.798C39.5085 238.798 37.5166 237.966 37.4353 237.934L37.3296 237.885L37.3134 237.771C30.2159 199.613 31.9313 172.5 31.9557 172.231V172.101L32.0858 172.052C32.2484 171.978 48.362 164.833 58.3538 164.833C62.809 164.833 65.4513 166.236 66.2236 169.009C69.1341 179.54 72.2723 235.438 72.2967 236.001V236.139L72.1829 236.204C69.7601 237.444 67.1992 238.08 64.557 238.08C61.9066 238.08 60.1912 237.436 60.118 237.412L60.0204 237.371L59.9879 237.265C57.4595 228.137 53.5571 197.517 53.1831 194.564L49.0856 195.347C48.1913 213.113 50.4596 236.718 50.484 236.955L50.5002 237.11L50.3539 237.175C47.8417 238.252 45.2645 238.798 42.6873 238.798H42.6792ZM37.7036 237.583C38.1508 237.746 39.9963 238.374 42.6792 238.374C45.1426 238.374 47.6222 237.86 50.0287 236.849C49.8336 234.744 47.7685 212.215 48.6466 195.168V194.997L53.5246 194.059L53.5571 194.287C53.5977 194.621 57.7115 227.387 60.3456 237.045C60.744 237.175 62.3212 237.648 64.5326 237.648C67.061 237.648 69.5163 237.053 71.8414 235.886C71.6626 232.754 68.6138 179.352 65.7846 169.132C65.0773 166.57 62.5651 165.273 58.3294 165.273C48.8824 165.273 33.8419 171.758 32.3541 172.411C32.2321 174.482 30.8907 200.91 37.6955 237.599L37.7036 237.583Z" fill="black"/>
<path d="M31.6622 174.181V177.9C31.6622 177.9 55.1741 181.187 67.0033 172.615L66.2878 167.321L31.6622 174.181Z" fill="#665D58"/>
<path d="M42.0764 178.732C36.1496 178.732 31.6863 178.121 31.6456 178.112L31.4586 178.088V174.01L66.4826 167.068L67.2387 172.713L67.133 172.786C60.3526 177.705 49.7673 178.732 42.0764 178.732ZM31.8814 177.713C32.7757 177.827 36.8569 178.308 42.0764 178.308C49.6617 178.308 60.0843 177.297 66.7753 172.517L66.1086 167.582L31.8814 174.369V177.721V177.713Z" fill="black"/>
<path d="M45.9138 173.463L46.6293 178.756C46.6293 178.756 52.8975 178.895 55.7511 177.329L55.182 172.614L45.9219 173.471L45.9138 173.463Z" fill="#F0EDEC"/>
<path d="M47.0357 178.977C46.7755 178.977 46.6211 178.977 46.6211 178.977H46.4422L45.678 173.284L55.3689 172.387L55.9787 177.452L55.8486 177.517C53.3933 178.871 48.4828 178.977 47.0357 178.977ZM46.8162 178.545C47.8487 178.553 52.9624 178.529 55.5153 177.207L54.9868 172.843L46.1495 173.659L46.808 178.545H46.8162Z" fill="black"/>
<path d="M20.9143 178.448C20.7273 178.848 20.394 179.337 19.7761 179.737C18.5241 180.536 16.5404 180.879 17.2721 181.637C18.0038 182.396 20.9549 181.042 20.9549 181.042C20.9549 181.042 19.2964 182.771 18.2883 183.652C17.2802 184.533 18.0607 185.202 20.3615 183.652L21.833 182.567C21.833 182.567 20.4184 185.422 20.2558 186.433C20.0932 187.445 21.0444 187.396 21.8005 186.14C22.5565 184.884 23.2639 183.195 23.2639 183.195C23.2639 183.195 23.2639 186.091 23.2151 187.225C23.1663 188.35 24.589 188.171 24.7842 186.482C24.9793 184.794 24.5321 182.689 25.2151 182.502C25.898 182.306 27.1419 183.293 27.9955 182.902C28.8492 182.51 27.0524 180.862 24.9712 179.525C24.2476 179.06 23.711 178.595 23.3126 178.195C23.2395 178.195 23.1744 178.171 23.1013 178.13C21.8736 177.445 21.1745 178.114 20.9143 178.456V178.448Z" fill="#FACEAB"/>
<path d="M23.735 188.154C23.5399 188.154 23.3691 188.08 23.2391 187.941C23.1252 187.819 22.9952 187.599 23.0114 187.216C23.0439 186.522 23.0521 185.152 23.0602 184.206C22.7838 184.801 22.3935 185.592 21.9952 186.253C21.5805 186.946 21.0683 187.354 20.6293 187.354C20.4586 187.354 20.3041 187.289 20.1984 187.158C20.1009 187.036 19.9871 186.808 20.0602 186.392C20.1741 185.69 20.8407 184.173 21.2797 183.243L20.4993 183.814C19.5643 184.442 18.7757 184.777 18.2554 184.777C17.857 184.777 17.7269 184.581 17.6781 184.459C17.5725 184.181 17.7432 183.83 18.1578 183.472C18.735 182.966 19.5318 182.175 20.1009 181.596C19.4749 181.816 18.6619 182.06 18.0277 182.06C17.6212 182.06 17.3204 181.963 17.1334 181.767C16.9546 181.587 16.8895 181.4 16.9221 181.204C17.0034 180.78 17.605 180.519 18.3611 180.193C18.792 180.005 19.2798 179.793 19.67 179.54C20.1497 179.238 20.4993 178.83 20.7269 178.349C20.9545 178.047 21.3935 177.599 22.109 177.599C22.4586 177.599 22.8326 177.705 23.2147 177.925C23.2634 177.949 23.3041 177.958 23.3447 177.966H23.4179L23.4748 178.031C23.9382 178.504 24.4829 178.936 25.1008 179.336C25.6699 179.703 28.5154 181.587 28.4422 182.623C28.426 182.827 28.304 182.99 28.1008 183.088C27.9382 183.162 27.7512 183.202 27.5561 183.202C27.1496 183.202 26.7268 183.056 26.3203 182.909C25.9138 182.77 25.5155 182.64 25.2959 182.697C25.0195 182.77 25.0439 183.765 25.0602 184.565C25.0764 185.176 25.0927 185.87 25.0195 186.498C24.8976 187.574 24.2878 188.145 23.7512 188.145L23.735 188.154ZM23.0765 183.121L23.4911 183.202C23.4911 183.202 23.4911 186.114 23.4423 187.24C23.4342 187.419 23.4748 187.566 23.548 187.648C23.7838 187.893 24.4586 187.566 24.5805 186.457C24.6455 185.853 24.6374 185.176 24.6212 184.581C24.5968 183.39 24.5724 182.46 25.1659 182.289C25.5073 182.191 25.9707 182.338 26.4504 182.509C26.8244 182.64 27.2065 182.778 27.5398 182.778C27.678 182.778 27.8 182.754 27.9057 182.705C27.9951 182.664 27.9951 182.623 27.9951 182.599C28.0276 182.191 26.9301 181.041 24.8488 179.703C24.2309 179.304 23.6781 178.863 23.1984 178.39C23.1252 178.374 23.0521 178.349 22.9789 178.308C22.6618 178.129 22.361 178.039 22.0846 178.039C21.5561 178.039 21.2228 178.374 21.0683 178.578C20.8407 179.091 20.418 179.565 19.8814 179.915C19.4586 180.184 18.9546 180.405 18.5074 180.6C17.9952 180.821 17.3611 181.098 17.3204 181.302C17.3123 181.359 17.3773 181.441 17.418 181.481C17.5237 181.587 17.7269 181.645 18.0115 181.645C19.0846 181.645 20.8407 180.845 20.857 180.837L21.1009 181.18C21.1009 181.18 19.4261 182.925 18.418 183.806C18.0765 184.1 18.044 184.287 18.0603 184.32C18.0603 184.32 18.109 184.361 18.2391 184.361C18.4424 184.361 19.044 184.279 20.2391 183.472L21.7025 182.395L22.0196 182.664C22.0196 182.664 20.6131 185.503 20.4667 186.465C20.4342 186.661 20.4505 186.816 20.5155 186.881C20.5318 186.897 20.5562 186.922 20.6212 186.922C20.8407 186.922 21.2553 186.645 21.6212 186.025C22.361 184.801 23.0683 183.129 23.0765 183.113V183.121Z" fill="black"/>
<path d="M40.215 139.304L45.6295 134.018C45.6295 134.018 47.6214 134.589 48.9059 133.88L54.4668 138.17L56.9139 129.467C56.4749 129.508 56.044 129.54 55.605 129.589L38.8247 130.495C38.7597 132.501 38.8816 136.066 40.215 139.312V139.304Z" fill="#E2F3F6"/>
<path d="M40.1338 139.678L40.0118 139.384C38.646 136.057 38.5403 132.378 38.6053 130.477V130.282L55.5889 129.368C56.0198 129.319 56.4506 129.286 56.8897 129.246L57.1986 129.221L57.1173 129.523L54.5808 138.528L48.8816 134.132C48.4426 134.344 47.8979 134.45 47.2638 134.45C46.5646 134.45 45.9467 134.319 45.6947 134.254L40.1419 139.678H40.1338ZM39.0281 130.689C38.9874 132.541 39.1094 135.861 40.2882 138.928L45.5646 133.773L45.6865 133.805C45.6865 133.805 46.4264 134.009 47.2638 134.009C47.8898 134.009 48.4101 133.895 48.8003 133.675L48.9223 133.61L54.3369 137.794L56.6214 129.694C56.288 129.727 55.9547 129.751 55.6214 129.792L39.0281 130.681V130.689Z" fill="black"/>
<path d="M42.5647 164.891L49.9386 169.499L54.9629 163.178L49.2963 142.166L51.4752 135.861L48.9061 133.879C47.6216 134.596 45.6297 134.017 45.6297 134.017L43.5484 136.048L47.1581 142.272C47.1581 142.272 44.1663 157.174 42.5647 164.891Z" fill="#2A5CAA"/>
<path d="M49.9874 169.785L42.329 164.997L42.3615 164.85C43.8818 157.509 46.7029 143.496 46.9387 142.305L43.2802 136.008L45.5647 133.773L45.6867 133.806C45.6867 133.806 46.4265 134.01 47.2639 134.01C47.8899 134.01 48.4102 133.896 48.8004 133.675L48.9224 133.61L51.7272 135.772L49.5159 142.158L55.1906 163.211L49.9793 169.769L49.9874 169.785ZM42.8086 164.785L49.898 169.214L54.7353 163.121L49.085 142.15L51.2313 135.927L48.8899 134.116C48.4509 134.328 47.9061 134.434 47.272 134.434C46.5728 134.434 45.955 134.303 45.7029 134.238L43.833 136.065L47.4021 142.216L47.3858 142.297C47.3533 142.444 44.4103 157.102 42.8168 164.777L42.8086 164.785Z" fill="black"/>
<path d="M56.9141 129.458L54.467 138.162L51.4833 135.853L49.3045 142.158L54.9711 163.17L49.9467 169.492L42.5729 164.883C44.1745 157.167 47.1663 142.264 47.1663 142.264L43.5566 136.041L40.2233 139.295C38.89 136.049 38.768 132.485 38.8331 130.478L37.0201 130.576C37.0201 130.576 20.1341 135.078 20.1341 178.611C20.1341 178.611 23.3373 180.544 26.1178 179.688C26.1178 179.688 24.695 165.609 30.1096 146.025C30.1096 146.025 31.6787 161.604 31.3941 176.474C31.3941 176.474 50.776 177.477 66.7352 170.324C66.7352 170.324 67.0197 152.738 59.7515 137.444C59.7515 137.444 74.4261 134.866 87.3934 138.586V132.297C87.3934 132.297 74.1091 127.99 56.9304 129.458H56.9141Z" fill="#E2F3F6"/>
<path d="M24.5732 180.12C22.2399 180.12 20.1017 178.856 20.0123 178.798L19.9066 178.733V178.611C19.9066 135.413 36.7763 130.413 36.9471 130.372L39.0365 130.258V130.494C38.9714 132.297 39.0609 135.755 40.2885 138.928L43.5893 135.706L47.3778 142.24L47.3616 142.322C47.3291 142.468 44.386 157.126 42.7925 164.801L49.8819 169.231L54.7192 163.138L49.0689 142.167L51.3697 135.519L54.3371 137.811L56.7436 129.271L56.8899 129.254C59.2639 129.051 61.7029 128.953 64.1419 128.953C77.5563 128.953 87.3448 132.077 87.4424 132.101L87.5887 132.15V138.879L87.3123 138.798C82.6782 137.468 77.3124 136.791 71.3694 136.791C65.4264 136.791 61.1825 137.436 60.0443 137.607C67.1256 152.713 66.9304 170.152 66.9223 170.324V170.462L66.7922 170.519C54.2721 176.131 39.6218 176.735 33.9064 176.735C32.3048 176.735 31.3618 176.686 31.3536 176.686H31.1504V176.466C31.3862 164.108 30.3293 151.123 29.9797 147.216C24.996 165.952 26.2887 179.524 26.3049 179.663L26.3212 179.843L26.1504 179.891C25.6545 180.046 25.1179 180.12 24.5488 180.12H24.5732ZM20.3375 178.488C20.7928 178.741 22.6383 179.688 24.5732 179.688C25.0366 179.688 25.4757 179.63 25.8822 179.524C25.7439 177.82 24.8578 164.182 29.8984 145.959L30.313 145.992C30.3293 146.147 31.8658 161.612 31.5975 176.262C31.9553 176.278 32.7601 176.302 33.9227 176.302C39.5893 176.302 54.0851 175.707 66.5077 170.185C66.5077 168.513 66.3695 151.906 59.5484 137.534L59.4265 137.281L59.7029 137.232C59.7517 137.224 64.7516 136.359 71.3775 136.359C77.2474 136.359 82.5563 137.011 87.166 138.3V132.452C85.8977 132.06 76.597 129.369 64.15 129.369C61.776 129.369 59.4021 129.467 57.085 129.662L54.5891 138.52L51.5892 136.204L49.5323 142.167L55.207 163.219L49.9957 169.777L42.3372 164.989L42.3698 164.842C43.8901 157.501 46.7112 143.488 46.9469 142.297L43.5161 136.383L40.1503 139.671L40.0283 139.377C38.7194 136.18 38.5731 132.656 38.6137 130.706L37.0284 130.788C36.9064 130.829 20.3782 135.78 20.3456 178.48L20.3375 178.488Z" fill="black"/>
<path d="M49.6211 127.9L42.7838 130.045C42.7838 130.045 44.4911 134.124 46.6293 134.124C47.7756 134.124 50.6049 134.556 49.6211 127.908V127.9Z" fill="#FACEAB"/>
<path d="M47.0765 134.336H46.6212C44.3692 134.336 42.6456 130.298 42.5725 130.127L42.483 129.907L49.7838 127.615L49.8244 127.86C50.239 130.682 50.0358 132.533 49.1903 133.52C48.5724 134.238 47.735 134.336 47.0765 134.336ZM43.0684 130.176C43.4505 131 44.922 133.904 46.6212 133.904H47.0765C47.6781 133.904 48.361 133.822 48.8651 133.235C49.5886 132.395 49.7838 130.69 49.4423 128.17L43.0765 130.168L43.0684 130.176Z" fill="black"/>
<g style="mix-blend-mode:multiply">
<path d="M49.6212 127.9L42.7839 130.045C42.7839 130.045 44.4912 134.124 46.6294 134.124C47.7757 134.124 50.6049 134.556 49.6212 127.908V127.9Z" fill="#FACEAB"/>
</g>
<path d="M74.1737 109.727C73.5802 104.874 68.8079 107.092 68.8079 107.092L66.3852 114.564C69.2388 118.724 74.7428 114.58 74.1656 109.727H74.1737Z" fill="#FACEAB"/>
<path d="M69.3121 116.481C68.4584 116.481 67.2308 116.171 66.2146 114.678L66.1577 114.589L68.6373 106.929L68.7186 106.889C68.7674 106.864 69.8649 106.359 71.1007 106.359C72.4096 106.359 74.0519 106.938 74.3852 109.686C74.5966 111.489 74.0193 113.324 72.7917 114.711C71.7999 115.828 70.5316 116.473 69.3121 116.473V116.481ZM66.6211 114.523C67.3365 115.527 68.2633 116.057 69.304 116.057C70.4015 116.057 71.556 115.47 72.4665 114.442C73.6128 113.145 74.1576 111.44 73.9543 109.752C73.7104 107.794 72.7511 106.799 71.0926 106.799C70.1413 106.799 69.2471 107.142 68.9788 107.248L66.6211 114.523Z" fill="black"/>
<path d="M68.7104 111.302L68.4746 110.943C68.5396 110.902 70.1331 109.89 72.4502 110.845L72.2876 111.244C70.19 110.372 68.7673 111.261 68.7104 111.302Z" fill="black"/>
<path d="M16.248 114.131C16.7439 109.27 21.5081 111.423 21.5081 111.423L24.0528 118.862C21.313 123.063 15.7764 118.984 16.248 114.123V114.131Z" fill="#FACEAB"/>
<path d="M21.142 120.828C19.9469 120.828 18.6949 120.2 17.703 119.107C16.4672 117.736 15.8575 115.909 16.0282 114.107C16.3128 111.317 17.955 110.73 19.2802 110.73C20.4834 110.73 21.5485 111.203 21.5891 111.227L21.6704 111.268L24.2801 118.895L24.2232 118.984C23.2233 120.51 21.9956 120.828 21.142 120.828ZM19.2802 111.162C17.6054 111.162 16.6542 112.165 16.4591 114.155C16.2965 115.844 16.8656 117.54 18.0201 118.821C18.9306 119.824 20.0688 120.404 21.142 120.404C22.2151 120.404 23.1094 119.865 23.8086 118.837L21.329 111.586C21.0607 111.48 20.1989 111.162 19.2802 111.162Z" fill="black"/>
<path d="M21.6861 115.64C21.6211 115.599 20.2064 114.735 18.1414 115.632L17.9707 115.24C20.2471 114.253 21.8406 115.24 21.9056 115.281L21.678 115.64H21.6861Z" fill="black"/>
<path d="M56.2714 82.3373C56.2714 82.3373 59.0518 77.7451 54.3283 81.6521C54.3283 81.6521 50.4341 76.2932 51.5723 81.5624C51.5723 81.5624 41.8488 73.7564 29.9546 82.8349C25.5807 86.2607 21.5807 82.011 24.6051 80.9425C27.6457 79.874 21.5238 77.7532 18.9873 83.1938C16.7434 88.1286 21.6377 91.0242 21.6377 91.0242C18.1255 96.7992 17.4588 104.075 19.8003 109.711C19.8003 109.711 20.4588 112.468 21.4263 110.16C21.4263 110.16 21.1905 98.8465 27.3937 93.1287C27.3937 93.1287 30.6619 93.7894 35.4261 93.928C41.7025 94.1075 50.6292 93.3571 58.4096 88.9606C60.3526 90.2086 67.3282 95.4207 68.7672 106.196C68.7672 106.196 68.8403 107.917 69.6371 106.114C69.6615 106.065 69.694 106 69.7265 105.943C70.4907 102.272 72.9866 86.1383 56.2714 82.3455V82.3373Z" fill="black"/>
<path d="M20.6705 111.293C20.0038 111.293 19.6623 110.02 19.6054 109.759C17.2721 104.139 17.9551 96.8227 21.3615 91.0885C20.4835 90.4849 16.7599 87.5893 18.8087 83.1031C20.077 80.3787 22.2965 79.4081 23.9468 79.4081C24.8899 79.4081 25.5728 79.718 25.6541 80.183C25.7029 80.4521 25.5728 80.8355 24.6867 81.1455C24.02 81.382 23.6948 81.7898 23.7842 82.2956C23.9225 83.0868 25.0119 83.9351 26.5484 83.9351C27.6379 83.9351 28.7761 83.4946 29.833 82.6708C33.6866 79.718 37.7272 78.2253 41.8247 78.2253C46.597 78.2253 50.0685 80.2645 51.2636 81.072C51.0441 79.8077 51.2067 79.4162 51.353 79.2286C51.4587 79.0981 51.6051 79.0329 51.7758 79.0329C52.5563 79.0329 53.8896 80.6968 54.3774 81.3494C56.0034 80.028 56.5562 79.873 56.8326 79.873C57.0765 79.873 57.1903 80.0117 57.2391 80.0932C57.4912 80.5337 56.9383 81.6267 56.6131 82.2058C72.7918 86.064 70.9138 101.366 69.9463 105.991L69.8487 106.203C69.5479 106.88 69.3203 107.157 69.0601 107.157C68.6699 107.157 68.5805 106.562 68.5723 106.211C67.1821 95.7542 60.5887 90.6399 58.418 89.2206C51.101 93.3153 42.7922 94.1799 37.1012 94.1799C36.5239 94.1799 35.9711 94.1718 35.4345 94.1554C31.1825 94.0331 28.085 93.4866 27.4753 93.3724C21.4997 98.9842 21.6542 110.053 21.6542 110.167V110.216L21.6379 110.257C21.3371 110.975 21.0282 111.309 20.6705 111.309V111.293ZM23.9387 79.8322C22.4184 79.8322 20.3697 80.7376 19.1908 83.2744C17.0526 87.9645 21.5648 90.7133 21.7599 90.8357L21.9469 90.9499L21.8331 91.1375C18.4022 96.7819 17.6868 104.041 20.0119 109.629C20.1583 110.232 20.4591 110.86 20.6705 110.86C20.7111 110.86 20.9144 110.828 21.2233 110.11C21.2233 109.303 21.264 98.4948 27.2558 92.9646L27.3371 92.8912L27.4427 92.9156C27.4427 92.9156 30.7435 93.5763 35.4345 93.7068C35.9711 93.7231 36.5239 93.7313 37.093 93.7313C42.7678 93.7313 51.0522 92.8667 58.3123 88.7638L58.4261 88.6986L58.5318 88.7638C60.6212 90.1015 67.5398 95.3137 68.987 106.146C68.9951 106.366 69.0439 106.603 69.0926 106.692C69.1089 106.635 69.239 106.488 69.4504 105.999C69.4666 105.966 69.491 105.917 69.5154 105.877C70.4829 101.325 72.3446 86.1863 56.231 82.5321L55.9383 82.4668L56.0928 82.214C56.605 81.3657 56.9708 80.444 56.8652 80.2808C56.6375 80.2808 56.0765 80.4766 54.4749 81.8061L54.2961 81.953L54.166 81.7654C53.4668 80.8029 52.2636 79.4407 51.7758 79.4407C51.7351 79.4407 51.7107 79.4489 51.6864 79.4815C51.605 79.5794 51.4587 79.979 51.7839 81.5043L51.914 82.0916L51.4425 81.7164C51.288 81.5941 47.5075 78.6413 41.8247 78.6413C37.8166 78.6413 33.8736 80.1014 30.0931 82.9889C28.963 83.878 27.7354 84.3429 26.5484 84.3429C24.768 84.3429 23.5322 83.3233 23.3696 82.3445C23.2477 81.6349 23.6867 81.0231 24.5485 80.7213C25.1176 80.5174 25.2476 80.3135 25.2314 80.2401C25.1989 80.0688 24.7273 79.8241 23.9468 79.8241L23.9387 79.8322Z" fill="black"/>
<path d="M69.7345 105.933C69.7019 105.991 69.6694 106.056 69.645 106.105C68.8483 107.907 68.7751 106.186 68.7751 106.186C67.3442 95.4113 60.3606 90.1992 58.4175 88.9512C50.629 93.3477 41.7104 94.0981 35.4341 93.9186C30.6699 93.7881 27.4016 93.1193 27.4016 93.1193C21.1985 98.8371 21.4342 110.151 21.4342 110.151C20.4668 112.459 19.8082 109.702 19.8082 109.702C20.5968 114.327 25.2147 135.281 46.377 132.924C70.4092 130.265 69.5637 106.684 69.5637 106.684C69.5637 106.684 69.6369 106.407 69.7345 105.933Z" fill="#FACEAB"/>
<path d="M43.1418 133.332C25.0201 133.332 20.5404 115.281 19.5974 109.751L20.012 109.661C20.1502 110.232 20.451 110.869 20.6624 110.869C20.703 110.869 20.9063 110.836 21.2152 110.118C21.2152 109.311 21.2559 98.503 27.2477 92.9727L27.329 92.8993L27.4347 92.9238C27.4347 92.9238 30.7354 93.5845 35.4264 93.715C35.963 93.7313 36.5158 93.7394 37.0849 93.7394C42.7597 93.7394 51.0441 92.8748 58.3042 88.772L58.418 88.7067L58.5237 88.772C60.6131 90.1097 67.5317 95.3218 68.9789 106.154C68.987 106.374 69.0358 106.611 69.0846 106.7C69.1008 106.643 69.2309 106.497 69.4423 106.007C69.4585 105.975 69.4829 105.926 69.5073 105.885H69.5154L69.9301 105.975C69.8325 106.456 69.7512 106.741 69.7512 106.741C69.7675 106.913 70.3366 130.494 46.3856 133.145C45.28 133.267 44.1824 133.332 43.1337 133.332H43.1418ZM20.3047 111.154C21.7193 117.777 26.7436 132.9 43.1418 132.9C44.1743 132.9 45.2556 132.835 46.345 132.712C68.4016 130.273 69.3203 109.808 69.3366 107.002C69.239 107.092 69.1415 107.133 69.0439 107.133C68.6537 107.133 68.5642 106.537 68.5561 106.187C67.1659 95.7297 60.5725 90.6154 58.4018 89.1961C51.0848 93.2908 42.7759 94.1554 37.0849 94.1554C36.5077 94.1554 35.9549 94.1473 35.4183 94.131C31.1663 94.0086 28.0688 93.4621 27.459 93.3479C21.4754 98.9597 21.638 110.028 21.638 110.143V110.192L21.6217 110.232C21.3209 110.95 21.012 111.285 20.6542 111.285C20.516 111.285 20.4022 111.236 20.2884 111.146L20.3047 111.154Z" fill="black"/>
<g style="mix-blend-mode:multiply" opacity="0.52">
<path d="M22.3773 83.0873C22.2473 84.6942 24.9139 87.8019 30.0276 83.8377C33.0276 81.5375 34.7349 79.9796 37.1658 79.0986C34.8894 79.7349 32.4585 80.9013 29.9545 82.8426C25.5805 86.2684 21.5806 82.0187 24.6049 80.9502C25.2228 80.73 25.4586 80.4771 25.4261 80.2406C24.0846 80.6403 22.5074 81.4478 22.3692 83.0954L22.3773 83.0873Z" fill="#A05E12"/>
</g>
<path d="M80.5881 189.345C80.5881 189.345 76.9052 198.163 74.8646 204.517C74.8646 204.517 82.4254 208.62 91.6286 208.204L94.2871 199.794L96.1245 199.998L97.1488 209.427C97.1488 209.427 104.913 209.835 111.043 208.4C111.043 208.4 109.815 193.432 108.799 189.329C107.775 185.226 80.5962 189.329 80.5962 189.329L80.5881 189.345Z" fill="#491AD4"/>
<path d="M99.7665 209.704C98.1812 209.704 97.1406 209.646 97.1243 209.646H96.9536L95.9292 200.193L94.417 200.022L91.7666 208.407H91.6203C82.4659 208.806 74.8238 204.736 74.7506 204.695L74.6042 204.614L74.653 204.451C76.6774 198.162 80.344 189.344 80.3847 189.263L80.4253 189.157L80.5391 189.14C80.6611 189.124 92.7341 187.313 101.01 187.313C106.043 187.313 108.644 187.958 108.978 189.295C109.994 193.366 111.222 208.252 111.23 208.399L111.246 208.578L111.075 208.619C107.246 209.516 102.807 209.704 99.7584 209.704H99.7665ZM97.3194 209.247C97.6771 209.263 98.5633 209.296 99.7665 209.296C102.75 209.296 107.067 209.116 110.815 208.26C110.677 206.563 109.531 193.194 108.588 189.401C108.401 188.643 106.929 187.737 101.019 187.737C93.2057 187.737 81.9781 189.353 80.7261 189.54C80.3034 190.552 77.0107 198.537 75.1083 204.426C76.214 204.989 83.2139 208.35 91.4658 208.023L94.1325 199.589L96.3032 199.834L97.3276 209.255L97.3194 209.247Z" fill="black"/>
<path d="M99.7665 209.704C98.1812 209.704 97.1406 209.646 97.1243 209.646H96.9536L95.9292 200.193L94.417 200.022L91.7666 208.407H91.6203C82.4659 208.806 74.8238 204.736 74.7506 204.695L74.6042 204.614L74.653 204.451C76.6774 198.162 80.344 189.344 80.3847 189.263L80.4253 189.157L80.5391 189.14C80.6611 189.124 92.7341 187.313 101.01 187.313C106.043 187.313 108.644 187.958 108.978 189.295C109.994 193.366 111.222 208.252 111.23 208.399L111.246 208.578L111.075 208.619C107.246 209.516 102.807 209.704 99.7584 209.704H99.7665ZM97.3194 209.247C97.6771 209.263 98.5633 209.296 99.7665 209.296C102.75 209.296 107.067 209.116 110.815 208.26C110.677 206.563 109.531 193.194 108.588 189.401C108.401 188.643 106.929 187.737 101.019 187.737C93.2057 187.737 81.9781 189.353 80.7261 189.54C80.3034 190.552 77.0107 198.537 75.1083 204.426C76.214 204.989 83.2139 208.35 91.4658 208.023L94.1325 199.589L96.3032 199.834L97.3276 209.255L97.3194 209.247Z" fill="black"/>
<path d="M129.164 179.197C121.498 172.451 111.498 164.662 111.4 164.588L111.905 163.936C112.002 164.017 122.018 171.815 129.709 178.577L129.173 179.197H129.164Z" fill="black"/>
<path d="M129.181 176.897C129.181 176.897 126.457 179.156 128.409 182.027C130.36 184.899 134.254 183.161 134.254 183.161C134.254 183.161 139.457 183.422 139.847 178.854C140.238 174.287 137.376 172.199 134.774 172.46C132.173 172.721 130.222 173.895 129.181 176.897Z" fill="#FACEAB"/>
<path d="M131.709 183.889C130.214 183.889 129.018 183.285 128.238 182.143C126.352 179.362 128.644 177.102 129.002 176.776C129.986 173.986 131.815 172.551 134.75 172.249C136.181 172.11 137.636 172.665 138.612 173.742C139.392 174.598 140.278 176.18 140.043 178.872C139.677 183.154 135.279 183.367 134.4 183.367H134.287C134.059 183.464 132.978 183.889 131.701 183.889H131.709ZM135.205 172.64C135.067 172.64 134.929 172.64 134.791 172.665C131.97 172.95 130.303 174.272 129.368 176.963L129.303 177.053C129.197 177.143 126.75 179.231 128.571 181.915C129.279 182.951 130.327 183.481 131.701 183.481C133.075 183.481 134.148 182.983 134.165 182.975L134.205 182.959H134.4C135.213 182.959 139.303 182.763 139.636 178.84C139.856 176.295 139.035 174.818 138.311 174.027C137.506 173.146 136.376 172.649 135.205 172.649V172.64Z" fill="black"/>
<path d="M134.344 183.35L134.165 182.983C135.913 182.135 136.995 180.789 137.125 179.296C137.238 178.04 136.653 176.825 135.564 176.025C132.873 174.06 129.531 176.833 129.499 176.866L129.239 176.556C129.239 176.556 132.848 173.538 135.808 175.699C137.019 176.58 137.661 177.942 137.539 179.337C137.393 180.985 136.23 182.445 134.344 183.358V183.35Z" fill="black"/>
<path d="M131.376 180.08L131.279 179.68C132.027 179.492 134.043 178.856 134.319 178.138C134.368 178.008 134.352 177.894 134.271 177.763C133.685 176.849 131.547 177.388 130.767 177.665L130.628 177.282C130.75 177.233 133.726 176.172 134.612 177.543C134.767 177.779 134.791 178.04 134.693 178.285C134.287 179.321 131.669 179.998 131.368 180.071L131.376 180.08Z" fill="black"/>
<path d="M66.8001 171.326L66.6132 170.698C71.3367 168.92 79.5967 163.219 79.678 163.162L79.987 163.724C79.9057 163.781 71.5887 169.524 66.8001 171.326Z" fill="black"/>
<path d="M115.897 164.116C115.897 164.116 107.621 156.449 103.482 154.728C99.3442 153.007 92.7183 153.79 92.7183 153.79C92.7183 153.79 84.6614 156.555 77.1575 162.558L80.6371 167.101L84.7753 164.597C84.7753 164.597 83.1411 169.695 81.1981 176.539C79.9786 180.813 78.6371 185.764 77.4908 190.585C77.4908 190.585 93.5475 197.159 110.433 191.678L108.466 176.775L106.962 165.38L110.938 168.667L115.905 164.132L115.897 164.116Z" fill="#6FC6FC"/>
<path d="M96.141 194.051C85.5802 194.051 77.499 190.796 77.4177 190.764L77.2551 190.698L77.2957 190.527C78.2876 186.359 79.5315 181.628 81.003 176.473C82.5721 170.951 83.9542 166.514 84.4176 165.046L80.5884 167.362L76.8811 162.517L77.0356 162.395C84.4826 156.44 92.5801 153.626 92.6614 153.593C92.7183 153.585 94.2386 153.406 96.2467 153.406C98.2548 153.406 101.312 153.602 103.564 154.54C107.686 156.253 115.702 163.659 116.043 163.969L116.206 164.124L110.946 168.936L107.238 165.869L110.669 191.816L110.507 191.865C106.027 193.317 101.198 194.051 96.1492 194.051H96.141ZM77.7348 190.446C78.9217 190.902 86.4826 193.643 96.141 193.643C101.084 193.643 105.824 192.933 110.214 191.522L106.694 164.882L110.929 168.39L115.596 164.124C114.409 163.039 107.141 156.481 103.409 154.923C101.222 154.009 98.3036 153.822 96.2467 153.822C94.1898 153.822 92.7671 153.993 92.7508 154.001C92.7102 154.018 84.7916 156.775 77.4502 162.599L80.6941 166.832L85.1412 164.14L84.9786 164.662C84.9623 164.711 83.3282 169.834 81.4014 176.595C79.9542 181.677 78.7266 186.335 77.7429 190.462L77.7348 190.446Z" fill="black"/>
<path d="M94.0599 154.107C94.0599 154.107 93.4013 157.761 96.5395 158.422C99.6858 159.082 101.174 155.763 101.011 154.107C100.848 152.443 94.0599 154.107 94.0599 154.107Z" fill="#F3AF81"/>
<path d="M97.3358 158.716C97.0594 158.716 96.7829 158.684 96.4903 158.627C93.1895 157.933 93.8399 154.108 93.848 154.067L93.8724 153.937L94.0025 153.904C94.1244 153.871 97.0675 153.162 99.1244 153.162C99.6122 153.162 101.108 153.162 101.206 154.083C101.295 154.972 100.945 156.424 99.9699 157.501C99.2545 158.292 98.3439 158.708 97.3358 158.708V158.716ZM94.2383 154.271C94.157 154.915 93.9618 157.664 96.5797 158.219C96.8399 158.276 97.0919 158.3 97.3358 158.3C98.4577 158.3 99.2219 157.713 99.6691 157.224C100.523 156.277 100.889 154.948 100.807 154.116C100.758 153.635 99.7341 153.561 99.1325 153.561C97.3602 153.561 94.8399 154.124 94.2383 154.263V154.271Z" fill="black"/>
<path d="M96.141 194.051C85.5802 194.051 77.499 190.797 77.4177 190.764L77.2551 190.699L77.2957 190.527C78.2876 186.359 79.5315 181.628 81.003 176.473C82.5721 170.951 83.9542 166.514 84.4176 165.046L80.5884 167.362L76.8811 162.517L77.0356 162.395C84.4826 156.44 92.5801 153.626 92.6614 153.594C92.7183 153.586 94.2386 153.406 96.2467 153.406C98.2548 153.406 101.312 153.602 103.564 154.54C107.686 156.253 115.702 163.659 116.043 163.969L116.206 164.124L110.946 168.937L107.238 165.87L110.669 191.816L110.507 191.865C106.027 193.317 101.198 194.051 96.1492 194.051H96.141ZM77.7348 190.446C78.9217 190.903 86.4826 193.643 96.141 193.643C101.084 193.643 105.824 192.934 110.214 191.523L106.694 164.883L110.929 168.39L115.596 164.124C114.409 163.039 107.141 156.481 103.409 154.923C101.222 154.01 98.3036 153.822 96.2467 153.822C94.1898 153.822 92.7671 153.993 92.7508 154.002C92.7102 154.018 84.7916 156.775 77.4502 162.599L80.6941 166.832L85.1412 164.14L84.9786 164.662C84.9623 164.711 83.3282 169.834 81.4014 176.596C79.9542 181.677 78.7266 186.335 77.7429 190.462L77.7348 190.446Z" fill="black"/>
<path d="M98.8244 167.362C98.8244 167.362 102.337 167.672 104.808 167.166C104.808 167.166 106.011 173.365 102.166 173.822C98.3204 174.279 98.67 169.124 98.8244 167.362Z" fill="#308BDE"/>
<path d="M101.702 174.06C100.864 174.06 100.173 173.775 99.661 173.212C98.2464 171.654 98.531 168.416 98.6285 167.347L98.6448 167.143L98.848 167.16C98.848 167.16 99.9293 167.257 101.279 167.257C102.628 167.257 103.848 167.16 104.775 166.972L104.978 166.931L105.019 167.135C105.051 167.29 105.726 170.871 104.295 172.828C103.791 173.522 103.084 173.93 102.198 174.036C102.027 174.052 101.864 174.068 101.71 174.068L101.702 174.06ZM99.0106 167.584C98.9131 168.766 98.7342 171.597 99.9619 172.935C100.49 173.514 101.189 173.742 102.141 173.628C102.913 173.538 103.523 173.187 103.962 172.592C105.1 171.026 104.767 168.195 104.645 167.412C103.726 167.584 102.596 167.665 101.279 167.665C100.255 167.665 99.3928 167.608 99.0188 167.584H99.0106Z" fill="black"/>
<path d="M101.702 174.06C100.864 174.06 100.173 173.775 99.661 173.212C98.2464 171.654 98.531 168.416 98.6285 167.347L98.6448 167.143L98.848 167.16C98.848 167.16 99.9293 167.257 101.279 167.257C102.628 167.257 103.848 167.16 104.775 166.972L104.978 166.931L105.019 167.135C105.051 167.29 105.726 170.871 104.295 172.828C103.791 173.522 103.084 173.93 102.198 174.036C102.027 174.052 101.864 174.068 101.71 174.068L101.702 174.06ZM99.0106 167.584C98.9131 168.766 98.7342 171.597 99.9619 172.935C100.49 173.514 101.189 173.742 102.141 173.628C102.913 173.538 103.523 173.187 103.962 172.592C105.1 171.026 104.767 168.195 104.645 167.412C103.726 167.584 102.596 167.665 101.279 167.665C100.255 167.665 99.3928 167.608 99.0188 167.584H99.0106Z" fill="black"/>
<path d="M78.1332 127.826C78.1332 127.826 68.0601 134.359 69.7512 141.154C72.4097 151.815 99.1817 143.617 98.9785 128.641C98.7752 113.674 78.1332 127.818 78.1332 127.818V127.826Z" fill="#491AD4"/>
<path d="M77.8163 146.205C73.3529 146.205 70.3448 144.386 69.5562 141.213C67.8489 134.353 77.6049 127.934 78.0276 127.665C78.3854 127.42 86.9788 121.58 93.1332 121.58C97.0843 121.58 99.125 123.961 99.19 128.652C99.2388 132.322 97.6778 135.887 94.6616 138.945C90.3933 143.285 83.6211 146.205 77.8244 146.205H77.8163ZM93.125 121.987C87.0926 121.987 78.3285 127.942 78.239 128.007C78.1333 128.072 68.3042 134.541 69.9383 141.115C70.9546 145.193 75.3041 145.797 77.8081 145.797C83.5072 145.797 90.1576 142.926 94.3527 138.66C97.2876 135.674 98.816 132.216 98.7672 128.66C98.7103 124.231 96.8079 121.987 93.125 121.987Z" fill="black"/>
<path d="M123.255 142.518C123.385 138.521 119.068 139.41 119.068 139.41L115.962 144.916C117.84 148.782 123.133 146.515 123.255 142.518Z" fill="#FACEAB"/>
<path d="M118.946 147.118C117.572 147.118 116.45 146.367 115.783 145.005L115.734 144.907L118.938 139.222L119.027 139.206C119.027 139.206 121.385 138.724 122.661 140.046C123.222 140.625 123.49 141.457 123.458 142.517C123.369 145.266 121.051 147.109 118.938 147.109L118.946 147.118ZM116.198 144.923C116.791 146.073 117.767 146.71 118.946 146.71C120.832 146.71 122.978 144.989 123.051 142.517C123.084 141.571 122.856 140.837 122.369 140.339C121.385 139.32 119.612 139.532 119.198 139.597L116.19 144.923H116.198Z" fill="black"/>
<path d="M121.442 143.407C119.775 142.322 118.409 142.771 118.401 142.779L118.271 142.396C118.336 142.371 119.832 141.866 121.669 143.065L121.45 143.407H121.442Z" fill="black"/>
<path d="M73.0769 135.069C74.6216 131.382 78.1826 133.96 78.1826 133.96L78.7273 140.249C75.4103 142.997 71.5404 138.764 73.0769 135.069Z" fill="#FACEAB"/>
<path d="M76.4829 141.333C75.2797 141.333 74.1008 140.64 73.3366 139.49C72.4423 138.144 72.2797 136.464 72.8895 134.996C73.6212 133.25 74.8 132.883 75.6618 132.883C77.0276 132.883 78.2552 133.764 78.304 133.797L78.3772 133.854L78.9382 140.347L78.8569 140.412C78.1252 141.015 77.304 141.342 76.4829 141.342V141.333ZM75.6618 133.283C74.5886 133.283 73.7838 133.911 73.2716 135.143C72.7106 136.48 72.8651 138.022 73.6781 139.254C74.3691 140.298 75.4179 140.917 76.4829 140.917C77.1902 140.917 77.8731 140.656 78.5073 140.151L77.9788 134.066C77.7024 133.886 76.7024 133.283 75.6537 133.283H75.6618Z" fill="black"/>
<path d="M77.4015 137.305C77.4015 137.305 76.3365 136.326 74.369 136.628L74.304 136.22C76.4828 135.885 77.6372 136.962 77.6779 137.003L77.3934 137.296L77.4015 137.305Z" fill="black"/>
<path d="M112.474 117.428L112.279 117.305C112.279 117.305 101.189 109.377 89.3116 115.935C82.393 119.753 76.1898 125.87 77.1247 132.306C77.1247 132.306 77.0678 134.581 78.4093 132.958C79.7507 131.343 87.4254 120.837 104.913 121.547C104.913 121.547 100.726 125.438 101.962 125.405C103.198 125.373 108.515 122.942 108.515 122.942C108.515 122.942 105.458 126.881 104.279 127.958C103.1 129.035 108.515 127.363 112.791 122.73C112.791 122.73 119.539 128.382 119.165 138.676C119.165 138.676 118.986 140.063 119.913 138.774C119.937 138.741 119.978 138.692 120.01 138.66C121.157 135.87 125.392 123.431 112.482 117.428H112.474Z" fill="black"/>
<path d="M119.327 139.531C119.23 139.531 119.149 139.491 119.084 139.417C118.913 139.221 118.945 138.822 118.97 138.65C119.303 129.433 113.783 123.911 112.807 123.014C109.417 126.611 105.311 128.471 104.287 128.471C104.051 128.471 103.962 128.365 103.929 128.283C103.848 128.071 104.059 127.875 104.141 127.802C105.002 127.019 106.921 124.629 107.84 123.463C106.311 124.14 102.954 125.575 101.962 125.608C101.677 125.608 101.588 125.469 101.555 125.379C101.328 124.8 103.108 122.973 104.409 121.733C104.011 121.725 103.62 121.717 103.23 121.717C96.1651 121.717 86.1815 123.65 78.7669 132.835L78.5555 133.088C77.9946 133.756 77.5393 133.895 77.2304 133.585C76.897 133.243 76.9052 132.394 76.9052 132.305C75.6857 123.928 86.0107 117.525 89.1977 115.763C92.3521 114.017 95.7342 113.136 99.2626 113.136C106.693 113.136 112.319 117.1 112.376 117.141L112.563 117.255C125.709 123.365 121.205 136.228 120.173 138.74L120.051 138.903C119.734 139.352 119.506 139.54 119.295 139.54L119.327 139.531ZM112.775 122.451L112.921 122.574C112.986 122.631 119.742 128.406 119.368 138.691C119.352 138.838 119.352 139.001 119.368 139.091C119.433 139.042 119.547 138.928 119.742 138.659C119.758 138.634 119.791 138.602 119.815 138.569C120.831 136.122 125.222 123.577 112.393 117.614L112.173 117.484C112.108 117.435 106.58 113.544 99.2789 113.544C95.8236 113.544 92.4985 114.409 89.4091 116.122C82.9539 119.686 76.3848 125.804 77.3198 132.28C77.3198 132.631 77.3767 133.145 77.5312 133.3C77.5637 133.332 77.5881 133.34 77.6125 133.34C77.6775 133.34 77.8645 133.292 78.2466 132.835L78.4499 132.582C85.9701 123.267 96.0757 121.309 103.23 121.309C103.783 121.309 104.344 121.317 104.913 121.342L105.401 121.366L105.043 121.701C103.515 123.12 101.889 124.882 101.929 125.249C102.889 125.184 106.596 123.593 108.417 122.761L108.661 123.071C108.539 123.226 105.718 126.864 104.49 128.03C105.702 127.778 109.433 126.056 112.628 122.598L112.758 122.459L112.775 122.451Z" fill="black"/>
<path d="M119.913 138.773C118.995 140.07 119.165 138.675 119.165 138.675C119.539 128.373 112.791 122.729 112.791 122.729C108.515 127.362 103.1 129.026 104.279 127.957C105.458 126.88 108.515 122.941 108.515 122.941C108.515 122.941 103.198 125.371 101.962 125.404C100.726 125.437 104.913 121.546 104.913 121.546C87.4258 120.836 79.7511 131.342 78.4097 132.957C77.0682 134.572 77.1251 132.305 77.1251 132.305C76.7593 136.057 76.1495 153.308 95.5477 155.633C117.328 158.251 119.759 139.23 119.759 139.23C119.759 139.23 119.856 139.026 120.003 138.659C119.97 138.7 119.93 138.74 119.905 138.773H119.913Z" fill="#FACEAB"/>
<path d="M99.5151 156.081C98.2387 156.081 96.8972 156 95.5233 155.837C75.865 153.479 76.5804 135.804 76.9219 132.288L77.3284 132.313C77.3284 132.631 77.3771 133.145 77.5316 133.3C77.5641 133.332 77.5885 133.34 77.6129 133.34C77.6617 133.34 77.8568 133.308 78.247 132.835L78.4503 132.582C85.9705 123.267 96.0761 121.309 103.23 121.309C103.783 121.309 104.344 121.317 104.913 121.342L105.401 121.366L105.043 121.701C103.515 123.12 101.889 124.882 101.93 125.249C102.889 125.184 106.596 123.593 108.417 122.761L108.661 123.071C108.539 123.226 105.718 126.864 104.491 128.03C105.71 127.777 109.434 126.056 112.629 122.598L112.759 122.459L112.905 122.582C112.97 122.639 119.726 128.414 119.352 138.699C119.336 138.862 119.336 139.042 119.352 139.123C119.377 139.075 119.507 138.968 119.718 138.667C119.734 138.642 119.767 138.61 119.791 138.577L120.173 138.74C120.019 139.107 119.921 139.319 119.921 139.319C119.921 139.425 117.58 156.089 99.4907 156.089L99.5151 156.081ZM77.2471 133.585C77.0357 138.797 78.0438 153.324 95.572 155.429C96.9297 155.592 98.2549 155.673 99.5151 155.673C115.954 155.673 119.116 141.668 119.515 139.482C119.352 139.564 119.19 139.539 119.084 139.417C118.913 139.221 118.946 138.822 118.97 138.65C119.303 129.425 113.783 123.911 112.808 123.014C109.417 126.611 105.312 128.471 104.287 128.471C104.052 128.471 103.962 128.365 103.93 128.283C103.848 128.071 104.06 127.875 104.141 127.802C105.003 127.019 106.921 124.629 107.84 123.463C106.312 124.14 102.954 125.575 101.962 125.608C101.678 125.608 101.588 125.469 101.556 125.379C101.328 124.8 103.109 122.973 104.409 121.733C104.011 121.725 103.621 121.717 103.23 121.717C96.1655 121.717 86.1819 123.65 78.7674 132.835L78.556 133.087C77.995 133.756 77.5397 133.895 77.2389 133.585H77.2471Z" fill="black"/>
<g style="mix-blend-mode:multiply" opacity="0.66">
<path d="M104.914 121.546C93.7187 121.089 86.5481 125.232 82.4831 128.699C91.5724 122.296 100.556 122.206 103.914 122.516C104.467 121.962 104.914 121.546 104.914 121.546Z" fill="#FACEAB"/>
<path d="M103.108 126.398C104.62 126.333 106.076 125.452 107.059 124.775C107.872 123.772 108.515 122.94 108.515 122.94C108.515 122.94 106.157 124.017 104.214 124.743C102.848 125.664 101.287 126.472 103.108 126.39V126.398Z" fill="#FACEAB"/>
</g>
<path d="M102.458 108.757C81.5473 106.946 76.092 122.909 76.4985 129.263C76.4985 129.263 100.002 122.705 121.872 134.394C121.872 134.394 126.165 110.812 102.458 108.757ZM106.344 125.299C99.3926 123.928 92.0349 124.141 92.0349 124.141C92.2382 121.473 93.4658 116.759 101.23 117.786C107.994 118.676 106.336 125.307 106.336 125.307L106.344 125.299Z" fill="#8266AC"/>
<path d="M122.027 134.704L121.783 134.573C113.165 129.973 103.32 127.632 92.5151 127.632C83.2225 127.632 76.6291 129.443 76.564 129.459L76.3201 129.524L76.3039 129.271C76.0681 125.617 77.7185 119.655 81.881 115.193C86.694 110.046 93.6777 107.778 102.482 108.545C109.515 109.157 114.799 111.71 118.173 116.147C123.946 123.733 122.1 134.312 122.084 134.418L122.035 134.696L122.027 134.704ZM92.5069 127.224C103.279 127.224 113.1 129.532 121.718 134.076C121.962 132.363 122.986 123.162 117.84 116.408C114.531 112.069 109.352 109.565 102.442 108.961C93.7752 108.211 86.8972 110.429 82.1819 115.478C78.19 119.752 76.5559 125.413 76.6941 128.994C77.9787 128.668 84.1656 127.216 92.5069 127.216V127.224ZM106.491 125.536L106.304 125.495C100.938 124.443 95.2955 124.328 93.1167 124.328C92.4338 124.328 92.0435 124.336 92.0435 124.336H91.8159L91.8321 124.116C92.2143 119.108 95.4988 116.816 101.263 117.575C103.32 117.844 104.824 118.668 105.743 120.013C107.287 122.289 106.58 125.226 106.547 125.348L106.499 125.536H106.491ZM93.1167 123.92C95.2793 123.92 100.848 124.035 106.182 125.054C106.304 124.377 106.621 122.044 105.393 120.242C104.547 118.994 103.141 118.235 101.206 117.982C95.7427 117.256 92.7021 119.287 92.263 123.929C92.45 123.929 92.7346 123.929 93.1167 123.929V123.92Z" fill="black"/>
<path d="M107.685 129.229C107.474 129.229 107.23 129.196 106.97 129.123L107.076 128.732C107.58 128.87 107.954 128.854 108.214 128.691C108.604 128.438 108.759 127.818 108.864 127.19C108.913 126.921 108.848 126.684 108.685 126.464C108.084 125.681 106.336 125.51 106.32 125.51L106.36 125.102C106.442 125.102 108.303 125.289 109.011 126.211C109.246 126.521 109.336 126.864 109.271 127.255C109.133 128.095 108.937 128.715 108.442 129.033C108.23 129.172 107.986 129.237 107.685 129.237V129.229Z" fill="black"/>
<path d="M106.002 126.799C106.002 127.142 105.726 127.411 105.384 127.411C105.043 127.411 104.775 127.133 104.775 126.799C104.775 126.465 105.051 126.187 105.384 126.187C105.718 126.187 106.002 126.465 106.002 126.799Z" fill="#4C0E5F"/>
<path d="M101.913 126.327C101.913 126.669 101.637 126.938 101.304 126.938C100.97 126.938 100.694 126.661 100.694 126.327C100.694 125.992 100.97 125.715 101.304 125.715C101.637 125.715 101.913 125.992 101.913 126.327Z" fill="#4C0E5F"/>
<path d="M97.5476 125.984C97.5476 126.327 97.2712 126.596 96.9379 126.596C96.6045 126.596 96.3281 126.319 96.3281 125.984C96.3281 125.65 96.6045 125.372 96.9379 125.372C97.2712 125.372 97.5476 125.65 97.5476 125.984Z" fill="#4C0E5F"/>
<path d="M92.7832 125.845C92.7832 126.188 92.5068 126.457 92.1735 126.457C91.8401 126.457 91.5637 126.18 91.5637 125.845C91.5637 125.511 91.8401 125.234 92.1735 125.234C92.5068 125.234 92.7832 125.511 92.7832 125.845Z" fill="#4C0E5F"/>
<path d="M119.986 119.58C119.45 118.446 118.791 117.329 117.986 116.277C105.743 113.202 94.1086 112.467 85.2795 112.557C83.9787 113.454 82.8567 114.458 81.873 115.526C91.3525 115.184 105.304 115.657 119.978 119.588L119.986 119.58Z" fill="#FFD372"/>
<path d="M120.352 119.89L119.929 119.776C109.653 117.019 98.5555 115.624 86.9458 115.624C85.2548 115.624 83.5556 115.657 81.8809 115.714L81.3931 115.73L81.7264 115.372C82.7508 114.246 83.9134 113.243 85.1654 112.378L85.2792 112.345C85.7182 112.345 86.1572 112.345 86.6044 112.345C97.5961 112.345 108.165 113.602 118.027 116.081L118.1 116.097L118.141 116.155C118.921 117.182 119.604 118.308 120.165 119.499L120.352 119.899V119.89ZM86.9458 115.217C98.4254 115.217 109.409 116.579 119.596 119.262C119.1 118.267 118.515 117.321 117.856 116.448C108.043 113.993 97.523 112.745 86.5963 112.745C86.1735 112.745 85.7507 112.745 85.3361 112.745C84.2629 113.487 83.263 114.344 82.3605 115.282C83.8808 115.233 85.4174 115.208 86.9458 115.208V115.217Z" fill="black"/>
<path d="M117.979 116.269C116.954 114.923 115.686 113.667 114.117 112.574C105.556 110.788 97.4505 110.086 90.5644 109.923C88.5482 110.592 86.8002 111.489 85.2799 112.541C94.1091 112.46 105.735 113.186 117.987 116.261L117.979 116.269Z" fill="#491AD4"/>
<path d="M118.499 116.61L117.93 116.463C108.092 113.992 97.556 112.744 86.6049 112.744C86.1578 112.744 85.7188 112.744 85.2798 112.744H84.6131L85.1659 112.368C86.7757 111.259 88.5724 110.37 90.5073 109.726C98.7105 109.905 106.645 110.794 114.166 112.368C115.735 113.437 117.052 114.693 118.149 116.137L118.507 116.602L118.499 116.61ZM86.6049 112.336C97.3772 112.336 107.751 113.543 117.45 115.925C116.458 114.718 115.304 113.649 114.003 112.744C106.58 111.21 98.6698 110.321 90.5642 110.133C88.9545 110.68 87.3936 111.422 85.9708 112.336C86.1822 112.336 86.3936 112.336 86.6131 112.336H86.6049Z" fill="black"/>
<path d="M102.458 108.756C97.743 108.348 93.8243 108.846 90.5723 109.931C97.4584 110.094 105.564 110.795 114.125 112.582C111.304 110.616 107.523 109.196 102.458 108.756Z" fill="#8266AC"/>
<path d="M114.076 112.786C106.58 111.22 98.6617 110.331 90.5561 110.143L90.4992 109.743C94.0114 108.577 98.0438 108.177 102.475 108.552C107.182 108.96 111.133 110.257 114.239 112.411L114.084 112.778L114.076 112.786ZM91.8325 109.768C99.1414 110.004 106.288 110.812 113.109 112.166C110.214 110.404 106.629 109.327 102.442 108.96C98.5723 108.626 95.0032 108.895 91.8325 109.768Z" fill="black"/>
<path d="M81.8726 115.518C79.8727 117.704 78.515 120.16 77.6613 122.492C81.5231 122.231 86.5555 122.076 92.3359 122.305C93.0189 119.776 95.0514 116.97 101.222 117.786C105.783 118.39 106.515 121.587 106.507 123.618C111.482 124.352 116.702 125.429 121.986 126.962C121.726 124.662 121.149 122.076 119.978 119.58C105.295 115.649 91.3522 115.168 81.8726 115.518Z" fill="#491AD4"/>
<path d="M122.23 127.24L121.937 127.158C116.994 125.723 111.799 124.597 106.49 123.814L106.312 123.789V123.61C106.312 121.351 105.434 118.545 101.206 117.982C96.4337 117.354 93.4906 118.83 92.5394 122.354L92.4988 122.509H92.3362C87.4176 122.305 82.4014 122.37 77.686 122.688L77.3689 122.713L77.4746 122.419C78.4258 119.817 79.8973 117.386 81.7266 115.38L81.7835 115.315H81.8729C83.5477 115.249 85.2631 115.217 86.9541 115.217C98.5963 115.217 109.726 116.62 120.043 119.377L120.133 119.401L120.173 119.483C121.214 121.701 121.897 124.205 122.206 126.93L122.238 127.232L122.23 127.24ZM106.718 123.431C111.881 124.197 116.938 125.29 121.759 126.677C121.45 124.156 120.807 121.824 119.84 119.752C109.588 117.011 98.5231 115.625 86.9541 115.625C85.2956 115.625 83.6208 115.657 81.9705 115.714C80.2713 117.59 78.8973 119.842 77.9705 122.256C82.5558 121.962 87.4094 121.897 92.1899 122.085C93.2305 118.504 96.3687 116.93 101.263 117.574C105.889 118.186 106.686 121.424 106.726 123.431H106.718Z" fill="black"/>
<path d="M167.278 133.757C166.051 132.982 166.628 133.822 166.628 133.822C168.441 136.033 165.335 142.134 160.799 139.149C154.831 135.217 162.222 128.634 165.978 115.38C170.14 100.681 162.547 83.7561 146.238 79.2128C129.929 74.6695 123.458 84.1476 123.458 84.1476C119.189 84.9959 118.019 79.2128 118.279 77.7854C118.539 76.358 117.694 77.5244 117.694 77.5244C116.783 78.9273 115.588 84.1721 119.149 85.9829C116.214 87.2554 111.873 90.6322 109.954 98.8216C107.238 110.412 110.824 118.398 116.165 125.902C121.507 133.398 118.588 140.021 115.872 140.021C113.157 140.021 113.734 136.612 114.515 135.25C115.295 133.887 114.19 134.728 114.19 134.728C109.401 138.496 112.507 149.532 124.929 141.481C137.352 133.431 151.864 135.437 156.644 141.286C160.628 146.155 166.352 146.155 168.685 142.256C171.4 137.721 168.49 134.532 167.262 133.749L167.278 133.757Z" fill="black"/>
<path d="M163.669 145.29C161.116 145.29 158.506 143.879 156.498 141.424C153.945 138.3 148.604 136.367 142.547 136.367C136.49 136.367 130.336 138.251 125.067 141.661C122.092 143.586 119.45 144.564 117.214 144.564C114.742 144.564 112.905 143.333 112.165 141.196C111.36 138.855 112.165 136.065 114.076 134.556C114.198 134.466 114.499 134.254 114.71 134.254C114.824 134.254 114.921 134.311 114.978 134.401C115.084 134.581 115.011 134.842 114.718 135.355C114.206 136.261 113.799 138.047 114.385 139.059C114.669 139.556 115.181 139.809 115.889 139.809C116.71 139.809 117.564 139.116 118.149 137.966C119.376 135.576 119.547 131.016 116.003 126.032C111.068 119.099 106.889 110.991 109.751 98.7807C111.686 90.5424 116.019 87.2471 118.685 85.9746C117.726 85.371 117.076 84.4575 116.751 83.2584C116.124 80.9256 116.937 78.2991 117.515 77.4182C117.669 77.2061 117.946 76.8717 118.206 76.8717H118.303L118.442 76.9859C118.563 77.1246 118.572 77.3774 118.49 77.8342C118.336 78.6825 118.734 81.1866 120.011 82.7282C120.889 83.7805 122.011 84.1965 123.328 83.9681C123.856 83.2666 128.271 77.7771 137.848 77.7771C140.49 77.7771 143.336 78.1931 146.287 79.0169C153.661 81.0724 159.766 85.8604 163.482 92.5082C167.36 99.4414 168.335 107.802 166.173 115.453C164.831 120.2 162.994 124.14 161.522 127.313C158.839 133.08 157.222 136.555 160.913 138.985C161.685 139.499 162.457 139.76 163.197 139.76C164.799 139.76 165.945 138.537 166.482 137.395C167.083 136.106 167.075 134.736 166.449 133.977C166.319 133.798 166.205 133.561 166.295 133.382C166.343 133.284 166.441 133.227 166.563 133.227C166.677 133.227 166.864 133.267 167.376 133.594C168.644 134.401 171.644 137.745 168.872 142.395C167.766 144.246 165.864 145.307 163.661 145.307L163.669 145.29ZM142.547 135.943C148.726 135.943 154.197 137.941 156.831 141.155C158.758 143.512 161.246 144.858 163.677 144.858C165.726 144.858 167.498 143.871 168.522 142.15C171.14 137.778 168.433 134.736 167.165 133.936C167.034 133.855 166.929 133.789 166.847 133.749C167.53 134.638 167.555 136.13 166.88 137.558C166.286 138.822 165.01 140.168 163.205 140.168C162.376 140.168 161.53 139.882 160.685 139.328C156.693 136.693 158.465 132.884 161.148 127.117C162.612 123.961 164.441 120.037 165.774 115.323C167.912 107.778 166.945 99.5393 163.124 92.7039C159.465 86.1622 153.449 81.4395 146.181 79.4166C143.262 78.6009 140.466 78.1931 137.856 78.1931C127.913 78.1931 123.677 84.2046 123.637 84.2699L123.588 84.3433L123.498 84.3596C121.986 84.6614 120.685 84.1883 119.685 82.9974C118.303 81.3334 117.897 78.6988 118.068 77.7526C118.1 77.5732 118.116 77.4508 118.116 77.3693C118.043 77.4427 117.946 77.5487 117.872 77.6548C117.36 78.446 116.588 80.9664 117.165 83.1442C117.49 84.3759 118.198 85.265 119.255 85.8033L119.661 86.0072L119.246 86.1867C116.71 87.2879 112.165 90.4037 110.173 98.8786C107.344 110.926 111.474 118.928 116.352 125.779C120.011 130.918 119.816 135.665 118.531 138.161C117.864 139.466 116.872 140.241 115.889 140.241C115.027 140.241 114.377 139.907 114.011 139.279C113.32 138.08 113.799 136.106 114.344 135.152C114.442 134.98 114.498 134.858 114.539 134.776C114.474 134.817 114.401 134.858 114.336 134.907C112.564 136.302 111.824 138.896 112.572 141.065C113.246 143.023 114.938 144.148 117.214 144.148C119.368 144.148 121.929 143.194 124.84 141.31C130.181 137.851 136.474 135.943 142.555 135.943H142.547Z" fill="black"/>
<path d="M130.116 134.686C130.116 134.686 113.019 170.715 105.962 193.872C105.962 193.872 122.417 222.608 162.384 201.808C162.384 201.808 149.132 147.77 142.506 135.975C142.506 135.975 136.092 133.406 130.108 134.686H130.116Z" fill="#FFE98F"/>
<path d="M135.384 209.581C114.962 209.581 105.881 194.14 105.791 193.985L105.742 193.903L105.767 193.814C112.742 170.901 129.758 134.963 129.929 134.604L129.978 134.506L130.084 134.482C131.214 134.237 132.433 134.115 133.718 134.115C138.409 134.115 142.563 135.762 142.604 135.779L142.677 135.811L142.718 135.876C149.278 147.557 162.482 201.22 162.62 201.767L162.66 201.93L162.514 202.011C152.848 207.044 143.726 209.589 135.401 209.589L135.384 209.581ZM106.206 193.846C106.929 195.037 115.97 209.148 135.384 209.148C143.596 209.148 152.595 206.636 162.148 201.693C161.335 198.398 148.734 147.589 142.368 136.146C141.807 135.934 137.986 134.539 133.71 134.539C132.498 134.539 131.336 134.653 130.271 134.873C129.287 136.953 113.011 171.546 106.206 193.838V193.846Z" fill="black"/>
<path d="M138.035 199.483C134.929 199.483 131.897 198.619 129.019 196.922C112.076 186.922 131.734 151.245 131.929 150.886C139.913 136.62 148.441 133.626 154.189 133.626C157.441 133.626 159.482 134.605 159.571 134.646C173.538 141.799 166.311 165.967 166.238 166.204C164.742 181.571 152.1 199.483 138.043 199.483H138.035ZM154.189 134.058C148.555 134.058 140.189 137.011 132.303 151.098C132.108 151.457 112.653 186.767 129.238 196.555C132.051 198.219 135.01 199.059 138.043 199.059C151.88 199.059 164.343 181.359 165.823 166.131C165.904 165.845 173.026 142.019 159.384 135.037C159.368 135.029 157.344 134.066 154.197 134.066L154.189 134.058Z" fill="black"/>
<path d="M135.384 209.581C114.962 209.581 105.881 194.14 105.791 193.985L105.742 193.903L105.767 193.814C112.742 170.901 129.758 134.963 129.929 134.604L129.978 134.506L130.084 134.482C131.214 134.237 132.433 134.115 133.718 134.115C138.409 134.115 142.563 135.762 142.604 135.779L142.677 135.811L142.718 135.876C149.278 147.557 162.482 201.22 162.62 201.767L162.66 201.93L162.514 202.011C152.848 207.044 143.726 209.589 135.401 209.589L135.384 209.581ZM106.206 193.846C106.929 195.037 115.97 209.148 135.384 209.148C143.596 209.148 152.595 206.636 162.148 201.693C161.335 198.398 148.734 147.589 142.368 136.146C141.807 135.934 137.986 134.539 133.71 134.539C132.498 134.539 131.336 134.653 130.271 134.873C129.287 136.953 113.011 171.546 106.206 193.838V193.846Z" fill="black"/>
<path d="M136.848 133.169C136.848 133.169 129.718 132.924 129.686 132.924C129.564 132.924 130.352 136.064 130.458 136.285C130.995 137.427 131.881 138.389 133.206 138.413C135.808 138.471 136.458 135.159 136.84 133.161L136.848 133.169Z" fill="#F3B58B"/>
<path d="M133.278 138.643H133.205C131.628 138.602 130.734 137.395 130.262 136.384C130.246 136.359 129.311 133.113 129.498 132.819L129.563 132.721H129.685L136.856 132.958H137.108L137.059 133.211C136.669 135.242 136.018 138.635 133.278 138.635V138.643ZM129.904 133.154C130.018 133.823 130.547 135.976 130.652 136.204C131.075 137.102 131.856 138.178 133.213 138.211L133.278 138.423V138.211C135.563 138.211 136.221 135.291 136.587 133.382C135.474 133.341 130.97 133.195 129.904 133.154Z" fill="black"/>
<path d="M154.824 106.961C151.011 106.961 148.393 105.778 148.263 105.721L148.442 105.33C148.442 105.33 151.873 106.871 156.45 106.455L156.49 106.88C155.913 106.929 155.352 106.953 154.816 106.953L154.824 106.961Z" fill="black"/>
<path d="M160.579 117.745C157.62 115.633 155.628 118.39 153.067 120.959C150.506 123.528 151.36 119.956 151.36 119.956C152.644 112.239 148.368 105.518 148.368 105.518C131.409 98.0874 124.287 86.0726 124.287 86.0726C124.287 86.0726 116.018 90.0775 112.458 105.371C107.693 125.812 127.864 148.708 150.62 128.104C151.709 128.944 152.221 129.711 153.92 129.956C161.896 131.098 163.896 120.094 160.579 117.737V117.745Z" fill="#FACEAB"/>
<path d="M132.742 136.416C126.807 136.416 121.311 133.61 117.287 128.512C112.312 122.215 110.377 113.332 112.238 105.33C115.783 90.1099 124.1 85.9255 124.181 85.8847L124.36 85.8032L124.458 85.9745C124.531 86.0968 131.75 98.0138 148.441 105.33L148.539 105.412C148.579 105.477 152.839 112.288 151.563 120.004C151.433 120.543 151.352 121.383 151.547 121.628C151.579 121.668 151.612 121.685 151.669 121.685C151.815 121.685 152.165 121.57 152.913 120.82C153.213 120.518 153.506 120.216 153.791 119.923C155.344 118.316 156.807 116.791 158.522 116.791C159.246 116.791 159.953 117.052 160.701 117.582C162.295 118.716 162.791 121.815 161.847 124.792C160.758 128.226 158.213 130.282 155.051 130.282C154.677 130.282 154.287 130.249 153.888 130.2C152.498 130.005 151.864 129.458 151.132 128.838C150.97 128.699 150.807 128.561 150.628 128.414C144.783 133.659 138.604 136.432 132.75 136.432L132.742 136.416ZM124.198 86.366C123.011 87.043 115.872 91.6271 112.653 105.428C110.816 113.308 112.718 122.052 117.62 128.243C121.563 133.235 126.937 135.983 132.742 135.983C138.547 135.983 144.669 133.21 150.466 127.957L150.596 127.835L150.734 127.941C150.978 128.128 151.189 128.308 151.4 128.487C152.116 129.091 152.677 129.572 153.937 129.752C154.311 129.801 154.685 129.833 155.043 129.833C158.01 129.833 160.392 127.892 161.425 124.646C162.319 121.84 161.896 118.952 160.441 117.916C159.774 117.435 159.14 117.207 158.506 117.207C156.97 117.207 155.628 118.593 154.075 120.2C153.791 120.502 153.498 120.804 153.197 121.106C152.189 122.117 151.539 122.313 151.189 121.88C150.799 121.383 151.067 120.143 151.124 119.906C152.311 112.737 148.587 106.342 148.189 105.689C132.515 98.7968 125.149 87.875 124.181 86.366H124.198Z" fill="black"/>
<path d="M155.092 123.259L154.702 123.088C154.742 122.973 155.653 120.265 157.482 119.425C158.181 119.099 158.921 119.099 159.677 119.409L159.515 119.809C158.873 119.548 158.247 119.548 157.661 119.817C156.669 120.274 155.954 121.391 155.539 122.223C156.222 121.766 157.344 121.424 158.954 122.174L158.775 122.566C156.206 121.375 155.133 123.194 155.092 123.275V123.259Z" fill="black"/>
<path d="M159.475 134.834C159.475 134.834 145.085 127.827 132.117 150.984C132.117 150.984 112.166 186.719 129.125 196.727C146.085 206.735 164.174 185.144 166.027 166.139C166.027 166.139 173.434 141.979 159.475 134.834Z" fill="#96D1F2"/>
<path d="M138.035 199.483C134.929 199.483 131.897 198.619 129.019 196.922C112.076 186.922 131.734 151.245 131.929 150.886C139.913 136.62 148.441 133.626 154.189 133.626C157.441 133.626 159.482 134.605 159.571 134.646C173.538 141.799 166.311 165.967 166.238 166.204C164.742 181.571 152.1 199.483 138.043 199.483H138.035ZM154.189 134.058C148.555 134.058 140.189 137.011 132.303 151.098C132.108 151.457 112.653 186.767 129.238 196.555C132.051 198.219 135.01 199.059 138.043 199.059C151.88 199.059 164.343 181.359 165.823 166.131C165.904 165.845 173.026 142.019 159.384 135.037C159.368 135.029 157.344 134.066 154.197 134.066L154.189 134.058Z" fill="black"/>
<path d="M141.921 171.326L141.694 170.967C141.694 170.967 143.263 169.955 144.938 168.283C145.182 168.039 145.295 167.737 145.279 167.378C145.19 165.722 142.417 163.479 142.393 163.455L142.661 163.12C142.783 163.218 145.604 165.502 145.71 167.353C145.734 167.835 145.58 168.251 145.247 168.585C143.539 170.298 141.946 171.318 141.93 171.334L141.921 171.326Z" fill="black"/>
<path d="M158.377 141.946C155.425 140.078 151.791 139.418 148.612 139.997C146.734 140.347 144.409 141.228 142.84 142.509C138.133 146.408 135.426 155.258 139.344 160.323C144.051 166.164 152.637 167.86 158.629 163.04C161.685 160.609 164.133 155.984 164.328 152.232C164.563 147.746 161.937 144.124 158.385 141.93L158.377 141.946Z" fill="#FACEAB"/>
<path d="M150.629 166.066C146.287 166.066 142.003 163.969 139.174 160.462C135.198 155.323 137.856 146.351 142.702 142.346C144.409 140.943 146.856 140.103 148.572 139.785C151.848 139.181 155.596 139.931 158.49 141.758C162.547 144.254 164.759 148.08 164.539 152.248C164.336 156.033 161.856 160.747 158.759 163.211C156.442 165.079 153.629 166.066 150.629 166.066ZM150.905 140.005C150.133 140.005 149.377 140.07 148.645 140.209C146.978 140.519 144.613 141.326 142.962 142.68C138.263 146.571 135.67 155.25 139.499 160.201C142.247 163.61 146.401 165.641 150.621 165.641C153.515 165.641 156.238 164.687 158.482 162.884C161.49 160.486 163.913 155.91 164.108 152.232C164.32 148.227 162.19 144.54 158.263 142.126C156.1 140.755 153.482 140.005 150.905 140.005Z" fill="black"/>
<path d="M156.132 143.341C155.271 142.656 154.815 141.848 154.767 140.959C154.685 139.287 156.084 137.901 156.149 137.843L156.45 138.153C156.45 138.153 155.124 139.458 155.198 140.943C155.238 141.71 155.645 142.403 156.401 143.015L156.132 143.349V143.341Z" fill="black"/>
<path d="M154.23 142.869C151.189 140.56 152.53 137.477 152.547 137.444L152.937 137.624C152.888 137.738 151.734 140.438 154.49 142.534L154.23 142.877V142.869Z" fill="black"/>
<path d="M156.36 158.399C156.311 158.399 156.262 158.374 156.246 158.325C156.214 158.26 156.246 158.187 156.303 158.154L158.742 157.012C158.807 156.98 158.88 157.012 158.913 157.077C158.945 157.143 158.913 157.216 158.848 157.249L156.409 158.391C156.409 158.391 156.376 158.399 156.352 158.399H156.36Z" fill="#F3B58B"/>
<path d="M157.36 159.051C157.311 159.051 157.262 159.026 157.246 158.977C157.213 158.912 157.246 158.839 157.311 158.806L159.75 157.664C159.815 157.631 159.888 157.664 159.921 157.729C159.953 157.794 159.921 157.868 159.856 157.901L157.417 159.042C157.417 159.042 157.384 159.059 157.36 159.059V159.051Z" fill="#F3B58B"/>
<path d="M139.36 151.328C139.311 151.328 139.262 151.303 139.246 151.254C139.213 151.189 139.246 151.116 139.311 151.083L141.758 149.941C141.823 149.908 141.896 149.941 141.929 150.006C141.961 150.072 141.929 150.145 141.864 150.178L139.417 151.32C139.417 151.32 139.384 151.336 139.36 151.336V151.328Z" fill="#F3B58B"/>
<path d="M140.336 151.978C140.287 151.978 140.238 151.954 140.222 151.905C140.189 151.84 140.222 151.766 140.287 151.734L142.734 150.592C142.799 150.559 142.872 150.592 142.905 150.657C142.937 150.722 142.905 150.796 142.84 150.828L140.393 151.97C140.393 151.97 140.36 151.987 140.336 151.987V151.978Z" fill="#F3B58B"/>
<path d="M138.035 199.483C134.929 199.483 131.897 198.619 129.019 196.922C112.076 186.922 131.734 151.245 131.929 150.886C139.913 136.62 148.441 133.626 154.189 133.626C157.441 133.626 159.482 134.605 159.571 134.646C173.538 141.799 166.311 165.967 166.238 166.204C164.742 181.571 152.1 199.483 138.043 199.483H138.035ZM154.189 134.058C148.555 134.058 140.189 137.011 132.303 151.098C132.108 151.457 112.653 186.767 129.238 196.555C132.051 198.219 135.01 199.059 138.043 199.059C151.88 199.059 164.343 181.359 165.823 166.131C165.904 165.845 173.026 142.019 159.384 135.037C159.368 135.029 157.344 134.066 154.197 134.066L154.189 134.058Z" fill="black"/>
<path d="M132.45 172.786C115.856 161.978 127.905 138.373 128.027 138.136L128.783 138.536C128.661 138.764 116.97 161.685 132.913 172.076L132.45 172.794V172.786Z" fill="black"/>
<path d="M132.222 173.782C132.393 174.19 132.523 174.769 132.393 175.487C132.124 176.955 131.035 178.643 132.084 178.619C133.133 178.594 134.141 175.495 134.141 175.495C134.141 175.495 134.287 177.893 134.246 179.239C134.206 180.585 135.23 180.462 135.661 177.714L135.864 175.895C135.864 175.895 136.994 178.872 137.628 179.679C138.263 180.479 138.864 179.753 138.466 178.342C138.059 176.939 137.303 175.267 137.303 175.267C137.303 175.267 139.425 177.232 140.222 178.032C141.01 178.831 141.848 177.656 140.742 176.368C139.636 175.079 137.791 173.986 138.116 173.35C138.433 172.713 140.002 172.469 140.295 171.572C140.588 170.674 138.165 170.886 135.775 171.514C134.945 171.735 134.238 171.816 133.669 171.833C133.62 171.882 133.563 171.922 133.474 171.947C132.141 172.379 132.157 173.358 132.23 173.782H132.222Z" fill="#FACEAB"/>
<path d="M134.596 180.29C134.474 180.29 134.36 180.241 134.271 180.144C134.1 179.972 134.019 179.654 134.035 179.23C134.059 178.463 134.019 177.346 133.986 176.53C133.58 177.493 132.88 178.814 132.092 178.83C131.824 178.83 131.645 178.749 131.539 178.602C131.287 178.251 131.506 177.639 131.775 176.856C131.929 176.416 132.1 175.91 132.189 175.445C132.311 174.752 132.173 174.197 132.027 173.855C131.937 173.349 131.905 172.223 133.401 171.734C133.45 171.718 133.482 171.693 133.515 171.669L133.571 171.612H133.653C134.311 171.587 135.002 171.481 135.71 171.293C137.043 170.943 138.303 170.747 139.157 170.747C139.832 170.747 140.246 170.869 140.425 171.122C140.498 171.22 140.571 171.391 140.49 171.628C140.303 172.207 139.693 172.533 139.149 172.819C138.767 173.023 138.409 173.21 138.303 173.439C138.173 173.692 138.913 174.352 139.514 174.874C139.97 175.282 140.49 175.739 140.905 176.22C141.547 176.962 141.58 177.648 141.393 178.047C141.262 178.325 141.019 178.496 140.742 178.496C140.58 178.496 140.336 178.439 140.067 178.17C139.58 177.68 138.588 176.742 137.897 176.098C138.149 176.71 138.458 177.525 138.669 178.267C138.88 178.993 138.848 179.63 138.596 179.972C138.482 180.127 138.319 180.217 138.141 180.217C137.978 180.217 137.734 180.144 137.466 179.801C137.027 179.238 136.376 177.721 135.986 176.767L135.88 177.729C135.628 179.328 135.157 180.282 134.604 180.282L134.596 180.29ZM133.937 175.437L134.352 175.494C134.352 175.494 134.498 177.917 134.458 179.254C134.45 179.597 134.515 179.793 134.58 179.858L134.596 179.874C134.734 179.874 135.189 179.36 135.45 177.696L135.653 175.886L136.067 175.829C136.067 175.829 137.189 178.781 137.799 179.556C137.986 179.793 138.108 179.809 138.141 179.809C138.157 179.809 138.206 179.809 138.254 179.736C138.393 179.548 138.449 179.067 138.254 178.406C137.856 177.028 137.116 175.38 137.108 175.364L137.449 175.119C137.449 175.119 139.588 177.093 140.368 177.892C140.498 178.023 140.628 178.088 140.742 178.088C140.888 178.088 140.97 177.966 141.002 177.892C141.124 177.631 141.084 177.109 140.58 176.522C140.181 176.065 139.677 175.617 139.23 175.217C138.344 174.434 137.645 173.814 137.921 173.259C138.092 172.917 138.506 172.696 138.954 172.46C139.441 172.199 139.954 171.93 140.092 171.514C140.116 171.432 140.092 171.399 140.092 171.391C140.067 171.359 139.913 171.196 139.165 171.196C138.344 171.196 137.124 171.391 135.823 171.726C135.108 171.913 134.409 172.019 133.742 172.052C133.693 172.093 133.62 172.134 133.531 172.158C132.401 172.525 132.36 173.316 132.433 173.749C132.588 174.091 132.75 174.727 132.604 175.527C132.515 176.024 132.336 176.546 132.173 177.003C131.986 177.525 131.758 178.186 131.88 178.357C131.913 178.398 131.994 178.406 132.059 178.406C132.734 178.39 133.563 176.571 133.937 175.437Z" fill="black"/>
<path d="M154.506 176.726C154.351 176.726 154.197 176.726 154.042 176.718L154.075 175.862C164.294 176.286 166.717 161.93 166.741 161.783L167.587 161.922C167.562 162.069 165.05 176.726 154.506 176.726Z" fill="black"/>
<path d="M155.035 177.755C154.726 178.065 154.376 178.546 154.214 179.264C153.888 180.724 154.246 182.698 153.287 182.274C152.327 181.841 152.596 178.595 152.596 178.595C152.596 178.595 151.539 180.748 151.059 182.005C150.58 183.261 149.685 182.747 150.344 180.047L150.856 178.293C150.856 178.293 148.669 180.602 147.775 181.099C146.88 181.597 146.604 180.683 147.523 179.541C148.433 178.399 149.775 177.16 149.775 177.16C149.775 177.16 147.059 178.146 146.019 178.579C144.978 179.011 144.661 177.6 146.181 176.85C147.702 176.091 149.823 175.797 149.767 175.088C149.718 174.378 148.368 173.538 148.449 172.6C148.523 171.662 150.677 172.796 152.645 174.297C153.327 174.819 153.945 175.169 154.466 175.406C154.498 175.471 154.531 175.528 154.604 175.585C155.661 176.507 155.271 177.396 155.043 177.763L155.035 177.755Z" fill="#FACEAB"/>
<path d="M150.506 182.87C150.368 182.87 150.23 182.796 150.132 182.674C149.815 182.274 149.823 181.295 150.14 179.998L150.417 179.06C149.693 179.786 148.506 180.936 147.88 181.287C147.401 181.556 146.978 181.475 146.815 181.132C146.62 180.724 146.831 180.064 147.36 179.403C147.84 178.799 148.449 178.171 148.913 177.698C148.027 178.025 146.742 178.506 146.108 178.767C145.555 178.995 145.067 178.783 144.953 178.318C144.84 177.829 145.149 177.119 146.092 176.646C146.661 176.361 147.311 176.14 147.888 175.945C148.644 175.692 149.579 175.374 149.555 175.088C149.539 174.835 149.279 174.525 149.01 174.191C148.62 173.718 148.189 173.179 148.238 172.568C148.262 172.233 148.498 172.029 148.872 172.029C149.742 172.029 151.457 173.106 152.775 174.117C153.352 174.566 153.953 174.925 154.555 175.202L154.628 175.235L154.661 175.308C154.661 175.308 154.701 175.382 154.742 175.414C155.929 176.45 155.474 177.478 155.222 177.87C154.929 178.163 154.587 178.62 154.433 179.313C154.327 179.77 154.295 180.3 154.27 180.773C154.214 181.719 154.165 182.543 153.539 182.543C153.441 182.543 153.327 182.519 153.214 182.462C152.498 182.135 152.36 180.651 152.36 179.607C152.01 180.341 151.547 181.361 151.27 182.078C151.075 182.584 150.807 182.87 150.514 182.87H150.506ZM150.709 178.147L151.067 178.359L150.555 180.113C150.197 181.556 150.336 182.242 150.466 182.413L150.498 182.445C150.498 182.445 150.693 182.356 150.856 181.932C151.335 180.684 152.392 178.53 152.401 178.506L152.807 178.62C152.709 179.811 152.775 181.809 153.376 182.078C153.449 182.111 153.498 182.119 153.531 182.119C153.75 182.119 153.799 181.361 153.831 180.749C153.864 180.268 153.896 179.713 154.002 179.224C154.181 178.432 154.579 177.91 154.88 177.609C155.092 177.274 155.352 176.532 154.449 175.749C154.376 175.692 154.335 175.626 154.303 175.569C153.701 175.284 153.1 174.909 152.514 174.46C150.953 173.269 149.49 172.462 148.864 172.462C148.669 172.462 148.661 172.535 148.661 172.608C148.628 173.049 148.986 173.489 149.344 173.922C149.661 174.313 149.962 174.672 149.986 175.055C150.035 175.675 149.149 175.969 148.027 176.352C147.466 176.54 146.823 176.76 146.287 177.029C145.506 177.421 145.311 177.951 145.376 178.22C145.425 178.44 145.653 178.498 145.945 178.375C146.978 177.943 149.685 176.964 149.71 176.948L149.929 177.307C149.929 177.307 148.588 178.555 147.693 179.672C147.189 180.3 147.124 180.773 147.205 180.945C147.238 181.01 147.279 181.132 147.677 180.912C148.531 180.439 150.685 178.171 150.709 178.147Z" fill="black"/>
</g>
<defs>
<linearGradient id="paint0_linear_2074_10083" x1="104" y1="-96.5" x2="120" y2="281.5" gradientUnits="userSpaceOnUse">
<stop offset="0.0269047" stop-color="#D0E8FF"/>
<stop offset="1" stop-color="#55A4ED"/>
</linearGradient>
<linearGradient id="paint1_linear_2074_10083" x1="314.753" y1="286.442" x2="167.114" y2="-78.9957" gradientUnits="userSpaceOnUse">
<stop stop-color="#A5D4FF"/>
<stop offset="1" stop-color="#D6EBFF"/>
</linearGradient>
<clipPath id="clip0_2074_10083">
<rect width="192" height="192" rx="24" fill="white"/>
</clipPath>
</defs>
</svg>
