<svg width="16" height="16" viewBox="0 0 16 16" fill="none" xmlns="http://www.w3.org/2000/svg">
<path d="M14.0163 6.99999C14.3761 6.99999 14.6668 6.70167 14.6668 6.33353C14.6668 5.96511 14.3758 5.66679 14.0163 5.66679H13.0408V3.66684H14.0163C14.3761 3.66684 14.6668 3.36881 14.6668 3.00039C14.6668 2.63196 14.3758 2.33364 14.0163 2.33364H13.0408V1.99983C13.0408 1.26356 12.4584 0.666626 11.7401 0.666626H2.63446C1.91616 0.666626 1.3335 1.26356 1.3335 1.99983V13.9998C1.3335 14.7364 1.91616 15.3333 2.63446 15.3333H11.7401C12.4584 15.3333 13.0408 14.7364 13.0408 14.0001V13.6669H14.0163C14.3761 13.6669 14.6668 13.3685 14.6668 13.0001C14.6668 12.6317 14.3758 12.3337 14.0163 12.3337H13.0408V10.3337H14.0163C14.3761 10.3337 14.6668 10.0354 14.6668 9.66697C14.6668 9.29855 14.3758 9.00052 14.0163 9.00052H13.0408V7.00057H14.0163V6.99999ZM11.415 2.16673C11.6102 2.16673 11.7816 2.24593 11.9215 2.36327C11.6336 2.43161 11.415 2.68359 11.415 3.00009C11.415 3.3166 11.6336 3.56828 11.9218 3.63663C11.7816 3.75396 11.6099 3.83316 11.415 3.83316C10.9654 3.83316 10.602 3.46092 10.602 2.9998C10.602 2.53868 10.9651 2.16673 11.415 2.16673ZM11.415 5.49988C11.6102 5.49988 11.7816 5.57937 11.9215 5.69641C11.6336 5.76476 11.415 6.01673 11.415 6.33324C11.415 6.64975 11.6336 6.90172 11.9218 6.96977C11.7816 7.08681 11.6099 7.16631 11.415 7.16631C10.9654 7.16631 10.602 6.79377 10.602 6.33295C10.602 5.87241 10.9651 5.49988 11.415 5.49988ZM11.415 8.83332C11.6102 8.83332 11.7816 8.91281 11.9215 9.02985C11.6336 9.0982 11.415 9.35017 11.415 9.66639C11.415 9.98289 11.6336 10.2349 11.9218 10.3032C11.7816 10.4203 11.6099 10.4997 11.415 10.4997C10.9654 10.4997 10.602 10.1272 10.602 9.66639C10.602 9.20556 10.9651 8.83332 11.415 8.83332ZM11.415 13.8332C10.9654 13.8332 10.602 13.4607 10.602 12.9998C10.602 12.539 10.9654 12.1665 11.415 12.1665C11.6102 12.1665 11.7816 12.246 11.9215 12.363C11.6336 12.4313 11.415 12.6833 11.415 12.9995C11.415 13.316 11.6336 13.568 11.9218 13.6364C11.7816 13.754 11.6099 13.8332 11.415 13.8332Z" fill="#75B3EB"/>
</svg>
