<svg width="16" height="16" viewBox="0 0 16 16" fill="none" xmlns="http://www.w3.org/2000/svg">
<path fill-rule="evenodd" clip-rule="evenodd" d="M0.666504 4.036C0.666504 2.17789 2.20775 0.666626 4.07215 0.666626C5.93656 0.666626 7.45294 2.17789 7.45294 4.036V7.70266H0.666504V4.036ZM4.07215 15.259C2.18289 15.259 0.666504 13.7477 0.666504 11.8896V8.09906H7.4778V11.8896C7.4778 13.7477 5.93656 15.259 4.07215 15.259ZM2.18289 9.18915H1.78515V11.8401C1.78515 12.4346 2.08345 13.0292 2.58063 13.3761L2.80436 13.054C2.40662 12.7815 2.18289 12.3108 2.18289 11.8401V9.18915ZM11.7535 8.19816C9.83937 8.19816 8.27326 9.68465 8.17383 11.5675H15.3331C15.2337 9.68465 13.6676 8.19816 11.7535 8.19816ZM15.3331 11.9639C15.2337 13.8468 13.6676 15.3333 11.7535 15.3333C9.83937 15.3333 8.27326 13.8468 8.17383 11.9639H15.3331Z" fill="#8775B8"/>
</svg>
