<svg width="24" height="24" viewBox="0 0 24 24" fill="none" xmlns="http://www.w3.org/2000/svg">
<path fill-rule="evenodd" clip-rule="evenodd" d="M1 6.05405C1 3.26689 3.31186 1 6.10847 1C8.90509 1 11.1797 3.26689 11.1797 6.05405V11.5541H1V6.05405ZM6.10847 22.8885C3.27458 22.8885 1 20.6216 1 17.8345V12.1487H11.2169V17.8345C11.2169 20.6216 8.90509 22.8885 6.10847 22.8885ZM3.27458 13.7838H2.67797V17.7601C2.67797 18.652 3.12542 19.5439 3.87119 20.0642L4.20678 19.5811C3.61017 19.1723 3.27458 18.4662 3.27458 17.7601V13.7838ZM17.6305 12.2973C14.7593 12.2973 12.4101 14.527 12.261 17.3514H23C22.8508 14.527 20.5017 12.2973 17.6305 12.2973ZM23 17.946C22.8508 20.7703 20.5017 23 17.6305 23C14.7593 23 12.4101 20.7703 12.261 17.946H23Z" fill="#6EBAFF"/>
</svg>
