<svg width="24" height="24" viewBox="0 0 24 24" fill="none" xmlns="http://www.w3.org/2000/svg">
<path d="M16.8889 18.1111V16.8889H13.2222V13.2222H16.8889V15.6667H19.3333V18.1111H18.1111V20.5556H15.6667V23H13.2222V19.3333H15.6667V18.1111H16.8889ZM23 23H18.1111V20.5556H20.5556V18.1111H23V23ZM1 1H10.7778V10.7778H1V1ZM13.2222 1H23V10.7778H13.2222V1ZM1 13.2222H10.7778V23H1V13.2222ZM19.3333 13.2222H23V15.6667H19.3333V13.2222ZM4.66667 4.66667V7.11111H7.11111V4.66667H4.66667ZM4.66667 16.8889V19.3333H7.11111V16.8889H4.66667ZM16.8889 4.66667V7.11111H19.3333V4.66667H16.8889Z" fill="#75B3EB"/>
</svg>
