<svg width="32" height="32" viewBox="0 0 32 32" fill="none" xmlns="http://www.w3.org/2000/svg">
<path d="M26.8284 30.6666H5.17157C3.05202 30.6666 1.33331 28.9479 1.33331 26.8283V5.1715C1.33331 3.05196 3.05202 1.33325 5.17157 1.33325H26.8277C28.9479 1.33325 30.6666 3.05196 30.6666 5.1715V26.8276C30.6666 28.9479 28.9479 30.6666 26.8284 30.6666Z" fill="#FFCD73"/>
<path fill-rule="evenodd" clip-rule="evenodd" d="M15.9999 8.6665C20.1787 8.6665 20.7544 12.523 20.7544 12.523C20.7544 12.523 21.5009 15.2094 19.4756 17.1373C17.4502 19.0652 17.3648 20.625 17.3648 20.625H16.6397C16.6402 20.5613 16.661 15.5775 16.661 15.5775H18.2174V14.2346H15.9999H13.7831V15.5775H15.3395C15.3395 15.5775 15.3603 20.5613 15.3608 20.625H14.6357C14.6357 20.625 14.5509 19.0652 12.525 17.1373C10.499 15.2094 11.2455 12.523 11.2455 12.523C11.2455 12.523 11.8212 8.6665 15.9999 8.6665ZM14.6784 21.9686H17.3648V23.3332H14.6784V21.9686Z" fill="white"/>
</svg>
