<svg width="24" height="24" viewBox="0 0 24 24" fill="none" xmlns="http://www.w3.org/2000/svg">
<path d="M15.5 6V17.5C15.5 19.71 13.71 21.5 11.5 21.5C9.29 21.5 7.5 19.71 7.5 17.5V5C7.5 4.33696 7.76339 3.70107 8.23223 3.23223C8.70107 2.76339 9.33696 2.5 10 2.5C10.663 2.5 11.2989 2.76339 11.7678 3.23223C12.2366 3.70107 12.5 4.33696 12.5 5V15.5C12.5 16.05 12.05 16.5 11.5 16.5C10.95 16.5 10.5 16.05 10.5 15.5V6H9V15.5C9 16.163 9.26339 16.7989 9.73223 17.2678C10.2011 17.7366 10.837 18 11.5 18C12.163 18 12.7989 17.7366 13.2678 17.2678C13.7366 16.7989 14 16.163 14 15.5V5C14 2.79 12.21 1 10 1C7.79 1 6 2.79 6 5V17.5C6 20.54 8.46 23 11.5 23C14.54 23 17 20.54 17 17.5V6H15.5Z" fill="#75B3EB"/>
</svg>
