<svg width="20" height="22" viewBox="0 0 20 22" fill="none" xmlns="http://www.w3.org/2000/svg">
<path d="M19.0243 9.50004C19.5639 9.50004 20 9.05256 20 8.50036C20 7.94772 19.5634 7.50024 19.0243 7.50024H17.5609V4.50032H19.0243C19.5639 4.50032 20 4.05328 20 3.50064C20 2.948 19.5634 2.50052 19.0243 2.50052H17.5609V1.9998C17.5609 0.8954 16.6873 0 15.6099 0H1.95145C0.873989 0 0 0.8954 0 1.9998V19.9998C0 21.1046 0.873989 22 1.95145 22H15.6099C16.6873 22 17.5609 21.1046 17.5609 20.0002V19.5004H19.0243C19.5639 19.5004 20 19.0529 20 18.5002C20 17.9476 19.5634 17.5006 19.0243 17.5006H17.5609V14.5006H19.0243C19.5639 14.5006 20 14.0532 20 13.5005C20 12.9479 19.5634 12.5008 19.0243 12.5008H17.5609V9.50092H19.0243V9.50004ZM15.1222 2.25016C15.415 2.25016 15.6721 2.36896 15.882 2.54496C15.4502 2.64748 15.1222 3.02544 15.1222 3.5002C15.1222 3.97496 15.4502 4.35248 15.8825 4.455C15.6721 4.631 15.4146 4.7498 15.1222 4.7498C14.4479 4.7498 13.9027 4.19144 13.9027 3.49976C13.9027 2.80808 14.4474 2.25016 15.1222 2.25016ZM15.1222 7.24988C15.415 7.24988 15.6721 7.36912 15.882 7.54468C15.4502 7.6472 15.1222 8.02516 15.1222 8.49992C15.1222 8.97468 15.4502 9.35264 15.8825 9.45472C15.6721 9.63028 15.4146 9.74952 15.1222 9.74952C14.4479 9.74952 13.9027 9.19072 13.9027 8.49948C13.9027 7.80868 14.4474 7.24988 15.1222 7.24988ZM15.1222 12.25C15.415 12.25 15.6721 12.3693 15.882 12.5448C15.4502 12.6474 15.1222 13.0253 15.1222 13.4996C15.1222 13.9744 15.4502 14.3524 15.8825 14.4549C15.6721 14.6304 15.4146 14.7497 15.1222 14.7497C14.4479 14.7497 13.9027 14.1909 13.9027 13.4996C13.9027 12.8084 14.4474 12.25 15.1222 12.25ZM15.1222 19.7498C14.4479 19.7498 13.9027 19.191 13.9027 18.4998C13.9027 17.8086 14.4479 17.2498 15.1222 17.2498C15.415 17.2498 15.6721 17.369 15.882 17.5446C15.4502 17.6471 15.1222 18.025 15.1222 18.4994C15.1222 18.9741 15.4502 19.3521 15.8825 19.4546C15.6721 19.631 15.4146 19.7498 15.1222 19.7498Z" fill="#C7C7C7"/>
</svg>
