<svg width="150" height="120" viewBox="0 0 150 120" fill="none" xmlns="http://www.w3.org/2000/svg">
<path d="M8 5H142C146.142 5 149.5 8.35786 149.5 12.5V112C149.5 116.142 146.142 119.5 142 119.5H8C3.85787 119.5 0.5 116.142 0.5 112V12.5C0.5 8.35786 3.85786 5 8 5Z" fill="white" stroke="#E1E6E9"/>
<path d="M0 10.0675V26.4443H150V10.0675C150 6.8136 147.369 4.17578 144.124 4.17578H5.87629C2.63093 4.17992 0 6.81773 0 10.0675Z" fill="#B7DDFF"/>
<path d="M22.6716 19.6761C24.5915 19.6761 26.1479 18.1156 26.1479 16.1907C26.1479 14.2658 24.5915 12.7053 22.6716 12.7053C20.7517 12.7053 19.1953 14.2658 19.1953 16.1907C19.1953 18.1156 20.7517 19.6761 22.6716 19.6761Z" fill="#6EBAFF"/>
<path d="M22.6714 17.4972C21.5704 17.4972 20.6797 16.6042 20.6797 15.5003V1.99697C20.6797 0.893054 21.5704 0 22.6714 0C23.7725 0 24.6632 0.893054 24.6632 1.99697V15.5003C24.6632 16.6042 23.7725 17.4972 22.6714 17.4972Z" fill="white"/>
<path d="M43.8674 19.6761C45.7873 19.6761 47.3437 18.1156 47.3437 16.1907C47.3437 14.2658 45.7873 12.7053 43.8674 12.7053C41.9475 12.7053 40.3911 14.2658 40.3911 16.1907C40.3911 18.1156 41.9475 19.6761 43.8674 19.6761Z" fill="#6EBAFF"/>
<path d="M43.8677 17.4972C42.7667 17.4972 41.876 16.6042 41.876 15.5003V1.99697C41.876 0.893054 42.7667 0 43.8677 0C44.9688 0 45.8595 0.893054 45.8595 1.99697V15.5003C45.8595 16.6042 44.9688 17.4972 43.8677 17.4972Z" fill="white"/>
<path d="M65.0676 19.6761C66.9875 19.6761 68.5439 18.1156 68.5439 16.1907C68.5439 14.2658 66.9875 12.7053 65.0676 12.7053C63.1477 12.7053 61.5913 14.2658 61.5913 16.1907C61.5913 18.1156 63.1477 19.6761 65.0676 19.6761Z" fill="#6EBAFF"/>
<path d="M65.0679 17.4972C63.9669 17.4972 63.0762 16.6042 63.0762 15.5003V1.99697C63.0762 0.893054 63.9669 0 65.0679 0C66.169 0 67.0597 0.893054 67.0597 1.99697V15.5003C67.0597 16.6042 66.169 17.4972 65.0679 17.4972Z" fill="white"/>
<path d="M86.2673 19.6761C88.1872 19.6761 89.7436 18.1156 89.7436 16.1907C89.7436 14.2658 88.1872 12.7053 86.2673 12.7053C84.3474 12.7053 82.791 14.2658 82.791 16.1907C82.791 18.1156 84.3474 19.6761 86.2673 19.6761Z" fill="#6EBAFF"/>
<path d="M86.2671 17.4972C85.1661 17.4972 84.2754 16.6042 84.2754 15.5003V1.99697C84.2754 0.893054 85.1661 0 86.2671 0C87.3682 0 88.2589 0.893054 88.2589 1.99697V15.5003C88.2589 16.6042 87.3682 17.4972 86.2671 17.4972Z" fill="white"/>
<path d="M107.463 19.6761C109.383 19.6761 110.939 18.1156 110.939 16.1907C110.939 14.2658 109.383 12.7053 107.463 12.7053C105.543 12.7053 103.987 14.2658 103.987 16.1907C103.987 18.1156 105.543 19.6761 107.463 19.6761Z" fill="#6EBAFF"/>
<path d="M107.463 17.4972C106.362 17.4972 105.472 16.6042 105.472 15.5003V1.99697C105.472 0.893054 106.362 0 107.463 0C108.564 0 109.455 0.893054 109.455 1.99697V15.5003C109.455 16.6042 108.564 17.4972 107.463 17.4972Z" fill="white"/>
<path d="M128.663 19.6761C130.583 19.6761 132.14 18.1156 132.14 16.1907C132.14 14.2658 130.583 12.7053 128.663 12.7053C126.743 12.7053 125.187 14.2658 125.187 16.1907C125.187 18.1156 126.743 19.6761 128.663 19.6761Z" fill="#6EBAFF"/>
<path d="M128.663 17.4972C127.562 17.4972 126.671 16.6042 126.671 15.5003V1.99697C126.671 0.893054 127.562 0 128.663 0C129.764 0 130.655 0.893054 130.655 1.99697V15.5003C130.655 16.6042 129.764 17.4972 128.663 17.4972Z" fill="white"/>
<path d="M61.6627 38.5129H41.9844V58.2428H61.6627V38.5129Z" fill="#6EBAFF"/>
<path d="M87.84 38.5129H68.1616V58.2428H87.84V38.5129Z" fill="#E1E6E9"/>
<path d="M114.021 38.5129H94.3428V58.2428H114.021V38.5129Z" fill="#6EBAFF"/>
<path d="M140.203 38.5129H120.524V58.2428H140.203V38.5129Z" fill="#6EBAFF"/>
<path d="M35.4811 38.5129H15.8027V58.2428H35.4811V38.5129Z" fill="#6EBAFF"/>
<path d="M61.6627 63.5557H41.9844V83.2855H61.6627V63.5557Z" fill="#6EBAFF"/>
<path d="M87.84 63.5557H68.1616V83.2855H87.84V63.5557Z" fill="#6EBAFF"/>
<path d="M114.021 63.5557H94.3428V83.2855H114.021V63.5557Z" fill="#E1E6E9"/>
<path d="M140.203 63.5557H120.524V83.2855H140.203V63.5557Z" fill="#6EBAFF"/>
<path d="M35.4811 63.5557H15.8027V83.2855H35.4811V63.5557Z" fill="#6EBAFF"/>
<path d="M61.6627 88.5981H41.9844V108.328H61.6627V88.5981Z" fill="#E1E6E9"/>
<path d="M87.84 88.5981H68.1616V108.328H87.84V88.5981Z" fill="#6EBAFF"/>
<path d="M114.021 88.5981H94.3428V108.328H114.021V88.5981Z" fill="#6EBAFF"/>
<path d="M140.203 88.5981H120.524V108.328H140.203V88.5981Z" fill="#6EBAFF"/>
<path d="M35.4811 88.5981H15.8027V108.328H35.4811V88.5981Z" fill="#6EBAFF"/>
</svg>
