<svg width="24" height="24" viewBox="0 0 24 24" fill="none" xmlns="http://www.w3.org/2000/svg">
<path d="M5.40012 7.71435C6.20998 7.71435 6.9012 7.43543 7.47399 6.87737C8.04697 6.31935 8.33349 5.64589 8.33349 4.85723C8.33349 4.06865 8.04697 3.39519 7.47399 2.83709C6.9012 2.27907 6.20994 2 5.40012 2C4.59035 2 3.89909 2.27907 3.32618 2.83709C2.75331 3.39519 2.4668 4.0685 2.4668 4.85723C2.4668 5.64605 2.75331 6.31935 3.32618 6.87737C3.89909 7.43528 4.59035 7.71435 5.40012 7.71435Z" fill="#75B3EB"/>
<path d="M8.88919 12.1734C9.74857 13.0102 10.7854 13.4288 12.0002 13.4288C13.215 13.4288 14.2518 13.0102 15.1111 12.1734C15.9704 11.3361 16.4001 10.326 16.4001 9.14307C16.4001 7.96002 15.9704 6.95003 15.1111 6.11294C14.2518 5.27585 13.215 4.8573 12.0002 4.8573C10.7854 4.8573 9.74849 5.27592 8.88919 6.11294C8.02989 6.94991 7.6001 7.95991 7.6001 9.14307C7.6001 10.3262 8.02989 11.3362 8.88919 12.1734Z" fill="#75B3EB"/>
<path d="M18.6004 7.71435C19.4099 7.71435 20.1013 7.43543 20.6741 6.87737C21.247 6.31935 21.5334 5.64589 21.5334 4.85723C21.5334 4.06865 21.247 3.39519 20.6741 2.83709C20.1013 2.27907 19.4099 2 18.6004 2C17.7903 2 17.0991 2.27907 16.5262 2.83709C15.9535 3.39519 15.667 4.0685 15.667 4.85723C15.667 5.64605 15.9535 6.31935 16.5262 6.87737C17.0991 7.43528 17.7903 7.71435 18.6004 7.71435Z" fill="#75B3EB"/>
<path d="M21.5791 7.71448C21.5335 7.71448 21.3673 7.79262 21.0808 7.94887C20.7946 8.10519 20.422 8.26331 19.9638 8.42331C19.5056 8.58316 19.0509 8.66318 18.6004 8.66318C18.0883 8.66318 17.5807 8.57768 17.0764 8.40647C17.1143 8.68163 17.1335 8.92723 17.1335 9.14302C17.1335 10.1772 16.8241 11.1296 16.2051 12.0001C17.4428 12.0375 18.4548 12.5136 19.2419 13.429H20.7773C21.4035 13.429 21.9307 13.278 22.3584 12.9767C22.7861 12.6756 23.0001 12.2345 23.0001 11.6543C23.0002 9.02758 22.5268 7.71432 21.5791 7.71448Z" fill="#75B3EB"/>
<path d="M19.8669 16.7378C19.7867 16.3025 19.6853 15.8987 19.5631 15.5268C19.4408 15.1546 19.2766 14.7922 19.0706 14.4387C18.8643 14.0855 18.6274 13.784 18.36 13.5346C18.0924 13.2853 17.7658 13.0865 17.3802 12.9375C16.9945 12.7887 16.5685 12.7144 16.1026 12.7144C16.0261 12.7144 15.8619 12.7944 15.6098 12.9544C15.3577 13.1142 15.0791 13.2931 14.7734 13.49C14.4678 13.6869 14.0595 13.8656 13.5473 14.0256C13.0351 14.1856 12.5196 14.2656 12.0004 14.2656C11.481 14.2656 10.9653 14.1856 10.4535 14.0256C9.94156 13.8656 9.53299 13.6869 9.22742 13.49C8.92176 13.2931 8.64303 13.1142 8.39099 12.9544C8.13883 12.7944 7.97469 12.7144 7.89819 12.7144C7.43228 12.7144 7.00642 12.7887 6.62062 12.9375C6.23482 13.0865 5.90829 13.2853 5.64096 13.5346C5.37339 13.7837 5.1368 14.0855 4.93039 14.4387C4.72423 14.7922 4.56 15.1546 4.43775 15.5268C4.31555 15.8987 4.21445 16.3025 4.1341 16.7378C4.05383 17.1731 4.00042 17.5784 3.97369 17.9543C3.94692 18.3301 3.93359 18.7153 3.93359 19.1096C3.93359 20.0023 4.21232 20.7074 4.76994 21.2244C5.32776 21.7413 6.06878 22 6.9929 22H17.0076C17.9318 22 18.6728 21.7413 19.2307 21.2244C19.7883 20.7074 20.0671 20.0023 20.0671 19.1096C20.0671 18.7153 20.0537 18.3302 20.0273 17.9543C20.0002 17.5784 19.9468 17.1731 19.8669 16.7378Z" fill="#75B3EB"/>
<path d="M7.79474 12.0001C7.17596 11.1296 6.86665 10.1772 6.86677 9.14302C6.86677 8.92723 6.88592 8.68178 6.92404 8.40646C6.4198 8.57757 5.91183 8.66317 5.40001 8.66317C4.94931 8.66317 4.49492 8.58319 4.03651 8.42331C3.5783 8.26331 3.20578 8.10519 2.91943 7.94887C2.63296 7.79262 2.46668 7.71448 2.42089 7.71448C1.47362 7.71452 1 9.02778 1 11.6543C1 12.2345 1.21391 12.6756 1.64162 12.9767C2.06944 13.278 2.59656 13.4287 3.22276 13.4287H4.75827C5.54517 12.5136 6.55718 12.0374 7.79474 12.0001Z" fill="#75B3EB"/>
</svg>
