<svg width="22" height="22" viewBox="0 0 22 22" fill="none" xmlns="http://www.w3.org/2000/svg">
<path d="M18.3333 22H11C10.0276 22 9.09492 21.6137 8.40728 20.926C7.71964 20.2384 7.33333 19.3057 7.33333 18.3333V14.6667H3.25967C2.39545 14.6657 1.5669 14.322 0.955802 13.7109C0.344716 13.0998 0.000965556 12.2712 0 11.407V3.25967C0.000965556 2.39545 0.344716 1.5669 0.955802 0.955802C1.5669 0.344716 2.39545 0.000965556 3.25967 0H11.407C12.2712 0.000965556 13.0998 0.344716 13.7109 0.955802C14.322 1.5669 14.6657 2.39545 14.6667 3.25967V7.33333H18.3333C19.3057 7.33333 20.2384 7.71964 20.926 8.40728C21.6137 9.09492 22 10.0276 22 11V18.3333C22 19.3057 21.6137 20.2384 20.926 20.926C20.2384 21.6137 19.3057 22 18.3333 22ZM3.25967 2.44444C3.04355 2.44476 2.83639 2.53076 2.68357 2.68357C2.53076 2.83639 2.44476 3.04355 2.44444 3.25967V11.407C2.44476 11.6231 2.53076 11.8303 2.68357 11.983C2.83639 12.1359 3.04355 12.2219 3.25967 12.2222H7.33333V11C7.33333 10.0276 7.71964 9.09492 8.40728 8.40728C9.09492 7.71964 10.0276 7.33333 11 7.33333H12.2222V3.25967C12.2219 3.04355 12.1359 2.83639 11.983 2.68357C11.8303 2.53076 11.6231 2.44476 11.407 2.44444H3.25967Z" fill="#3B8AD2"/>
</svg>
