<svg width="16" height="16" viewBox="0 0 16 16" fill="none" xmlns="http://www.w3.org/2000/svg">
<path d="M14.7208 2.54461H11.666V1.9401C11.6663 1.86033 11.6507 1.7813 11.6201 1.70754C11.5894 1.63379 11.5444 1.56678 11.4875 1.51037C11.4306 1.45397 11.363 1.40928 11.2887 1.3789C11.2143 1.34851 11.1346 1.33302 11.0541 1.33332H4.94456C4.86412 1.33302 4.78442 1.34851 4.71004 1.3789C4.63567 1.40928 4.5681 1.45397 4.51122 1.51037C4.45434 1.56678 4.40928 1.63379 4.37864 1.70754C4.348 1.7813 4.33238 1.86033 4.33268 1.9401V2.54461H1.27789C1.11561 2.54461 0.959978 2.60854 0.84523 2.72234C0.730481 2.83613 0.666016 2.99047 0.666016 3.1514C0.666016 3.31233 0.730481 3.46666 0.84523 3.58046C0.959978 3.69425 1.11561 3.75818 1.27789 3.75818H2.49935V12.8486C2.49935 13.3308 2.6925 13.7932 3.03632 14.1341C3.38014 14.4751 3.84645 14.6666 4.33268 14.6666H11.666C12.1522 14.6666 12.6186 14.4751 12.9624 14.1341C13.3062 13.7932 13.4993 13.3308 13.4993 12.8486V3.75818H14.7208C14.8831 3.75818 15.0387 3.69425 15.1535 3.58046C15.2682 3.46666 15.3327 3.31233 15.3327 3.1514C15.3327 2.99047 15.2682 2.83613 15.1535 2.72234C15.0387 2.60854 14.8831 2.54461 14.7208 2.54461ZM12.2779 12.8486C12.2773 13.0091 12.2126 13.1629 12.0979 13.2762C11.9832 13.3895 11.8279 13.4531 11.666 13.4531H4.33268C4.1708 13.4531 4.01551 13.3895 3.90083 13.2762C3.78615 13.1629 3.72141 13.0091 3.72081 12.8486V3.75818H12.2779V12.8486Z" fill="#2B3A42"/>
<path d="M6.16656 11.635C6.32845 11.635 6.48373 11.5714 6.59842 11.4581C6.7131 11.3448 6.77783 11.191 6.77844 11.0305V6.18078C6.77844 6.01985 6.71397 5.86551 6.59922 5.75172C6.48447 5.63792 6.32884 5.574 6.16656 5.574C6.00428 5.574 5.84865 5.63792 5.7339 5.75172C5.61915 5.86551 5.55469 6.01985 5.55469 6.18078V11.0305C5.55529 11.191 5.62003 11.3448 5.73471 11.4581C5.84939 11.5714 6.00468 11.635 6.16656 11.635Z" fill="#2B3A42"/>
<path d="M9.83258 11.635C9.99446 11.635 10.1497 11.5714 10.2644 11.4581C10.3791 11.3448 10.4438 11.191 10.4445 11.0305V6.18078C10.4445 6.01985 10.38 5.86551 10.2652 5.75172C10.1505 5.63792 9.99486 5.574 9.83258 5.574C9.6703 5.574 9.51467 5.63792 9.39992 5.75172C9.28517 5.86551 9.2207 6.01985 9.2207 6.18078V11.0305C9.22131 11.191 9.28604 11.3448 9.40072 11.4581C9.51541 11.5714 9.67069 11.635 9.83258 11.635Z" fill="#2B3A42"/>
</svg>
