<svg width="107" height="110" viewBox="0 0 107 110" fill="none" xmlns="http://www.w3.org/2000/svg">
<path opacity="0.6" d="M25.4703 70.9696C30.5851 66.5339 31.1029 58.8291 26.6268 53.7604C22.1508 48.6917 14.3759 48.1786 9.26109 52.6143C4.14633 57.0501 3.62856 64.7549 8.10462 69.8236C12.5807 74.8923 20.3556 75.4054 25.4703 70.9696Z" fill="#5D44DA"/>
<path opacity="0.6" d="M46.1471 50.88C51.456 46.6741 52.3192 38.9998 48.0751 33.7388C43.831 28.4777 36.0869 27.6224 30.778 31.8282C25.4692 36.034 24.606 43.7084 28.8501 48.9694C33.0941 54.2304 40.8383 55.0858 46.1471 50.88Z" fill="#C9E7F4"/>
<path opacity="0.6" d="M76.0695 54.4157C81.1842 49.98 81.702 42.2751 77.2259 37.2064C72.7499 32.1378 64.975 31.6247 59.8602 36.0604C54.7455 40.4961 54.2277 48.201 58.7037 53.2696C63.1798 58.3383 70.9547 58.8514 76.0695 54.4157Z" fill="#5D44DA"/>
<rect width="53.0474" height="52.3802" rx="8" transform="matrix(0.997581 0.0695151 -0.0707786 0.997492 23.1113 17.0557)" fill="#5D45F0"/>
<path opacity="0.6" d="M31.2584 22.6725C31.7657 15.9558 26.6824 10.1033 19.9046 9.60059C13.1268 9.09792 7.22111 14.1354 6.71386 20.8521C6.20661 27.5689 11.2899 33.4214 18.0677 33.924C24.8455 34.4267 30.7512 29.3892 31.2584 22.6725Z" fill="#5D44DA"/>
<path opacity="0.6" d="M65.133 26.4013C70.2572 21.9762 70.7912 14.2724 66.3259 9.19445C61.8605 4.11649 54.0867 3.58725 48.9626 8.01235C43.8385 12.4375 43.3044 20.1412 47.7698 25.2192C52.2351 30.2971 60.0089 30.8264 65.133 26.4013Z" fill="#5D44DA"/>
<path d="M64.2043 73.1331L27.0983 70.3867C22.392 70.0398 18.8476 65.9589 19.1977 61.295L21.969 24.5233C22.319 19.8594 26.4371 16.347 31.1434 16.6939L68.2494 19.4402C72.9557 19.7871 76.5 23.8681 76.15 28.532L73.3787 65.3037C73.0286 69.9676 68.9106 73.48 64.2043 73.1331ZM31.0364 18.1297C27.1323 17.8406 23.7144 20.7556 23.4227 24.6245L20.6514 61.3962C20.3597 65.2651 23.3011 68.6522 27.2052 68.9413L64.3113 71.6876C68.2154 71.9767 71.6333 69.0618 71.925 65.1928L74.6963 28.4211C74.988 24.5522 72.0465 21.1651 68.1424 20.876L31.0364 18.1297Z" fill="#C9E7F4"/>
<path d="M24.0101 83.1709C24.0484 83.8373 24.184 84.5113 24.4522 85.1737C24.8973 86.2683 25.7867 87.1395 26.8879 87.6037C29.363 88.6481 32.0113 88.9103 34.8328 88.3794C36.7781 88.0155 38.6151 87.0575 40.8386 86.0653C41.5228 85.761 42.3079 85.7563 42.9958 86.053L57.0161 92.0941C57.9902 92.5125 58.7252 93.3434 58.9997 94.3548C59.9643 97.9004 61.2298 101.043 62.7504 103.842C63.0915 104.469 63.4459 105.078 63.8125 105.671C63.8545 105.74 63.8969 105.809 63.9393 105.877C64.8497 107.331 66.2125 108.466 67.8266 109.085C73.5034 111.263 77.8166 109.689 80.2262 102.88C80.2262 102.88 83.1176 92.8877 84.4871 86.1768C84.6083 85.5805 84.7071 85.0234 84.7885 84.5026C84.8633 83.9985 84.9233 83.5293 84.9664 83.0928C85.2652 80.1105 83.6946 77.2503 81.0036 75.8535L76.3565 73.4389C74.6275 72.5426 72.6052 72.3748 70.7483 72.974L67.7754 73.9371C66.9752 74.1943 66.1079 74.1503 65.3386 73.8089L56.3105 69.8142C55.7509 69.5658 55.2981 69.1321 55.0324 68.5885L52.6704 63.7592C52.3156 63.0307 51.7081 62.4529 50.9579 62.1268L46.7796 60.3102C44.0568 59.127 40.874 59.6275 38.6788 61.6089C38.0731 62.1562 37.4243 62.8229 36.7354 63.6306C32.2154 68.9506 26.6097 76.102 26.6097 76.102C26.6097 76.102 23.8115 79.5099 24.0101 83.1709Z" fill="#CFCDE0"/>
<g opacity="0.3">
<path d="M63.812 105.671C63.854 105.74 63.8964 105.809 63.9388 105.877C64.8492 107.331 66.212 108.466 67.8261 109.085C73.5029 111.263 77.8161 109.689 80.2257 102.88C80.2257 102.88 83.1171 92.8877 84.4866 86.1768C84.6078 85.5805 84.7065 85.0234 84.788 84.5026C84.7062 83.9415 84.6446 83.5519 84.6148 83.4836C84.5201 83.2566 84.1277 81.4067 81.6847 80.1382C79.9066 92.0005 77.1268 100.666 73.3478 106.139C73.3478 106.139 69.1521 109.985 64.0493 105.857C63.969 105.793 63.8898 105.73 63.8124 105.67L63.812 105.671Z" fill="#000073"/>
</g>
<g opacity="0.3">
<path d="M38.923 81.7996C38.923 81.7996 39.8213 81.236 41.5407 81.9147C41.4796 81.2807 41.5787 80.6135 41.869 79.9787C42.7083 78.144 44.7944 77.2815 46.5286 78.0521C48.2628 78.8228 48.9882 80.9349 48.1489 82.77C47.87 83.3797 47.4515 83.8791 46.956 84.2495L52.8973 86.8181C52.8015 86.1376 52.8962 85.4109 53.2108 84.7234C54.0501 82.8887 56.1362 82.0262 57.8704 82.7969C59.6046 83.5675 60.33 85.6796 59.4908 87.5147C59.1864 88.18 58.7167 88.7157 58.1603 89.0937L58.8088 89.3741C60.1948 89.974 61.2478 91.1358 61.6947 92.5623C62.1133 93.89 62.6714 95.7044 63.2687 97.7148C64.4882 101.83 67.5141 106.952 69.5022 107.851C69.5022 107.851 65.4973 108.791 63.0774 104.327C62.9923 104.168 62.8807 104.006 62.7495 103.841C61.2294 101.042 59.9638 97.9004 58.9989 94.3545C58.7248 93.3431 57.9898 92.5122 57.0153 92.0938L42.9949 86.0526C42.3071 85.7559 41.522 85.7606 40.8378 86.0649C38.6143 87.0575 36.7773 88.0151 34.832 88.379C32.0105 88.91 29.3622 88.6481 26.8871 87.6033C25.7862 87.1392 24.8965 86.268 24.4514 85.1734C24.1828 84.511 24.0476 83.8369 24.0093 83.1705C24.0719 82.8688 24.1124 82.6774 24.1124 82.6774C28.1121 85.9789 32.9036 86.2494 38.9223 81.7989L38.923 81.7996Z" fill="#000073"/>
</g>
<path d="M52.8392 63.8587L53.2772 62.5626C53.5263 61.825 53.1638 61.022 52.4409 60.7112L48.3406 58.8325C47.8598 58.6121 47.2906 58.7105 46.9144 59.0791L46.0044 59.9703" fill="#4A4A9E"/>
<g opacity="0.55">
<path d="M46.0044 59.97L46.102 60.0244L46.4296 59.703C46.8061 59.3348 47.3735 59.2375 47.8561 59.4568L51.9564 61.3373C52.6782 61.6463 53.0403 62.45 52.7924 63.1876L52.6093 63.728L52.8399 63.8583L53.2776 62.5637C53.5274 61.8264 53.1652 61.0228 52.442 60.7115L48.3414 58.8329C47.8613 58.6121 47.2913 58.7109 46.9148 59.0791L46.0048 59.97H46.0044Z" fill="white"/>
</g>
<g opacity="0.55">
<path d="M39.4257 61.0177C41.3997 60.0408 43.7536 59.9594 45.8397 60.8648L50.0181 62.6813C50.7682 63.0074 51.3761 63.5852 51.7306 64.3137L54.0926 69.1431C54.3582 69.6867 54.8103 70.1221 55.3707 70.3687L64.398 74.3653C65.1658 74.7042 66.0353 74.7488 66.8352 74.4917L69.808 73.5286C71.6649 72.9294 73.6873 73.0972 75.416 73.9953L80.0634 76.4081C80.4789 76.6231 80.8669 76.8737 81.2246 77.1533C81.2246 77.1533 81.2368 77.1624 81.2589 77.1802C81.5938 77.4362 84.2874 79.5738 84.7623 82.2659C84.808 82.5314 84.8821 82.7754 84.9727 83.0013C85.2321 80.0517 83.6666 77.2358 81.0029 75.8539L76.3558 73.4393C74.6268 72.543 72.6044 72.3752 70.7475 72.9744L67.7747 73.9375C66.9744 74.1946 66.1071 74.1507 65.3379 73.8093L56.3098 69.8145C55.7502 69.5661 55.2973 69.1325 55.0317 68.5889L52.6697 63.7595C52.3149 63.031 51.7073 62.4533 50.9572 62.1271L46.7788 60.3106C44.3516 59.2556 41.5581 59.5392 39.4253 61.0177H39.4257Z" fill="white"/>
</g>
<path d="M59.5991 71.2011L61.0559 68.9419C61.4111 68.391 62.1199 68.176 62.7278 68.4353L63.8707 68.9226C64.6334 69.2477 64.9189 70.169 64.4702 70.8583C63.8821 71.7615 63.2127 72.8005 63.2348 72.8103" fill="#4A4A9E"/>
<g opacity="0.55">
<path d="M59.6001 71.2011L59.6296 71.2145L60.575 69.7488C60.9305 69.1965 61.6394 68.9815 62.2473 69.2422L63.3898 69.7288C64.0563 70.0121 64.3566 70.7515 64.1252 71.3914C64.2387 71.2142 64.3547 71.0333 64.4697 70.8586C64.9199 70.169 64.6329 69.248 63.8702 68.9226L62.7277 68.436C62.1194 68.1756 61.4109 68.3902 61.0554 68.9426L59.6005 71.2011H59.6001Z" fill="white"/>
</g>
<path d="M82.5383 76.7942L82.6861 75.4603C82.7502 74.8825 82.4532 74.3239 81.9345 74.0468L77.3936 71.622C76.9002 71.3584 76.2967 71.399 75.8439 71.7259L74.4575 72.7271" fill="#4A4A9E"/>
<g opacity="0.55">
<path d="M74.459 72.7264L74.7917 72.8942L75.4442 72.4235C75.897 72.0963 76.4997 72.0549 76.9934 72.3193L81.5343 74.7441C82.0516 75.0208 82.349 75.5783 82.286 76.1568L82.2329 76.6398L82.5383 76.7927L82.6868 75.4588C82.7513 74.8828 82.4525 74.3228 81.9352 74.0461L77.3943 71.6213C76.9002 71.3583 76.2978 71.3983 75.845 71.7255L74.4593 72.726L74.459 72.7264Z" fill="white"/>
</g>
<path d="M74.7082 77.8444C75.6624 78.237 75.9774 79.333 75.4159 80.2925C74.8534 81.2538 73.6272 81.7132 72.673 81.3206C71.7206 80.9288 71.4026 79.8338 71.9652 78.8725C72.5271 77.9131 73.7558 77.4526 74.7082 77.8444Z" fill="#E9F400"/>
<g opacity="0.3">
<path d="M72.7788 81.326C73.7327 81.719 74.9606 81.2567 75.521 80.2976C75.6308 80.1091 75.7075 79.9148 75.7502 79.722C75.1231 80.4247 74.0989 80.7199 73.2773 80.3822C72.5102 80.0659 72.158 79.2952 72.3404 78.5068C72.2394 78.6201 72.148 78.744 72.0707 78.8772C71.5099 79.8385 71.8268 80.9338 72.7788 81.3264V81.326Z" fill="#000073"/>
</g>
<g opacity="0.3">
<path d="M71.7726 82.2347C72.6734 82.7348 73.9478 82.4166 74.6176 81.5284C74.7491 81.354 74.8479 81.1695 74.9135 80.9829C74.2075 81.6086 73.1553 81.784 72.3794 81.354C71.6547 80.9517 71.396 80.1458 71.6709 79.3839C71.557 79.4848 71.4517 79.5971 71.3592 79.7205C70.6887 80.6106 70.8736 81.735 71.7726 82.2343V82.2347Z" fill="#000073"/>
</g>
<g opacity="0.55">
<path d="M72.9458 77.9944C73.3201 77.9265 73.7022 77.9563 74.0496 78.0994C75.0035 78.4923 75.3207 79.5858 74.7578 80.5482C74.5713 80.8659 74.3119 81.131 74.0128 81.3253C74.6675 81.2091 75.2935 80.8009 75.6516 80.1901C76.2142 79.2295 75.8995 78.1346 74.9449 77.7435C74.3086 77.4802 73.546 77.5982 72.9458 77.9944Z" fill="white"/>
</g>
<path d="M73.4122 81.8581C73.1079 81.8581 72.805 81.8022 72.5188 81.6845C71.9775 81.4619 71.5785 81.0442 71.3947 80.5089C71.1954 79.9272 71.2768 79.2589 71.6183 78.6753C72.2763 77.5514 73.7309 77.015 74.862 77.4805C75.4032 77.7032 75.8026 78.1208 75.9861 78.6561C76.1858 79.2379 76.104 79.9065 75.7621 80.4901C75.2595 81.3489 74.3303 81.8585 73.4122 81.8585V81.8581ZM73.9741 78.0972C73.3341 78.0972 72.6654 78.4654 72.3117 79.0697C72.0847 79.4572 72.0269 79.8898 72.1529 80.2566C72.2616 80.574 72.5011 80.8227 72.8271 80.9567C73.5994 81.2741 74.6052 80.8885 75.069 80.0953C75.296 79.7082 75.3538 79.2753 75.2278 78.9085C75.1192 78.5911 74.8797 78.3427 74.5536 78.2087C74.3701 78.1331 74.1734 78.0976 73.9741 78.0976V78.0972Z" fill="#000073"/>
<path d="M70.4367 85.1407C71.3909 85.5333 71.7071 86.6275 71.1445 87.5888C70.5826 88.5483 69.3557 89.0095 68.4015 88.6169C67.4491 88.225 67.1322 87.1283 67.6937 86.1688C68.2563 85.2075 69.4843 84.7489 70.4367 85.1407Z" fill="#12ED00"/>
<g opacity="0.3">
<path d="M68.401 88.6169C69.3548 89.0098 70.5828 88.5475 71.1432 87.5884C71.253 87.3999 71.3296 87.2056 71.3727 87.0128C70.7457 87.7155 69.7214 88.0108 68.8998 87.673C68.1328 87.3567 67.7805 86.5861 67.9629 85.7977C67.862 85.911 67.7706 86.0348 67.6932 86.1681C67.1325 87.1294 67.4493 88.2247 68.4013 88.6173L68.401 88.6169Z" fill="#000073"/>
</g>
<g opacity="0.3">
<path d="M67.3956 89.5255C68.2964 90.0256 69.5709 89.7075 70.2407 88.8192C70.3722 88.6449 70.4709 88.4604 70.5365 88.2741C69.8306 88.8998 68.7784 89.0752 68.0024 88.6452C67.2777 88.2428 67.0191 87.437 67.2939 86.6751C67.1801 86.776 67.0747 86.8882 66.9822 87.0117C66.3117 87.9018 66.4967 89.0262 67.3956 89.5255Z" fill="#000073"/>
</g>
<g opacity="0.55">
<path d="M68.5688 85.2852C68.9432 85.2173 69.3252 85.2471 69.6727 85.3902C70.6265 85.7831 70.9438 86.8766 70.3808 87.839C70.1944 88.1568 69.935 88.4219 69.6358 88.6162C70.2905 88.4999 70.9165 88.0917 71.2746 87.4809C71.8372 86.5203 71.5226 85.4254 70.568 85.0343C69.9317 84.771 69.169 84.889 68.5688 85.2852Z" fill="white"/>
</g>
<path d="M69.1195 89.1486C68.8203 89.1486 68.5245 89.0948 68.2478 88.9808C67.7069 88.7582 67.3083 88.3409 67.1245 87.8056C66.9248 87.2234 67.0062 86.5552 67.3474 85.9716C68.0057 84.8473 69.461 84.3116 70.591 84.7768C71.1326 84.9998 71.532 85.4171 71.7155 85.952C71.9148 86.5334 71.833 87.202 71.4911 87.786C70.9941 88.635 70.0421 89.1486 69.1191 89.1486H69.1195ZM69.7031 85.3935C69.0631 85.3935 68.3944 85.7617 68.0407 86.366C67.8142 86.7528 67.7567 87.1857 67.8823 87.5528C67.9914 87.8702 68.2305 88.119 68.5558 88.2526C69.3288 88.5708 70.3339 88.184 70.7977 87.3916C71.0247 87.0037 71.0829 86.5712 70.9573 86.2044C70.8486 85.8874 70.6091 85.639 70.2827 85.5046C70.0992 85.4291 69.9024 85.3935 69.7031 85.3935Z" fill="#000073"/>
<path d="M68.9527 80.0031C69.9051 80.3949 70.222 81.4916 69.6605 82.4511C69.0986 83.4106 67.8699 83.8711 66.9175 83.4792C65.9633 83.0867 65.6483 81.9906 66.2098 81.0312C66.7716 80.0717 67.9985 79.6105 68.9527 80.0031Z" fill="#FF1D1D"/>
<g opacity="0.3">
<path d="M66.9604 83.4106C67.9143 83.8035 69.1423 83.3412 69.7027 82.3821C69.8125 82.1936 69.8891 81.9993 69.9318 81.8065C69.3048 82.5092 68.2805 82.8045 67.4589 82.4667C66.6918 82.1504 66.3396 81.3798 66.522 80.5914C66.421 80.7047 66.3297 80.8285 66.2523 80.9618C65.6915 81.9231 66.0084 83.0184 66.9604 83.411V83.4106Z" fill="#000073"/>
</g>
<g opacity="0.3">
<path d="M65.9542 84.3192C66.855 84.8193 68.1294 84.5012 68.7992 83.6129C68.9308 83.4386 69.0295 83.2541 69.0951 83.0674C68.3892 83.6931 67.3369 83.8686 66.561 83.4386C65.8363 83.0362 65.5777 82.2303 65.8525 81.4684C65.7387 81.5694 65.6333 81.6816 65.5408 81.8051C64.8703 82.6952 65.0552 83.8195 65.9542 84.3189V84.3192Z" fill="#000073"/>
</g>
<g opacity="0.55">
<path d="M67.1274 80.0789C67.5018 80.011 67.8838 80.0408 68.2313 80.1839C69.1851 80.5768 69.5024 81.6703 68.9394 82.6327C68.753 82.9505 68.4936 83.2156 68.1944 83.4099C68.8491 83.2936 69.4751 82.8855 69.8332 82.2746C70.3958 81.3141 70.0812 80.2191 69.1266 79.828C68.4903 79.5647 67.7276 79.6827 67.1274 80.0789Z" fill="white"/>
</g>
<path d="M67.6354 84.0109C67.3362 84.0109 67.0404 83.9572 66.7637 83.8431C66.2224 83.6205 65.8234 83.2029 65.64 82.6679C65.4403 82.0862 65.5221 81.4176 65.8636 80.834C66.522 79.71 67.9762 79.1736 69.1073 79.6392C69.6481 79.8618 70.0471 80.2791 70.2306 80.8147C70.4303 81.3969 70.3489 82.0655 70.0077 82.6487C69.5103 83.4978 68.5587 84.0113 67.6358 84.0113L67.6354 84.0109ZM68.2193 80.2558C67.5794 80.2558 66.9107 80.6241 66.5566 81.2284C66.33 81.6155 66.2722 82.0484 66.3982 82.4155C66.5069 82.7326 66.7464 82.9814 67.0721 83.1154C67.845 83.4331 68.8501 83.0467 69.3143 82.2539C69.5409 81.8672 69.5984 81.4343 69.4724 81.0671C69.3637 80.7497 69.1242 80.501 68.7989 80.367C68.6154 80.2914 68.4187 80.2558 68.2193 80.2558Z" fill="#000073"/>
<path d="M76.194 82.9832C77.1464 83.375 77.4633 84.4718 76.9018 85.4312C76.3399 86.3907 75.1112 86.8512 74.1588 86.4593C73.2064 86.0675 72.8896 84.9707 73.451 84.0113C74.0129 83.0518 75.2416 82.5913 76.194 82.9832Z" fill="#1595FF"/>
<g opacity="0.3">
<path d="M74.1173 86.4368C75.0712 86.8297 76.2991 86.3674 76.8595 85.4083C76.9693 85.2199 77.046 85.0256 77.0891 84.8327C76.462 85.5354 75.4377 85.8307 74.6161 85.4929C73.8491 85.1766 73.4968 84.406 73.6792 83.6176C73.5783 83.7309 73.4869 83.8547 73.4095 83.988C72.8488 84.9493 73.1656 86.0446 74.1177 86.4372L74.1173 86.4368Z" fill="#000073"/>
</g>
<g opacity="0.3">
<path d="M73.1114 87.3454C74.0123 87.8455 75.2867 87.5274 75.9565 86.6391C76.088 86.4648 76.1867 86.2803 76.2523 86.0936C75.5464 86.7194 74.4942 86.8948 73.7183 86.4648C72.9935 86.0624 72.7349 85.2565 73.0098 84.4946C72.8959 84.5956 72.7905 84.7078 72.6981 84.8313C72.0275 85.7214 72.2125 86.8457 73.1114 87.3451V87.3454Z" fill="#000073"/>
</g>
<g opacity="0.55">
<path d="M74.2852 83.1052C74.6595 83.0373 75.0416 83.0671 75.389 83.2101C76.3429 83.6031 76.6601 84.6966 76.0971 85.6589C75.9107 85.9767 75.6513 86.2418 75.3521 86.4361C76.0068 86.3199 76.6328 85.9117 76.9909 85.3009C77.5535 84.3403 77.2389 83.2454 76.2843 82.8542C75.648 82.5909 74.8853 82.709 74.2852 83.1052Z" fill="white"/>
</g>
<path d="M74.8759 86.991C74.5767 86.991 74.2808 86.9373 74.0042 86.8232C73.4633 86.6006 73.0643 86.1833 72.8808 85.6477C72.6811 85.0655 72.7625 84.3969 73.1037 83.8137C73.7621 82.6897 75.2174 82.1537 76.3474 82.6189C76.8882 82.8415 77.2869 83.2588 77.4707 83.7945C77.6704 84.3766 77.589 85.0448 77.2478 85.6281C76.7504 86.4771 75.7988 86.9907 74.8759 86.9907V86.991ZM75.4598 83.2359C74.8199 83.2359 74.1512 83.6042 73.7971 84.2085C73.5705 84.5952 73.513 85.0281 73.639 85.3953C73.7477 85.7127 73.9872 85.9615 74.3125 86.0955C75.0848 86.4129 76.0902 86.0272 76.5548 85.234C76.781 84.8473 76.8389 84.4147 76.7129 84.0472C76.6042 83.7298 76.3651 83.4811 76.0394 83.3471C75.8559 83.2715 75.6591 83.2359 75.4598 83.2359Z" fill="#000073"/>
<path d="M58.7688 76.9529L61.1703 77.9592C61.3516 78.0351 61.5616 77.9733 61.671 77.8121L62.0936 77.1889C62.2362 76.9786 62.1496 76.6921 61.9134 76.593L59.512 75.5866C59.3307 75.5107 59.1207 75.5725 59.0113 75.7337L58.5887 76.3569C58.4461 76.5672 58.5327 76.8537 58.7688 76.9529Z" fill="#000073"/>
<path d="M54.2395 75.0187L56.641 76.025C56.8223 76.1009 57.0323 76.0392 57.1417 75.8779L57.5643 75.2547C57.7069 75.0444 57.6203 74.7579 57.3841 74.6588L54.9827 73.6524C54.8014 73.5765 54.5914 73.6383 54.482 73.7995L54.0594 74.4227C53.9168 74.633 54.0034 74.9195 54.2395 75.0187Z" fill="#000073"/>
<path d="M63.0076 73.3067L62.7048 72.9646C62.6495 72.7813 63.083 71.9812 64.0053 70.5641C64.1313 70.3706 64.1645 70.1334 64.0967 69.9133C64.0285 69.6929 63.8664 69.5142 63.6516 69.4227L62.5088 68.9353C62.1481 68.7817 61.7332 68.907 61.5225 69.2342L60.0657 71.4935L59.1328 70.9091L60.5896 68.6499C61.0936 67.8684 62.0851 67.568 62.9476 67.9356L64.0904 68.4229C64.6033 68.6415 64.9909 69.069 65.1537 69.5956C65.3166 70.1222 65.2374 70.6894 64.936 71.1528C63.9151 72.7213 63.7611 72.9871 63.7382 73.0311C63.7478 73.0122 63.8314 72.8411 63.7566 72.6301L63.2357 72.8099L63.008 73.3071L63.0076 73.3067Z" fill="#000073"/>
<path d="M61.2104 87.2368C62.0497 85.402 61.3243 83.2897 59.5901 82.519C57.8559 81.7482 55.7696 82.6109 54.9303 84.4457C54.091 86.2805 54.8165 88.3927 56.5507 89.1635C58.2849 89.9342 60.3711 89.0716 61.2104 87.2368Z" fill="#4A4A9E"/>
<g opacity="0.3">
<path d="M56.5504 89.1642C57.9364 89.7801 59.5494 89.3523 60.5696 88.2163C59.8685 88.3841 59.1213 88.3373 58.4305 88.0297C56.6959 87.2601 55.9723 85.1469 56.8116 83.3133C56.98 82.9443 57.1999 82.6164 57.456 82.332C56.3946 82.5873 55.437 83.3405 54.9322 84.4456C54.0926 86.281 54.8166 88.3925 56.5508 89.1642H56.5504Z" fill="#000073"/>
</g>
<g opacity="0.55">
<path d="M56.1259 82.9603C56.9891 82.5764 57.9805 82.5394 58.8758 82.9363C60.61 83.7077 61.3359 85.8195 60.4962 87.6552C60.2162 88.2672 59.7969 88.7712 59.2973 89.1435C60.1068 88.785 60.8053 88.1244 61.2113 87.2365C62.0506 85.4029 61.3244 83.2911 59.5902 82.5194C58.4341 82.0052 57.1191 82.218 56.1255 82.9599L56.1259 82.9603Z" fill="white"/>
</g>
<path d="M57.8856 89.8418C57.3724 89.8418 56.8647 89.7358 56.3872 89.5233C54.4544 88.6645 53.638 86.3141 54.5664 84.284C55.4952 82.2543 57.8226 81.301 59.7554 82.1602C60.6967 82.5786 61.4034 83.3572 61.7453 84.353C62.0839 85.339 62.0238 86.4208 61.5762 87.3996C61.1285 88.3783 60.3456 89.1387 59.3719 89.5415C58.8874 89.742 58.3841 89.8418 57.886 89.8418H57.8856ZM55.2959 84.6083C54.5487 86.2418 55.1857 88.1241 56.7158 88.8043C57.4523 89.1319 58.2857 89.1348 59.062 88.8137C59.8486 88.4887 60.4819 87.871 60.8463 87.0749C61.2107 86.2788 61.2608 85.4018 60.9871 84.6058C60.717 83.8195 60.1629 83.2061 59.4264 82.8789C57.8963 82.1991 56.0431 82.9744 55.2959 84.6079V84.6083Z" fill="#000073"/>
<path d="M58.2331 83.9439C58.8539 82.5868 58.3335 81.0318 57.0709 80.4706C55.8082 79.9094 54.2814 80.5546 53.6606 81.9117C53.0398 83.2687 53.5602 84.8238 54.8229 85.385C56.0856 85.9461 57.6124 85.3009 58.2331 83.9439Z" fill="#4A4A9E"/>
<g opacity="0.3">
<path d="M54.822 85.3865C56.0857 85.948 57.6125 85.3012 58.2329 83.9441C58.3302 83.7323 58.398 83.5152 58.4433 83.2965C57.7053 84.2484 56.4493 84.6344 55.382 84.1605C54.3165 83.6869 53.7786 82.5045 54.0118 81.3318C53.8747 81.5054 53.7568 81.6997 53.6596 81.9115C53.0391 83.2686 53.5601 84.8251 54.822 85.3862V85.3865Z" fill="#000073"/>
</g>
<g opacity="0.55">
<path d="M54.5562 80.798C55.1228 80.607 55.7432 80.6164 56.3103 80.8688C57.5721 81.4296 58.0935 82.9842 57.473 84.3414C57.2627 84.8019 56.9476 85.1792 56.5755 85.457C57.2726 85.2231 57.8886 84.6926 58.2324 83.9441C58.8528 82.587 58.3333 81.0326 57.0696 80.4715C56.2358 80.1 55.2842 80.2569 54.5562 80.798Z" fill="white"/>
</g>
<path d="M55.7818 85.984C55.3968 85.984 55.0162 85.9044 54.6585 85.7454C53.9444 85.428 53.4106 84.8335 53.1553 84.0712C52.9043 83.3213 52.9541 82.4969 53.2956 81.7502C53.6372 81.0039 54.2307 80.4214 54.9672 80.1102C55.7155 79.7939 56.5209 79.7946 57.2353 80.112C57.9493 80.4294 58.4831 81.0239 58.7385 81.7862C58.9894 82.5361 58.9396 83.3605 58.5981 84.1071C58.2566 84.8534 57.663 85.4359 56.9265 85.7472C56.5529 85.9052 56.1653 85.984 55.7818 85.984ZM56.1115 80.6633C55.8349 80.6633 55.5541 80.7207 55.2826 80.8354C54.7307 81.0686 54.2845 81.5087 54.0255 82.0749C53.7665 82.6411 53.7274 83.2624 53.9157 83.8242C54.0995 84.3741 54.4805 84.8011 54.9875 85.0267C55.4952 85.2522 56.0714 85.2507 56.6115 85.0227C57.1634 84.7895 57.6096 84.3494 57.8686 83.7832C58.1276 83.217 58.1667 82.5957 57.9784 82.0338C57.7945 81.484 57.4136 81.0569 56.9066 80.8314C56.6543 80.7196 56.3853 80.6633 56.1119 80.6633H56.1115Z" fill="#000073"/>
<path d="M55.0433 83.886C55.4092 83.9237 55.719 83.8351 55.9685 83.6786C56.2186 83.5221 56.4058 83.2984 56.5244 83.042C56.6401 82.7845 56.6862 82.4983 56.6398 82.21C56.5933 81.9223 56.4559 81.6351 56.1855 81.3889C56.5572 81.4223 56.9028 81.7143 57.055 82.0843C57.2145 82.4547 57.1983 82.8967 57.0277 83.2657C56.8593 83.6357 56.5344 83.9401 56.1472 84.0672C55.7647 84.1994 55.3149 84.1376 55.043 83.8856L55.0433 83.886Z" fill="#000073"/>
<path d="M57.4428 86.6337C57.2041 86.6337 56.9635 86.5857 56.735 86.4848C56.3843 86.3286 56.101 86.0664 55.9146 85.7269L56.6186 85.3517C56.7211 85.5384 56.8751 85.6815 57.0637 85.7657C57.5843 85.996 58.2206 85.7141 58.4836 85.1385C58.715 84.6312 58.5861 84.0527 58.1771 83.764L58.6435 83.1226C59.3605 83.6296 59.6003 84.6134 59.2135 85.4621C58.8793 86.1932 58.1675 86.6337 57.4428 86.6337Z" fill="#000073"/>
<path d="M50.5971 82.3114C51.4364 80.4765 50.711 78.3643 48.9768 77.5936C47.2426 76.8228 45.1564 77.6854 44.3171 79.5203C43.4778 81.3551 44.2032 83.4673 45.9374 84.238C47.6716 85.0088 49.7578 84.1462 50.5971 82.3114Z" fill="#4A4A9E"/>
<g opacity="0.3">
<path d="M45.9366 84.239C47.3227 84.8549 48.9357 84.4271 49.9559 83.2911C49.2547 83.4589 48.5075 83.412 47.8167 83.1044C46.0822 82.3349 45.3586 80.2217 46.1978 78.3881C46.3662 78.0191 46.5862 77.6912 46.8422 77.4068C45.7808 77.6621 44.8232 78.4153 44.3185 79.5204C43.4788 81.3562 44.2028 83.4672 45.937 84.239H45.9366Z" fill="#000073"/>
</g>
<g opacity="0.55">
<path d="M45.5121 78.0351C46.3753 77.6512 47.3668 77.6142 48.2621 78.0111C49.9963 78.7825 50.7221 80.8942 49.8824 82.73C49.6024 83.342 49.1831 83.846 48.6836 84.2183C49.493 83.8598 50.1915 83.1992 50.5976 82.3113C51.4368 80.4777 50.7107 78.3659 48.9765 77.5942C47.8203 77.08 46.5054 77.2928 45.5117 78.0347L45.5121 78.0351Z" fill="white"/>
</g>
<path d="M47.2715 84.9166C46.7583 84.9166 46.2506 84.8106 45.7731 84.5981C43.8403 83.7393 43.0235 81.3889 43.9523 79.3588C44.8811 77.3287 47.2089 76.3762 49.1413 77.235C50.0826 77.6534 50.7893 78.432 51.1312 79.4278C51.4698 80.4138 51.4097 81.4956 50.9621 82.4744C50.5144 83.4531 49.7315 84.2135 48.7578 84.6163C48.2733 84.8168 47.77 84.9166 47.2719 84.9166H47.2715ZM44.6818 79.6831C43.9346 81.3166 44.5716 83.1989 46.1017 83.8791C46.8379 84.2063 47.6713 84.2099 48.4479 83.8885C49.2345 83.5635 49.8678 82.9457 50.2322 82.1497C50.5966 81.3536 50.6467 80.4766 50.373 79.6806C50.1029 78.8943 49.5488 78.2809 48.8123 77.9537C47.2815 77.2739 45.429 78.0496 44.6818 79.6827V79.6831Z" fill="#000073"/>
<path d="M47.6194 79.0192C48.2401 77.6621 47.7197 76.1071 46.4571 75.5459C45.1944 74.9847 43.6676 75.6299 43.0468 76.987C42.4261 78.344 42.9464 79.8991 44.2091 80.4603C45.4718 81.0214 46.9986 80.3762 47.6194 79.0192Z" fill="#4A4A9E"/>
<g opacity="0.3">
<path d="M44.2082 80.4614C45.4719 81.0228 46.9987 80.376 47.6191 79.0189C47.7164 78.8072 47.7842 78.59 47.8295 78.3714C47.0916 79.3232 45.8356 79.7093 44.7682 79.2353C43.7027 78.7618 43.1648 77.5793 43.398 76.4067C43.261 76.5803 43.1431 76.7746 43.0458 76.9863C42.4254 78.3434 42.9463 79.8999 44.2082 80.461V80.4614Z" fill="#000073"/>
</g>
<g opacity="0.55">
<path d="M43.9424 75.8728C44.509 75.6818 45.1295 75.6912 45.6965 75.9436C46.9584 76.5044 47.4797 78.0594 46.8593 79.4162C46.6489 79.8767 46.3339 80.254 45.9618 80.5318C46.6588 80.298 47.2748 79.7674 47.6186 79.0189C48.239 77.6618 47.7195 76.1074 46.4558 75.5463C45.6221 75.1748 44.6704 75.3317 43.9424 75.8728Z" fill="white"/>
</g>
<path d="M45.1636 81.0566C44.7856 81.0566 44.4057 80.9807 44.0447 80.8202C43.3307 80.5028 42.7968 79.9083 42.5415 79.146C42.2906 78.3961 42.3403 77.5717 42.6819 76.8254C43.0234 76.0787 43.6169 75.4962 44.3534 75.1853C45.1017 74.869 45.9071 74.8698 46.6215 75.1872C47.3355 75.5046 47.8694 76.0991 48.1247 76.8613C48.3756 77.6113 48.3259 78.4356 47.9843 79.1819C47.4494 80.351 46.3153 81.0566 45.1636 81.0569V81.0566ZM45.4978 75.7377C45.2211 75.7377 44.9403 75.7951 44.6688 75.9099C44.1169 76.143 43.6707 76.5832 43.4117 77.1493C43.1527 77.7155 43.1137 78.3369 43.3019 78.8987C43.4858 79.4485 43.8667 79.8756 44.3737 80.1011C45.4337 80.5718 46.7258 80.0139 47.2548 78.8576C47.5138 78.2915 47.5529 77.6701 47.3646 77.1083C47.1808 76.5585 46.7998 76.1314 46.2929 75.9059C46.0405 75.794 45.7715 75.7377 45.4981 75.7377H45.4978Z" fill="#000073"/>
<path d="M44.4296 78.9608C44.7954 78.9985 45.1053 78.9099 45.3547 78.7534C45.6049 78.5969 45.792 78.3732 45.9107 78.1168C46.0264 77.8593 46.0724 77.5731 46.026 77.2848C45.9796 76.9972 45.8421 76.7099 45.5717 76.464C45.9435 76.4974 46.289 76.7894 46.4412 77.1595C46.6007 77.5299 46.5845 77.9719 46.4139 78.3409C46.2456 78.7109 45.9206 79.0152 45.5334 79.1424C45.151 79.2745 44.7011 79.2128 44.4292 78.9611L44.4296 78.9608Z" fill="#000073"/>
<path d="M46.8285 81.7085C46.5898 81.7085 46.3492 81.6605 46.1208 81.5596C45.77 81.4034 45.4867 81.1412 45.3003 80.8017L46.0044 80.4265C46.1068 80.6132 46.2604 80.7563 46.4494 80.8405C46.9697 81.0708 47.6063 80.7889 47.8694 80.2133C48.1007 79.706 47.9718 79.1275 47.5628 78.8388L48.0293 78.1974C48.7462 78.7044 48.9861 79.6882 48.5992 80.5369C48.2651 81.2679 47.5533 81.7085 46.8285 81.7085Z" fill="#000073"/>
<path d="M53.3637 64.0312L52.3148 63.6869L52.7529 62.3908C52.9128 61.9176 52.6836 61.4103 52.2197 61.2105L48.1077 59.3264C47.838 59.2026 47.5152 59.2589 47.3041 59.4655L46.3941 60.3567L45.6152 59.5839L46.5253 58.6927C47.0628 58.1665 47.8855 58.0238 48.5737 58.3386L52.674 60.2173C53.6537 60.6385 54.1437 61.7229 53.8018 62.7347L53.3637 64.0308V64.0312Z" fill="#000073"/>
<path d="M51.7026 62.5197L51.14 62.0509C51.4056 61.7407 51.5261 61.4418 51.4985 61.1619C51.4587 60.7638 51.1293 60.5009 51.126 60.4984L51.578 59.9246C51.6013 59.9424 52.1535 60.3694 52.2305 61.078C52.2832 61.565 52.1056 62.0498 51.7029 62.5197H51.7026Z" fill="#000073"/>
<path d="M83.088 76.8533L81.9894 76.735L82.1371 75.4011C82.1769 75.0415 81.9942 74.698 81.6718 74.5258L77.1309 72.101C76.8269 71.9387 76.45 71.9637 76.1715 72.1653L74.7851 73.1665L74.1318 72.2877L75.5182 71.2864C76.1402 70.8376 76.9794 70.7809 77.6577 71.143L82.1983 73.5678C82.9175 73.952 83.325 74.718 83.2362 75.5191L83.0884 76.853L83.088 76.8533Z" fill="#000073"/>
<path d="M63.8332 69.1794L62.7655 68.1785L63.2994 68.6789L62.7548 68.1894C62.7659 68.1771 63.845 66.9191 64.1475 62.9392C64.4894 58.4414 67.0132 56.8322 67.3628 56.6303C69.5893 55.177 71.6842 53.4941 73.051 52.337C74.1129 51.4382 75.0111 50.438 75.7203 49.3642C76.7472 47.8098 78.1538 46.8329 79.3744 46.2312C77.0913 44.8621 74.5911 44.3714 72.918 44.1993C70.1916 43.9186 67.652 43.3408 65.3689 42.4815C58.2541 39.8039 53.0102 35.1744 49.7827 28.7221L49.7418 28.6226C48.3204 24.2472 48.1509 20.069 49.2511 16.5391C50.2377 13.3745 52.2538 10.7608 54.9282 9.18032C59.7845 6.30989 65.8784 7.25665 70.0914 11.5362C70.5041 11.9552 70.9094 12.293 71.3305 12.5693C73.7157 14.1338 75.9587 14.3852 78.1877 13.3385C79.1781 12.8733 80.0852 12.1492 80.811 11.2442C84.9709 6.05568 90.7163 3.84947 95.8054 5.4866C101.04 7.17058 104.328 12.4321 104.601 19.5606C104.952 28.7097 100.124 37.5142 92.001 42.5375C89.1114 44.3246 85.8891 45.7304 82.4221 46.7175C83.2109 47.4739 83.9312 48.3713 84.5358 49.4343C84.7031 49.7059 87.6421 54.2585 95.3007 52.6177C96.6893 52.32 98.0329 52.2448 99.2941 52.3944C101.964 52.7111 106.5 53.8369 107 60.7911V66.3963C105.5 54.0089 101.83 54.1583 99.1183 53.8369C98.0204 53.7065 96.8414 53.7741 95.6138 54.0373C94.3332 54.3119 93.1656 54.4296 92.1067 54.4296C85.8857 54.4299 83.383 50.3683 83.2629 50.1668C82.5761 48.9567 81.7155 47.9874 80.7697 47.2114C79.6113 47.6697 78.016 48.5514 76.9557 50.157C76.1698 51.3463 75.1795 52.4507 74.0112 53.4392C72.6086 54.6268 70.454 56.3565 68.1568 57.8542L68.1015 57.8869C68.0179 57.9337 65.913 59.1543 65.6172 63.0474C65.2738 67.5655 63.9795 69.0276 63.8332 69.1794ZM51.129 28.1279C54.1888 34.216 59.1564 38.5884 65.895 41.1244C68.0584 41.9386 70.4728 42.487 73.0717 42.7546C75.1202 42.9653 78.2979 43.6164 81.0379 45.5713C81.4922 45.4322 81.8183 45.3654 81.9365 45.3436C85.301 44.3932 88.4235 43.0354 91.2181 41.3071C98.8962 36.5587 103.46 28.247 103.129 19.6154C102.88 13.1203 99.9713 8.35486 95.3486 6.86734C90.8618 5.42378 85.7347 7.44622 81.9678 12.1444C81.1031 13.223 80.0155 14.0892 78.8222 14.6495C76.123 15.917 73.3281 15.6235 70.5148 13.7783C70.0052 13.4442 69.5211 13.0415 69.0344 12.5476C65.2499 8.70349 60.0108 7.8704 55.6865 10.426C51.5132 12.8926 48.1296 18.8364 51.129 28.1279Z" fill="#000073"/>
<path d="M81.3927 75.8808L80.6783 75.7036L80.9237 74.7416C81.0324 74.3159 80.8345 73.8725 80.4429 73.6633L80.794 73.0249C81.4819 73.3924 81.8289 74.171 81.6381 74.9192L81.3927 75.8812V75.8808Z" fill="#000073"/>
<g opacity="0.3">
<path d="M37.2357 72.5078L38.7061 73.1128L38.2374 73.9132L37.3521 75.4258L37.3871 75.5373L38.2094 75.8768L40.8216 76.9521L42.2217 74.5611L44.5962 75.5369L46.2015 72.7943L46.6701 71.9939L45.1997 71.3889L44.2956 71.0177L45.2273 69.4249L45.6956 68.6263L42.18 67.1784L40.78 69.5698L38.4054 68.5936L36.3315 72.1366L37.2357 72.5078Z" fill="#000073"/>
</g>
<path d="M38.1894 68.769L39.6598 69.374L39.1912 70.1744L38.3062 71.687L38.3408 71.7985L39.1635 72.1384L41.7754 73.2137L43.1754 70.8223L45.5499 71.7981L47.1552 69.0555L47.6242 68.2551L46.1538 67.6501L45.2497 67.279L46.1814 65.6861L46.6497 64.8875L43.1341 63.4396L41.7341 65.831L39.3595 64.8548L37.2856 68.3982L38.1894 68.769Z" fill="#3D3D93"/>
<g opacity="0.55">
<path d="M43.1329 63.4396L42.728 64.13L46.0542 65.5016L45.5863 66.3006L44.6546 67.892L45.558 68.2642L47.0295 68.8689L46.559 69.6693L45.359 71.7208L45.5498 71.7985L47.1555 69.0544L47.6234 68.2555L46.1544 67.6494L45.2485 67.2786L46.181 65.6854L46.6481 64.8883L43.1329 63.4396Z" fill="white"/>
</g>
<g opacity="0.55">
<path d="M38.9546 65.5456L41.139 66.4448L41.5443 65.7544L39.3599 64.8552L38.9546 65.5456Z" fill="white"/>
</g>
<path d="M45.2495 67.2789L46.616 67.84L47.3654 66.622L46.6496 64.8875L46.1813 65.6861L45.2495 67.2789Z" fill="#3D3D93"/>
<path d="M38.3408 71.7985L38.8695 73.7185L42.3851 75.1665L43.7851 72.7751L46.1597 73.7512L48.2336 70.2079L47.6242 68.2551L47.1552 69.0555L45.5499 71.7981L43.1754 70.8223L41.7753 73.2138L39.1635 72.1384L38.3408 71.7985Z" fill="#3D3D93"/>
<path d="M37.2856 68.3982L37.6861 70.0237L38.9532 70.5808L39.6598 69.374L38.1894 68.769L37.2856 68.3982Z" fill="#3D3D93"/>
<path d="M41.7751 73.6081C41.7235 73.6081 41.6712 73.5983 41.6211 73.5776L38.1858 72.1624C38.0767 72.1174 37.9931 72.0266 37.9581 71.9151L37.9231 71.8036C37.8903 71.6986 37.9032 71.5853 37.9588 71.4902L39.0855 69.5658L37.131 68.7625C37.0245 68.7189 36.9427 68.6325 36.9059 68.525C36.869 68.4175 36.8808 68.2994 36.9383 68.2014L39.0122 64.6584C39.1128 64.4866 39.3272 64.4151 39.5129 64.4913L41.5625 65.3339L42.7868 63.2428C42.8874 63.071 43.1014 62.9998 43.2878 63.0761L46.8034 64.5244C46.9095 64.5683 46.9913 64.6548 47.0282 64.7622C47.065 64.8697 47.0528 64.9874 46.9954 65.0858L45.8227 67.0883L47.7776 67.892C47.8837 67.9356 47.9658 68.0223 48.0023 68.1298C48.0391 68.2373 48.0274 68.355 47.9699 68.4534L45.896 71.9964C45.7958 72.1682 45.5813 72.2397 45.3953 72.1635L43.3457 71.3209L42.1214 73.412C42.0477 73.5373 41.914 73.6092 41.7747 73.6092L41.7751 73.6081ZM38.8335 71.5744L41.6045 72.7159L42.8284 70.6248C42.9294 70.453 43.1434 70.3818 43.3291 70.4581L45.3787 71.3006L47.0495 68.4462L45.095 67.6432C44.9889 67.5996 44.9067 67.5132 44.8699 67.4057C44.833 67.2982 44.8448 67.1805 44.9023 67.0821L46.075 65.0786L43.3041 63.9371L42.0801 66.0279C41.9795 66.1996 41.7655 66.2712 41.5794 66.1946L39.5298 65.352L37.8594 68.2061L38.3431 68.4048L39.8135 69.0101C39.9196 69.0537 40.0018 69.1405 40.0383 69.248C40.0751 69.3555 40.0633 69.4732 40.0058 69.5716L38.8331 71.5744H38.8335Z" fill="#000073"/>
<path d="M46.6155 68.2344C46.5639 68.2344 46.5119 68.2246 46.4618 68.2043L45.0953 67.6436C44.9892 67.6 44.9071 67.5136 44.8702 67.4061C44.8334 67.2986 44.8452 67.1809 44.9026 67.0825L46.303 64.6907C46.3793 64.5603 46.523 64.483 46.677 64.4946C46.8295 64.5051 46.9625 64.5999 47.02 64.7394L47.7359 66.4735C47.7834 66.5889 47.7731 66.72 47.7075 66.8268L46.9581 68.0449C46.8837 68.1658 46.7522 68.2348 46.6158 68.2348L46.6155 68.2344ZM45.823 67.0876L46.4519 67.3454L46.9187 66.5868L46.5867 65.7824L45.8234 67.0872L45.823 67.0876Z" fill="#000073"/>
<path d="M42.3843 75.5609C42.3327 75.5609 42.2804 75.5511 42.2303 75.5304L38.7147 74.0821C38.6009 74.0352 38.515 73.939 38.483 73.8213L37.9543 71.9013C37.9145 71.756 37.962 71.6006 38.077 71.5014C38.1919 71.4023 38.354 71.3762 38.4955 71.4343L41.6047 72.7155L42.8286 70.6244C42.9296 70.4526 43.1436 70.3815 43.3293 70.4577L45.3789 71.3003L47.2771 68.0576C47.3567 67.9218 47.5107 67.8459 47.6684 67.8629C47.8264 67.8804 47.959 67.9889 48.0058 68.1389L48.6152 70.0917C48.648 70.1962 48.6347 70.3099 48.5795 70.4047L46.5056 73.9477C46.4054 74.1195 46.1909 74.191 46.0049 74.1148L43.9553 73.2722L42.731 75.3633C42.6573 75.4886 42.5236 75.5605 42.3843 75.5605V75.5609ZM39.204 73.4287L42.2141 74.6686L43.438 72.5779C43.539 72.4061 43.7527 72.3349 43.9387 72.4112L45.9883 73.2537L47.7995 70.1599L47.5114 69.236L47.5015 69.2527L45.8966 71.9953C45.7963 72.1671 45.5819 72.2387 45.3959 72.1624L43.3463 71.3199L42.122 73.411C42.021 73.5827 41.807 73.6543 41.6213 73.5776L38.9417 72.4744L39.2044 73.4291L39.204 73.4287Z" fill="#000073"/>
<path d="M38.9527 70.9752C38.8982 70.9752 38.8429 70.9643 38.7899 70.9411L37.5225 70.384C37.4094 70.3342 37.3257 70.2354 37.2966 70.1167L36.8961 68.4912C36.8604 68.3466 36.9105 68.1948 37.0251 68.0982C37.1397 68.0013 37.2999 67.9769 37.4388 68.034L39.8137 69.0101C39.9198 69.0537 40.002 69.1405 40.0385 69.248C40.0753 69.3555 40.0635 69.4732 40.0061 69.5716L39.2994 70.778C39.2261 70.9037 39.092 70.9752 38.9527 70.9752ZM38.0279 69.7423L38.7865 70.0757L39.0853 69.5654L37.8599 69.0613L38.0279 69.7423Z" fill="#000073"/>
<g opacity="0.3">
<path d="M46.1596 73.7512L45.5086 71.877L43.1753 70.8223L43.7913 72.9955L46.2082 73.8053" fill="#000073"/>
</g>
<g opacity="0.3">
<path d="M41.7753 73.2137L42.2348 75.1291L38.696 73.6125L38.3408 71.7985L41.7753 73.2137Z" fill="#000073"/>
</g>
<g opacity="0.15">
<path d="M33.3079 75.9629L32.0062 75.3081C31.5401 75.0739 30.9783 75.1421 30.58 75.4766C29.453 76.4237 28.4365 77.6483 27.4778 79.0167C27.1779 79.4445 27.3124 80.0343 27.7655 80.3009L29.7278 81.4546C30.0598 81.6496 30.4857 81.5854 30.7428 81.301L33.7014 78.0289C34.2883 77.3796 34.0941 76.3584 33.3079 75.9633V75.9629Z" fill="white"/>
</g>
<g opacity="0.15">
<path d="M72.8701 95.2399L74.0527 96.086C74.4761 96.3889 74.6695 96.9137 74.5475 97.4148C74.2027 98.8348 73.5572 100.283 72.7555 101.746C72.505 102.204 71.9107 102.353 71.4641 102.076L69.5306 100.877C69.2034 100.673 69.0686 100.27 69.209 99.9152L70.8242 95.8318C71.1447 95.0216 72.1561 94.7289 72.8701 95.2399Z" fill="white"/>
</g>
<path d="M32.5135 17.8576C22.7438 13.4227 26.5423 5.55153 32.2092 9.97266C37.5187 5.13934 41.9133 12.7033 32.5135 17.8576Z" fill="#FF1D1D"/>
<g opacity="0.3">
<path d="M32.514 17.8569C28.3805 15.9815 26.6758 13.4888 26.5137 11.5735C27.3622 12.7367 28.7526 13.9209 30.8133 14.9494C31.2034 15.1441 31.6721 15.1281 32.046 14.9047C35.3815 12.9124 36.7745 10.6216 36.9259 8.83994C38.9026 10.1829 38.5927 14.5238 32.5143 17.8565L32.514 17.8569Z" fill="#000073"/>
</g>
<g opacity="0.55">
<path d="M59.3411 57.0592C50.9118 52.7009 54.1893 45.7213 59.417 49.2436C55.0172 47.2774 52.6784 52.9907 59.3411 57.0592Z" fill="white"/>
</g>
<path d="M32.5135 18.3504C32.4423 18.3504 32.3709 18.3355 32.3042 18.305C28.3903 16.5285 26.0338 13.9184 26.0003 11.3233C25.9841 10.046 26.5928 8.98376 27.6295 8.48151C28.9043 7.86341 30.5479 8.17682 32.1841 9.33676C33.7267 8.05806 35.3404 7.62227 36.6594 8.14268C37.7319 8.56613 38.4213 9.57971 38.5031 10.8544C38.67 13.4445 36.5216 16.2234 32.7559 18.2883C32.6804 18.3297 32.5967 18.3504 32.5127 18.3504H32.5135ZM29.0211 9.16171C28.6751 9.16171 28.3546 9.2289 28.0709 9.36654C27.3794 9.70173 26.9888 10.4106 27.0006 11.3109C27.0223 12.9818 28.4817 15.4168 32.4921 17.3027C36.3452 15.1219 37.6126 12.5842 37.5053 10.9165C37.4475 10.0177 37.0039 9.34039 36.288 9.05785C35.2671 8.6551 33.8689 9.13193 32.5485 10.3344C32.3676 10.4992 32.092 10.5094 31.8985 10.3587C30.8942 9.57499 29.8788 9.16135 29.0211 9.16135V9.16171Z" fill="#000073"/>
<path d="M44.132 34.0401C43.3518 33.0787 41.7369 31.9866 41.2153 31.6693C40.3897 31.1326 39.7365 32.346 40.5394 32.8547C41.5645 33.5454 43.252 34.3061 43.8598 34.5068C44.0912 34.5301 44.2545 34.2361 44.132 34.0401Z" fill="#F2D231"/>
<path d="M66.2157 47.859C66.9959 48.8204 68.6107 49.9124 69.1324 50.2298C69.958 50.7665 70.6112 49.5531 69.8083 49.0444C68.7831 48.3537 67.0957 47.5929 66.4878 47.3923C66.2565 47.3689 66.0932 47.663 66.2157 47.859Z" fill="#F2D231"/>
<path d="M49.1729 30.167C48.912 28.7308 47.9035 26.6776 47.5623 26.0496C47.0355 25.023 45.7761 25.8968 46.2979 26.8797C46.9351 28.1793 48.1845 29.9376 48.6712 30.4892C48.8819 30.6475 49.193 30.44 49.1729 30.167Z" fill="#F2D231"/>
<path d="M61.1748 51.732C61.4357 53.1682 62.4442 55.2214 62.7853 55.8494C63.3122 56.876 64.5715 56.0023 64.0497 55.0194C63.4125 53.7197 62.1632 51.9614 61.6765 51.4099C61.4658 51.2515 61.1547 51.459 61.1748 51.732Z" fill="#F2D231"/>
<path d="M54.9136 28.3853C55.1803 27.1216 55.187 25.0136 55.1668 24.357C55.1566 23.2957 54.1539 23.3993 54.1741 24.4262C54.1741 25.759 54.3936 27.7386 54.5185 28.4051C54.5962 28.6272 54.8426 28.6075 54.9102 28.3853H54.9136Z" fill="#F2D231"/>
<path d="M55.4341 53.5137C55.1674 54.7775 55.1606 56.8854 55.1809 57.542C55.191 58.6034 56.1938 58.4997 56.1735 57.4729C56.1735 56.14 55.9541 54.1604 55.8291 53.494C55.7515 53.2718 55.505 53.2916 55.4375 53.5137H55.4341Z" fill="#F2D231"/>
<path d="M61.6728 29.5085C62.6503 28.7162 63.7352 27.1051 64.048 26.5872C64.5807 25.7639 63.2807 25.1664 62.7822 25.9675C62.098 26.99 61.36 28.6587 61.1743 29.2562C61.1597 29.482 61.4724 29.6325 61.6728 29.5085Z" fill="#F2D231"/>
<path d="M48.6748 52.3905C47.6974 53.1828 46.6124 54.794 46.2997 55.3118C45.767 56.1351 47.067 56.7326 47.5654 55.9315C48.2497 54.909 48.9876 53.2404 49.1733 52.6428C49.188 52.4171 48.8752 52.2666 48.6797 52.3905H48.6748Z" fill="#F2D231"/>
<path d="M66.4703 34.5081C67.6248 34.2692 69.2867 33.2831 69.794 32.9476C70.625 32.4342 69.9471 31.1432 69.1511 31.6515C68.1015 32.2767 66.6714 33.5068 66.221 33.9896C66.0898 34.198 66.2516 34.5183 66.4703 34.503V34.5081Z" fill="#F2D231"/>
<path d="M43.8774 47.391C42.7228 47.6299 41.0609 48.616 40.5536 48.9514C39.7227 49.4648 40.4006 50.7559 41.1965 50.2476C42.2461 49.6224 43.6762 48.3923 44.1267 47.9094C44.2579 47.701 44.0961 47.3808 43.8774 47.396V47.391Z" fill="#F2D231"/>
<path d="M68.2951 41.455C69.2859 42.119 70.9799 42.3859 71.5153 42.4314C72.3702 42.5421 72.3982 40.6022 71.5672 40.5176C70.4965 40.3549 68.8744 40.5371 68.3231 40.6999C68.1353 40.8235 68.1233 41.2988 68.2951 41.455Z" fill="#F2D231"/>
<path d="M42.0526 40.4441C41.0617 39.7801 39.3678 39.5132 38.8324 39.4676C37.9774 39.3569 37.9495 41.2968 38.7805 41.3815C39.8512 41.5442 41.4732 41.3619 42.0246 41.1992C42.2124 41.0755 42.2244 40.6003 42.0526 40.4441Z" fill="#F2D231"/>
<path d="M46.1632 32.1108C45.7197 30.9056 44.5866 29.32 44.2156 28.8408C43.635 28.0555 42.7922 29.1026 43.3648 29.8535C44.0825 30.8562 45.3527 32.1256 45.8245 32.506C46.014 32.5998 46.2237 32.3479 46.1632 32.1108Z" fill="#F2D231"/>
<path d="M64.1844 49.7882C64.628 50.9935 65.7611 52.5791 66.132 53.0582C66.7127 53.8436 67.5555 52.7964 66.9829 52.0456C66.2651 51.0429 64.9949 49.7734 64.5232 49.3931C64.3336 49.2992 64.1239 49.5511 64.1844 49.7882Z" fill="#F2D231"/>
<path d="M52.1599 28.3582C52.2599 27.2818 51.795 25.6047 51.62 25.0847C51.3701 24.2421 49.9454 24.5888 50.2054 25.4031C50.5003 26.4634 51.2651 27.9833 51.6 28.4792C51.765 28.6364 52.1149 28.5558 52.1599 28.3582Z" fill="#F2D231"/>
<path d="M58.1878 53.5408C58.0878 54.6172 58.5527 56.2943 58.7276 56.8144C58.9776 57.657 60.4022 57.3103 60.1423 56.4959C59.8474 55.4356 59.0825 53.9158 58.7476 53.4199C58.5827 53.2627 58.2327 53.3433 58.1878 53.5408Z" fill="#F2D231"/>
<path d="M58.7239 28.4517C59.4297 27.3061 59.9895 25.2278 60.1404 24.5689C60.4081 23.5145 58.9867 23.2155 58.7434 24.2394C58.388 25.5573 58.1738 27.6052 58.1738 28.3148C58.2225 28.5683 58.5681 28.6494 58.7239 28.4517Z" fill="#F2D231"/>
<path d="M52.6238 53.4473C51.9179 54.5929 51.3581 56.6712 51.2072 57.3302C50.9395 58.3845 52.3609 58.6836 52.6043 57.6597C52.9596 56.3417 53.1738 54.2939 53.1738 53.5842C53.1252 53.3307 52.7795 53.2496 52.6238 53.4473Z" fill="#F2D231"/>
<path d="M64.5039 32.5103C65.4225 31.8931 66.6166 30.3839 66.9726 29.886C67.562 29.108 66.7238 28.0655 66.1612 28.8279C65.411 29.7874 64.4657 31.4627 64.1863 32.085C64.1212 32.334 64.324 32.5933 64.5039 32.5103Z" fill="#F2D231"/>
<path d="M45.8437 50.3758C44.9252 50.8387 43.731 51.9706 43.3751 52.344C42.7856 52.9275 43.6238 53.7094 44.1865 53.1375C44.9366 52.4179 45.882 51.1615 46.1614 50.6947C46.2265 50.508 46.0236 50.3135 45.8437 50.3758Z" fill="#F2D231"/>
<path d="M67.4253 38.4488C68.778 38.5769 70.8958 38.1415 71.5493 37.9775C72.6133 37.7419 72.2029 36.2718 71.1795 36.5177C69.842 36.7943 67.9168 37.5422 67.2835 37.87C67.0808 38.0339 67.1771 38.3925 67.4253 38.4488Z" fill="#F2D231"/>
<path d="M42.9223 44.4296C41.5696 44.3656 39.4519 44.5833 38.7983 44.6652C37.7344 44.783 38.1448 45.5181 39.1682 45.3952C40.5057 45.2569 42.4309 44.8829 43.0642 44.719C43.2669 44.6371 43.1706 44.4578 42.9223 44.4296Z" fill="#F2D231"/>
<path d="M67.2666 44.1052C68.3754 45.1226 70.457 46.066 71.1159 46.325C72.1724 46.7812 72.6222 45.024 71.5919 44.5985C70.2739 44.0066 68.1923 43.5072 67.4601 43.427C67.1934 43.464 67.0784 43.8894 67.2666 44.1052Z" fill="#F2D231"/>
<path d="M43.081 37.0289C41.9723 36.3507 39.8907 35.7217 39.2317 35.5491C38.1753 35.2449 37.7255 36.4164 38.7558 36.7001C40.0738 37.0947 42.1553 37.4276 42.8875 37.4811C43.1542 37.4564 43.2693 37.1728 43.081 37.0289Z" fill="#F2D231"/>
<path d="M65.5197 43.511C66.8748 37.9851 63.1162 32.3357 57.1246 30.8927C51.1329 29.4496 45.1771 32.7594 43.8219 38.2852C42.4668 43.811 46.2254 49.4604 52.217 50.9035C58.2087 52.3466 64.1645 49.0368 65.5197 43.511Z" fill="#F2D231"/>
<path d="M51.1475 40.2167C50.9897 41.0242 49.9715 41.567 48.8826 41.4214C47.7882 41.2802 47.0369 40.5079 47.1948 39.7004C47.3527 38.8928 48.3708 38.3501 49.4652 38.4957C50.5541 38.6369 51.3109 39.4091 51.153 40.2167H51.1475Z" fill="#E092CA"/>
<path d="M59.1476 41.2077C58.9897 42.0152 57.9715 42.558 56.8826 42.4124C55.7882 42.2712 55.0369 41.4989 55.1948 40.6914C55.3527 39.8838 56.3708 39.3411 57.4652 39.4867C58.5541 39.6279 59.3109 40.4001 59.153 41.2077H59.1476Z" fill="#E092CA"/>
<path d="M50.1682 38.0547C50.1231 38.327 49.8657 38.51 49.5948 38.4653C49.3239 38.4207 49.1388 38.1663 49.1794 37.8984C49.2246 37.6261 49.4819 37.4431 49.7528 37.4877C50.0238 37.5324 50.2089 37.7868 50.1682 38.0547Z" fill="#21130F"/>
<path d="M57.1682 39.0457C57.1231 39.318 56.8657 39.501 56.5948 39.4563C56.3239 39.4117 56.1388 39.1573 56.1794 38.8894C56.2246 38.6171 56.4819 38.4341 56.7528 38.4787C57.0237 38.5234 57.2089 38.7778 57.1682 39.0457Z" fill="#21130F"/>
<path d="M53.0218 40.4202C52.4718 40.285 52.0995 39.4736 52.1864 38.6107C52.1947 38.5206 52.2484 38.4562 52.3063 38.4755C52.3642 38.4884 52.4056 38.5721 52.3932 38.6687C52.3229 39.3448 52.6207 39.9888 53.0508 40.0982C53.4851 40.2077 53.8945 39.7441 53.9648 39.0679C53.9731 38.9778 54.0269 38.9134 54.0848 38.9327C54.1427 38.9456 54.184 39.0293 54.1716 39.1259C54.0848 39.9823 53.5636 40.5747 53.0136 40.4331L53.0218 40.4202Z" fill="#21130F"/>
<path d="M59.2279 32.9273C61.0807 34.5256 62.0906 36.6752 62.5209 37.271C62.9292 37.839 63.3024 37.1262 63.1312 36.6529C62.5077 34.9432 60.387 32.8104 59.3991 32.532C59.2147 32.4818 59.1005 32.7658 59.2279 32.9329V32.9273Z" fill="white"/>
<path d="M63.1976 37.6457C63.053 38.02 63.5994 39.9245 63.9771 40.266C64.2262 40.4958 64.7887 40.5484 65.0057 40.2331C65.3592 39.7143 65.094 39.0445 64.7726 38.5388C64.5396 38.1711 64.0816 37.5078 63.511 37.4815C63.3824 37.475 63.2378 37.5341 63.1976 37.6457Z" fill="white"/>
<g style="mix-blend-mode:multiply" opacity="0.2">
<path d="M45.0488 36.4901C45.0488 36.4901 42.7644 40.9404 45.5778 45.5485C48.3912 50.1567 54.7349 51.7701 60.1738 49.0121C59.9958 47.7243 58.6509 46.6389 57.3506 46.6142C56.3271 46.5945 55.1107 47.078 54.3987 46.3478C53.9191 45.8544 53.9686 45.065 53.7016 44.4335C53.2467 43.3727 52.0007 42.9336 50.8882 42.6228C49.7757 42.312 48.5247 41.9024 48.0352 40.8565C47.7732 40.299 47.7831 39.6576 47.7979 39.0408C47.8127 38.4241 47.8127 37.7827 47.5408 37.2301C47.2688 36.6776 45.6817 36.3766 45.0883 36.5591L45.0587 36.4901H45.0488Z" fill="#E6AF29"/>
</g>
<path d="M40.1556 58.2773C40.1556 58.2773 29.8398 58.5283 25.2008 54.3978C20.5618 50.2672 24.9739 47.6675 27.6434 49.0426C27.6434 49.0426 25.6642 45.429 28.5267 44.0187C31.3893 42.6135 33.3878 45.9962 33.3878 45.9962C33.3878 45.9962 32.3113 39.311 38.0509 38.5231C43.7954 37.7351 45.7408 46.3324 45.7408 46.3324C45.7408 46.3324 52.079 42.217 54.6905 48.079C57.3986 54.1569 48.2027 58.5785 40.1556 58.2773Z" fill="#FCF8E5"/>
<path d="M34.581 45.3205C34.8732 43.5848 35.9091 42.3256 36.1322 41.8666C36.3448 41.4294 35.686 41.3332 35.4363 41.5736C34.5331 42.4437 33.9913 44.5029 34.2303 45.2898C34.2781 45.4385 34.5225 45.4472 34.581 45.3205Z" fill="white"/>
<path d="M36.4326 41.445C36.7572 41.4175 38.008 40.4458 38.1432 40.1012C38.2379 39.8669 38.1094 39.5017 37.8052 39.4672C37.3116 39.419 36.8924 39.798 36.6152 40.1632C36.4124 40.432 36.0608 40.9351 36.2095 41.2934C36.2433 41.3761 36.3312 41.445 36.4259 41.4381L36.4326 41.445Z" fill="white"/>
<g style="mix-blend-mode:multiply">
<path d="M26.1788 52.7676C26.1788 52.7676 31.3608 55.9732 40.1343 56.2958C48.9078 56.6134 53.5168 51.4674 54.1738 50.4303C53.586 49.5917 52.1484 49.2245 51.1802 49.4279C50.2119 49.6314 49.3968 50.2219 48.6262 50.8124C47.8555 51.4029 47.08 52.0232 46.1315 52.3061C43.6812 53.0306 40.9247 51.3086 38.3905 51.7503C36.9579 51.9984 35.7179 52.9214 34.2557 52.976C32.8231 53.0256 31.4695 52.2366 30.0715 51.8098C28.6784 51.3831 26.7765 51.527 26.1738 52.7725L26.1788 52.7676Z" fill="#FCF8E5"/>
</g>
</svg>
