<svg width="200" height="200" viewBox="0 0 200 200" fill="none" xmlns="http://www.w3.org/2000/svg">
<circle opacity="0.2" cx="100" cy="100" r="100" fill="#75B3EB"/>
<mask id="mask0_114_3624" style="mask-type:alpha" maskUnits="userSpaceOnUse" x="0" y="0" width="200" height="200">
<circle cx="100" cy="100" r="100" fill="#D9D9D9"/>
</mask>
<g mask="url(#mask0_114_3624)">
<path d="M157.268 155.999H92.5404C86.061 155.999 80.8087 150.741 80.8087 144.255V88.1573C80.8087 82.2013 81.9754 76.4202 84.2769 70.9731C86.4983 65.7161 89.6767 60.996 93.7237 56.944C97.7707 52.892 102.486 49.711 107.738 47.4874C112.427 45.5022 111.305 44.2995 116.388 44.0216C117.204 43.9769 124.081 44.0155 124.904 44.0155C130.854 44.0155 136.63 45.1834 142.071 47.4874C147.322 49.711 152.037 52.8928 156.085 56.944C160.133 60.996 163.311 65.7153 165.532 70.9731C167.833 76.4194 169 82.2013 169 88.1573V144.255C169 150.741 163.748 155.999 157.268 155.999H157.268ZM94.5885 90.4969H155.219V88.1573C155.219 71.4237 141.62 57.8105 124.904 57.8105C108.189 57.8105 94.5893 71.4245 94.5893 88.1573V90.4969H94.5885Z" fill="#4F75BA"/>
<path d="M149.459 156H84.7317C78.2522 156 73 150.742 73 144.256V88.1577C73 82.2016 74.1667 76.4205 76.4682 70.9734C78.6896 65.7164 81.868 60.9964 85.915 56.9444C89.9628 52.8924 94.6771 49.7114 99.9293 47.4877C105.37 45.1845 111.146 44.0166 117.096 44.0166C123.045 44.0166 128.821 45.1845 134.262 47.4884C139.513 49.7121 144.228 52.8939 148.276 56.9451C152.324 60.9971 155.502 65.7164 157.723 70.9742C160.025 76.4205 161.191 82.2024 161.191 88.1584V144.256C161.191 150.743 155.939 156 149.46 156L149.459 156ZM86.7798 90.4972H147.411V88.1577C147.411 71.424 133.811 57.8108 117.096 57.8108C100.38 57.8108 86.7805 71.4248 86.7805 88.1577V90.4972H86.7798Z" fill="#739AF0"/>
<path d="M122.552 112.482C122.552 111.118 122.052 109.873 121.227 108.917C120.47 107.793 118.905 107.02 117.095 107.02C115.285 107.02 113.72 107.793 112.963 108.917C112.139 109.873 111.639 111.119 111.639 112.482C111.639 114.93 113.248 117.002 115.466 117.695V125.967C115.466 126.635 116.195 127.176 117.094 127.176C117.994 127.176 118.723 126.635 118.723 125.967V117.695C120.941 117.002 122.55 114.929 122.55 112.482H122.552Z" fill="#4F75BA"/>
<path d="M43.6805 129H39.0517C34.6116 129 31 125.293 31 120.738V105.262C31 100.706 34.6123 97 39.0517 97H43.6805C48.1206 97 51.7323 100.707 51.7323 105.262V120.738C51.7323 125.294 48.12 129 43.6805 129ZM39.0517 101.88C37.2342 101.88 35.7561 103.397 35.7561 105.262V120.737C35.7561 122.602 37.2348 124.119 39.0517 124.119H43.6805C45.4981 124.119 46.9762 122.601 46.9762 120.737V105.262C46.9762 103.397 45.4974 101.88 43.6805 101.88H39.0517Z" fill="#F99746"/>
<path d="M92.2217 115.851H49.7759V110.149H92.2217C93.7559 110.149 94.9996 111.426 94.9996 113C94.9996 114.574 93.7559 115.851 92.2217 115.851Z" fill="#F99746"/>
<path d="M86.8956 114.702H91.3539V125.874C91.3539 127.137 90.3551 128.162 89.1244 128.162C87.8938 128.162 86.8949 127.137 86.8949 125.874V114.702H86.8956Z" fill="#F99746"/>
</g>
</svg>
