<svg width="24" height="24" viewBox="0 0 24 24" fill="none" xmlns="http://www.w3.org/2000/svg">
<path d="M23.7653 18.2087L21.201 15.6404L5.79129 0.234655C5.71696 0.160266 5.62875 0.101251 5.53162 0.0609869C5.43449 0.0207223 5.33036 0 5.22523 0C5.12009 0 5.01596 0.0207223 4.91883 0.0609869C4.8217 0.101251 4.73345 0.160266 4.65916 0.234655L0.234655 4.65916C0.160266 4.73345 0.101251 4.8217 0.0609869 4.91883C0.0207223 5.01596 0 5.12009 0 5.22523C0 5.33036 0.0207223 5.43449 0.0609869 5.53162C0.101251 5.62875 0.160266 5.71696 0.234655 5.79129L18.2087 23.7653C18.283 23.8397 18.3712 23.8987 18.4684 23.939C18.5655 23.9793 18.6696 24 18.7748 24C18.8799 24 18.984 23.9793 19.0812 23.939C19.1783 23.8987 19.2665 23.8397 19.3408 23.7653L23.7653 19.3408C23.8397 19.2665 23.8987 19.1783 23.939 19.0812C23.9793 18.984 24 18.8799 24 18.7748C24 18.6696 23.9793 18.5655 23.939 18.4684C23.8987 18.3712 23.8397 18.283 23.7653 18.2087ZM5.76329 6.51537C5.61083 6.65303 5.41133 6.72676 5.20598 6.72136C5.00068 6.71592 4.8053 6.63175 4.66036 6.48629C4.51539 6.34079 4.4319 6.14513 4.42722 5.93979C4.42253 5.73444 4.49698 5.53518 4.63516 5.38324L6.63539 3.38302L7.76351 4.51515L5.76329 6.51537ZM9.92376 8.77563C9.77022 8.90617 9.57312 8.97397 9.37174 8.96549C9.17039 8.95701 8.97969 8.87288 8.83768 8.72986C8.6957 8.58685 8.61289 8.39555 8.60585 8.19412C8.59877 7.99274 8.66798 7.79608 8.79963 7.6435L9.86775 6.57538L10.9999 7.70751L9.92376 8.77563ZM12.184 12.9321C12.031 13.0632 11.8341 13.1317 11.6327 13.1239C11.4313 13.1161 11.2403 13.0326 11.0979 12.8901C10.9554 12.7476 10.8719 12.5566 10.8641 12.3553C10.8563 12.1539 10.9248 11.957 11.0559 11.804L13.0561 9.80375L14.1882 10.9359L12.184 12.9321ZM15.2244 15.2004C15.15 15.126 15.0909 15.0378 15.0507 14.9407C15.0104 14.8436 14.9897 14.7394 14.9897 14.6343C14.9897 14.5292 15.0104 14.425 15.0507 14.3279C15.0909 14.2308 15.15 14.1425 15.2244 14.0682L16.2925 13.0001L17.4246 14.1322L16.3565 15.2004C16.2822 15.2747 16.194 15.3338 16.0968 15.374C15.9997 15.4143 15.8956 15.435 15.7904 15.435C15.6853 15.435 15.5812 15.4143 15.484 15.374C15.3869 15.3338 15.2987 15.2747 15.2244 15.2004ZM18.6167 19.3568C18.4648 19.495 18.2655 19.5695 18.0602 19.5648C17.8549 19.5601 17.6592 19.4766 17.5137 19.3316C17.3682 19.1867 17.2841 18.9913 17.2786 18.786C17.2732 18.5807 17.347 18.3811 17.4846 18.2287L19.4848 16.2285L20.617 17.3566L18.6167 19.3568Z" fill="white"/>
</svg>
