<svg width="24" height="24" viewBox="0 0 24 24" fill="none" xmlns="http://www.w3.org/2000/svg">
<path fill-rule="evenodd" clip-rule="evenodd" d="M10.3287 22.9893L1.63098 21.4544C1.453 21.4231 1.29179 21.33 1.17574 21.1915C1.05968 21.053 0.996229 20.8779 0.996556 20.6972L0.996557 3.30186C0.996231 3.12115 1.05968 2.94613 1.17574 2.80761C1.29179 2.6691 1.453 2.57598 1.63098 2.54465L10.3287 1.00977C10.4389 0.992133 10.5516 0.998429 10.6592 1.02823C10.7667 1.05803 10.8666 1.11063 10.952 1.18247C11.0375 1.25431 11.1064 1.34369 11.1542 1.44455C11.2021 1.5454 11.2276 1.65537 11.2291 1.76698L11.2291 2.55488L16.1612 3.73163C16.3286 3.77271 16.4773 3.86853 16.584 4.00388C16.6906 4.13922 16.7489 4.30632 16.7496 4.47861L16.7496 6.37163C16.7496 6.57517 16.6687 6.77038 16.5248 6.9143C16.3809 7.05822 16.1857 7.13908 15.9822 7.13908C15.7786 7.13908 15.5834 7.05822 15.4395 6.9143C15.2956 6.77038 15.2147 6.57517 15.2147 6.37163L15.2147 5.08233L11.2291 4.1307L11.2291 19.7968L15.2147 18.8451L15.2147 17.341C15.2147 17.1374 15.2956 16.9422 15.4395 16.7983C15.5834 16.6544 15.7786 16.5735 15.9822 16.5735C16.1857 16.5735 16.3809 16.6544 16.5248 16.7983C16.6687 16.9422 16.7496 17.1374 16.7496 17.341L16.7496 19.4386C16.7489 19.6109 16.6906 19.778 16.584 19.9134C16.4773 20.0487 16.3286 20.1445 16.1612 20.1856L11.2291 21.3726L11.2291 22.2321C11.2285 22.344 11.2035 22.4544 11.1559 22.5557C11.1084 22.657 11.0394 22.7467 10.9538 22.8187C10.8682 22.8907 10.7679 22.9433 10.66 22.9727C10.552 23.0022 10.439 23.0079 10.3287 22.9893ZM13.7255 12.5422C13.5816 12.3983 13.5008 12.2031 13.5008 11.9996C13.5008 11.796 13.5816 11.6008 13.7255 11.4569C13.8695 11.313 14.0647 11.2321 14.2682 11.2321L18.4022 11.2321L18.4022 8.9298C18.396 8.77549 18.4365 8.62292 18.5185 8.49201C18.6004 8.36111 18.7199 8.25796 18.8614 8.19607C19.0029 8.13417 19.1597 8.11639 19.3115 8.14507C19.4632 8.17374 19.6028 8.24752 19.7119 8.35678L22.7817 11.4265C22.9218 11.5723 23 11.7667 23 11.9689C23 12.1711 22.9218 12.3654 22.7817 12.5112L19.7119 15.581C19.6065 15.6865 19.4725 15.7591 19.3265 15.7897C19.1805 15.8203 19.0287 15.8077 18.8897 15.7534C18.7508 15.6991 18.6306 15.6055 18.544 15.484C18.4574 15.3625 18.4081 15.2184 18.4022 15.0693L18.4022 12.767L14.2682 12.767C14.0647 12.767 13.8695 12.6862 13.7255 12.5422Z" fill="#75B3EB"/>
</svg>
