<svg width="16" height="16" viewBox="0 0 16 16" fill="none" xmlns="http://www.w3.org/2000/svg">
<path fill-rule="evenodd" clip-rule="evenodd" d="M12.2333 7.33906L10.6133 10.1572C13.3333 10.477 16 11.3364 16 13.002C16 15.0606 11.8533 16 8 16C4.14667 16 0 15.0606 0 13.002C0 11.3364 2.66667 10.477 5.37333 10.1439L3.75333 7.33906C3.31798 6.59646 3.08849 5.75134 3.08849 4.89067C3.08849 4.03001 3.31798 3.18489 3.75333 2.44229C4.18387 1.69954 4.80221 1.08293 5.54638 0.654284C6.29055 0.225634 7.1344 0 7.99333 0C8.85227 0 9.69611 0.225634 10.4403 0.654284C11.1845 1.08293 11.8028 1.69954 12.2333 2.44229C12.6687 3.18489 12.8982 4.03001 12.8982 4.89067C12.8982 5.75134 12.6687 6.59646 12.2333 7.33906ZM5.81797 2.03621C5.44683 2.33401 5.13922 2.70317 4.91333 3.12184C4.60116 3.6618 4.43737 4.27463 4.43854 4.89823C4.43971 5.52183 4.6058 6.13404 4.92 6.67283L8 12.0026L11.08 6.67283C11.3292 6.26757 11.4945 5.81649 11.5662 5.34626C11.6379 4.87604 11.6146 4.39622 11.4975 3.93518C11.3804 3.47413 11.172 3.04124 10.8846 2.66208C10.5972 2.28293 10.2366 1.96522 9.82424 1.72774C9.41184 1.49026 8.95597 1.33784 8.4836 1.27949C8.01122 1.22114 7.53194 1.25804 7.07408 1.38802C6.61623 1.51799 6.1891 1.7384 5.81797 2.03621ZM1.33333 13.002C1.33333 13.5017 3.6 14.6675 8 14.6675C12.4 14.6675 14.6667 13.5017 14.6667 13.002C14.6667 12.6689 13.2333 11.7028 9.88 11.4164L8.98 12.9687C8.88033 13.1401 8.73735 13.2825 8.56537 13.3814C8.39339 13.4803 8.19843 13.5324 8 13.5324C7.80156 13.5324 7.60661 13.4803 7.43463 13.3814C7.26264 13.2825 7.11967 13.1401 7.02 12.9687L6.12 11.4164C2.76667 11.7028 1.33333 12.6489 1.33333 13.002ZM9.33333 4.67415C9.33333 5.41004 8.73638 6.0066 8 6.0066C7.26362 6.0066 6.66667 5.41004 6.66667 4.67415C6.66667 3.93825 7.26362 3.34169 8 3.34169C8.73638 3.34169 9.33333 3.93825 9.33333 4.67415Z" fill="#2B3A42"/>
</svg>
