<svg width="10" height="12" viewBox="0 0 10 12" fill="none" xmlns="http://www.w3.org/2000/svg">
<path fill-rule="evenodd" clip-rule="evenodd" d="M3.27472 6.38125C2.79719 6.29393 2.32508 6.17279 1.86125 6.01856C1.80005 5.99847 1.74309 5.96478 1.69378 5.91951C1.64447 5.87423 1.60382 5.81829 1.57426 5.75504C1.54469 5.69178 1.52682 5.6225 1.52171 5.55134C1.5166 5.48018 1.52435 5.4086 1.54451 5.34086L2.55507 1.96892C2.72698 1.39537 3.05552 0.896768 3.49429 0.543534C3.93305 0.1903 4.45987 0.000287021 5.00033 0.000331371C5.17536 -0.00365022 5.34956 0.0282781 5.51431 0.0945367C5.66999 0.172647 5.81443 0.27623 5.9429 0.401888C6.08841 0.366418 6.2402 0.383181 6.37672 0.449797C6.88696 0.792766 7.26714 1.33325 7.44529 1.96892L8.45585 5.34086C8.47604 5.40859 8.48382 5.48018 8.47872 5.55136C8.47363 5.62253 8.45576 5.69182 8.42619 5.75509C8.39662 5.81835 8.35596 5.87429 8.30663 5.91956C8.2573 5.96483 8.20032 5.9985 8.1391 6.01856C7.58132 6.20454 7.01157 6.34216 6.43491 6.43019L6.43477 6.43037C5.65107 6.59895 3.84956 6.46922 3.83346 6.46724C3.65101 6.44438 3.46856 6.41643 3.28612 6.38339L3.27567 6.38179L3.27472 6.38125ZM8.06978 8.35976C8.75119 8.65575 9.41943 9.0008 9.66954 9.83762C9.71425 9.98776 9.90777 11.1706 9.99661 11.7206C10.0021 11.7548 10.0009 11.7899 9.99296 11.8235C9.98504 11.8571 9.97062 11.8883 9.95074 11.9149C9.93085 11.9416 9.90598 11.963 9.87787 11.9777C9.84977 11.9924 9.81913 12 9.78811 12H0.211888C0.180868 12 0.150225 11.9924 0.122125 11.9777C0.0940245 11.963 0.0691521 11.9416 0.0492651 11.9149C0.0293781 11.8883 0.0149617 11.8571 0.00703444 11.8235C-0.00089277 11.7899 -0.00213734 11.7548 0.00338864 11.7206C0.0922322 11.1706 0.285745 9.98776 0.330458 9.83762C0.580565 9.0008 1.2488 8.65575 1.93022 8.35976L3.50687 7.6756L5 9.34663L6.49312 7.6756C7.01875 7.90345 7.5443 8.1315 8.06978 8.35976Z" fill="#75B3EB"/>
</svg>
