<svg width="22" height="22" viewBox="0 0 22 22" fill="none" xmlns="http://www.w3.org/2000/svg">
<path fill-rule="evenodd" clip-rule="evenodd" d="M21.9984 0.78572C21.9984 0.554335 21.8913 0.334714 21.7057 0.185424C21.5201 0.0361344 21.2748 -0.0276439 21.0353 0.0110976L6.46187 2.36824C6.06521 2.4324 5.775 2.75969 5.775 3.14286V17.1111H2.44444C1.79614 17.1111 1.17438 17.3687 0.715961 17.8271C0.257539 18.2855 0 18.9072 0 19.5556C0 20.2039 0.257539 20.8256 0.715961 21.284C1.17438 21.7425 1.79614 22 2.44444 22H4.88889C5.5372 22 6.24861 21.7425 6.70703 21.284C7.16545 20.8256 7.42299 20.2039 7.42299 19.5556V17.5145C7.42432 17.4962 7.425 17.4778 7.425 17.4593V3.80639L20.3484 1.71612V14.6667H17.1111C16.4628 14.6667 15.841 14.9242 15.3826 15.3826C14.9242 15.8411 14.6667 16.4628 14.6667 17.1111C14.6667 17.7594 14.9242 18.3812 15.3826 18.8396C15.841 19.298 16.4628 19.5556 17.1111 19.5556H19.5556C20.2039 19.5556 20.8256 19.298 21.284 18.8396C21.7425 18.3812 22 17.7594 22 17.1111V14.6667H21.9984V0.78572Z" fill="#75B3EB"/>
</svg>
