<svg width="8" height="8" viewBox="0 0 8 8" fill="none" xmlns="http://www.w3.org/2000/svg">
<path fill-rule="evenodd" clip-rule="evenodd" d="M0 0V5.83704C0 7.0316 0.968403 8 2.16296 8C3.35752 8 4.32593 7.0316 4.32593 5.83704V4.32593H5.83704C7.0316 4.32593 8 3.35752 8 2.16296C8 0.968403 7.0316 0 5.83704 0H0ZM0.888889 0.888889H1.8963C2.74722 0.888889 3.43704 1.5787 3.43704 2.42963V5.83704C3.43704 6.54069 2.86661 7.11111 2.16296 7.11111C1.45931 7.11111 0.888889 6.54069 0.888889 5.83704V0.888889ZM5.83704 0.888889H4.32593V2.48421C4.32593 3.01044 4.75252 3.43704 5.27875 3.43704H5.83704C6.54069 3.43704 7.11111 2.86661 7.11111 2.16296C7.11111 1.45931 6.54069 0.888889 5.83704 0.888889Z" fill="#3B8AD2"/>
</svg>
