<svg width="16" height="16" viewBox="0 0 16 16" fill="none" xmlns="http://www.w3.org/2000/svg">
<path d="M14.9291 7.34404L1.72812 0.743631C1.61628 0.687945 1.49207 0.661721 1.36726 0.667442C1.24245 0.673163 1.12117 0.71064 1.01489 0.776326C0.908605 0.842011 0.820846 0.933732 0.759914 1.04281C0.698983 1.15188 0.666894 1.2747 0.666687 1.39964V14.6005C0.666935 14.7254 0.699048 14.8482 0.75999 14.9572C0.820932 15.0663 0.908687 15.158 1.01495 15.2237C1.12122 15.2893 1.24249 15.3268 1.36728 15.3326C1.49208 15.3383 1.61627 15.3121 1.72812 15.2565L14.9291 8.65606C15.0506 8.59489 15.1528 8.50116 15.2242 8.38533C15.2956 8.26949 15.3334 8.13611 15.3334 8.00005C15.3334 7.86399 15.2956 7.7306 15.2242 7.61477C15.1528 7.49894 15.0506 7.40521 14.9291 7.34404Z" fill="#2B3A42"/>
</svg>
