<svg width="24" height="24" viewBox="0 0 24 24" fill="none" xmlns="http://www.w3.org/2000/svg">
<path fill-rule="evenodd" clip-rule="evenodd" d="M19.9691 22.7322C20.3443 23.0257 20.8584 23.0829 21.2915 22.8794C21.7246 22.6758 22 22.2476 22 21.7778L22 2.22224C22 1.75241 21.7246 1.32417 21.2915 1.12065C20.8584 0.917122 20.3443 0.974344 19.9691 1.26784L7.46913 11.0456C7.17262 11.2776 7 11.6287 7 12C7 12.3713 7.17261 12.7225 7.46913 12.9544L19.9691 22.7322ZM10.251 12L19.5 4.76522L19.5 19.2348L10.251 12ZM2 20.5555C2 21.2306 2.55965 21.7778 3.25 21.7778C3.94036 21.7778 4.5 21.2306 4.5 20.5555L4.50001 3.44446C4.50001 2.76945 3.94036 2.22224 3.25001 2.22224C2.55965 2.22224 2.00001 2.76945 2.00001 3.44446L2 20.5555Z" fill="#C7C7C7"/>
</svg>
