<svg width="22" height="22" viewBox="0 0 22 22" fill="none" xmlns="http://www.w3.org/2000/svg">
<path d="M15.8889 17.1111V15.8889H12.2222V12.2222H15.8889V14.6667H18.3333V17.1111H17.1111V19.5556H14.6667V22H12.2222V18.3333H14.6667V17.1111H15.8889ZM22 22H17.1111V19.5556H19.5556V17.1111H22V22ZM0 0H9.77778V9.77778H0V0ZM12.2222 0H22V9.77778H12.2222V0ZM0 12.2222H9.77778V22H0V12.2222ZM18.3333 12.2222H22V14.6667H18.3333V12.2222ZM3.66667 3.66667V6.11111H6.11111V3.66667H3.66667ZM3.66667 15.8889V18.3333H6.11111V15.8889H3.66667ZM15.8889 3.66667V6.11111H18.3333V3.66667H15.8889Z" fill="white"/>
</svg>
