<svg width="24" height="24" viewBox="0 0 24 24" fill="none" xmlns="http://www.w3.org/2000/svg">
<path fill-rule="evenodd" clip-rule="evenodd" d="M17.2041 1.40001C16.6854 0.866664 15.8409 0.866663 15.3222 1.40001C14.8084 1.92846 14.8084 2.78168 15.3222 3.31014L16.4863 4.50725H7.73685C6.47772 4.50725 5.27197 5.0217 4.38433 5.9345C3.49699 6.84701 3 8.0828 3 9.36957V11.1232C3 11.8633 3.58566 12.4783 4.32632 12.4783C5.06698 12.4783 5.65263 11.8633 5.65263 11.1232V9.36957C5.65263 8.79597 5.87429 8.2476 6.26615 7.84463C6.65771 7.44197 7.18691 7.21739 7.73685 7.21739H16.4863L15.3222 8.4145C14.8084 8.94296 14.8084 9.79618 15.3222 10.3246C15.8409 10.858 16.6854 10.858 17.2041 10.3246L20.6146 6.81739C21.1285 6.28893 21.1285 5.43571 20.6146 4.90726L17.2041 1.40001ZM19.6737 11.5217C18.933 11.5217 18.3474 12.1367 18.3474 12.8768V14.6304C18.3474 15.204 18.1257 15.7524 17.7339 16.1554C17.3423 16.558 16.8131 16.7826 16.2632 16.7826H7.51365L8.67775 15.5855C9.19163 15.057 9.19163 14.2038 8.67775 13.6754C8.15912 13.142 7.31458 13.142 6.79594 13.6754L3.38541 17.1826C2.87153 17.7111 2.87153 18.5643 3.38541 19.0927L6.79594 22.6L7.13394 22.2649L6.79594 22.6C7.31458 23.1333 8.15912 23.1333 8.67775 22.6C9.19163 22.0715 9.19163 21.2183 8.67775 20.6899L7.51366 19.4928H16.2632C17.5223 19.4928 18.728 18.9783 19.6157 18.0655C20.503 17.153 21 15.9172 21 14.6304V12.8768C21 12.1367 20.4143 11.5217 19.6737 11.5217Z" fill="#C7C7C7"/>
</svg>
