<svg width="32" height="32" viewBox="0 0 32 32" fill="none" xmlns="http://www.w3.org/2000/svg">
<circle cx="16" cy="16" r="16" fill="#75B3EB"/>
<path d="M18.4249 11.4111H8.08006L8.00155 10.1484C7.97009 9.54722 8.42043 9.03411 9.00681 9.00208L9.10523 9.00009L12.6396 9.42783L18.425 11.4111H18.4249Z" fill="#3B8AD2"/>
<path d="M12.5065 23.9999C11.9862 23.9999 11.5507 23.5953 11.5001 23.0645L10.2658 10.133C10.2658 10.133 10.25 9.84216 10.1341 9.60753C9.82817 8.98806 9.10547 9.00002 9.10547 9.00002H20.2358C20.9384 9.00002 21.5263 9.54638 21.5947 10.2629L22.9246 23.9996L12.5065 24V23.9999Z" fill="#F1F6FB"/>
<path d="M12.5949 23.9956C13.1817 23.9635 13.6297 23.4529 13.5983 22.8517L13.5751 22.4086H23.9999L23.9984 22.8517C24.0301 23.4529 23.5797 23.966 22.9932 23.998L22.8949 24H12.5063L12.5949 23.9956Z" fill="#3B8AD2"/>
<path d="M20.5077 12.5651H11.879L11.7393 10.4699H20.368L20.5077 12.5651Z" fill="#6EBAFF"/>
<path d="M20.2385 13.6737H12.4049C12.2775 13.6737 12.1743 13.7793 12.1743 13.9096V13.9099C12.1743 14.0402 12.2775 14.1458 12.4049 14.1458H20.2385C20.3658 14.1458 20.4691 14.0402 20.4691 13.9099V13.9096C20.4691 13.7793 20.3658 13.6737 20.2385 13.6737Z" fill="#6EBAFF"/>
<path d="M20.3703 15.0855H12.5367C12.4094 15.0855 12.3062 15.1911 12.3062 15.3214V15.3217C12.3062 15.452 12.4094 15.5576 12.5367 15.5576H20.3703C20.4977 15.5576 20.6009 15.452 20.6009 15.3217V15.3214C20.6009 15.1911 20.4977 15.0855 20.3703 15.0855Z" fill="#6EBAFF"/>
<path d="M20.5027 16.4973H12.669C12.5417 16.4973 12.4385 16.6029 12.4385 16.7332V16.7335C12.4385 16.8638 12.5417 16.9694 12.669 16.9694H20.5027C20.63 16.9694 20.7332 16.8638 20.7332 16.7335V16.7332C20.7332 16.6029 20.63 16.4973 20.5027 16.4973Z" fill="#6EBAFF"/>
<path d="M20.6345 17.9091H12.8009C12.6735 17.9091 12.5703 18.0147 12.5703 18.145V18.1453C12.5703 18.2755 12.6735 18.3811 12.8009 18.3811H20.6345C20.7618 18.3811 20.8651 18.2755 20.8651 18.1453V18.145C20.8651 18.0147 20.7618 17.9091 20.6345 17.9091Z" fill="#6EBAFF"/>
<path d="M20.7668 19.3208H12.9332C12.8059 19.3208 12.7026 19.4264 12.7026 19.5566V19.5569C12.7026 19.6872 12.8059 19.7928 12.9332 19.7928H20.7668C20.8942 19.7928 20.9974 19.6872 20.9974 19.5569V19.5566C20.9974 19.4264 20.8942 19.3208 20.7668 19.3208Z" fill="#6EBAFF"/>
<path d="M20.8987 20.7326H13.065C12.9377 20.7326 12.8345 20.8382 12.8345 20.9684V20.9687C12.8345 21.099 12.9377 21.2046 13.065 21.2046H20.8987C21.026 21.2046 21.1292 21.099 21.1292 20.9687V20.9684C21.1292 20.8382 21.026 20.7326 20.8987 20.7326Z" fill="#6EBAFF"/>
</svg>
