<svg width="20" height="22" viewBox="0 0 20 22" fill="none" xmlns="http://www.w3.org/2000/svg">
<path d="M18.4404 1.50427H16.011V0.470085C16.011 0.345411 15.9627 0.225844 15.8767 0.137686C15.7906 0.0495282 15.6739 0 15.5523 0C15.4306 0 15.3139 0.0495282 15.2279 0.137686C15.1419 0.225844 15.0936 0.345411 15.0936 0.470085V1.50427H10.4587V0.470085C10.4587 0.345411 10.4104 0.225844 10.3244 0.137686C10.2383 0.0495282 10.1217 0 10 0C9.87835 0 9.76165 0.0495282 9.67563 0.137686C9.58961 0.225844 9.54128 0.345411 9.54128 0.470085V1.50427H4.90642V0.470085C4.90642 0.345411 4.85809 0.225844 4.77207 0.137686C4.68606 0.0495282 4.56936 0 4.44771 0C4.32606 0 4.20936 0.0495282 4.12334 0.137686C4.03732 0.225844 3.98899 0.345411 3.98899 0.470085V1.50427H1.55963C1.14629 1.50527 0.750154 1.67398 0.457875 1.9735C0.1656 2.27302 0.000968807 2.67898 0 3.10256V20.4017C0.000968807 20.8253 0.1656 21.2312 0.457875 21.5308C0.750154 21.8303 1.14629 21.999 1.55963 22H16.1321C17.1577 21.999 18.1409 21.5811 18.8661 20.8379C19.5912 20.0948 19.999 19.0872 20 18.0362V3.10256C19.999 2.67898 19.8344 2.27302 19.5421 1.9735C19.2498 1.67398 18.8537 1.50527 18.4404 1.50427ZM15.6734 10.7668L9.87523 17.6602C9.74877 17.809 9.59332 17.929 9.4189 18.0126C9.24448 18.0961 9.0549 18.1414 8.86238 18.1453H8.82936C8.64209 18.1447 8.45688 18.1054 8.28477 18.0298C8.11262 17.9542 7.95714 17.8438 7.82752 17.7053L4.37064 14.0085C4.18183 13.8055 4.05604 13.5497 4.0091 13.2735C3.96217 12.9972 3.99626 12.7128 4.10705 12.4564C4.2178 12.2 4.40029 11.983 4.63141 11.8329C4.86257 11.6828 5.13193 11.6062 5.4055 11.613C5.58741 11.6167 5.76679 11.6575 5.93314 11.733C6.09949 11.8086 6.24947 11.9173 6.37431 12.053L8.42202 14.253C8.46697 14.301 8.52117 14.3388 8.58121 14.364C8.64125 14.3893 8.70576 14.4014 8.77064 14.3997C8.83574 14.3985 8.89982 14.3831 8.95868 14.3546C9.0175 14.3261 9.06976 14.285 9.11193 14.2342L13.5817 8.91658C13.7002 8.77582 13.8447 8.6604 14.0067 8.57684C14.1688 8.49332 14.3454 8.4433 14.5263 8.42969C14.7073 8.41603 14.8891 8.43909 15.0613 8.49745C15.2336 8.55586 15.3929 8.64841 15.5303 8.76991C15.6676 8.89142 15.7803 9.03944 15.8618 9.20551C15.9433 9.37162 15.9921 9.55255 16.0054 9.73799C16.0187 9.92343 15.9962 10.1097 15.9393 10.2863C15.8823 10.4628 15.792 10.6261 15.6734 10.7668ZM16.367 21.0485V18.2769H19.0716C19.0147 18.9925 18.7115 19.6642 18.2161 20.1719C17.7207 20.6796 17.0653 20.9903 16.367 21.0485ZM19.0826 5.17094H0.917431V3.10256C0.918396 2.92833 0.986363 2.76151 1.10659 2.63829C1.22682 2.51509 1.38961 2.44543 1.55963 2.44444H3.98899V3.47863C3.98899 3.6033 4.03732 3.72289 4.12334 3.81104C4.20936 3.89919 4.32606 3.94872 4.44771 3.94872C4.56936 3.94872 4.68606 3.89919 4.77207 3.81104C4.85809 3.72289 4.90642 3.6033 4.90642 3.47863V2.44444H9.54128V3.47863C9.54128 3.6033 9.58961 3.72289 9.67563 3.81104C9.76165 3.89919 9.87835 3.94872 10 3.94872C10.1217 3.94872 10.2383 3.89919 10.3244 3.81104C10.4104 3.72289 10.4587 3.6033 10.4587 3.47863V2.44444H15.0936V3.47863C15.0936 3.6033 15.1419 3.72289 15.2279 3.81104C15.3139 3.89919 15.4306 3.94872 15.5523 3.94872C15.6739 3.94872 15.7906 3.89919 15.8767 3.81104C15.9627 3.72289 16.011 3.6033 16.011 3.47863V2.44444H18.4404C18.6104 2.44543 18.7732 2.51509 18.8934 2.63829C19.0137 2.76151 19.0816 2.92833 19.0826 3.10256V5.17094Z" fill="#75B3EB"/>
</svg>
