<svg width="22" height="22" viewBox="0 0 22 22" fill="none" xmlns="http://www.w3.org/2000/svg">
<path d="M21.3935 16.0182L14.7931 12.3513C14.6253 12.2583 14.439 12.2145 14.2517 12.2239C14.0644 12.2334 13.8824 12.2958 13.723 12.4053C13.5635 12.5148 13.4318 12.6678 13.3405 12.8497C13.2491 13.0315 13.2011 13.2364 13.2009 13.4446V15.7157C12.2573 15.4492 11.4205 14.8408 10.8229 13.9868C10.2252 13.1328 9.90071 12.0818 9.90071 11C9.90071 9.9182 10.2252 8.86723 10.8229 8.01322C11.4205 7.15921 12.2573 6.55087 13.2009 6.28434V8.5554C13.2013 8.76361 13.2495 8.96827 13.3409 9.15002C13.4323 9.33178 13.5639 9.48462 13.7233 9.59408C13.8827 9.70354 14.0646 9.76601 14.2518 9.77558C14.439 9.78515 14.6253 9.7415 14.7931 9.64876L21.3935 5.98182C21.5758 5.87988 21.7291 5.72367 21.8362 5.5306C21.9433 5.33753 22 5.11519 22 4.8884C22 4.66161 21.9433 4.43927 21.8362 4.2462C21.7291 4.05313 21.5758 3.89691 21.3935 3.79498L14.7931 0.128043C14.6253 0.0353328 14.439 -0.00829044 14.2518 0.00129916C14.0646 0.0108888 13.8827 0.073374 13.7233 0.182845C13.5639 0.292317 13.4323 0.445156 13.3409 0.626908C13.2495 0.80866 13.2013 1.01332 13.2009 1.22152V3.77616C12.311 3.94377 11.4614 4.31224 10.7046 4.85883C9.94774 5.40542 9.29977 6.11853 8.80061 6.95417C8.19957 5.94392 7.38263 5.11486 6.4228 4.54109C5.46297 3.96732 4.39015 3.66672 3.30023 3.66615H1.10008C0.808318 3.66615 0.528509 3.79493 0.322205 4.02416C0.115901 4.25338 0 4.56428 0 4.88846C0 5.21264 0.115901 5.52354 0.322205 5.75277C0.528509 5.98199 0.808318 6.11077 1.10008 6.11077H3.30023C4.46726 6.11077 5.5865 6.62589 6.41172 7.5428C7.23693 8.45971 7.70053 9.70331 7.70053 11C7.70053 12.2967 7.23693 13.5403 6.41172 14.4572C5.5865 15.3742 4.46726 15.8893 3.30023 15.8893H1.10008C0.808318 15.8893 0.528509 16.0181 0.322205 16.2473C0.115901 16.4765 0 16.7874 0 17.1116C0 17.4358 0.115901 17.7467 0.322205 17.9759C0.528509 18.2051 0.808318 18.3339 1.10008 18.3339H3.30023C4.39015 18.3333 5.46297 18.0327 6.4228 17.459C7.38263 16.8852 8.19957 16.0561 8.80061 15.0459C9.29977 15.8815 9.94774 16.5946 10.7046 17.1412C11.4614 17.6878 12.311 18.0563 13.2009 18.2239V20.7785C13.2013 20.9867 13.2495 21.1914 13.3409 21.3731C13.4323 21.5549 13.5639 21.7077 13.7233 21.8172C13.8827 21.9267 14.0646 21.9891 14.2518 21.9987C14.439 22.0083 14.6253 21.9646 14.7931 21.8719L21.3935 18.2049C21.5758 18.103 21.7291 17.9468 21.8361 17.7537C21.9432 17.5607 21.9999 17.3384 21.9999 17.1116C21.9999 16.8848 21.9432 16.6625 21.8361 16.4694C21.7291 16.2764 21.5758 16.1202 21.3935 16.0182Z" fill="#2B3A42"/>
</svg>
