<svg width="16" height="16" viewBox="0 0 16 16" fill="none" xmlns="http://www.w3.org/2000/svg">
<path fill-rule="evenodd" clip-rule="evenodd" d="M7.5286 0.861949C7.78894 0.6016 8.21105 0.6016 8.4714 0.861949L11.1381 3.52862C11.3984 3.78897 11.3984 4.21108 11.1381 4.47142C10.8777 4.73177 10.4556 4.73177 10.1953 4.47142L8.66667 2.94283V10C8.66667 10.3682 8.36819 10.6667 8 10.6667C7.63181 10.6667 7.33333 10.3682 7.33333 10V2.94283L5.80474 4.47142C5.54439 4.73177 5.12228 4.73177 4.86193 4.47142C4.60158 4.21108 4.60158 3.78897 4.86193 3.52862L7.5286 0.861949ZM2.66667 7.33335C3.03486 7.33335 3.33333 7.63183 3.33333 8.00002V13.3334C3.33333 13.5102 3.40357 13.6797 3.5286 13.8048C3.65362 13.9298 3.82319 14 4 14H12C12.1768 14 12.3464 13.9298 12.4714 13.8048C12.5964 13.6797 12.6667 13.5102 12.6667 13.3334V8.00002C12.6667 7.63183 12.9651 7.33335 13.3333 7.33335C13.7015 7.33335 14 7.63183 14 8.00002V13.3334C14 13.8638 13.7893 14.3725 13.4142 14.7476C13.0391 15.1226 12.5304 15.3334 12 15.3334H4C3.46957 15.3334 2.96086 15.1226 2.58579 14.7476C2.21071 14.3725 2 13.8638 2 13.3334V8.00002C2 7.63183 2.29848 7.33335 2.66667 7.33335Z" fill="#4F4F4F"/>
</svg>
