<svg width="24" height="24" viewBox="0 0 24 24" fill="none" xmlns="http://www.w3.org/2000/svg">
<path fill-rule="evenodd" clip-rule="evenodd" d="M4.03087 1.26784C3.65566 0.974339 3.1416 0.917117 2.70851 1.12064C2.27543 1.32416 2 1.7524 2 2.22223V21.7778C2 22.2476 2.27543 22.6758 2.70851 22.8794C3.1416 23.0829 3.65566 23.0257 4.03087 22.7322L16.5309 12.9544C16.8274 12.7224 17 12.3713 17 12C17 11.6287 16.8274 11.2775 16.5309 11.0456L4.03087 1.26784ZM13.749 12L4.5 19.2348V4.76521L13.749 12ZM22 3.44445C22 2.76943 21.4404 2.22223 20.75 2.22223C20.0596 2.22223 19.5 2.76943 19.5 3.44445V20.5555C19.5 21.2306 20.0596 21.7778 20.75 21.7778C21.4404 21.7778 22 21.2306 22 20.5555V3.44445Z" fill="#C7C7C7"/>
</svg>
