<svg width="24" height="24" viewBox="0 0 24 24" fill="none" xmlns="http://www.w3.org/2000/svg">
<path fill-rule="evenodd" clip-rule="evenodd" d="M1 12C1 5.9346 5.9346 1 12 1C18.0654 1 23 5.9346 23 12C23 18.0654 18.0654 23 12 23C5.9346 23 1 18.0654 1 12ZM3.2 12C3.2 16.8521 7.1479 20.8 12 20.8C16.8521 20.8 20.8 16.8521 20.8 12C20.8 7.1479 16.8521 3.2 12 3.2C7.1479 3.2 3.2 7.1479 3.2 12ZM13.7114 16.0546C14.2336 15.8319 14.7085 15.5116 15.1106 15.1108C15.3102 14.9114 15.4904 14.6934 15.6485 14.4596L17.4723 15.6905C17.2369 16.0403 16.9641 16.3703 16.6649 16.6684C16.3635 16.9687 16.0346 17.2393 15.6903 17.4725C14.9755 17.9555 14.1726 18.2931 13.3275 18.4658C12.451 18.6446 11.5474 18.6446 10.671 18.4658C9.82571 18.2933 9.02278 17.9558 8.30817 17.4725C7.60592 16.9973 7.00074 16.3925 6.52506 15.6905L8.34886 14.4596C8.91928 15.3058 9.76598 15.9276 10.7442 16.2185C11.7223 16.5095 12.7712 16.4515 13.7114 16.0546ZM15.8422 11.9845C16.7492 11.9845 17.4845 11.2492 17.4845 10.3422C17.4845 9.43519 16.7492 8.69991 15.8422 8.69991C14.9352 8.69991 14.1999 9.43519 14.1999 10.3422C14.1999 11.2492 14.9352 11.9845 15.8422 11.9845ZM9.79936 10.3499C9.79936 11.2612 9.06063 11.9999 8.14936 11.9999C7.23809 11.9999 6.49936 11.2612 6.49936 10.3499C6.49936 9.43864 7.23809 8.69991 8.14936 8.69991C9.06063 8.69991 9.79936 9.43864 9.79936 10.3499Z" fill="#C7C7C7"/>
</svg>
