<svg width="49" height="49" viewBox="0 0 49 49" fill="none" xmlns="http://www.w3.org/2000/svg">
<path d="M5.30726 25.5388C5.17836 25.4922 5.16056 25.9065 5.27793 25.8223L5.4624 25.8127C5.43752 25.6829 5.3921 25.5689 5.30726 25.5388Z" fill="#FFE36C"/>
<path d="M5.46351 25.8127C5.47691 25.8812 5.48551 25.9548 5.48986 26.0219C5.73809 29.5598 6.358 33.0612 7.32049 36.3574C7.67852 37.5827 8.09769 38.8096 8.7531 39.735C9.36835 40.6029 10.1557 41.1517 10.96 41.5234C12.2983 42.141 13.7009 42.3008 15.089 42.4247C21.9455 43.0406 28.8138 42.9104 35.6212 42.0354C38.1736 41.7069 40.9877 41.061 42.5312 38.0951C43.4587 36.3104 43.755 33.9774 44.0248 31.7353C44.342 29.0967 44.4746 28.0014 44.7929 25.3625L5.46498 25.8135L5.46351 25.8127Z" fill="#C5E3FF"/>
<path opacity="0.1" d="M44.3067 29.3658C44.4081 28.5196 44.5002 27.7583 44.6127 26.8242C34.35 26.9136 24.0873 27.003 13.8257 27.0921L5.5821 27.1647C5.66107 28.014 5.76148 28.8602 5.88269 29.7008C15.918 29.6131 25.9533 29.5253 35.9886 29.4376C38.7612 29.4133 41.5338 29.3889 44.3064 29.3646L44.3067 29.3658Z" fill="#6EBAFF"/>
<path d="M29.3965 24.3777C25.1024 18.5436 20.8081 12.7083 16.5125 6.87329C15.303 5.22971 13.0009 7.2824 14.2055 8.91699C18.4998 14.7523 22.7951 20.5861 27.0894 26.4214C28.2989 28.065 30.5999 26.0126 29.3965 24.3777Z" fill="white"/>
<path d="M28.4561 26.3282C28.4561 26.3282 14.6945 7.78545 14.2163 7.15638C13.737 6.52763 10.7711 7.35582 10.9823 9.25788C11.1935 11.1599 9.40794 9.19682 8.2618 10.5998C7.11533 12.0016 7.99037 13.0626 7.88518 13.3818C7.77999 13.701 6.58085 13.3578 5.92855 14.6349C5.27626 15.912 6.07074 16.8156 6.00961 17.3316C5.94848 17.8476 4.3773 17.5488 4.09747 19.2592C3.81765 20.9696 5.25693 21.2291 5.20758 21.7059C5.15824 22.1827 3.96247 21.9584 3.94203 23.8234C3.92159 25.6883 6.39781 26.4529 7.09121 26.5633C7.7846 26.6737 28.4561 26.3282 28.4561 26.3282Z" fill="#C5E3FF"/>
<path d="M27.727 25.9751C27.744 25.9924 27.7619 26.0082 27.78 26.0252C27.9283 26.1671 28.11 26.1197 28.2149 26.0027C27.9943 25.7064 27.6318 25.2176 27.1643 24.587C21.8566 19.5409 16.4615 14.5942 10.9824 9.74978C10.9296 10.0614 10.7533 10.1473 10.5011 10.1492C15.7138 14.7572 20.8509 19.4575 25.908 24.2475C19.8991 20.5367 14.1202 16.4036 7.86598 13.15C7.89238 13.2485 7.90342 13.3267 7.8851 13.3831C7.84442 13.5086 7.63384 13.5316 7.35497 13.5908C14.3443 17.1986 20.7324 21.9179 27.4984 25.9449C27.5808 25.9936 27.6589 25.9984 27.7276 25.9775L27.727 25.9751Z" fill="white"/>
<path d="M14.6738 24.0036C18.1595 24.6947 21.6452 25.3858 25.1324 26.0778C25.3603 26.1752 25.5886 26.2737 25.8165 26.371C26.1285 26.3659 26.4184 26.3617 26.6836 26.3576C26.734 26.2269 26.7056 26.0748 26.5392 26.0035C26.3898 25.9405 26.2412 25.876 26.0926 25.8115C26.0762 25.7039 26.0071 25.6078 25.8685 25.5806C25.6738 25.5426 25.4788 25.5034 25.2852 25.4651C22.0089 24.0624 18.7367 22.6522 15.4656 21.2365C13.6694 20.4584 11.8729 19.6791 10.076 18.8986C8.74603 18.3213 7.29162 17.8251 5.99454 17.1025C6.01181 17.1855 6.01989 17.2618 6.01121 17.3311C5.99398 17.4748 5.85966 17.5559 5.66882 17.6341C6.93058 18.3403 8.34453 18.8242 9.6413 19.3885C11.4843 20.1888 13.3285 20.9889 15.1724 21.7877C17.5625 22.8226 19.9555 23.8542 22.3489 24.883C19.8389 24.3851 17.3303 23.888 14.8202 23.39C13.0283 23.0344 11.2378 22.6797 9.4458 22.3241C7.99649 22.0364 6.52545 21.797 5.08699 21.4343C5.16963 21.5254 5.21868 21.6115 5.20919 21.7054C5.19357 21.8551 5.06418 21.9361 4.89366 22.0346C6.29936 22.3907 7.73599 22.6264 9.15255 22.9075C10.9942 23.2729 12.8359 23.6384 14.6761 24.0029L14.6738 24.0036Z" fill="white"/>
<path d="M44.0037 24.3244L5.73962 24.7802C4.96817 24.7898 4.24945 25.5001 4.31061 26.3246C4.37126 27.1518 5.00493 27.8435 5.83191 27.8331L44.096 27.3774C44.8675 27.3677 45.5862 26.6575 45.525 25.833C45.4644 25.0057 44.8307 24.314 44.0037 24.3244Z" fill="white"/>
<path d="M27.1498 25.8915C27.2055 25.8547 27.2579 25.8097 27.313 25.7705C27.4282 25.6456 27.5311 25.5073 27.6117 25.3505C27.6683 25.2014 27.7223 25.0517 27.7722 24.9006C28.7111 21.7117 29.6499 18.5228 30.5899 15.3336C30.8624 14.4094 31.1348 13.4801 31.279 12.5207C31.3445 12.0859 31.3793 11.6194 31.2094 11.2258C30.9785 10.6876 30.4372 10.4373 29.9333 10.2672C29.5099 10.1244 29.0804 10.0051 28.6463 9.9102C28.2531 9.82496 27.8139 9.82674 27.469 10.0647C27.1178 10.3069 26.7905 11.3733 26.665 11.8202C25.6718 15.3791 25.5574 18.4836 25.2767 22.1967C25.2161 23.001 25.1551 23.8042 25.0944 24.6085C25.0973 24.6283 25.099 24.6485 25.1018 24.6683C25.1811 25.2279 25.5679 25.6084 26.0055 25.8272C26.3288 25.9892 26.7245 26.0608 27.0754 25.9514C27.0981 25.9298 27.1215 25.9107 27.1478 25.8933L27.1498 25.8915Z" fill="white"/>
<path d="M27.3399 25.4131C27.3587 26.0519 26.8996 26.5755 26.3134 26.5832C25.7269 26.5897 25.2366 26.0772 25.2177 25.4383C25.1989 24.7995 25.658 24.276 26.2442 24.2683C26.8308 24.2618 27.3211 24.7743 27.3399 25.4131Z" fill="#6EBAFF"/>
<path opacity="0.1" d="M36.4749 40.2491C34.5924 41.2287 32.6211 41.9603 30.5656 42.4699C30.4193 42.5065 30.2728 42.5419 30.1262 42.5773C31.9595 42.4492 33.7903 42.2703 35.6162 42.036C38.1686 41.7075 40.9827 41.0617 42.5262 38.0958C43.1773 36.8422 43.517 35.3179 43.7555 33.7448C42.427 36.8243 39.3308 38.7653 36.4752 40.2503L36.4749 40.2491Z" fill="#6EBAFF"/>
</svg>
