<svg width="16" height="16" viewBox="0 0 16 16" fill="none" xmlns="http://www.w3.org/2000/svg">
<path fill-rule="evenodd" clip-rule="evenodd" d="M1.48217 8.81557H2.28797C2.64225 11.3525 4.65836 13.3579 7.18441 13.7119V14.5178C7.18441 14.9553 7.5402 15.3334 7.99996 15.3334C8.4375 15.3334 8.81551 14.9776 8.81551 14.5178V13.712C11.3524 13.3577 13.3579 11.3416 13.7118 8.81557H14.5177C14.9553 8.81557 15.3333 8.45978 15.3333 8.00002C15.3333 7.56248 14.9775 7.18447 14.5177 7.18447H13.7119C13.3577 4.64759 11.3416 2.6421 8.81551 2.28816V1.48224C8.81551 1.04469 8.45972 0.666687 7.99996 0.666687C7.56242 0.666687 7.18441 1.02247 7.18441 1.48224V2.28804C4.64753 2.64231 2.64204 4.65842 2.2881 7.18447H1.48217C1.02744 7.18447 0.666626 7.54529 0.666626 8.00002C0.666626 8.45978 1.04463 8.81557 1.48217 8.81557ZM0.985467 8.00002C0.985467 7.72138 1.20353 7.50331 1.48217 7.50331C1.20353 7.50331 0.985467 7.72138 0.985467 8.00002ZM5.56488 7.18447H3.93774C4.26512 5.54599 5.55738 4.25476 7.18441 3.93611V5.56494C7.18441 6.00248 7.5402 6.38049 7.99996 6.38049C8.4375 6.38049 8.81551 6.0247 8.81551 5.56494V3.9378C10.454 4.26518 11.7452 5.55744 12.0639 7.18447H10.435C9.9975 7.18447 9.61949 7.54026 9.61949 8.00002C9.61949 8.43756 9.97528 8.81557 10.435 8.81557H12.0622C11.7348 10.4541 10.4425 11.7453 8.81551 12.0639V10.4351C8.81551 9.99756 8.45972 9.61955 7.99996 9.61955C7.56242 9.61955 7.18441 9.97534 7.18441 10.4351V12.0622C5.54593 11.7349 4.2547 10.4426 3.93604 8.81557H5.56488C6.00242 8.81557 6.38043 8.45978 6.38043 8.00002C6.38043 7.5574 6.00749 7.18447 5.56488 7.18447Z" fill="#2B3A42"/>
</svg>
