<svg width="24" height="24" viewBox="0 0 24 24" fill="none" xmlns="http://www.w3.org/2000/svg">
<path d="M21 0H3C2.20435 0 1.44129 0.316071 0.87868 0.87868C0.316071 1.44129 0 2.20435 0 3V21C0 21.7957 0.316071 22.5587 0.87868 23.1213C1.44129 23.6839 2.20435 24 3 24H21C21.7957 24 22.5587 23.6839 23.1213 23.1213C23.6839 22.5587 24 21.7957 24 21V3C24 2.20435 23.6839 1.44129 23.1213 0.87868C22.5587 0.316071 21.7957 0 21 0ZM12.6 19.8C12.6 19.9591 12.5368 20.1117 12.4243 20.2243C12.3117 20.3368 12.1591 20.4 12 20.4C11.8409 20.4 11.6883 20.3368 11.5757 20.2243C11.4632 20.1117 11.4 19.9591 11.4 19.8V13.8C11.4 13.6409 11.4632 13.4883 11.5757 13.3757C11.6883 13.2632 11.8409 13.2 12 13.2C12.1591 13.2 12.3117 13.2632 12.4243 13.3757C12.5368 13.4883 12.6 13.6409 12.6 13.8V19.8ZM17.724 5.844L16.986 8.13C16.8481 8.56043 16.5525 8.92276 16.1585 9.14424C15.7646 9.36571 15.3014 9.42993 14.862 9.324C12.9785 8.89201 11.0215 8.89201 9.138 9.324C9.00066 9.35804 8.85948 9.37418 8.718 9.372C8.33914 9.37174 7.9701 9.25139 7.66394 9.02823C7.35777 8.80507 7.13022 8.4906 7.014 8.13L6.276 5.844C6.19943 5.60935 6.17193 5.36146 6.19523 5.11574C6.21852 4.87001 6.2921 4.63171 6.41139 4.41562C6.53069 4.19954 6.69315 4.0103 6.88868 3.85967C7.08421 3.70904 7.30863 3.60022 7.548 3.54C10.4731 2.826 13.5269 2.826 16.452 3.54C16.6914 3.60022 16.9158 3.70904 17.1113 3.85967C17.3069 4.0103 17.4693 4.19954 17.5886 4.41562C17.7079 4.63171 17.7815 4.87001 17.8048 5.11574C17.8281 5.36146 17.8006 5.60935 17.724 5.844Z" fill="white"/>
</svg>
