<svg width="200" height="200" viewBox="0 0 200 200" fill="none" xmlns="http://www.w3.org/2000/svg">
<circle opacity="0.2" cx="100" cy="100" r="100" fill="#75B3EB"/>
<mask id="mask0_3055_15346" style="mask-type:alpha" maskUnits="userSpaceOnUse" x="0" y="0" width="200" height="200">
<circle cx="100" cy="100" r="100" fill="#D9D9D9"/>
</mask>
<g mask="url(#mask0_3055_15346)">
<path d="M141.064 225.19H63.9596C63.8454 188.025 80.3181 163.069 80.3181 163.069C80.3181 163.069 70.1857 137.375 65.8947 114.831C64.7623 109.297 64.1248 103.673 63.9896 98.0258C63.8454 74.576 79.8072 71.2389 80.306 71.1429C70.0054 76.0705 63.6771 92.3119 69.0799 108.421C73.1304 120.503 86.1956 116.062 86.1956 116.062C87.2797 115.361 88.3231 114.6 89.3206 113.781C94.943 109.146 98.9577 102.857 100.793 95.8111C100.806 95.764 100.832 95.7212 100.866 95.6868C100.901 95.6524 100.944 95.6277 100.992 95.6149C101.039 95.6022 101.089 95.602 101.136 95.6143C101.183 95.6266 101.227 95.6509 101.262 95.685C104.641 98.8136 108.242 101.694 112.037 104.304C115.397 106.705 118.822 108.973 122.146 111.404C123.774 112.605 125.379 113.805 126.954 115.089C128.49 116.305 129.936 117.631 131.281 119.057C132.593 120.428 133.596 122.066 134.219 123.858C134.784 125.755 134.827 127.767 134.346 129.686C133.42 133.618 130.74 136.805 127.921 139.553C128.744 141.666 129.514 143.803 130.211 145.964C132.31 152.494 133.833 159.196 134.76 165.992C142.909 190.282 141.064 225.19 141.064 225.19Z" fill="#6EBAFF"/>
<path d="M147.928 129.398C147.58 130.631 147.081 131.816 146.443 132.927C144.6 135.909 142.21 138.518 139.4 140.616C138.799 141.084 138.198 141.522 137.567 141.936C138.377 144.521 138.698 147.235 138.51 149.937C138.637 150.831 138.721 151.684 138.781 152.416C140.524 153.328 143.138 155.063 143.168 157.319C143.204 160.698 138.697 166.112 136.731 166.028C135.818 165.992 135.229 164.444 134.85 162.799C134.502 162.973 134.159 163.135 133.811 163.279C129.171 165.212 124.826 164.516 124.315 162.145C123.546 158.544 131.07 154.907 131.07 154.907C123.486 152.254 122.741 147.068 122.741 145.718C121.726 143.586 120.826 141.402 120.042 139.175C119.069 136.456 118.197 133.702 117.284 130.971C116.31 128.126 115.325 125.289 114.327 122.46C112.324 116.782 110.241 111.136 108.077 105.522C107.951 105.18 108.492 105.036 108.624 105.372V105.45C108.792 104.622 109.646 104.25 110.325 103.914L110.433 103.86C111.234 103.452 112.056 103.087 112.897 102.767C113.991 102.329 115.102 101.945 116.214 101.567C116.256 101.567 116.322 101.567 116.395 101.507L117.596 101.081C120.109 100.121 125.199 97.6777 127.753 93.0862C128.201 94.7064 129.053 96.1869 130.229 97.3896L132.11 98.8001C132.578 99.064 133.069 99.285 133.576 99.4603L133.378 99.7484C133.853 100.103 134.322 100.463 134.796 100.811C136.641 102.191 138.51 103.542 140.295 105.012C143.522 107.629 146.587 110.882 147.549 115.047C147.704 115.752 147.801 116.469 147.837 117.19C148.272 118.886 148.533 120.621 148.619 122.37C148.775 124.735 148.542 127.109 147.928 129.398Z" fill="#65E3C5"/>
<path d="M138.119 147.722C132.542 144.463 128.702 136.961 128.702 136.961C129.093 136.282 129.471 135.592 129.85 134.878L134.291 138.809L131.07 132.501C132.735 129.152 134.315 125.551 135.74 121.992C138.961 123.546 145.529 130.995 145.734 131.253C145.686 130.959 144.153 121.956 144.958 121.698C145.559 121.5 146.293 121.698 147.537 123.162C148.155 123.925 148.723 124.727 149.237 125.563C151.575 129.29 155.121 145.585 145.74 148.737C143.005 149.679 140.415 149.061 138.119 147.722Z" fill="#FEE4E0"/>
<path d="M140.001 110.018C138.877 113.619 137.41 117.784 135.74 121.992C134.315 125.551 132.735 129.152 131.07 132.501C130.668 133.311 130.259 134.104 129.868 134.902C129.478 135.7 129.111 136.306 128.72 136.985C126.761 140.442 124.73 143.395 122.711 145.387C121.154 146.96 119.61 147.956 118.143 148.178C111.533 149.169 96.5082 130.31 86.1955 116.074C86.1955 116.074 73.1304 120.515 69.0798 108.433C63.6711 92.3239 70.0053 76.0825 80.306 71.1549C84.5489 70.8188 88.96 74.2519 93.1848 79.5157C94.9189 81.7077 96.5242 83.9983 97.9926 86.3759C99.7955 89.2209 101.478 92.2759 103.095 95.3789C103.816 96.7714 104.519 98.1818 105.204 99.5803C106.959 103.181 108.558 106.747 109.952 110.024C113.558 118.541 115.842 125.071 115.842 125.071L123.197 114.453L131.214 102.887L133.618 99.4543C132.192 98.9518 130.913 98.1037 129.895 96.986C128.878 95.8683 128.154 94.5159 127.789 93.0501C129.029 90.7955 129.531 88.2098 129.225 85.6557C129.034 83.8021 128.719 81.9634 128.282 80.1519C131.887 80.7521 141.942 93.8604 142.441 99.1121C142.573 100.607 141.647 104.736 140.001 110.018Z" fill="#FEE4E0"/>
<path d="M131.233 102.881L123.216 114.447C117.41 114.711 110.205 110.168 109.994 110.018C108.6 106.741 106.989 103.181 105.247 99.5743L105.505 99.4483L116.268 101.555L122.482 102.755C122.482 102.755 126.377 99.0942 131.1 102.755L131.233 102.881Z" fill="#FEE4E0"/>
<path d="M127.789 93.0502C124.508 98.9621 117.007 101.303 116.238 101.531L105.475 99.4243L105.216 99.5503C104.531 98.1458 103.828 96.7354 103.107 95.3489C102.639 93.6749 102.468 91.9321 102.602 90.1992C98.4614 83.0989 101.244 77.8171 101.244 77.8171C104.249 77.265 108.095 75.4163 112.849 71.8152C114.787 70.3802 116.568 68.7446 118.161 66.9355C121.983 67.5357 125.373 71.275 127.398 77.1749C127.723 78.1052 127.999 79.0836 128.276 80.1219C128.713 81.9334 129.028 83.7721 129.219 85.6257C129.533 88.1891 129.033 90.7862 127.789 93.0502Z" fill="#FEE4E0"/>
<path d="M118.161 66.9835C116.567 68.7926 114.787 70.4282 112.849 71.8631C108.095 75.4223 104.279 77.2649 101.244 77.8651C100.343 78.0388 99.4228 78.0853 98.5093 78.0032C93.1006 77.475 90.9911 71.7251 90.6666 64.6368C90.4336 69.724 91.2964 74.802 93.1967 79.5277C88.9899 74.2639 84.5607 70.8308 80.3179 71.1669C80.3179 71.1669 88.7315 62.7641 88.5452 53.329C88.5452 53.329 84.9394 51.1563 86.7843 45.5805C88.6293 40.0046 92.8722 40.4848 94.1763 41.5291C95.4804 42.5735 95.0357 46.3307 95.0357 46.3307C95.0357 46.3307 112.464 56.0899 122.969 43.9299C122.969 43.9119 128.149 55.5618 118.161 66.9835Z" fill="#FEE4E0"/>
<path d="M131.07 132.501L134.291 138.809L129.85 134.878C130.259 134.104 130.667 133.311 131.07 132.501Z" fill="#65E3C5"/>
<path d="M132.356 40.1307C132.248 46.0426 136.719 53.8212 136.719 53.8212C134.917 55.8919 128.829 54.9616 128.829 54.9616C132.002 64.9009 128.522 74.534 127.392 77.2289C125.349 71.329 121.984 67.5718 118.155 66.9896C128.162 55.5858 122.963 43.9179 122.963 43.9179C112.452 56.0539 95.0299 46.3187 95.0299 46.3187C95.0299 46.3187 95.4807 42.5855 94.1706 41.5172C92.8604 40.4488 88.6055 39.9866 86.7786 45.5685C84.9516 51.1503 88.5454 53.299 88.5454 53.299C88.7558 62.7402 80.3181 71.1369 80.3181 71.1369C79.8193 71.233 63.8575 74.5701 63.9717 98.0438C64.1068 103.691 64.7444 109.315 65.8767 114.849C29.2174 95.7631 52.9138 67.1876 71.7603 57.7765C87.1692 50.058 85.2281 31.2598 95.2944 24.8797C105.361 18.4996 113.263 25.6119 113.263 25.6119C122.188 19.91 132.471 34.2307 132.356 40.1307Z" fill="#0E2128"/>
<path d="M102.602 90.2172C102.468 91.9501 102.639 93.6929 103.107 95.3669C101.49 92.2639 99.7833 89.2089 98.0044 86.364L98.5092 77.9612C99.4227 78.0433 100.343 77.9969 101.244 77.8232C101.244 77.8232 98.4611 83.1169 102.602 90.2172Z" fill="#0E2128"/>
<path d="M98.5093 77.9732L98.0045 86.3759C96.5361 83.9983 94.9308 81.7077 93.1967 79.5157C91.2964 74.79 90.4336 69.712 90.6666 64.6248C90.9912 71.6951 93.1186 77.445 98.5093 77.9732Z" fill="#0E2128"/>
<path d="M128.498 80.236C128.432 79.8818 127.897 80.0319 127.957 80.386C128.676 84.4487 128.572 88.6143 127.651 92.6361C127.573 92.9902 128.114 93.1402 128.192 92.7861C129.134 88.6654 129.238 84.3976 128.498 80.236Z" fill="#0E2128"/>
<path d="M127.548 83.3089C127.402 82.2443 126.974 81.2377 126.31 80.392C126.083 80.1475 125.803 79.958 125.491 79.838C125.18 79.718 124.845 79.6707 124.512 79.6997C124.179 79.7286 123.858 79.8331 123.571 80.0051C123.285 80.177 123.042 80.412 122.861 80.6921L122.759 80.6441C122.695 80.614 122.622 80.6091 122.554 80.6301C122.487 80.6512 122.43 80.6967 122.394 80.7578C122.359 80.8189 122.347 80.891 122.363 80.9599C122.378 81.0289 122.418 81.0896 122.476 81.1302L122.614 81.1902C122.438 81.6658 122.393 82.1797 122.482 82.6787C122.542 83.0328 123.083 82.8828 123.023 82.5287C122.961 82.1624 122.994 81.7862 123.119 81.4363L123.672 81.7004C123.737 81.7345 123.813 81.743 123.884 81.7241C123.955 81.7052 124.017 81.6603 124.057 81.5984C124.092 81.5335 124.102 81.4574 124.082 81.3859C124.063 81.3144 124.018 81.2529 123.954 81.2142L123.384 80.9442C123.522 80.7488 123.701 80.5855 123.909 80.4653C124.116 80.3452 124.347 80.2711 124.585 80.2479C125.745 80.1279 126.346 81.2383 126.671 82.1686C127.134 83.2814 127.241 84.5098 126.977 85.6857C126.856 86.1714 126.613 86.6183 126.271 86.9846C125.93 87.351 125.501 87.6248 125.024 87.7804C124.961 87.8067 124.91 87.8549 124.88 87.9162C124.849 87.9774 124.843 88.0475 124.86 88.1134C124.878 88.1793 124.919 88.2367 124.975 88.2748C125.032 88.3129 125.101 88.3291 125.168 88.3206C125.623 88.1828 126.043 87.9513 126.402 87.6412C126.762 87.331 127.052 86.9491 127.254 86.52C127.698 85.5098 127.801 84.3829 127.548 83.3089Z" fill="#0E2128"/>
<path d="M131.449 102.689C128.644 106.551 125.914 110.47 123.258 114.447C123.059 114.747 123.546 115.047 123.744 114.729C126.385 110.752 129.113 106.833 131.93 102.971C132.146 102.653 131.659 102.401 131.449 102.689Z" fill="#0E2128"/>
<path d="M110.12 110.114C108.746 106.597 107.274 103.117 105.703 99.6763C105.553 99.3522 105.102 99.6343 105.222 99.9584C106.765 103.356 108.217 106.789 109.579 110.258C109.688 110.594 110.228 110.456 110.12 110.114Z" fill="#0E2128"/>
<path d="M116.07 101.327C114.803 100.965 113.502 100.738 112.187 100.649L108.293 100.145C107.626 100.06 106.923 100.036 106.268 99.8864C105.613 99.7364 105.39 99.0642 105.108 98.596C104.458 97.5128 103.933 96.3589 103.545 95.1569C103.431 94.8148 102.89 94.9588 103.005 95.3069C103.407 96.5543 103.949 97.7523 104.621 98.8781C104.863 99.3998 105.214 99.8641 105.649 100.241C106.218 100.486 106.832 100.609 107.452 100.601C108.858 100.775 110.27 100.955 111.659 101.141L113.9 101.447C114.572 101.52 115.234 101.661 115.877 101.867C116.262 101.993 116.406 101.453 116.07 101.327Z" fill="#0E2128"/>
<path d="M141.744 132.849C139.608 130.004 137.425 127.203 135.193 124.446C135.547 123.684 135.908 122.922 136.257 122.154C136.407 121.83 135.92 121.554 135.77 121.872C133.426 127.029 130.94 132.121 128.312 137.147C128.15 137.465 128.63 137.747 128.799 137.429C130.125 134.888 131.417 132.329 132.675 129.752C134.005 131.941 135.275 134.168 136.485 136.432C136.653 136.751 137.134 136.468 136.966 136.15C135.728 133.828 134.424 131.535 133.053 129.29C133.025 129.249 132.988 129.214 132.945 129.188C133.618 127.804 134.279 126.403 134.928 124.987C137.088 127.672 139.199 130.386 141.263 133.131C141.473 133.413 141.972 133.137 141.744 132.849Z" fill="#0E2128"/>
<path d="M140.259 155.747C140.045 155.545 139.816 155.36 139.574 155.195C139.327 155.021 138.973 154.895 138.973 154.558C138.972 154.251 138.992 153.944 139.033 153.64C139.033 153.274 139.093 152.914 139.117 152.554C139.141 152.194 138.588 152.194 138.558 152.554C138.51 153.154 138.426 153.808 138.414 154.438C138.41 154.672 138.475 154.901 138.6 155.098C138.725 155.295 138.904 155.452 139.117 155.549C139.946 156.095 140.992 157.097 140.373 158.178C140.064 158.632 139.687 159.037 139.255 159.378C138.822 159.768 138.366 160.14 137.903 160.494C136.965 161.215 135.98 161.869 135 162.523C134.706 162.721 135 163.207 135.283 163.009C136.322 162.313 137.356 161.623 138.342 160.861C138.804 160.5 139.261 160.122 139.7 159.726C140.148 159.367 140.539 158.942 140.86 158.466C141.078 158.011 141.138 157.496 141.029 157.003C140.92 156.51 140.649 156.068 140.259 155.747Z" fill="#0E2128"/>
<path d="M133.636 151.029C133.583 150.979 133.512 150.95 133.438 150.95C133.364 150.95 133.293 150.979 133.24 151.029C132.505 151.624 131.856 152.316 131.31 153.088C131.292 153.12 131.28 153.154 131.275 153.191C131.27 153.227 131.272 153.264 131.281 153.299C131.29 153.334 131.306 153.368 131.328 153.397C131.35 153.426 131.378 153.451 131.41 153.469C131.441 153.488 131.476 153.5 131.512 153.505C131.549 153.51 131.585 153.508 131.621 153.499C131.656 153.489 131.69 153.473 131.719 153.451C131.748 153.429 131.773 153.402 131.791 153.37C132.317 152.643 132.937 151.989 133.636 151.425C133.663 151.4 133.684 151.369 133.698 151.335C133.713 151.301 133.72 151.264 133.72 151.227C133.72 151.19 133.713 151.154 133.698 151.12C133.684 151.086 133.663 151.055 133.636 151.029Z" fill="#0E2128"/>
<path d="M134.628 152.704C134.59 152.64 134.529 152.593 134.456 152.574C134.384 152.555 134.308 152.565 134.243 152.602C133.438 152.975 132.673 153.43 131.959 153.958C131.897 153.998 131.853 154.06 131.835 154.131C131.817 154.203 131.827 154.278 131.863 154.342C131.901 154.405 131.962 154.451 132.033 154.469C132.104 154.487 132.179 154.476 132.242 154.438C132.958 153.914 133.723 153.46 134.526 153.082C134.557 153.064 134.585 153.04 134.607 153.011C134.63 152.982 134.646 152.949 134.655 152.914C134.665 152.879 134.667 152.842 134.663 152.806C134.658 152.77 134.646 152.735 134.628 152.704Z" fill="#0E2128"/>
<path d="M142.573 114.381C141.836 114.895 141.167 115.5 140.583 116.182C140.3 116.522 140.038 116.879 139.796 117.25C139.61 117.526 139.195 118.078 139.556 118.378C139.603 118.435 139.67 118.471 139.744 118.477C139.817 118.484 139.89 118.461 139.946 118.415C140.003 118.368 140.039 118.3 140.045 118.227C140.052 118.154 140.029 118.081 139.982 118.024C139.982 118.024 140.036 117.928 140.024 117.94L140.169 117.706C140.265 117.544 140.367 117.388 140.475 117.232C140.692 116.925 140.927 116.63 141.178 116.35C141.68 115.788 142.242 115.282 142.855 114.843C143.131 114.657 142.855 114.171 142.573 114.381Z" fill="#0E2128"/>
<path d="M143.498 116.794C142.595 117.306 141.747 117.909 140.968 118.595C140.916 118.647 140.887 118.719 140.887 118.793C140.887 118.867 140.916 118.938 140.968 118.991C141.022 119.041 141.093 119.07 141.166 119.07C141.24 119.07 141.311 119.041 141.365 118.991C142.104 118.346 142.91 117.78 143.769 117.304C144.099 117.106 143.817 116.62 143.498 116.794Z" fill="#0E2128"/>
<path d="M86.0811 115.342C83.6171 111.556 81.0629 107.831 78.4187 104.166C77.6674 103.128 76.9042 102.095 76.141 101.069C75.9306 100.781 75.4438 101.069 75.6602 101.351C78.3606 104.952 80.9648 108.639 83.4728 112.413C84.186 113.481 84.8911 114.551 85.5883 115.624C85.7866 115.924 86.2674 115.642 86.0811 115.342Z" fill="#0E2128"/>
<path d="M95.9672 82.1206C94.2986 79.9519 92.5194 77.8705 90.6366 75.8845C88.8337 74.0539 86.8144 72.2233 84.4165 71.221C83.0455 70.6226 81.5354 70.4149 80.0535 70.6208C79.6989 70.6748 79.8492 71.221 80.2037 71.1609C82.818 70.7648 85.3 72.0432 87.2832 73.6217C89.2778 75.2496 91.1057 77.0711 92.74 79.0595C93.7016 80.1939 94.6271 81.3583 95.5526 82.5167C95.799 82.7988 96.1896 82.4026 95.9672 82.1206Z" fill="#0E2128"/>
<path d="M91.6763 43.1437C91.4084 42.9994 91.1053 42.9331 90.8015 42.9522C90.4977 42.9713 90.2053 43.0751 89.9576 43.2517C89.4254 43.6604 89.038 44.2281 88.8518 44.8722C88.7316 45.2143 89.2724 45.3584 89.3926 45.0223C89.5398 44.4984 89.8542 44.0368 90.2881 43.7078C90.4781 43.5656 90.712 43.4942 90.9491 43.5063C91.1863 43.5184 91.4117 43.613 91.5862 43.7739C92.3795 44.5601 91.8626 46.0306 91.5201 46.9129C91.3318 47.415 91.0837 47.8926 90.7809 48.3354C90.5165 48.7255 90.1318 49.3257 89.6511 49.4577C88.984 49.6438 88.9479 48.6355 89.0501 48.2573C89.1149 48.0149 89.225 47.7868 89.3746 47.5851C89.5068 47.4111 89.8494 47.147 90.0177 47.4291C90.0551 47.4927 90.1164 47.5389 90.1879 47.5575C90.2595 47.5761 90.3355 47.5655 90.3993 47.5281C90.463 47.4907 90.5093 47.4295 90.5279 47.358C90.5465 47.2866 90.5359 47.2106 90.4984 47.147C90.435 47.0526 90.3535 46.9717 90.2585 46.909C90.1635 46.8464 90.057 46.8032 89.9452 46.782C89.8334 46.7608 89.7185 46.7619 89.6071 46.7854C89.4957 46.8089 89.3901 46.8543 89.2965 46.9189C88.8419 47.2852 88.5504 47.8157 88.4852 48.3954C88.4341 48.6565 88.4516 48.9264 88.5358 49.1788C88.62 49.4312 88.7682 49.6576 88.966 49.8359C89.1999 49.9736 89.4747 50.025 89.7427 49.9811C90.0106 49.9373 90.2547 49.8009 90.4323 49.5958C91.3315 48.7106 91.9697 47.5957 92.2773 46.3727C92.5838 45.3284 92.8062 43.8339 91.6763 43.1437Z" fill="#0E2128"/>
<path d="M117.897 67.2417C114.387 70.9227 110.203 73.8974 105.571 76.0046C104.257 76.5951 102.913 77.116 101.545 77.5651C101.202 77.6731 101.346 78.2133 101.689 78.1053C106.593 76.5032 111.145 73.9768 115.096 70.6628C116.215 69.7204 117.283 68.7187 118.294 67.6618C118.534 67.3977 118.149 67.0016 117.897 67.2417Z" fill="#0E2128"/>
<path d="M87.6079 159.936C85.8 158.816 84.062 157.588 82.4034 156.257C82.127 156.035 81.7303 156.431 82.0068 156.653C83.7009 158.015 85.4771 159.272 87.3254 160.416C87.6319 160.608 87.9143 160.128 87.6079 159.936Z" fill="#0E2128"/>
<path d="M87.2113 165.074L83.7917 163.039C83.7278 163.009 83.6548 163.004 83.5874 163.025C83.5199 163.046 83.4628 163.092 83.4273 163.153C83.3918 163.214 83.3806 163.286 83.3957 163.355C83.4109 163.424 83.4514 163.485 83.5093 163.525L86.9288 165.56C87.2353 165.722 87.5178 165.236 87.2113 165.074Z" fill="#0E2128"/>
<path d="M133.738 169.876C133.712 169.813 133.664 169.761 133.602 169.731C133.541 169.701 133.471 169.694 133.405 169.712C133.339 169.729 133.282 169.77 133.243 169.827C133.205 169.883 133.189 169.952 133.198 170.02C134.18 173.401 134.904 176.852 135.361 180.343C135.409 180.697 135.962 180.703 135.92 180.343C135.461 176.803 134.731 173.304 133.738 169.876Z" fill="#0E2128"/>
<path d="M132.663 176.388C132.537 176.058 131.99 176.202 132.122 176.538C132.645 177.852 132.963 179.238 133.066 180.649C133.066 181.009 133.667 181.009 133.63 180.649C133.526 179.188 133.2 177.751 132.663 176.388Z" fill="#0E2128"/>
<path d="M83.6293 47.8793C79.9694 52.2967 74.9693 55.2377 69.9572 57.8966C65.0773 60.4654 60.0712 62.8242 55.6841 66.2093C53.5677 67.8059 51.6757 69.6792 50.059 71.7791C48.3558 74.0452 47.1293 76.6319 46.4531 79.3836C46.0625 80.9923 45.7615 82.6213 45.5517 84.2633C45.3094 85.9128 45.1869 87.5777 45.1851 89.2449C45.1829 93.1787 46.3153 97.03 48.4468 100.338C50.5783 103.646 53.6187 106.271 57.2045 107.899C57.7634 108.151 58.3404 108.373 58.9233 108.577C59.2659 108.691 59.4161 108.151 59.0735 108.037C54.3294 106.332 50.3983 102.912 48.0577 98.4519C46.8223 96.1429 46.0717 93.6063 45.8521 90.9975C45.6706 87.6703 45.9476 84.334 46.6755 81.0822C47.1874 78.2399 48.2533 75.5257 49.8126 73.0936C51.2844 70.9449 53.0642 69.0238 55.0951 67.3917C59.3019 63.9346 64.1698 61.5278 68.9656 59.0429C73.8575 56.5101 78.8035 53.7972 82.6677 49.7939C83.1365 49.3077 83.5932 48.7976 84.0259 48.2754C84.2783 47.9993 83.8577 47.6032 83.6293 47.8793Z" fill="#0E2128"/>
<path d="M122.783 42.9696C122.759 43.5214 122.591 44.0574 122.296 44.5242C122.07 44.9501 121.817 45.3611 121.539 45.7546C120.996 46.5222 120.365 47.2233 119.658 47.8432C118.148 49.1601 116.373 50.1384 114.453 50.7122C112.294 51.3476 110.041 51.6015 107.794 51.4624C105.526 51.3966 103.288 50.9292 101.184 50.082C99.0752 49.2349 97.2994 47.7268 96.1235 45.7846C96.0828 45.7268 96.022 45.6863 95.953 45.6712C95.8839 45.656 95.8117 45.6673 95.7506 45.7027C95.6894 45.7381 95.6438 45.7952 95.6227 45.8626C95.6016 45.9299 95.6066 46.0028 95.6367 46.0667C97.9264 50.058 102.59 51.5945 106.929 51.9666C111.394 52.3447 116.082 51.4924 119.634 48.6235C120.513 47.9109 121.295 47.0855 121.959 46.1687C122.283 45.721 122.572 45.2495 122.825 44.7582C123.161 44.2164 123.348 43.5951 123.366 42.9576C123.342 42.6335 122.741 42.6335 122.783 42.9696Z" fill="#0E2128"/>
<path d="M139.045 51.4204C138.149 50.094 137.188 48.8096 136.31 47.4711C135.401 46.1124 134.597 44.6857 133.907 43.2037C133.243 41.6512 132.715 40.0448 132.326 38.4021C131.618 35.3964 130.172 32.6139 128.119 30.3054C125.78 27.7652 122.553 26.2202 119.105 25.99C118.744 25.99 118.75 26.5302 119.105 26.5482C122.04 26.7545 124.812 27.9723 126.947 29.9933C129.052 31.9941 130.593 34.5134 131.413 37.2978C131.887 38.8403 132.212 40.4308 132.771 41.9493C133.297 43.3486 133.951 44.6967 134.724 45.9766C135.493 47.291 136.353 48.5455 137.224 49.7939C137.645 50.3941 138.077 50.9943 138.498 51.5945C138.73 51.8776 138.898 52.2071 138.991 52.5608C139.02 52.752 138.986 52.9475 138.894 53.1175C138.801 53.2876 138.656 53.423 138.48 53.5031C137.747 53.8791 136.964 54.1479 136.154 54.3014C135.293 54.5173 134.418 54.6678 133.534 54.7515C131.734 54.9236 129.919 54.8245 128.149 54.4574C128.089 54.4359 128.023 54.4359 127.963 54.4574C127.741 54.3614 127.434 54.5895 127.602 54.8415C130.808 59.7954 132.091 65.7488 131.208 71.5811C130.956 73.2217 130.531 74.8312 129.94 76.3827C129.814 76.7188 130.355 76.8688 130.481 76.5327C132.586 70.8883 132.552 64.6699 130.385 59.0489C129.848 57.6566 129.18 56.3182 128.39 55.0516C131.529 55.6524 134.772 55.4228 137.795 54.3854C138.433 54.2489 139 53.8839 139.387 53.3591C139.772 52.7048 139.424 51.9846 139.045 51.4204Z" fill="#0E2128"/>
<path d="M130.553 56.39C130.301 56.126 129.91 56.5221 130.157 56.7862C131.562 58.2797 132.389 60.2246 132.488 62.272C132.488 62.6321 133.089 62.6321 133.047 62.272C132.943 60.0775 132.058 57.9921 130.553 56.39Z" fill="#0E2128"/>
</g>
</svg>
