<svg width="288" height="100" viewBox="0 0 288 100" fill="none" xmlns="http://www.w3.org/2000/svg">
<g clip-path="url(#clip0_282_2704)">
<path d="M78.74 74.3538C77.8857 78.88 75.7194 82.6883 72.8697 85.6761C70.6896 87.9939 68.1201 89.8262 65.4549 91.1526C63.5551 92.103 61.6143 92.7867 59.7281 93.2038C56.4752 93.9148 53.4068 93.826 51.1038 92.8483C49.8327 92.315 48.7597 91.9389 47.803 91.6928C46.0877 91.2347 44.7551 91.1458 43.3951 91.2005C41.1605 91.2894 38.8643 91.7475 34.764 91.556C33.9712 91.5219 33.1102 91.4603 32.1603 91.3646C21.7113 90.3253 16.7704 82.3943 15.3899 76.3092C14.0163 70.2173 3.56731 71.8309 0.697087 65.3971C-2.17998 58.9634 4.94092 56.0918 2.98643 47.2377C1.03195 38.3836 9.54012 35.5804 9.54012 35.5804C9.54012 35.5804 32.8505 30.1175 40.7709 26.9109C48.6914 23.6906 57.6506 24.3743 64.0813 29.8919C69.1384 34.2335 69.0085 41.2757 71.6396 46.26C71.9881 46.93 72.3844 47.5522 72.8628 48.1402C73.3344 48.735 73.8947 49.282 74.5371 49.7674C80.5099 54.2458 81.5487 59.5377 78.74 74.3538Z" fill="#FFE2D8"/>
<path d="M72.8628 48.1406C72.3981 49.1525 71.2842 50.602 68.8377 52.5916C63.104 57.234 57.6438 58.8681 57.6438 58.8681L65.4549 91.1599C63.5551 92.1103 61.6142 92.794 59.7281 93.2111C59.7213 93.2111 59.7144 93.2042 59.7008 93.2042C54.2678 91.8026 51.7051 84.6851 51.7051 84.6851C47.7962 86.497 44.1947 86.2167 44.1947 86.2167L43.3883 91.2146C41.1536 91.3035 38.8574 91.7616 34.7571 91.5701C32.1944 86.0867 26.2353 65.4728 26.2353 65.4728C24.2945 66.1018 19.2716 66.3343 19.2716 66.3343C19.2716 66.3343 18.9709 67.0316 17.8843 66.7718C16.7909 66.4984 15.0687 66.3343 15.0687 66.3343C15.0687 66.3343 11.7406 69.7939 8.74739 66.7718C5.76782 63.743 7.37378 60.9261 7.37378 60.9261C7.37378 60.9261 17.0779 60.6594 22.3673 56.5777C27.6567 52.489 26.2353 49.8021 26.2353 49.8021C19.1417 47.7372 17.2487 43.0196 17.2487 43.0196C17.2487 43.0196 15.3011 43.6008 13.0391 42.1034C10.7634 40.6061 10.531 37.0098 10.531 37.0098L46.3269 47.0945L71.6327 46.2741C71.9812 46.9441 72.3776 47.5663 72.856 48.1543L72.8628 48.1406Z" fill="#EDCCC3"/>
<path d="M70.676 87.8915C70.6691 87.9462 70.6486 88.0146 70.635 88.0761C70.0336 90.2298 63.7464 92.992 60.9855 91.0024C58.2315 89.0265 53.6596 81.9569 53.6596 81.9569C50.6459 83.5089 44.6184 84.2815 44.6184 84.2815C44.6184 84.2815 45.0558 90.2367 44.6184 92.3015C44.181 94.3663 42.9783 95.5765 42.9783 95.5765C41.5363 98.4549 39.7527 99.9522 38.4816 100C38.0784 100.027 37.7367 99.8976 37.4702 99.6309C36.3426 98.5028 38.5021 93.163 38.5021 93.163C38.5021 93.163 33.8551 85.061 30.6636 76.4393C27.479 67.8245 28.2513 62.4847 28.2513 62.4847C22.4015 64.0368 16.4492 63.3462 16.4492 63.3462L16.0255 61.5959L15.0756 57.6645C15.0756 57.6645 16.2783 57.7466 20.242 55.0733C20.9254 54.6152 21.6497 54.0545 22.381 53.4255C22.9209 52.9743 23.4676 52.482 24.0074 51.976H24.0143C24.7933 51.2445 25.5519 50.4992 26.2421 49.7882C28.1488 47.8396 29.5429 46.226 29.5429 46.226L47.516 43.8262C48.1857 44.0381 48.9648 44.2022 49.8258 44.3321C51.0628 44.5167 52.4774 44.6193 53.9398 44.6808C55.0059 44.7218 56.113 44.7355 57.1859 44.7218C62.2088 44.6808 66.9242 44.2159 66.9242 44.2159L68.7352 47.6003C68.7352 47.6003 68.7078 47.6618 68.6873 47.696C66.48 52.7486 58.3135 55.3262 58.3135 55.3262C63.5619 62.8334 66.0631 86.613 66.0631 86.613C66.0631 86.613 70.9288 85.9635 70.6691 87.8915H70.676Z" fill="#75B3EB"/>
<path d="M68.6873 47.689C66.4799 52.7416 58.3135 55.3192 58.3135 55.3192L56.8442 52.9057C56.8442 52.9057 65.7351 49.9931 68.6873 47.689Z" fill="#75B3EB"/>
<path d="M49.8327 44.3253C47.9192 46.226 43.6958 49.5557 37.2583 50.1232C31.8869 50.5949 28.2855 50.1984 26.2421 49.7745C28.1488 47.8259 29.5429 46.2123 29.5429 46.2123L47.516 43.8125C48.1857 44.0245 48.9648 44.1885 49.8258 44.3184L49.8327 44.3253Z" fill="#75B3EB"/>
<path d="M38.4884 99.9935C38.0852 100.021 37.7435 99.8909 37.477 99.6243C36.3494 98.4962 38.5089 93.1563 38.5089 93.1563C38.5089 93.1563 33.8619 85.0543 30.6705 76.4327C27.4859 67.8179 28.2581 62.4781 28.2581 62.4781C22.4083 64.0301 16.456 63.3396 16.456 63.3396L16.0323 61.5893L30.5884 59.3193C30.5884 59.3193 29.3173 62.2593 32.4199 71.9065C35.5225 81.5605 40.1149 91.6043 40.1149 91.6043C40.1149 91.6043 38.174 97.1287 38.4884 99.9935Z" fill="#75B3EB"/>
<path d="M70.676 87.8914C70.6691 87.9461 70.6486 88.0145 70.635 88.0761C70.0336 90.2298 63.7464 92.992 60.9855 91.0023C58.2315 89.0264 53.6596 81.9568 53.6596 81.9568C50.6459 83.5088 44.6184 84.2814 44.6184 84.2814V80.3501C44.6184 80.3501 51.5958 80.5278 54.9239 77.6768C54.9239 77.6768 58.4843 87.1257 61.9354 88.623C64.4845 89.7238 68.6805 88.5615 70.676 87.8914Z" fill="#75B3EB"/>
<path d="M53.0035 37.379C50.188 43.7922 41.9395 48.6671 31.0395 47.3954C20.1326 46.1168 17.1667 40.1548 17.1667 40.1548C13.3056 42.0487 9.21891 37.1397 9.97747 33.3861C10.7292 29.6256 14.9457 31.1572 14.9457 31.1572C14.9457 31.1572 13.3534 26.1045 15.8341 20.2793C16.2783 19.2332 16.8728 18.1598 17.6109 17.0795C22.4766 10.0509 29.1397 9.90733 29.1397 9.90733C29.1397 9.90733 35.7685 6.44774 42.2265 9.53129C43.3815 10.0783 44.3929 10.7483 45.2744 11.4594C49.3338 14.7549 50.6937 19.2058 50.6937 19.2058C52.1015 18.3717 55.9011 20.0058 56.1403 23.3833C56.3795 26.7746 54.4523 28.0326 54.4523 28.0326C54.4523 28.0326 55.8328 30.9726 53.0172 37.3858L53.0035 37.379Z" fill="#FFB79E"/>
<path d="M42.2197 9.52423C37.3061 7.17909 32.3037 8.62173 30.1852 9.44218C30.1032 9.20972 29.9802 8.94307 29.7752 8.6354C29.1465 7.71922 26.3241 7.79443 25.258 6.30394C24.1919 4.82028 25.4699 0.923107 28.0462 0.895758C30.6226 0.86841 30.9096 2.21533 30.4928 3.24773C30.0759 4.28014 29.2763 3.9041 28.9141 3.54173C28.552 3.17936 28.9278 2.72127 29.2695 2.57086C29.6112 2.42044 28.6955 1.76408 27.9711 2.50932C27.2398 3.25457 27.8139 4.95702 30.0417 5.01855C32.2627 5.08009 32.1602 1.3265 30.3834 0.410321C28.6066 -0.512693 25.1623 -0.109301 23.8161 3.4802C22.4698 7.0697 26.4334 8.64908 28.0052 8.85419C28.962 8.97726 29.3105 9.42167 29.4404 9.74986C29.249 9.83874 29.1465 9.89344 29.1465 9.89344C29.1465 9.89344 22.4903 10.0439 17.6178 17.0656C16.8797 18.139 16.292 19.2193 15.8409 20.2654H15.8546C15.8546 20.2654 26.577 16.7169 29.7274 10.8096C29.7274 10.8096 41.96 13.565 45.2744 11.4455C44.3929 10.7344 43.3815 10.0644 42.2265 9.51739L42.2197 9.52423Z" fill="#885900"/>
<path d="M53.2018 24.8875C53.2018 24.8875 52.204 22.0774 52.9694 21.4963C53.728 20.9151 54.6984 22.1253 54.6984 22.1253L53.564 22.4261C53.564 22.4261 54.6027 23.0551 54.5207 24.1354C54.4387 25.2088 53.8373 25.6738 53.2086 24.8943L53.2018 24.8875Z" fill="#E28D76"/>
<path d="M15.9639 37.0231C15.9639 37.0231 14.8978 34.2403 13.9479 34.2882C12.9912 34.3429 13.039 35.8881 13.039 35.8881L14.0983 35.3821C14.0983 35.3821 13.7156 36.5376 14.481 37.3034C15.2464 38.0691 15.9981 38.035 15.9708 37.0231H15.9639Z" fill="#E28D76"/>
<path d="M25.2922 36.6199C24.7113 38.2266 22.9345 39.0607 21.3286 38.4727C19.7226 37.8916 18.8889 36.1139 19.4766 34.5072C20.0575 32.9005 21.8343 32.0663 23.4402 32.6543C25.0462 33.2423 25.8799 35.0132 25.2922 36.6199Z" fill="#EF9D8F"/>
<path d="M52.7165 29.3518C52.1356 30.9585 50.3588 31.7927 48.7529 31.2047C47.1469 30.6235 46.3132 28.8459 46.9009 27.2391C47.4818 25.6324 49.2586 24.7983 50.8645 25.3863C52.4705 25.9674 53.3042 27.7451 52.7165 29.3518Z" fill="#EF9D8F"/>
<path d="M14.1598 57.4797C14.1598 57.4797 15.1371 56.2422 15.9366 56.2764C16.743 56.3037 16.2236 58.2045 16.538 58.6352C16.8524 59.066 17.2556 59.5856 17.0847 60.6453C16.9139 61.7051 17.4879 61.3632 17.7134 62.3409C17.9389 63.3187 18.0551 64.6109 17.2829 64.7545C16.5107 64.898 15.0687 64.1254 15.0687 64.1254C15.0687 64.1254 12.3967 65.4177 10.818 65.1031C9.23942 64.7886 8.72004 63.8383 8.23484 63.0657C7.74963 62.2931 6.94323 60.912 7.66079 59.0728C8.37835 57.2336 11.4809 57.637 11.5971 57.6643C11.7133 57.6917 10.3055 56.1397 11.4536 55.8525C12.6017 55.5653 14.153 57.4866 14.153 57.4866L14.1598 57.4797Z" fill="#3B8AD2"/>
<path d="M65.8649 43.2725C65.8649 43.2725 64.3273 42.9443 63.7259 43.4776C63.1245 44.0109 64.7305 45.139 64.7646 45.6791C64.7988 46.2124 64.8193 46.8688 65.6257 47.573C66.4389 48.2841 65.7761 48.3798 66.2203 49.2823C66.6645 50.178 67.4025 51.2514 68.0927 50.8617C68.783 50.472 69.3912 48.961 69.3912 48.961C69.3912 48.961 72.2682 48.2499 73.2865 46.9987C74.2979 45.7475 74.0929 44.6878 73.9767 43.7784C73.8605 42.8691 73.594 41.2965 71.8719 40.3393C70.1497 39.3821 68.0176 41.6726 67.9492 41.7683C67.8809 41.864 67.9697 39.7718 66.9037 40.2846C65.8376 40.7974 65.8717 43.2656 65.8717 43.2656L65.8649 43.2725Z" fill="#3B8AD2"/>
<path d="M37.7298 58.5121C37.7298 58.5121 34.7161 61.5273 36.8688 67.2158C39.0214 72.9043 51.7666 71.0104 53.5776 66.3543C55.3886 61.6982 52.9762 58.854 50.2153 57.4797C50.2153 57.4797 50.1265 53.774 48.4043 53.0014C46.6822 52.2288 47.3724 56.6182 47.3724 56.6182L39.7048 57.5686C39.7048 57.5686 38.5021 54.0338 37.723 54.0338C36.9439 54.0338 36.1717 56.7071 37.723 58.5121H37.7298Z" fill="white"/>
<path d="M39.3222 63.77C39.3222 63.77 34.7981 63.77 35.0988 64.4606C35.3995 65.1511 38.5021 64.5016 39.3222 63.77Z" fill="#75B3EB"/>
<path d="M39.5545 65.459C39.5545 65.459 35.133 66.4025 35.5703 67.011C36.0077 67.6195 38.9053 66.3478 39.5545 65.459Z" fill="#75B3EB"/>
<path d="M40.1354 66.751C40.1354 66.751 36.0419 68.6722 36.6091 69.1713C37.1763 69.6704 39.7049 67.7629 40.1354 66.751Z" fill="#75B3EB"/>
<path d="M51.1652 61.637C51.1652 61.637 55.6004 60.755 55.4364 61.4934C55.2724 62.225 52.1083 62.1976 51.1652 61.637Z" fill="#75B3EB"/>
<path d="M51.2609 63.3394C51.2609 63.3394 55.7849 63.4009 55.4706 64.0846C55.1631 64.7683 52.0673 64.0846 51.2609 63.3394Z" fill="#75B3EB"/>
<path d="M50.9465 64.7139C50.9465 64.7139 55.3339 65.801 54.876 66.3958C54.4181 66.9906 51.5616 65.6164 50.9465 64.7139Z" fill="#75B3EB"/>
<path d="M42.1309 61.6847C42.1309 62.1154 41.7823 62.4641 41.3518 62.4641C40.9213 62.4641 40.5728 62.1154 40.5728 61.6847C40.5728 61.254 40.9213 60.9053 41.3518 60.9053C41.7823 60.9053 42.1309 61.254 42.1309 61.6847Z" fill="#75B3EB"/>
<path d="M48.0354 60.8439C48.0354 61.2746 47.6868 61.6233 47.2563 61.6233C46.8258 61.6233 46.4772 61.2746 46.4772 60.8439C46.4772 60.4131 46.8258 60.0645 47.2563 60.0645C47.6868 60.0645 48.0354 60.4131 48.0354 60.8439Z" fill="#75B3EB"/>
<path d="M45.6845 62.3345L44.2015 62.6695C44.2015 62.6695 44.8234 63.1413 45.2335 63.1002C45.6435 63.0592 45.6845 62.3345 45.6845 62.3345Z" fill="#75B3EB"/>
<path d="M44.9464 62.9976C44.9464 62.9976 45.377 63.7975 44.9464 64.8504C44.5159 65.9034 42.6844 65.5752 42.5341 64.7205L42.1377 64.9804C42.1377 64.9804 43.3746 66.3409 44.4749 65.8418C45.5751 65.3496 45.5546 64.7547 45.5546 64.7547C45.5546 64.7547 46.6549 65.3906 47.6185 65.1103C48.5889 64.8299 48.6094 64.2693 48.6094 64.2693L48.3087 64.0573C48.3087 64.0573 47.9533 64.7274 47.2563 64.7616C46.5592 64.7889 45.828 64.4881 45.6571 64.0984C45.4863 63.7086 45.3701 62.854 45.3701 62.854L44.9464 62.9976Z" fill="#75B3EB"/>
<path d="M38.3449 57.9996C38.3449 57.9996 37.5043 56.2766 37.7025 55.4698C37.9007 54.663 38.7071 56.1877 38.8506 57.3911C38.9941 58.5944 38.3449 57.9927 38.3449 57.9927V57.9996Z" fill="#75B3EB"/>
<path d="M48.4454 56.8439C48.4454 56.8439 47.926 54.9979 48.2677 54.239C48.6094 53.4869 49.1288 55.1278 49.0536 56.338C48.9784 57.5481 48.4454 56.8439 48.4454 56.8439Z" fill="#75B3EB"/>
<path d="M25.6544 53.6033C25.6544 54.5127 24.9232 55.2442 24.0143 55.2442C23.1054 55.2442 22.3741 54.5127 22.3741 53.6033C22.3741 53.5418 22.3741 53.4802 22.381 53.4187C22.9209 52.9675 23.4676 52.4752 24.0074 51.9692H24.0143C24.9232 51.9692 25.6544 52.7008 25.6544 53.6033Z" fill="#3B8AD2"/>
<path d="M33.4108 55.2444C33.4108 56.1469 32.6796 56.8853 31.7707 56.8853C30.8618 56.8853 30.1306 56.1538 30.1306 55.2444C30.1306 54.3351 30.8618 53.6035 31.7707 53.6035C32.6796 53.6035 33.4108 54.3351 33.4108 55.2444Z" fill="#3B8AD2"/>
<path d="M44.4339 52.0717C44.7209 52.9332 44.2494 53.8562 43.3952 54.1434C42.5341 54.4305 41.6115 53.9588 41.3245 53.1041C41.0375 52.2427 41.509 51.3196 42.3632 51.0325C43.2243 50.7453 44.1469 51.2171 44.4339 52.0717Z" fill="#3B8AD2"/>
<path d="M51.3839 48.038C51.6709 48.8995 51.1994 49.8225 50.3452 50.1097C49.4841 50.3968 48.5615 49.9251 48.2745 49.0704C47.9875 48.209 48.459 47.2859 49.3133 46.9988C50.1743 46.7116 51.0969 47.1834 51.3839 48.038Z" fill="#3B8AD2"/>
<path d="M57.1927 44.7149C57.1176 45.3097 56.7007 45.843 56.0925 46.0413C55.2314 46.3284 54.3089 45.8635 54.0218 45.002C53.9877 44.8995 53.9672 44.7832 53.9467 44.6738C55.0127 44.7149 56.1198 44.7285 57.1927 44.7149Z" fill="#3B8AD2"/>
<path d="M61.2657 47.1762C61.5527 48.0377 61.0812 48.9607 60.2269 49.2479C59.3727 49.535 58.4433 49.0633 58.1563 48.2086C57.8693 47.3471 58.3408 46.4241 59.195 46.137C60.0561 45.8498 60.9787 46.3216 61.2657 47.1762Z" fill="#3B8AD2"/>
<path d="M55.7645 53.8837C56.0515 54.7452 55.58 55.6682 54.7257 55.9554C53.8647 56.2425 52.9421 55.7708 52.6551 54.9161C52.368 54.0547 52.8396 53.1316 53.6938 52.8445C54.5549 52.5573 55.4774 53.0291 55.7645 53.8837Z" fill="#3B8AD2"/>
<path d="M36.6433 71.3935C36.9303 72.255 36.4587 73.178 35.6045 73.4652C34.7434 73.7523 33.8209 73.2806 33.5338 72.4259C33.2468 71.5644 33.7184 70.6414 34.5726 70.3543C35.4337 70.0671 36.3562 70.5389 36.6433 71.3935Z" fill="#3B8AD2"/>
<path d="M46.7027 73.6909C46.9897 74.5523 46.5182 75.4754 45.664 75.7625C44.8029 76.0497 43.8803 75.5779 43.5933 74.7233C43.3063 73.8618 43.7778 72.9388 44.632 72.6516C45.4863 72.3645 46.4157 72.8362 46.7027 73.6909Z" fill="#3B8AD2"/>
<path d="M41.2971 78.935C41.5841 79.7965 41.1126 80.7195 40.2584 81.0067C39.4041 81.2938 38.4747 80.8221 38.1877 79.9674C37.9007 79.1059 38.3722 78.1829 39.2265 77.8958C40.0875 77.6086 41.0101 78.0804 41.2971 78.935Z" fill="#3B8AD2"/>
<path d="M54.9307 73.6909C55.2177 74.5523 54.7462 75.4754 53.892 75.7625C53.0309 76.0497 52.1083 75.5779 51.8213 74.7233C51.5343 73.8618 52.0058 72.9388 52.8601 72.6516C53.7211 72.3645 54.6437 72.8362 54.9307 73.6909Z" fill="#3B8AD2"/>
<path d="M60.2474 69.5883C60.5345 70.4498 60.0629 71.3728 59.2087 71.66C58.3476 71.9471 57.4251 71.4754 57.138 70.6207C56.851 69.7593 57.3225 68.8362 58.1768 68.5491C59.031 68.2619 59.9604 68.7337 60.2474 69.5883Z" fill="#3B8AD2"/>
<path d="M60.2474 62.3344C60.5345 63.1959 60.0629 64.1189 59.2087 64.4061C58.3476 64.6932 57.4251 64.2215 57.138 63.3668C56.851 62.5053 57.3225 61.5823 58.1768 61.2952C59.031 61.008 59.9604 61.4798 60.2474 62.3344Z" fill="#3B8AD2"/>
<path d="M62.2566 78.8393C62.5436 79.7008 62.0721 80.6238 61.2178 80.911C60.3636 81.1981 59.4342 80.7264 59.1472 79.8717C58.8602 79.0102 59.3317 78.0872 60.1859 77.8001C61.0402 77.5129 61.9696 77.9847 62.2566 78.8393Z" fill="#3B8AD2"/>
<path d="M43.5797 87.1328C43.8667 87.9942 43.3951 88.9173 42.5409 89.2044C41.6798 89.4916 40.7573 89.0198 40.4702 88.1652C40.1832 87.3037 40.6548 86.3807 41.509 86.0935C42.3701 85.8064 43.2926 86.2781 43.5797 87.1328Z" fill="#3B8AD2"/>
<path d="M184.733 86.7703C184.501 95.2004 159.469 97.1764 146.621 96.0277C133.766 94.8791 136.5 99.7061 123.174 97.2584C109.855 94.8039 111.461 90.0521 102.508 87.7138C93.5489 85.3686 89.6468 83.6183 92.1685 80.6373C94.697 77.6495 112.841 78.0666 112.841 78.0666C112.841 78.0666 115.028 77.8341 118.622 77.5196C127.896 76.6991 146.525 75.277 161.115 75.6804C169.179 75.906 174.606 76.371 178.2 77.3897C183.626 78.9212 184.877 81.7039 184.74 86.7771L184.733 86.7703Z" fill="#FFE2D8"/>
<path d="M177.961 78.135C177.018 79.3725 174.906 80.7467 169.446 80.6373C163.986 80.5211 160.521 83.0577 160.787 84.3157C161.054 85.5806 166.507 86.6267 166.507 87.7138C166.507 88.8009 166.084 91.6725 159.68 91.8776C153.277 92.0896 141.092 89.9837 141.092 89.9837C141.092 89.9837 137.737 89.8812 126.188 89.2521C114.631 88.6163 102.139 83.7893 102.139 83.7893C98.2575 84.2132 98.5172 83.2423 98.5172 83.2423C100.26 81.5125 109.486 79.3041 118.622 77.5059C127.896 76.6855 146.525 75.2634 161.115 75.6667C169.179 75.8924 174.606 76.3573 178.2 77.376C178.268 77.5948 178.18 77.8478 177.968 78.1281L177.961 78.135Z" fill="#EDCCC3"/>
<path d="M131.19 67.0655C131.19 67.0655 120.768 66.4639 115.082 67.0655C115.082 67.0655 112.151 60.6044 110.429 59.5652C108.706 58.5328 104.401 60.7685 103.882 61.8898C103.362 63.0111 106.813 63.182 106.813 63.182C106.813 63.182 107.073 69.732 109.315 73.5266C111.556 77.3213 126.885 77.1025 126.885 77.1025L131.19 67.0655Z" fill="#75B3EB"/>
<path d="M162.455 67.0728C162.455 67.0728 165.202 70.9768 169.972 71.8998C174.742 72.816 175.665 72.5903 175.665 72.5903L174.387 76.843C174.387 76.843 168.161 79.2292 161.464 77.5199C154.767 75.8106 162.462 67.0728 162.462 67.0728H162.455Z" fill="#75B3EB"/>
<path d="M157.726 83.0439C151.521 88.6025 130.534 86.4078 126.932 85.9771C114.597 85.6967 102.911 81.4919 102.911 81.4919C102.911 81.4919 99.8976 84.0832 98.5172 83.2422C97.1436 82.4081 99.8976 76.576 101.196 75.5436C102.481 74.5043 105.071 75.5436 105.071 75.5436C105.071 75.5436 110.148 74.6821 114.884 73.4788C116.483 73.0685 118.65 72.5558 120.809 72.0567C121.465 69.4038 122.955 67.0587 125.128 65.6913C128.655 63.4692 135.119 62.2248 140.047 61.5548C142.172 61.2745 144.01 61.0967 145.199 61.001H145.206C146.101 60.919 146.621 60.8916 146.621 60.8916L162.359 66.4981C162.359 66.4981 162.393 66.669 162.441 66.9698C162.523 67.4826 162.633 68.3919 162.667 69.5611C162.79 73.1232 162.202 79.0305 157.726 83.0439Z" fill="#75B3EB"/>
<path d="M109.95 78.477C110.237 79.3385 109.766 80.2615 108.912 80.5486C108.05 80.8358 107.128 80.364 106.841 79.5094C106.554 78.6479 107.025 77.7249 107.88 77.4378C108.741 77.1506 109.663 77.6224 109.95 78.477Z" fill="#3B8AD2"/>
<path d="M116.668 76.1318C116.955 76.9933 116.483 77.9163 115.629 78.2034C114.768 78.4906 113.846 78.0188 113.558 77.1642C113.271 76.3027 113.743 75.3797 114.597 75.0925C115.458 74.8054 116.381 75.2771 116.668 76.1318Z" fill="#3B8AD2"/>
<path d="M121.431 81.1572C121.718 82.0186 121.247 82.9417 120.392 83.2288C119.538 83.516 118.609 83.0442 118.322 82.1896C118.035 81.3349 118.506 80.4051 119.36 80.1179C120.215 79.8308 121.144 80.3025 121.431 81.1572Z" fill="#3B8AD2"/>
<path d="M129.878 68.7475C130.165 69.609 129.693 70.532 128.839 70.8192C127.978 71.1063 127.055 70.6346 126.768 69.7799C126.481 68.9184 126.953 67.9954 127.807 67.7083C128.668 67.4211 129.591 67.8929 129.878 68.7475Z" fill="#3B8AD2"/>
<path d="M132.974 80.1176C133.261 80.9791 132.789 81.9021 131.935 82.1893C131.074 82.4764 130.151 82.0047 129.864 81.15C129.577 80.2885 130.049 79.3655 130.903 79.0784C131.764 78.7912 132.687 79.263 132.974 80.1176Z" fill="#3B8AD2"/>
<path d="M138.789 67.1957C139.076 68.0572 138.605 68.9802 137.75 69.2674C136.896 69.5546 135.967 69.0828 135.68 68.2282C135.393 67.3735 135.864 66.4437 136.719 66.1565C137.58 65.8693 138.502 66.3411 138.789 67.1957Z" fill="#3B8AD2"/>
<path d="M156.304 73.7319C156.591 74.5934 156.12 75.5164 155.266 75.8035C154.411 76.0907 153.482 75.6189 153.195 74.7643C152.908 73.9096 153.38 72.9798 154.234 72.6926C155.088 72.4055 156.017 72.8772 156.304 73.7319Z" fill="#3B8AD2"/>
<path d="M162.667 69.5679C160.678 70.1491 157.336 70.4841 151.897 69.4859C144.065 68.0569 141.085 63.7905 140.047 61.5616C142.172 61.2813 144.01 61.1035 145.199 61.0078H145.206C151.37 62.4231 158.573 65.322 162.441 66.9766C162.523 67.4894 162.633 68.3988 162.667 69.5679Z" fill="#75B3EB"/>
<path d="M144.475 71.4893C139.145 70.0603 134.935 76.2069 137.88 80.8767C138.912 82.5108 140.375 84.2679 142.466 85.9225C149.129 91.2076 161.983 89.8265 161.983 89.8265L162.68 86.0319C162.68 86.0319 155.587 84.4252 153.393 82.9278C151.193 81.4373 149.013 73.6225 145.568 71.8995C145.227 71.7286 144.858 71.5918 144.475 71.4893Z" fill="#75B3EB"/>
<path d="M161.3 85.6629C161.3 85.6629 163.746 84.5485 165.482 84.7262C167.211 84.904 169.091 86.75 168.804 87.4064C168.517 88.0628 167.792 87.4064 167.792 87.4064C167.792 87.4064 168.469 88.2405 168.223 88.7191C167.983 89.1977 167.211 88.7191 167.211 88.7191C167.211 88.7191 167.888 89.5328 167.546 89.9567C167.204 90.3806 166.419 89.7584 166.419 89.7584C166.419 89.7584 166.829 90.7429 166.343 90.7087C165.858 90.6746 165.236 90.0866 165.236 90.0866C165.236 90.0866 162.674 90.2917 161.382 89.7857C160.09 89.2798 161.293 85.6561 161.293 85.6561L161.3 85.6629Z" fill="#FFB79E"/>
<path d="M175.337 72.5903C175.337 72.5903 177.011 72.1869 178.993 72.3168C180.975 72.4467 181.733 74.4705 181.911 75.6807C182.082 76.884 179.69 74.8192 179.69 74.8192L178.057 75.2089C178.057 75.2089 179.861 76.1593 179.581 76.672C179.3 77.1917 177.257 76.672 177.257 76.672C177.257 76.672 175.378 77.5335 174.305 76.843C173.232 76.1524 175.337 72.5903 175.337 72.5903Z" fill="#FFB79E"/>
<path d="M121.622 72.604C121.622 72.604 123.085 76.7541 127.39 79.6804C127.39 79.6804 124.636 73.274 121.622 72.604Z" fill="#75B3EB"/>
<path d="M175.911 61.5619C172.002 67.3735 163.022 70.7032 152.518 67.5102C142.015 64.3173 140.156 57.9177 140.156 57.9177C136.021 59.0937 132.871 53.5351 134.286 49.973C135.687 46.4108 139.568 48.6671 139.568 48.6671C139.568 48.6671 138.899 43.4093 142.377 38.1174C143.006 37.167 143.771 36.2098 144.694 35.2868C150.735 29.2359 157.309 30.2752 157.309 30.2752C157.309 30.2752 164.444 28.0463 170.252 32.2306C171.291 32.9759 172.173 33.81 172.911 34.6715C176.321 38.637 176.868 43.2589 176.868 43.2589C178.398 42.6914 181.849 44.9682 181.487 48.3389C181.118 51.7164 179 52.6121 179 52.6121C179 52.6121 179.833 55.7504 175.924 61.5619H175.911Z" fill="#FFB79E"/>
<path d="M178.323 49.3027C178.323 49.3027 177.845 46.3627 178.692 45.9251C179.546 45.4875 180.278 46.8481 180.278 46.8481L179.109 46.937C179.109 46.937 180.018 47.7438 179.745 48.7899C179.471 49.836 178.802 50.1846 178.316 49.3027H178.323Z" fill="#E28D76"/>
<path d="M139.527 54.6289C139.527 54.6289 138.974 51.6958 138.024 51.5795C137.074 51.4633 136.848 52.9948 136.848 52.9948L137.976 52.6803C137.976 52.6803 137.395 53.7469 138.01 54.6357C138.625 55.5246 139.37 55.6203 139.527 54.6289Z" fill="#E28D76"/>
<path d="M148.773 55.8869C147.912 57.3638 146.019 57.8697 144.543 57.0082C143.067 56.1468 142.561 54.2529 143.423 52.776C144.284 51.2992 146.177 50.7933 147.653 51.6548C149.129 52.5162 149.635 54.4101 148.773 55.8869Z" fill="#EF9D8F"/>
<path d="M177.059 53.6101C176.198 55.0869 174.305 55.5929 172.829 54.7314C171.353 53.8699 170.847 51.976 171.708 50.4992C172.569 49.0224 174.462 48.5164 175.938 49.3779C177.414 50.2394 177.92 52.1333 177.059 53.6101Z" fill="#EF9D8F"/>
<path d="M179.512 37.919C178.822 39.5668 177.462 41.6931 176.738 39.1018C176.013 36.5105 172.774 30.6648 167.731 28.894C162.687 27.13 158.457 29.0034 158.457 29.0034C158.361 29.0649 158.279 29.1538 158.204 29.2495C158.191 29.2153 158.177 29.1811 158.163 29.147C157.705 28.1351 154.917 27.7043 154.131 26.0497C153.345 24.3951 155.293 20.792 157.835 21.2295C160.377 21.6603 160.425 23.0345 159.824 23.9849C159.222 24.9284 158.512 24.4157 158.218 23.9917C157.924 23.5678 158.375 23.185 158.737 23.0961C159.099 23.0072 158.32 22.2073 157.466 22.8089C156.619 23.4106 156.878 25.1882 159.058 25.6463C161.238 26.1044 161.799 22.3919 160.22 21.168C158.642 19.9442 155.177 19.7254 153.215 23.0209C151.247 26.3164 154.869 28.5726 156.386 29.0512C156.824 29.188 157.097 29.3726 157.288 29.5709C155.963 29.27 151.876 28.6205 147.489 30.7879C142.151 33.427 139.336 40.3735 138.878 43.3614C138.42 46.3492 136.643 44.1545 135.659 42.411C134.969 41.1803 133.479 44.2092 135.427 46.9235C136.117 47.8807 140.081 51.1147 140.997 50.8959C141.912 50.6771 142.903 48.6191 143.696 45.098C144.311 42.37 143.867 40.5034 143.751 39.5121C146.901 36.3738 156.721 36.4559 158.642 32.0801C161.601 34.7124 169.125 33.9945 171.988 36.2166C171.988 37.1054 171.79 38.801 172.624 41.1461C173.703 44.175 174.797 45.8843 175.637 45.9868C176.485 46.0825 179.683 42.8076 180.202 41.8914C181.665 39.2864 180.011 36.7635 179.526 37.9258L179.512 37.919Z" fill="#885900"/>
<path d="M156.332 31.54C156.332 31.54 151.521 33.9535 152.32 34.5962C153.12 35.2458 156.352 31.8409 156.332 31.54Z" fill="#724600"/>
<path d="M154.671 30.7197C154.671 30.7197 149.313 31.253 149.833 32.1487C150.352 33.0375 154.582 31.0137 154.671 30.7197Z" fill="#724600"/>
<path d="M159.469 31.7588C159.469 31.7588 164.847 31.916 164.396 32.8391C163.938 33.7621 159.578 32.0391 159.469 31.7588Z" fill="#724600"/>
<path d="M160.63 30.3095C160.63 30.3095 165.715 28.5386 165.619 29.5642C165.523 30.5898 160.835 30.5351 160.63 30.3095Z" fill="#724600"/>
<path d="M217.905 82.1481C217.905 82.1481 201.135 81.7857 198.804 84.3907C196.474 86.9956 197.301 89.8467 205.577 91.891C213.852 93.9285 215.144 96.7522 227.459 98.8854C239.767 101.019 237.245 96.8137 249.122 97.812C260.999 98.8102 282.458 89.9766 285.478 88.3357C293.611 83.9121 281.091 82.1276 262.373 81.6353C243.662 81.1499 217.912 82.1412 217.912 82.1412L217.905 82.1481Z" fill="#FFE2D8"/>
<path d="M270.99 84.4247C270.99 84.4247 257.774 83.3034 239.404 83.2829C221.028 83.2623 207.032 85.546 206.752 87.9048C206.472 90.2636 225.839 91.7267 240.238 92.5335C254.637 93.3471 255.833 89.8944 262.373 88.6774C268.913 87.4603 277.838 87.9253 270.997 84.4178L270.99 84.4247Z" fill="#EDCCC3"/>
<path d="M235.167 88.3356C235.167 88.3356 240.839 89.4501 243.559 88.3356C246.279 87.2212 243.559 81.6694 243.559 81.6694L234.463 85.1974L235.167 88.3356Z" fill="#75B3EB"/>
<path d="M267.341 66.1216C267.341 66.1216 266.241 70.9623 268.858 75.2833C271.476 79.6044 271.209 80.8488 271.209 80.8488L267.43 83.2828C267.43 83.2828 260.617 79.2557 257.268 72.8972C253.919 66.5318 267.334 66.1284 267.334 66.1284L267.341 66.1216Z" fill="#75B3EB"/>
<path d="M271.113 80.5073C271.113 80.5073 272.59 81.5192 273.868 83.1396C275.145 84.7532 274.114 86.7565 273.307 87.7273C272.501 88.6982 272.426 85.4164 272.426 85.4164L270.99 84.425C270.99 84.425 271.517 86.4761 270.922 86.6266C270.328 86.7701 269.302 84.8352 269.302 84.8352C269.302 84.8352 267.334 83.9874 267.116 82.6747C266.897 81.362 271.113 80.5073 271.113 80.5073Z" fill="#FFB79E"/>
<path d="M267.437 54.6765C267.437 54.6765 267.013 69.0003 259.141 77.9775C251.275 86.941 235.844 85.7171 235.844 85.7171C235.844 85.7171 236.507 88.91 232.461 89.8946C228.422 90.8723 209.287 89.7784 208.194 89.0126C207.101 88.2468 208.959 86.0658 209.615 85.3C210.265 84.5343 211.358 82.1208 212.889 81.7994C214.42 81.4712 215.622 82.8387 215.622 82.8387L222.292 81.355C222.292 81.355 222.272 81.3413 222.265 81.3277C222.142 81.1636 221.541 80.3773 220.105 78.08C219.675 77.3895 219.272 76.3092 219.026 74.976C218.329 71.2634 218.821 65.5817 223.167 60.9051C229.078 54.5603 245.029 47.8735 245.029 47.8735L267.43 54.6697L267.437 54.6765Z" fill="#75B3EB"/>
<path d="M229.249 62.6076C229.543 63.5032 229.058 64.4673 228.169 64.7613C227.274 65.0553 226.311 64.5698 226.017 63.681C225.723 62.7853 226.208 61.8213 227.096 61.5273C227.992 61.2333 228.955 61.7187 229.249 62.6076Z" fill="#3B8AD2"/>
<path d="M236.985 71.2018C237.279 72.0975 236.794 73.0615 235.905 73.3555C235.01 73.6495 234.047 73.1641 233.753 72.2752C233.459 71.3796 233.944 70.4155 234.832 70.1215C235.728 69.8275 236.691 70.313 236.985 71.2018Z" fill="#3B8AD2"/>
<path d="M237.833 61.8009C238.126 62.6966 237.641 63.6606 236.753 63.9546C235.858 64.2486 234.894 63.7632 234.6 62.8743C234.306 61.9787 234.791 61.0146 235.68 60.7206C236.575 60.4267 237.539 60.9121 237.833 61.8009Z" fill="#3B8AD2"/>
<path d="M225.21 71.0172C225.504 71.9129 225.019 72.8769 224.131 73.1709C223.235 73.4649 222.272 72.9795 221.978 72.0907C221.684 71.195 222.169 70.231 223.058 69.937C223.953 69.643 224.916 70.1284 225.21 71.0172Z" fill="#3B8AD2"/>
<path d="M242.582 52.8097C242.876 53.7054 242.391 54.6694 241.502 54.9634C240.607 55.2574 239.643 54.772 239.35 53.8831C239.056 52.9875 239.541 52.0234 240.429 51.7294C241.325 51.4354 242.288 51.9209 242.582 52.8097Z" fill="#3B8AD2"/>
<path d="M240.409 77.6354C240.703 78.5311 240.218 79.4951 239.329 79.7891C238.441 80.0831 237.47 79.5976 237.176 78.7088C236.883 77.8132 237.368 76.8491 238.256 76.5551C239.151 76.2611 240.115 76.7466 240.409 77.6354Z" fill="#3B8AD2"/>
<path d="M230.042 85.6281C230.336 86.5237 229.851 87.4878 228.962 87.7818C228.067 88.0758 227.103 87.5903 226.809 86.7015C226.516 85.8058 227.001 84.8418 227.889 84.5478C228.784 84.2538 229.748 84.7392 230.042 85.6281Z" fill="#3B8AD2"/>
<path d="M218.575 85.8331C218.868 86.7288 218.383 87.6928 217.495 87.9868C216.6 88.2808 215.636 87.7954 215.342 86.9066C215.048 86.0109 215.534 85.0469 216.422 84.7529C217.317 84.4589 218.281 84.9443 218.575 85.8331Z" fill="#3B8AD2"/>
<path d="M271.947 56.8231C272.036 66.0874 266.986 78.0319 266.986 78.0319C257.924 74.7295 246.887 54.0951 244.174 48.8168C243.771 48.0305 243.559 47.5861 243.559 47.5861L243.935 46.6426L271.797 54.4506C271.886 55.2163 271.94 56.0163 271.947 56.8231Z" fill="#3B8AD2"/>
<path d="M264.895 57.664L265.804 60.9801C265.804 60.9801 263.104 61.1578 255.84 57.1239C251.049 54.4643 246.635 50.9226 244.174 48.81C243.771 48.0237 243.559 47.5793 243.559 47.5793L243.935 46.6357L271.797 54.4438C271.886 55.2095 271.94 56.0095 271.947 56.8162C268.189 58.252 264.895 57.6572 264.895 57.6572V57.664Z" fill="#75B3EB"/>
<path d="M266.507 75.4544L266.104 75.2698C259.072 72.0495 247.482 50.0203 246.99 49.0836L247.728 48.6938C247.844 48.9195 259.216 70.5317 266.043 74.2989C266.904 71.9128 270.922 60.3443 270.034 54.0815L270.861 53.9653C271.879 61.1511 266.877 74.4699 266.658 75.0373L266.501 75.4544H266.507Z" fill="white"/>
<path d="M280.9 47.8736C276.697 54.1159 267.047 57.6986 255.758 54.2664C244.468 50.8341 242.473 43.9628 242.473 43.9628C238.031 45.2277 234.648 39.252 236.165 35.43C237.675 31.6012 241.837 34.0216 241.837 34.0216C241.837 34.0216 241.113 28.3741 244.851 22.6856C245.521 21.6669 246.354 20.6413 247.338 19.6431C253.831 13.141 260.897 14.2554 260.897 14.2554C260.897 14.2554 268.564 11.8624 274.811 16.3544C275.925 17.1544 276.868 18.0569 277.66 18.973C281.33 23.2394 281.911 28.1963 281.911 28.1963C283.558 27.581 287.269 30.0355 286.872 33.6524C286.476 37.2829 284.2 38.2469 284.2 38.2469C284.2 38.2469 285.096 41.6177 280.893 47.86L280.9 47.8736Z" fill="#FFB79E"/>
<path d="M283.367 34.6367C283.367 34.6367 282.847 31.4711 283.763 31.0061C284.679 30.5412 285.471 31.9975 285.471 31.9975L284.214 32.0932C284.214 32.0932 285.191 32.9616 284.897 34.0829C284.604 35.2041 283.886 35.5802 283.367 34.6298V34.6367Z" fill="#E28D76"/>
<path d="M241.673 40.3594C241.673 40.3594 241.079 37.2075 240.06 37.0844C239.042 36.9545 238.796 38.6023 238.796 38.6023L240.013 38.2673C240.013 38.2673 239.391 39.4159 240.047 40.3731C240.71 41.3235 241.509 41.4329 241.673 40.3663V40.3594Z" fill="#E28D76"/>
<path d="M251.61 41.7064C250.687 43.2927 248.651 43.8328 247.058 42.9098C245.473 41.9868 244.933 39.9493 245.855 38.3562C246.778 36.77 248.815 36.2299 250.407 37.1529C251.992 38.0759 252.532 40.1134 251.61 41.7064Z" fill="#EF9D8F"/>
<path d="M282 39.2656C281.077 40.8518 279.041 41.3919 277.448 40.4689C275.863 39.5459 275.323 37.5084 276.246 35.9154C277.168 34.3223 279.205 33.789 280.797 34.712C282.383 35.6351 282.922 37.6725 282 39.2656Z" fill="#EF9D8F"/>
<path d="M284.638 22.4052C283.893 24.176 282.43 26.4596 281.658 23.6769C280.886 20.8941 277.401 14.6108 271.981 12.7101C266.555 10.8094 262.018 12.8263 262.018 12.8263C261.915 12.8947 261.826 12.9904 261.744 13.093C261.731 13.0519 261.717 13.0178 261.696 12.9767C261.204 11.8896 258.204 11.4247 257.364 9.65389C256.523 7.88307 258.614 4.00641 261.341 4.47133C264.068 4.93626 264.122 6.41308 263.473 7.43182C262.831 8.45055 262.059 7.89674 261.744 7.44549C261.43 6.99424 261.915 6.58401 262.305 6.48829C262.694 6.39257 261.854 5.53109 260.945 6.18062C260.036 6.83015 260.316 8.73771 262.653 9.22998C264.99 9.72226 265.599 5.72937 263.897 4.42347C262.195 3.11074 258.478 2.87828 256.366 6.41308C254.254 9.94788 258.143 12.3751 259.769 12.8947C260.234 13.0451 260.535 13.2434 260.74 13.4485C259.318 13.1272 254.924 12.4229 250.209 14.7544C244.468 17.585 241.448 25.058 240.956 28.2646C240.464 31.478 238.55 29.1124 237.498 27.239C236.76 25.9194 235.154 29.1739 237.252 32.0934C237.99 33.1258 242.247 36.5991 243.238 36.3598C244.222 36.1205 245.288 33.9121 246.136 30.1311C246.799 27.198 246.32 25.1947 246.197 24.1281C249.58 20.7574 260.125 20.8463 262.195 16.1492C265.373 18.9729 273.464 18.2003 276.54 20.5865C276.54 21.5368 276.321 23.3624 277.223 25.8853C278.378 29.1397 279.553 30.9789 280.462 31.0815C281.371 31.1909 284.809 27.6698 285.369 26.6784C286.941 23.8751 285.164 21.1676 284.645 22.4188L284.638 22.4052Z" fill="#885900"/>
<path d="M241.038 67.3867C242.008 73.4649 243.559 82.2643 248.206 88.3357L252.812 85.7376L250.605 64.1869C250.605 64.1869 250.571 64.1185 250.502 63.9955C247.701 59.0932 240.142 61.8007 241.031 67.3798L241.038 67.3867Z" fill="#75B3EB"/>
<path d="M235.844 85.717C235.844 85.717 232.024 78.5243 229.673 76.2817C229.673 76.2817 235.659 80.2815 237.641 85.717H235.844Z" fill="#75B3EB"/>
<path d="M225.743 81.362H222.299C222.299 81.362 222.279 81.3483 222.272 81.3346C222.149 81.1705 221.547 80.3843 220.112 78.087C219.682 77.3964 219.279 76.3162 219.033 74.9829C220.146 77.3896 225.743 81.362 225.743 81.362Z" fill="#75B3EB"/>
<path d="M252.717 84.7734C252.717 84.7734 253.906 85.6281 255.396 86.6605C256.885 87.6929 257.664 90.3115 257.077 90.7628C256.489 91.214 256.154 90.2568 256.154 90.2568C256.154 90.2568 256.352 91.3508 255.894 91.6653C255.437 91.9798 254.972 91.1593 254.972 91.1593C254.972 91.1593 255.177 92.2396 254.658 92.4584C254.138 92.6772 253.728 91.7131 253.728 91.7131C253.728 91.7131 253.612 92.8139 253.188 92.5473C252.765 92.2806 252.491 91.426 252.491 91.426C252.491 91.426 249.225 89.8261 248.302 88.7185C247.379 87.6108 252.71 84.7803 252.71 84.7803L252.717 84.7734Z" fill="#FFB79E"/>
<path d="M259.605 15.4038C259.605 15.4038 254.794 17.8173 255.594 18.46C256.393 19.1095 259.626 15.7046 259.605 15.4038Z" fill="#724600"/>
<path d="M257.945 14.5835C257.945 14.5835 252.587 15.1168 253.106 16.0125C253.626 16.9013 257.856 14.8775 257.945 14.5835Z" fill="#724600"/>
<path d="M262.742 15.6226C262.742 15.6226 268.12 15.7798 267.669 16.7028C267.218 17.6258 262.851 15.9029 262.742 15.6226Z" fill="#724600"/>
<path d="M263.904 14.1731C263.904 14.1731 268.988 12.3954 268.892 13.4278C268.797 14.4602 264.109 14.3987 263.904 14.1731Z" fill="#724600"/>
</g>
<defs>
<clipPath id="clip0_282_2704">
<rect width="288" height="100" fill="white"/>
</clipPath>
</defs>
</svg>
