<svg width="360" height="162" viewBox="0 0 360 162" fill="none" xmlns="http://www.w3.org/2000/svg">
<path d="M31.7998 102.065C31.7998 102.065 96.6957 99.2653 103.776 99.4985C110.856 99.7316 171.984 100.884 180 100.775L173.393 118.862C173.393 118.862 132.803 117.463 120.531 118.862C108.26 120.261 100.482 120.494 86.7849 118.862C73.0883 117.229 49.7344 118.862 40.0595 118.628C30.3845 118.395 20 118.395 20 118.395L31.7998 102.065Z" fill="#5184CE"/>
<path d="M161.002 111.035C160.868 110.84 160.367 110.982 159.889 110.943C159.297 110.848 158.711 110.718 158.134 110.555C156.823 109.902 153.878 109.02 153.878 109.02C153.613 108.89 150.34 108.048 149.812 107.339C149.245 106.597 147.337 73.5598 146.435 72.8623C145.179 71.8907 138.179 67.5304 137.955 67.5129C137.955 67.5129 110.361 61.3785 110.043 61.5767C109.724 61.7749 107.729 71.0979 107.729 71.0979L139.276 78.987C139.276 78.987 138.354 86.2037 138.621 87.8009C138.835 89.0756 142.159 101.208 143.5 106.076C143.449 106.704 143.349 107.327 143.199 107.939C142.904 108.967 142.464 109.02 142.489 110.854C142.489 111.272 142.776 111.61 143.126 111.87C143.441 112.096 143.798 112.258 144.177 112.344C144.556 112.431 144.949 112.441 145.332 112.374C146.435 112.197 148.28 111.923 148.762 111.999C149.464 112.107 153.568 112.515 154.462 112.515H159.846C160.495 112.578 161.077 111.861 161.043 111.217C161.046 111.154 161.031 111.091 161.002 111.035Z" fill="#FEE4E0"/>
<path d="M138.157 67.6178C138.157 67.6178 136.781 75.3417 134.865 77.9299C134.865 77.9299 109.588 72.7651 103.053 70.0253C96.5169 67.2855 109.476 51.3151 109.476 51.3151L138.157 67.6178Z" fill="#D95369"/>
<path d="M176.122 49.1582C176.122 52.3334 175.49 55.4776 174.26 58.4111C173.031 61.3447 171.23 64.0102 168.959 66.2554C166.687 68.5006 163.991 70.2815 161.023 71.4965C158.056 72.7114 154.875 73.3367 151.663 73.3364C141.919 73.3364 127.207 62.5133 127.207 49.1602C127.207 35.8071 137.965 26.3636 151.471 26.3636C164.977 26.3636 176.122 35.8091 176.122 49.1582Z" fill="#96D9C9"/>
<path d="M176.12 49.1583C176.149 44.9766 174.976 40.8727 172.737 37.3247C174.355 42.761 173.99 48.5865 171.706 53.784C169.422 58.9814 165.363 63.2206 160.239 65.7614C155.115 68.3021 149.251 68.983 143.671 67.685C138.091 66.3871 133.149 63.1929 129.709 58.6601C134.22 67.0913 143.924 73.0566 151.16 73.3248C151.329 73.3248 151.496 73.3345 151.663 73.3345C154.875 73.336 158.056 72.7117 161.024 71.4973C163.992 70.2829 166.689 68.5021 168.96 66.2569C171.231 64.0116 173.033 61.3458 174.261 58.4119C175.49 55.478 176.121 52.3336 176.12 49.1583Z" fill="#5ABFA8"/>
<path d="M151.142 23.8123C152.23 23.6978 153.331 23.8198 154.366 24.1698C155.264 24.471 156.174 24.7799 156.617 24.8091C156.849 24.8315 157.083 24.8217 157.312 24.7799C157.727 24.6819 158.164 24.725 158.551 24.9023C158.777 25.0059 159.016 25.0822 159.26 25.1297C160.737 25.4216 162.231 25.6266 163.732 25.7437C163.886 25.7573 164.037 25.7709 164.094 25.938C164.151 26.1051 164.025 26.212 163.917 26.315C163.787 26.4379 163.632 26.5329 163.463 26.5937C163.294 26.6546 163.114 26.6801 162.934 26.6686C162.657 26.6589 161.788 26.6259 161.511 26.6084C161.499 26.6473 162.423 26.8163 162.602 26.861C162.656 26.8675 162.706 26.8894 162.747 26.9239C162.789 26.9584 162.819 27.0041 162.834 27.0553C162.867 27.1797 162.785 27.2496 162.698 27.3235C162.496 27.4866 162.24 27.5697 161.979 27.5566C161.688 27.6083 161.394 27.6337 161.098 27.6324C160.796 27.5974 160.442 27.5625 160.222 27.5469C159.948 27.5294 159.154 27.3934 159.117 27.3818L158.873 27.3138L158.425 27.1933C157.877 27.0955 157.337 26.9611 156.807 26.7911C156.667 26.7708 156.525 26.7807 156.389 26.8199C156.253 26.8591 156.128 26.9268 156.021 27.0184C155.796 27.1875 155.594 27.3833 155.418 27.6013C155.099 27.9725 155.066 28.2173 155.29 28.6564C155.539 29.1136 155.662 29.6277 155.646 30.1468C155.628 30.5043 155.473 30.7142 155.17 30.7764C154.867 30.8386 154.698 30.72 154.531 30.3878C154.279 29.8864 154.026 29.389 153.745 28.9071C153.593 28.6432 153.386 28.4135 153.139 28.2328C152.799 27.987 152.497 27.6922 152.245 27.3584C152.104 27.1744 151.899 27.049 151.669 27.0067C151.276 26.9329 149.534 26.76 148.905 24.4399C148.854 24.3214 148.795 24.1892 148.736 24.0513L151.142 23.8123Z" fill="#FEE4E0"/>
<path d="M133.088 23.9949C136.264 24.3505 146.22 24.0629 150.667 23.8881H150.739L151.663 27.0281C143.645 29.0101 110.986 30.2148 110.986 30.2148L110.487 22.5123C110.487 22.5123 129.025 23.5383 133.088 23.9949Z" fill="#FEE4E0"/>
<path d="M121.795 23.1769L121.127 29.7602C121.127 29.7602 111.063 30.4577 107.552 30.9707C103.155 31.6139 101.795 21.8012 103.902 21.8828C117.534 22.4171 121.795 23.1769 121.795 23.1769Z" fill="#75B3EB"/>
<path d="M56.5178 104.784C55.2362 102.495 56.4058 101.714 56.4058 101.714L76.6166 86.0191L100.008 70.6938L93.073 61.2561L73.3124 79.3426C73.3124 79.3426 67.8891 81.4936 66.6999 82.5798C65.5107 83.666 52.7222 98.0003 52.7222 98.0003L49.7167 100.598C48.2208 101.624 47.8926 104.265 50.3064 105.505C52.7713 106.772 54.6446 111.645 57.0112 112.327C59.3779 113.009 62.2359 112.327 62.2359 112.327V111.439L59.6983 110.378C59.6983 110.378 58.2928 107.959 56.5178 104.784Z" fill="#FEE4E0"/>
<path d="M96.6447 50.8274C96.6474 51.6593 96.4262 52.4769 96.0037 53.1964C95.5812 53.9159 94.9727 54.5113 94.2407 54.9215C92.4814 55.8931 90.3094 57.5797 89.7433 60.0863C88.7604 64.4719 89.4229 63.821 88.7604 64.4719C85.979 67.1923 79.9464 70.9639 76.3965 76.5192L81.69 82.6906C81.69 82.6906 101.673 73.6415 105.315 69.833C105.832 69.2947 106.339 68.7526 106.829 68.2085C113.868 63.7802 121.394 60.6537 121.628 51.7076L112.167 52.7278L96.6447 50.8274Z" fill="#E2798A"/>
<path d="M103.458 13.5993C103.458 13.5993 103.261 18.1695 102.711 19.8619C102.16 21.5544 101.586 21.6399 105.107 22.456C106.483 22.7766 107.813 23.1944 107.813 23.1944C107.813 23.1944 107.66 20.6294 107.694 19.5549C107.751 17.7847 108.708 12.3829 108.708 12.3829L103.458 13.5993Z" fill="#FEE4E0"/>
<path d="M100.598 4.90577C99.1587 9.18062 104.704 12.8201 109.294 13.3117C112.277 13.6304 113.677 13.4399 114.42 10.3756C115.625 5.4071 113.775 2.16598 110.931 0.660072C107.253 -1.2947 101.777 1.38097 100.598 4.90577Z" fill="#2B3A42"/>
<path d="M107.589 2.52354C106.228 2.92308 105.051 3.78275 104.265 4.95243C103.019 6.87611 103.017 13.3622 107.326 15.8533C111.635 18.3444 114.098 13.6867 114.068 10.1017C114.039 6.51664 113.131 1.74629 107.589 2.52354Z" fill="#FEE4E0"/>
<path d="M102.264 9.69749C101.871 6.31453 102.349 3.81374 104.851 2.78972C107.354 1.7657 109.508 0.728078 111.474 3.09285L111.937 3.4018C111.937 3.4018 107.79 4.17905 107.387 6.27761C106.984 8.37617 104.617 10.7254 104.863 11.7941C105.109 12.8628 105.315 14.973 105.315 14.973L104.488 14.1822C104.488 14.1822 102.65 13.0804 102.264 9.69749Z" fill="#2B3A42"/>
<path d="M106.55 8.76479C106.809 9.71108 106.477 10.6146 105.812 10.7798C105.148 10.945 104.399 10.3134 104.14 9.36715C103.88 8.42085 104.212 7.51731 104.877 7.35214C105.541 7.18698 106.298 7.81849 106.55 8.76479Z" fill="#FEE4E0"/>
<path d="M108.926 12.7462L112.295 13.1543C112.295 13.1543 112.061 14.4096 110.573 14.2716C108.761 14.1045 108.926 12.7462 108.926 12.7462Z" fill="white"/>
<path d="M96.6446 21.4903C96.6446 21.4903 94.3763 24.4049 94.7714 28.9965C95.1665 33.5881 97.7198 47.8058 96.2436 52.7278C96.2436 52.7278 110.107 62.6862 121.634 51.7076C121.634 51.7076 122.188 44.3471 115.147 39.1609C118.334 33.7727 111.782 27.0534 109.693 24.3933C106.986 20.9442 100.784 19.9746 96.6427 21.4922L96.6446 21.4903Z" fill="#E2798A"/>
<path d="M51.7865 22.5162C50.6991 22.3969 49.5984 22.513 48.5609 22.8563C47.6606 23.1536 46.7485 23.4586 46.3063 23.4858C46.0739 23.506 45.8398 23.4949 45.6104 23.4528C45.1964 23.3513 44.7598 23.3917 44.3721 23.5674C44.1443 23.6686 43.9056 23.7436 43.6605 23.7909C42.1822 24.0725 40.6883 24.2671 39.1867 24.3738C39.0314 24.3874 38.882 24.3991 38.8231 24.5681C38.7641 24.7372 38.8899 24.8441 38.998 24.9568C39.1279 25.0805 39.2822 25.1763 39.4514 25.2381C39.6205 25.3 39.8008 25.3266 39.9808 25.3162C40.258 25.3162 41.1268 25.2774 41.4039 25.2618C41.4157 25.3007 40.4899 25.4659 40.313 25.5086C40.2591 25.5148 40.2081 25.5365 40.1665 25.571C40.1249 25.6056 40.0945 25.6514 40.0791 25.7029C40.0457 25.8273 40.1282 25.8972 40.2128 25.9711C40.4149 26.1352 40.6709 26.2202 40.9322 26.2101C41.2228 26.2617 41.5175 26.2877 41.8128 26.2878C42.1135 26.2567 42.4693 26.2217 42.6895 26.2101C42.9627 26.1926 43.7568 26.0604 43.7942 26.0488L44.0379 25.9827L44.4881 25.8661C45.0361 25.7724 45.5772 25.6426 46.1078 25.4775C46.2481 25.4573 46.3912 25.4676 46.527 25.5079C46.6629 25.5482 46.7881 25.6174 46.894 25.7107C47.1173 25.8799 47.3186 26.0757 47.4935 26.2936C47.81 26.6667 47.8434 26.9115 47.6154 27.3507C47.3644 27.8061 47.239 28.3187 47.2518 28.8372C47.2675 29.1966 47.4228 29.4065 47.7255 29.4706C48.0282 29.5347 48.1972 29.4181 48.3663 29.082C48.6199 28.5826 48.8773 28.0852 49.1683 27.6072C49.3226 27.343 49.5308 27.1134 49.7796 26.9329C50.1215 26.6897 50.4244 26.3969 50.6779 26.0643C50.8195 25.8817 51.0248 25.7578 51.2538 25.7165C51.6568 25.6446 53.3905 25.4814 54.0332 23.1633C54.0863 23.0467 54.1453 22.9145 54.2062 22.7746L51.7865 22.5162Z" fill="#FEE4E0"/>
<path d="M69.8391 22.796C66.6606 23.1361 56.7085 22.796 52.2622 22.6017H52.1895L51.246 25.7379C59.258 27.7568 91.9074 29.1442 91.9074 29.1442L92.4499 21.4436C92.4499 21.4436 73.906 22.3627 69.8391 22.796Z" fill="#FEE4E0"/>
<path d="M81.4344 22.0246L81.7077 28.6312C81.7077 28.6312 91.8288 29.3871 95.3375 29.9175C99.7307 30.584 102.905 21.8555 101.087 20.8024C97.6255 18.7913 81.4344 22.0246 81.4344 22.0246Z" fill="#75B3EB"/>
<path d="M107.784 22.6775C107.784 22.6775 109.429 25.4484 108.1 25.2871C106.772 25.1258 102.294 20.8587 102.294 20.8587L104.378 19.3042L106.204 21.2726C106.204 21.2726 106.99 20.9306 107.041 20.9967C107.092 21.0627 107.784 22.6775 107.784 22.6775Z" fill="#FEE4E0"/>
<path d="M105.345 10.772C105.812 10.772 106.624 16.2788 105.5 17.7867C104.376 19.2945 101.685 19.1876 98.6928 17.7867C95.7011 16.3857 92.3104 17.1474 91.1153 12.3809C89.9202 7.61446 98.0285 -0.111357 106.638 0.152907C106.638 0.152907 103.827 2.85383 104.051 3.21331C104.275 3.57279 102.929 5.93367 102.929 5.93367C102.929 5.93367 101.806 7.83015 102.294 8.31204C102.781 8.79393 103.833 10.774 103.833 10.774C103.833 10.774 103.243 11.3375 104.051 11.5648C104.859 11.7922 105.345 10.772 105.345 10.772Z" fill="#2B3A42"/>
<path opacity="0.3" d="M395.418 97.6852C379.313 81.9539 355.218 83.6864 334.268 83.6864H235.153C234.654 83.6354 234.176 83.5568 233.715 83.5291C181.542 80.487 132.403 82.8 104.614 83.5291C103.962 83.5461 103.279 83.6375 102.566 83.6864H38.2054C26.5305 83.5121 15.3848 83.3931 6.42551 83.5291C5.74277 83.5291 4.99005 83.595 4.16734 83.6864C-16.8969 84.1839 -33.3834 94.6452 -37.84 104.945C-42.8087 116.44 -41.2981 129.624 -10.4484 131.833C45.9631 135.872 56.945 130.793 73.4605 144.867C86.8969 156.316 118.622 164.159 169.466 161.47C244.798 157.484 267.363 139.888 290.917 143.755C401.562 161.918 407.867 109.841 395.418 97.6852Z" fill="#E1EEFA"/>
</svg>
